<svg width="149" height="40" xmlns="http://www.w3.org/2000/svg"><defs><linearGradient x1="50%" y1="100%" x2="50%" y2="3.154%" id="a"><stop stop-color="#2270ED" offset="0%"/><stop stop-color="#2BCBF9" offset="100%"/></linearGradient></defs><g fill="none" fill-rule="evenodd"><rect fill="#103362" width="40" height="40" rx="14"/><g fill="#062958"><path d="M16.723 22.555l7.229-12.26a2.013 2.013 0 0 0 .21-1.566 2.057 2.057 0 0 0-.982-1.253c-1.006-.569-2.298-.23-2.88.756l-.324.55-.324-.55c-.581-.986-1.873-1.325-2.88-.756a2.043 2.043 0 0 0-.771 2.82l1.541 2.613-5.687 9.646H7.708c-1.162 0-2.108.925-2.108 2.063 0 1.139.946 2.064 2.108 2.064h16.009l-2.434-4.127h-4.56z"/><path d="M32.268 22.916h-4.193l-4.767-8.092-2.46 4.178 7.4 12.564c.285.483.745.83 1.295.974a2.152 2.152 0 0 0 1.618-.209 2.069 2.069 0 0 0 .78-2.854l-1.404-2.383h1.731c1.176 0 2.132-.937 2.132-2.09 0-1.151-.956-2.088-2.132-2.088M8.442 29.16c-.62 1.1-.25 2.51.822 3.144a2.19 2.19 0 0 0 1.12.308c.776 0 1.532-.413 1.948-1.15l1.739-3.086H8.883l-.441.784z"/></g><text font-family="SFProDisplay-Medium, SF Pro Display" font-size="24" font-weight="400" fill="#264C7F"><tspan x="46" y="28">App Store</tspan></text><rect fill="url(#a)" width="40" height="40" rx="14"/><g fill="#FFF"><path d="M16.723 22.555l7.229-12.26a2.013 2.013 0 0 0 .21-1.566 2.057 2.057 0 0 0-.982-1.253c-1.006-.569-2.298-.23-2.88.756l-.324.55-.324-.55c-.581-.986-1.873-1.325-2.88-.756a2.043 2.043 0 0 0-.771 2.82l1.541 2.613-5.687 9.646H7.708c-1.162 0-2.108.925-2.108 2.063 0 1.139.946 2.064 2.108 2.064h16.009l-2.434-4.127h-4.56z"/><path d="M32.268 22.916h-4.193l-4.767-8.092-2.46 4.178 7.4 12.564c.285.483.745.83 1.295.974a2.152 2.152 0 0 0 1.618-.209 2.069 2.069 0 0 0 .78-2.854l-1.404-2.383h1.731c1.176 0 2.132-.937 2.132-2.09 0-1.151-.956-2.088-2.132-2.088M8.442 29.16c-.62 1.1-.25 2.51.822 3.144a2.19 2.19 0 0 0 1.12.308c.776 0 1.532-.413 1.948-1.15l1.739-3.086H8.883l-.441.784z"/></g><text font-family="SFProDisplay-Medium, SF Pro Display" font-size="24" font-weight="400" fill="#FFF"><tspan x="46" y="28">App Store</tspan></text></g></svg>