<svg width="42" height="42" xmlns="http://www.w3.org/2000/svg" xmlns:xlink="http://www.w3.org/1999/xlink"><defs><path id="a" d="M0 .468h41.522v40.675H0z"/></defs><g fill="none" fill-rule="evenodd"><g transform="translate(0 .39)"><mask id="b" fill="#fff"><use xlink:href="#a"/></mask><path d="M20.761.468c11.466 0 20.761 9.105 20.761 20.337s-9.295 20.338-20.76 20.338C9.294 41.143 0 32.037 0 20.805 0 9.573 9.295.468 20.761.468" fill="#FFB900" mask="url(#b)"/></g><path d="M25.413 18.255c-.642 2.52-4.609 1.241-5.895.927l1.135-4.458c1.287.314 5.429.9 4.76 3.531zm-.705 7.19c-.706 2.774-5.468 1.274-7.012.897l1.25-4.91c1.544.377 6.497 1.124 5.762 4.013zm5.206-7.149c.413-2.709-1.69-4.164-4.568-5.137l.932-3.665-2.277-.555-.909 3.57a87.365 87.365 0 0 0-1.827-.42l.915-3.595-2.278-.555-.933 3.664c-.495-.11-.983-.218-1.454-.333l.003-.012-3.145-.768-.606 2.382s1.693.38 1.657.405c.924.225 1.09.825 1.062 1.3l-1.063 4.176c.063.016.144.039.237.074l-.242-.058-1.489 5.853c-.114.274-.402.688-1.044.53.02.03-1.657-.405-1.657-.405l-1.133 2.554 2.968.725c.548.134 1.091.274 1.622.41l-.944 3.708 2.279.558.933-3.67c.621.163 1.226.318 1.817.462l-.93 3.652 2.278.556L21.06 30c3.886.72 6.81.43 8.04-3.014.988-2.773-.05-4.37-2.096-5.414 1.49-.337 2.61-1.295 2.91-3.276z" fill="#FFF"/></g></svg>