<svg width="119" height="15" xmlns="http://www.w3.org/2000/svg"><g fill="#062958" fill-rule="evenodd"><path d="M20.673 4.426h5.45v8.965h2.495V4.426h5.47v-2.08H20.674zm-4.601 8.964h2.472V2.347h-2.472zM8.22 11.542H2.471V8.47h5.747c1.442 0 2.175.692 2.175 1.593 0 .855-.71 1.479-2.175 1.479zM2.471 4.218h5.564c1.51 0 2.106.532 2.106 1.271 0 .67-.686 1.317-2.106 1.317H2.472V4.218zm7.03 3.373c2.426-.07 3.295-1.294 3.295-2.61 0-1.456-1.144-2.657-3.915-2.657H0v11.042h9.157c2.29 0 3.984-.97 3.984-3.025 0-1.434-.961-2.68-3.64-2.75zm26.694 5.799h2.495V9.07h5.815V7.268H38.69V4.241h9.455V2.347h-11.95zm36.653 0h12.157v-1.849h-9.661v-3.05h5.791V6.784h-5.791V4.24h9.66V2.347H72.849zm-22.688 0h2.473V2.347H50.16zm45.605-5.614l5.861-5.429h-3.274l-4.19 3.881-4.144-3.88H86.7l5.837 5.45-6.067 5.592h3.274l4.396-4.066 4.373 4.066h3.343zm-28.709 2.542l-7.899-7.971H56V13.39h2.472V5.026l8.218 8.364h2.816V2.347h-2.449zm50.962-8.156c-.756.624-1.306 1.433-1.97 2.126-2.449 2.518-5.127 4.712-8.47 5.845-.55.184-1.145.3-1.695.439-.503.138-.686-.046-.663-.601.045-2.564.985-4.713 3.09-6.168 3.022-2.126 6.411-3.027 10.074-2.842.183 0 .367 0 .367.254-.482.162-.46.67-.733.947"/><path d="M118.018 2.162c.274-.277.228-.808.686-.947.436 2.288.16 4.527-.39 6.747-.456 1.755-1.19 3.395-2.54 4.596-2.633 2.357-6.456 3.188-9.364.878-.205-.162-.39-.346-.663-.578.617-.161 1.099-.277 1.602-.415 3.068-.947 5.448-2.957 7.509-5.382a26.533 26.533 0 0 0 2.839-4.09c.138-.254.343-.485.32-.809"/></g></svg>