<svg width="120" height="27" xmlns="http://www.w3.org/2000/svg"><g fill="#062958" fill-rule="evenodd"><path d="M.064 26.923h103.844v-2.596H.064zm111.149 0H120v-2.596h-8.787z"/><path d="M114.602 16.863c-2.08 1.511-4.84.348-5.182-2.193-.067-.493-.064-.993-.087-1.49-.001-.025-.001-.05-.003-.073v-.02c-.108-2.043 1.156-3.654 1.156-3.654 1.332-1.193 3.566-.927 4.722.406 1.629 1.876 1.338 5.611-.606 7.024m4.856-6.853a6.144 6.144 0 0 0-9.31-3.133c-.362.246-.666.574-1.022.884-.529-1.604-.529-1.604-2.184-1.603-.192 0-.386.008-.578 0-.452-.023-.644.163-.643.637.01 6.506.01 13.012 0 19.517-.001.439.151.608.585.596.724-.019 1.45-.045 2.17.008.683.051.922-.161.909-.876-.044-2.12-.019-4.24-.014-6.36 0-.283.03-.565.05-.902.74.456 1.33.945 2.01 1.215 2.912 1.159 6.263-.137 7.654-2.97 1.114-2.267 1.176-4.633.373-7.013M13.277 14.557c-.057 1.342-.987 2.532-2.326 2.64-1.651.136-3.322.08-4.982.063-.134-.001-.369-.335-.38-.523-.043-.768-.018-1.541-.018-2.312.001-.772-.026-1.545.018-2.314.012-.19.257-.53.393-.528 1.728.004 3.471-.064 5.182.136 1.394.165 2.174 1.4 2.113 2.838M5.595 4.133c.002-.138.281-.385.434-.388 1.371-.028 2.745-.063 4.113.005 1.36.066 2.465 1.169 2.551 2.407.1 1.437-.748 2.634-2.309 2.805C8.823 9.135 7.229 9 5.574 9c0-1.654-.01-3.26.02-4.867m8.992 6.405c-.221-.115-.419-.276-.673-.445.223-.18.358-.315.517-.414 2.422-1.5 2.472-5.27.449-7.095-1.372-1.238-3.023-1.62-4.798-1.63a837.39 837.39 0 0 0-8.387 0C-.206.964.07.696.02 2.587c-.015.578.1.895.752 1.045 1.188.274 2.078 1.467 2.113 2.63.033 1.136-.818 2.44-1.99 2.711-.784.181-.964.538-.87 1.225a1.78 1.78 0 0 1 0 .505c-.079.517.168.74.652.825 1.375.24 2.136 1.515 2.231 2.84.092 1.29-.602 2.544-1.895 2.911-.986.282-1.08.805-.986 1.599a1.11 1.11 0 0 1 0 .288c-.086.64.144.879.83.873 3.446-.033 6.895.008 10.34-.026 1.83-.016 3.411-.676 4.673-2.058 1.957-2.143 1.283-6.092-1.285-7.417m87.6-.233c-.03-1.598-.804-2.876-2.187-3.683-2.472-1.442-5.447-.977-7.442 1.105-.147.154-.22.377-.403.704-1.18-1.8-2.619-2.604-4.492-2.63-1.846-.023-3.342.719-4.59 2.047-.088-.114-.142-.163-.17-.224-.196-.47-.265-1.133-.616-1.362-.38-.245-1.023-.088-1.551-.104-.144-.003-.29.01-.435-.001-.472-.038-.631.187-.63.644.009 4.216.01 8.432-.002 12.648-.001.451.179.59.6.577.723-.018 1.45-.043 2.168.008.674.047.861-.198.85-.862-.037-2.36-.03-4.72-.008-7.081.012-1.283.474-2.333 1.683-2.96 2.039-1.06 4.137.146 4.166 2.444.034 2.553.023 5.107-.001 7.661-.006.59.182.83.788.796.672-.039 1.35-.044 2.022 0 .655.045.884-.171.873-.852-.037-2.433-.022-4.866-.01-7.3.004-1.08.434-2.01 1.344-2.576 1.956-1.214 4.596-.343 4.497 2.583-.081 2.406.012 4.817-.033 7.227-.014.75.236.978.953.921.694-.055 1.397-.021 2.096-.01.383.006.57-.122.568-.542-.015-3.059.021-6.12-.038-9.178m-29.896 4.439c-.173 1.962-1.595 3.258-3.422 3.119-1.597-.123-2.602-1.462-2.085-2.798.302-.785.963-1.176 1.721-1.387.505-.141 1.036-.183 1.49-.257.528.064.983.104 1.433.178.816.134.936.305.863 1.145m5.017 2.971c-1.542-.14-1.597-.204-1.597-1.732 0-1.59.012-3.18-.004-4.768-.028-3.017-1.775-4.814-4.528-5.292-2.464-.428-4.867.132-7.294 1.056.26.68.531 1.271.712 1.89.15.51.381.522.848.401 1.201-.31 2.413-.622 3.64-.784 1.508-.197 2.837.696 3.138 1.946.256 1.059.088 1.235-.993 1.092-2.008-.267-4-.21-5.838.734-2.803 1.436-3.079 5.244-.55 7.122 1.607 1.193 3.398 1.28 5.214.703.915-.291 1.744-.85 2.693-1.328.032.047.103.144.172.243 1.023 1.47 2.5 1.549 4.07 1.312.3-.045.64-.093.573-.561-.1-.682-.175-1.368-.256-2.034M45.88 11.936c-1.014-.283-2.053-.524-3.012-.943-.933-.408-.961-1.574-.06-2.06.523-.284 1.198-.474 1.778-.421 1.043.093 2.081.348 3.09.642.49.143.738.072.88-.299a1.04 1.04 0 0 0 .035-.108l.743-2.247c-2.844-1.012-5.427-.784-5.427-.784-1.527.094-2.457.386-3.54 1.088-2.144 1.407-2.412 4.695-.404 6.09.804.556 1.796.857 2.727 1.209.738.28 1.538.403 2.264.709.53.224 1.102.519 1.075 1.282-.028.766-.482 1.172-1.13 1.42-.221.085-.473.182-.694.151-1.275-.17-2.571-.282-3.81-.603-1.163-.302-1.135-.405-1.434.748-.06.233-.102.477-.207.69-.309.629-.069.925.558 1.074.7.166 1.383.42 2.088.556 1.96.38 3.914.5 5.795-.39 2.61-1.235 3.015-4.203 1.724-6.005-.737-1.031-1.858-1.471-3.038-1.799m-10.844 5.548c-1.666.16-2.477-.578-2.478-2.267v-4.555c0-1.774 0-1.774 1.8-1.774 2.157 0 2.147 0 2.028-2.185-.02-.407-.162-.554-.557-.548-.867.014-1.736-.014-2.603.007-.491.013-.692-.16-.675-.67.03-.914-.015-1.832.015-2.747.017-.544-.204-.723-.727-.703-.746.028-1.495.034-2.24-.003-.534-.026-.727.15-.71.696.035 1.104.011 2.21.011 3.35-.255.029-.441.063-.629.069-1.99.065-1.975.064-1.929 2.084.012.515.197.678.684.654.596-.027 1.194-.005 1.873-.005v.877c0 2.074-.031 4.147.011 6.218.037 1.834.836 3.227 2.57 3.996 1.243.552 2.538.502 3.834.297 1.454-.23 1.45-.254 1.176-1.693-.231-1.216-.231-1.216-1.454-1.098m24.661-.014c-1.701.184-2.543-.567-2.547-2.283-.004-1.446-.001-2.893-.001-4.338 0-1.962 0-1.962 1.975-1.962 2.078 0 2.068.001 1.918-2.107-.031-.46-.208-.64-.666-.627-.843.02-1.689-.023-2.531.014-.552.023-.716-.202-.703-.717.026-.94-.008-1.88.011-2.82.01-.436-.155-.6-.592-.587-.795.023-1.59.02-2.386.001-.474-.013-.637.195-.63.65.02.916-.029 1.834.017 2.747.03.595-.205.766-.753.723a6.64 6.64 0 0 0-1.3.014c-.19.023-.506.22-.51.344-.025.739-.095 1.518.126 2.193.065.204 1.008.124 1.55.171.095.009.193.01.288.001.433-.043.601.139.593.58-.021 1.133-.007 2.266-.007 3.4.001 1.084-.022 2.168.008 3.253.033 1.252.44 2.345 1.44 3.18 1.471 1.232 3.177 1.244 4.932.97 1.368-.215 1.363-.239 1.223-1.604-.14-1.34-.14-1.34-1.455-1.197m-35.903-4.304c0-2.094-.018-4.189.012-6.282.009-.576-.184-.763-.744-.735-.745.038-1.492.032-2.238.004-.513-.019-.682.214-.674.69.013.89 0 1.78 0 2.67 0 3.226.012 6.453-.008 9.678-.003.606.168.887.821.843a17.883 17.883 0 0 1 2.095 0c.55.026.758-.146.75-.73-.033-2.045-.014-4.092-.014-6.138M22.033 0c-1.37.005-2.188.831-2.185 2.206.003 1.268.873 2.144 2.116 2.136 1.306-.009 2.191-.87 2.203-2.144C24.18.892 23.31-.005 22.033 0"/></g></svg>