<svg width="171" height="59" xmlns="http://www.w3.org/2000/svg"><g fill="none" fill-rule="evenodd"><path d="M56.168 17.939a.83.83 0 0 0-.882-.412l-24.263 4.63c-.004 0-.008.003-.013.004a.837.837 0 0 0-.332.15l-.02.016a.804.804 0 0 0-.097.09L14.35 40.443a.831.831 0 0 0 .776 1.372l23.914-4.652.006-.002a.82.82 0 0 0 .176-.057c.016-.007.029-.017.043-.025a.813.813 0 0 0 .115-.07c.019-.014.035-.03.052-.046.02-.018.043-.033.061-.053l16.562-18.004a.831.831 0 0 0 .114-.967" fill="#FFF"/><path d="M50.463 29.5c0-8.35-6.768-15.12-15.117-15.12-8.35 0-15.118 6.77-15.118 15.12s6.768 15.12 15.118 15.12c8.349 0 15.117-6.77 15.117-15.12" fill="#FFB900"/><path d="M8.707 29.5c0-6.673 2.662-13.35 7.303-18.32 4.982-5.334 11.83-8.272 19.285-8.272 6.21 0 11.93 2.142 16.461 5.725l-.008.007c1.622 1.306 3.13 2.755 4.403 4.404l.008-.008A26.464 26.464 0 0 1 61.882 29.5c0 14.663-11.927 26.592-26.587 26.592S8.707 44.162 8.707 29.5zm49.52 18.531A29.362 29.362 0 0 0 64.79 29.5a29.36 29.36 0 0 0-6.564-18.531l1.005-1.005a3.114 3.114 0 0 0-4.403-4.403l-1.005 1.004A29.351 29.351 0 0 0 35.295 0C28.11 0 21.428 2.467 16.166 7.004L14.723 5.56a3.113 3.113 0 1 0-4.403 4.403l1.587 1.587C7.998 16.719 5.799 23.108 5.799 29.5a29.36 29.36 0 0 0 6.565 18.531l-2.044 2.044a3.115 3.115 0 0 0 4.403 4.403l2.044-2.043A29.351 29.351 0 0 0 35.295 59c7.013 0 13.46-2.462 18.528-6.565l1.524 1.524a3.113 3.113 0 1 0 4.403-4.404l-1.524-1.524z" fill="#FFF"/><path d="M38.208 35.777h-6.51a1.05 1.05 0 0 1-1.049-1.049v-4.397h7.56a2.726 2.726 0 0 1 2.722 2.723 2.726 2.726 0 0 1-2.723 2.723zM30.65 24.272c0-.578.47-1.049 1.049-1.049h6.51a2.726 2.726 0 0 1 2.723 2.723 2.726 2.726 0 0 1-2.723 2.723H30.65v-4.397zM40.766 29.5a4.378 4.378 0 0 0 1.827-3.554 4.39 4.39 0 0 0-4.385-4.385h-.119v-2.624a.831.831 0 1 0-1.661 0v2.624H33.91v-2.624a.831.831 0 1 0-1.661 0v2.624h-.552a2.714 2.714 0 0 0-2.71 2.711v10.456a2.714 2.714 0 0 0 2.71 2.71h.552v2.625a.831.831 0 1 0 1.661 0V37.44h2.517v2.624a.831.831 0 1 0 1.661 0V37.44h.12a4.39 4.39 0 0 0 4.384-4.385 4.378 4.378 0 0 0-1.827-3.554z" fill="#003972"/><path d="M37.51 9.17a2.05 2.05 0 1 0-4.1-.001 2.05 2.05 0 0 0 4.1 0M16.756 29.415a2.05 2.05 0 1 0-4.1 0 2.05 2.05 0 0 0 4.1 0m40.484 0a2.05 2.05 0 1 0-4.1 0 2.05 2.05 0 0 0 4.1 0M37.51 49.66a2.05 2.05 0 1 0-4.1 0 2.05 2.05 0 0 0 4.1 0m27.934-2.861a1.039 1.039 0 0 1-.902-1.552 32.919 32.919 0 0 0 3.277-8.129 1.039 1.039 0 1 1 2.012.514 35 35 0 0 1-3.483 8.641 1.038 1.038 0 0 1-.904.526" fill="#FFF"/><path d="M1.04 26.91a1.039 1.039 0 0 1-1.035-1.14 34.82 34.82 0 0 1 4.476-14.018 1.038 1.038 0 1 1 1.802 1.033 32.756 32.756 0 0 0-4.21 13.187 1.039 1.039 0 0 1-1.033.937" fill="#FFB900"/><path d="M88.64 18.68c2.48 0 4.6.16 6.32.44.4.08.6.32.6.72v2.44c0 .4-.2.6-.64.6h-6.28c-2.08 0-3.4.44-4 1.36-.56.88-.84 2.76-.84 5.68s.28 4.8.84 5.72c.6.92 1.92 1.36 4 1.36h6.28c.44 0 .64.2.64.6v2.44c0 .4-.2.64-.6.72-1.72.28-3.84.44-6.32.44-4.04 0-6.64-.72-7.88-2.2-1.24-1.48-1.84-4.48-1.84-9.08 0-4.76.36-7.16 1.8-8.96 1.48-1.8 3.76-2.28 7.92-2.28zm18.901 0c6.84 0 9.36 2.08 9.36 6.56v13.92c0 .6-.28.96-.8 1.16-2.04.6-5.04.88-9 .88-3.08 0-5.24-.44-6.52-1.28-1.28-.88-1.92-2.68-1.92-5.4 0-4.84 2.36-6.36 7.6-6.36h5.8v-2.08c0-2.24-1.32-3.2-4.52-3.2h-6.56c-.48 0-.6-.12-.6-.6v-2.44c0-.48.12-.52.56-.64 1.88-.36 4.08-.52 6.6-.52zm4.52 18.04v-5.08h-5.52c-2.2 0-3.08.72-3.08 2.68 0 2.24 1 2.84 4.04 2.84 1.92 0 3.44-.16 4.56-.44zm10.861-26.32h3.64c.4 0 .6.2.6.6v29.4c0 .4-.2.6-.6.6h-3.64c-.4 0-.6-.2-.6-.6V11c0-.4.2-.6.6-.6zm10.461 0h3.64c.4 0 .6.2.6.6v29.4c0 .4-.2.6-.6.6h-3.64c-.4 0-.6-.2-.6-.6V11c0-.4.2-.6.6-.6zm12.301-.6c1.92 0 2.88.92 2.88 2.76 0 1.84-.96 2.76-2.88 2.76-1.88 0-2.92-1-2.92-2.76 0-1.76 1.04-2.76 2.92-2.76zm-1.84 9.08h3.64c.4 0 .6.2.6.6V40.4c0 .4-.2.6-.6.6h-3.64c-.4 0-.6-.2-.6-.6V19.48c0-.4.2-.6.6-.6zm17.461-.2c6.84 0 9.36 2.08 9.36 6.56v13.92c0 .6-.28.96-.8 1.16-2.04.6-5.04.88-9 .88-3.08 0-5.24-.44-6.52-1.28-1.28-.88-1.92-2.68-1.92-5.4 0-4.84 2.36-6.36 7.6-6.36h5.8v-2.08c0-2.24-1.32-3.2-4.52-3.2h-6.56c-.48 0-.6-.12-.6-.6v-2.44c0-.48.12-.52.56-.64 1.88-.36 4.08-.52 6.6-.52zm4.52 18.04v-5.08h-5.52c-2.2 0-3.08.72-3.08 2.68 0 2.24 1 2.84 4.04 2.84 1.92 0 3.44-.16 4.56-.44z" fill="#FFF"/></g></svg>