<svg width="835" height="390" xmlns="http://www.w3.org/2000/svg" xmlns:xlink="http://www.w3.org/1999/xlink"><defs><path d="M155.483 10.11l-20.852 19.746c-10.108 9.572-25.974 9.449-35.932-.278l-1.889-1.847C82.231 13.49 59.094 13.017 43.945 26.65L.622 65.639h280.15L201.677 7.278A35.952 35.952 0 0 0 180.28.236a36 36 0 0 0-24.797 9.874z" id="a"/><path d="M8.989 7.478L.928 13.89v34.749h73.395L54.845 15.876C49.004 6.052 38.694.746 28.212.746A30.742 30.742 0 0 0 8.989 7.478z" id="c"/><path d="M218.211 8.628l-48.596 54.871c-13.527 15.274-36.702 17.146-52.508 4.244L95.176 49.839a34.39 34.39 0 0 0-35.836-4.728l-15.021 6.746a64.252 64.252 0 0 0-27.347 23.289L.85 99.639h252.254V8.07C248.431 3.122 242.17.66 235.916.66c-6.508.001-13.009 2.666-17.705 7.968z" id="e"/><path d="M.323.639v35.195l5.339-2.03a24.765 24.765 0 0 1 23.607 3.301L62.73 62.077a35.243 35.243 0 0 0 39.572 1.753l11.542-7.117V.639H.323z" id="g"/><path d="M.772.639V48.66l13.764-14.913c9.234-10.005 24.715-10.957 35.106-2.159L70.75 49.46c2.409 2.038 6.1.327 6.1-2.827V.639H.772z" id="i"/><path d="M3.388 3.742l-2.46.95v23.947h73.395L58.115 13.93A52.999 52.999 0 0 0 3.388 3.742z" id="k"/><path d="M.83.639v20.953l2.654-1.054a43.207 43.207 0 0 1 33.276 2.62l23.1 11.884a56.064 56.064 0 0 0 45.403 2.614l10.581-3.984V.639H.83z" id="m"/><path d="M154.891 7.398l-17.646 10.629a36.729 36.729 0 0 1-36.05 1.046l-5.733-3.015a48.499 48.499 0 0 0-44.084-.541L.622 40.639h280.15l-31.197-8.146a72.036 72.036 0 0 1-22.614-10.34L207.82 8.992A48.853 48.853 0 0 0 180.116.388a48.868 48.868 0 0 0-25.225 7.01z" id="o"/><path d="M.772.638v25.829c2.524.357 5.3-.168 8.055-1.856l6.169-4.432a36.194 36.194 0 0 1 37.013-.206l9.12 5.908c5.046 3.269 10.759 3.676 15.721 2.008V.638H.772z" id="q"/><path d="M206.068 8.864l-57.155 33.063a20.472 20.472 0 0 1-22.638-1.422l-19.807-15.053a47.031 47.031 0 0 0-41.485-7.745L46.17 23.131a76.072 76.072 0 0 0-31.875 18.474L.85 54.638l280.15.001V27.852a19.331 19.331 0 0 0-9.869-16.858l-4.483-2.518a61.135 61.135 0 0 0-29.95-7.833 61.138 61.138 0 0 0-30.63 8.221z" id="s"/><path d="M206.068 8.864l-57.155 33.063a20.472 20.472 0 0 1-22.638-1.422l-19.807-15.053a47.031 47.031 0 0 0-41.485-7.745L46.17 23.131a76.072 76.072 0 0 0-31.875 18.474L.85 54.638l280.15.001V27.852a19.331 19.331 0 0 0-9.869-16.858l-4.483-2.518a61.135 61.135 0 0 0-29.95-7.833 61.138 61.138 0 0 0-30.63 8.221z" id="u"/><path id="x" d="M86.5 0v16.5H81v67h5.5V100h1V83.5H93v-67h-5.5V0z"/><filter x="-133.3%" y="-14%" width="366.7%" height="132%" filterUnits="objectBoundingBox" id="w"><feOffset dy="2" in="SourceAlpha" result="shadowOffsetOuter1"/><feGaussianBlur stdDeviation="5" in="shadowOffsetOuter1" result="shadowBlurOuter1"/><feComposite in="shadowBlurOuter1" in2="SourceAlpha" operator="out" result="shadowBlurOuter1"/><feColorMatrix values="0 0 0 0 0.529411765 0 0 0 0 0.607843137 0 0 0 0 0.729411765 0 0 0 0.6 0" in="shadowBlurOuter1"/></filter><path id="z" d="M513.5 39v16.5H508v67h5.5V139h1v-16.5h5.5v-67h-5.5V39z"/><filter x="-133.3%" y="-14%" width="366.7%" height="132%" filterUnits="objectBoundingBox" id="y"><feOffset dy="2" in="SourceAlpha" result="shadowOffsetOuter1"/><feGaussianBlur stdDeviation="5" in="shadowOffsetOuter1" result="shadowBlurOuter1"/><feComposite in="shadowBlurOuter1" in2="SourceAlpha" operator="out" result="shadowBlurOuter1"/><feColorMatrix values="0 0 0 0 0.529411765 0 0 0 0 0.607843137 0 0 0 0 0.729411765 0 0 0 0.6 0" in="shadowBlurOuter1"/></filter><path id="B" d="M32.5 7v13.2H27v53.6h5.5V87h1V73.8H39V20.2h-5.5V7z"/><filter x="-133.3%" y="-17.5%" width="366.7%" height="140%" filterUnits="objectBoundingBox" id="A"><feOffset dy="2" in="SourceAlpha" result="shadowOffsetOuter1"/><feGaussianBlur stdDeviation="5" in="shadowOffsetOuter1" result="shadowBlurOuter1"/><feComposite in="shadowBlurOuter1" in2="SourceAlpha" operator="out" result="shadowBlurOuter1"/><feColorMatrix values="0 0 0 0 0.529411765 0 0 0 0 0.607843137 0 0 0 0 0.729411765 0 0 0 0.6 0" in="shadowBlurOuter1"/></filter><path id="D" d="M113.5 40v18.023H108v43.954h5.5V120h1v-18.023h5.5V58.023h-5.5V40z"/><filter x="-133.3%" y="-17.5%" width="366.7%" height="140%" filterUnits="objectBoundingBox" id="C"><feOffset dy="2" in="SourceAlpha" result="shadowOffsetOuter1"/><feGaussianBlur stdDeviation="5" in="shadowOffsetOuter1" result="shadowBlurOuter1"/><feComposite in="shadowBlurOuter1" in2="SourceAlpha" operator="out" result="shadowBlurOuter1"/><feColorMatrix values="0 0 0 0 0.529411765 0 0 0 0 0.607843137 0 0 0 0 0.729411765 0 0 0 0.6 0" in="shadowBlurOuter1"/></filter><path id="F" d="M5.5 35v12.035H0v29.93h5.5V89h1V76.966H12V47.035H6.5V35z"/><filter x="-133.3%" y="-25.9%" width="366.7%" height="159.3%" filterUnits="objectBoundingBox" id="E"><feOffset dy="2" in="SourceAlpha" result="shadowOffsetOuter1"/><feGaussianBlur stdDeviation="5" in="shadowOffsetOuter1" result="shadowBlurOuter1"/><feComposite in="shadowBlurOuter1" in2="SourceAlpha" operator="out" result="shadowBlurOuter1"/><feColorMatrix values="0 0 0 0 0.529411765 0 0 0 0 0.607843137 0 0 0 0 0.729411765 0 0 0 0.6 0" in="shadowBlurOuter1"/></filter><path id="H" d="M486.5 68v12.034H481v29.931h5.5V122h1v-12.034h5.5V80.035h-5.5V68z"/><filter x="-133.3%" y="-25.9%" width="366.7%" height="159.3%" filterUnits="objectBoundingBox" id="G"><feOffset dy="2" in="SourceAlpha" result="shadowOffsetOuter1"/><feGaussianBlur stdDeviation="5" in="shadowOffsetOuter1" result="shadowBlurOuter1"/><feComposite in="shadowBlurOuter1" in2="SourceAlpha" operator="out" result="shadowBlurOuter1"/><feColorMatrix values="0 0 0 0 0.529411765 0 0 0 0 0.607843137 0 0 0 0 0.729411765 0 0 0 0.6 0" in="shadowBlurOuter1"/></filter><path id="J" d="M194.5 94v8.023H189v19.954h5.5V130h1v-8.023h5.5v-19.954h-5.5V94z"/><filter x="-133.3%" y="-38.9%" width="366.7%" height="188.9%" filterUnits="objectBoundingBox" id="I"><feOffset dy="2" in="SourceAlpha" result="shadowOffsetOuter1"/><feGaussianBlur stdDeviation="5" in="shadowOffsetOuter1" result="shadowBlurOuter1"/><feComposite in="shadowBlurOuter1" in2="SourceAlpha" operator="out" result="shadowBlurOuter1"/><feColorMatrix values="0 0 0 0 0.529411765 0 0 0 0 0.607843137 0 0 0 0 0.729411765 0 0 0 0.6 0" in="shadowBlurOuter1"/></filter><path id="L" d="M140.5 65v8.023H135v19.954h5.5V101h1v-8.023h5.5V73.023h-5.5V65z"/><filter x="-133.3%" y="-38.9%" width="366.7%" height="188.9%" filterUnits="objectBoundingBox" id="K"><feOffset dy="2" in="SourceAlpha" result="shadowOffsetOuter1"/><feGaussianBlur stdDeviation="5" in="shadowOffsetOuter1" result="shadowBlurOuter1"/><feComposite in="shadowBlurOuter1" in2="SourceAlpha" operator="out" result="shadowBlurOuter1"/><feColorMatrix values="0 0 0 0 0.529411765 0 0 0 0 0.607843137 0 0 0 0 0.729411765 0 0 0 0.6 0" in="shadowBlurOuter1"/></filter><path id="N" d="M540.5 122v10.474H535v26.052h5.5V169h1v-10.474h5.5v-26.052h-5.5V122z"/><filter x="-133.3%" y="-29.8%" width="366.7%" height="168.1%" filterUnits="objectBoundingBox" id="M"><feOffset dy="2" in="SourceAlpha" result="shadowOffsetOuter1"/><feGaussianBlur stdDeviation="5" in="shadowOffsetOuter1" result="shadowBlurOuter1"/><feComposite in="shadowBlurOuter1" in2="SourceAlpha" operator="out" result="shadowBlurOuter1"/><feColorMatrix values="0 0 0 0 0.529411765 0 0 0 0 0.607843137 0 0 0 0 0.729411765 0 0 0 0.6 0" in="shadowBlurOuter1"/></filter><path id="P" d="M59.5 18v14.709H54V69.29h5.5V84h1V69.291H66V32.71h-5.5V18z"/><filter x="-58.3%" y="-7.6%" width="216.7%" height="121.2%" filterUnits="objectBoundingBox" id="O"><feOffset dy="2" in="SourceAlpha" result="shadowOffsetOuter1"/><feGaussianBlur stdDeviation="2" in="shadowOffsetOuter1" result="shadowBlurOuter1"/><feComposite in="shadowBlurOuter1" in2="SourceAlpha" operator="out" result="shadowBlurOuter1"/><feColorMatrix values="0 0 0 0 0.529411765 0 0 0 0 0.607843137 0 0 0 0 0.729411765 0 0 0 0.6 0" in="shadowBlurOuter1"/></filter><path id="R" d="M167.5 30v16.5H162v67h5.5V130h1v-16.5h5.5v-67h-5.5V30z"/><filter x="-133.3%" y="-14%" width="366.7%" height="132%" filterUnits="objectBoundingBox" id="Q"><feOffset dy="2" in="SourceAlpha" result="shadowOffsetOuter1"/><feGaussianBlur stdDeviation="5" in="shadowOffsetOuter1" result="shadowBlurOuter1"/><feComposite in="shadowBlurOuter1" in2="SourceAlpha" operator="out" result="shadowBlurOuter1"/><feColorMatrix values="0 0 0 0 0.529411765 0 0 0 0 0.607843137 0 0 0 0 0.729411765 0 0 0 0.6 0" in="shadowBlurOuter1"/></filter></defs><g fill="none" fill-rule="evenodd"><path d="M21.929 27.58v2" stroke="#345475"/><path d="M21.929 33.587v328.648" stroke="#345475" stroke-dasharray="4.007,4.007"/><path d="M282.238 27.58v2" stroke="#345475"/><path d="M282.238 33.587v328.648" stroke="#345475" stroke-dasharray="4.007,4.007"/><path d="M541.8 27.58v2" stroke="#345475"/><path d="M541.8 33.587V364.5" stroke="#345475" stroke-dasharray="4.007,4.007"/><path d="M600.277 27.58v2" stroke="#345475"/><path d="M600.277 33.587v336.429" stroke="#345475" stroke-dasharray="4.007,4.007"/><path d="M812.105 27.58v2" stroke="#345475"/><path d="M812.105 33.587v328.648" stroke="#345475" stroke-dasharray="4.007,4.007"/><g stroke="#345475"><path d="M0 54.127h834.779M0 85.743h834.779" stroke-dasharray="4"/><path d="M0 261.827h834.779"/><path d="M0 321.06h834.779" stroke-dasharray="4"/></g><path d="M21.481 194.685v-1h3v1h-3zm6 0v-1h3v1h-3zm6 0v-1h3v1h-3zm6.002-.001l-.005-1a62.424 62.424 0 0 0 2.974-.089l.054.999a63.424 63.424 0 0 1-3.023.09zm6.04-.324l-.101-.995c.987-.1 1.972-.224 2.953-.371l.148.989c-.997.15-1.997.275-3 .377zm5.997-.9l-.196-.981a62.42 62.42 0 0 0 2.904-.652l.242.97a63.42 63.42 0 0 1-2.95.662zm5.86-1.463l-.288-.957c.95-.286 1.893-.595 2.829-.925l.333.942c-.95.337-1.909.65-2.874.94zm5.721-2.024l-.378-.925a62.413 62.413 0 0 0 2.727-1.192l.422.907c-.914.426-1.838.829-2.771 1.21zm5.512-2.567l-.465-.885a62.404 62.404 0 0 0 2.601-1.447l.507.862c-.87.511-1.75 1.001-2.643 1.47zm5.176-3.04l-.547-.838c.397-.26.792-.523 1.183-.792l1.294-.888.566.825-1.294.888c-.398.273-.799.54-1.202.805zm4.97-3.39l-.566-.825 2.473-1.698.566.825-2.473 1.697zm4.947-3.396l-.566-.824 2.473-1.698.566.825-2.473 1.697zm4.947-3.395l-.566-.824 2.474-1.698.565.825-2.473 1.697zm4.947-3.395l-.566-.824 2.474-1.698.566.825-2.474 1.697zm4.947-3.395l-.566-.824 2.474-1.698.566.825-2.474 1.697zm4.947-3.395l-.566-.824 2.474-1.698.566.825-2.474 1.697zm4.947-3.395l-.566-.824 2.474-1.698.566.825-2.474 1.697zm4.947-3.395l-.565-.824 2.473-1.698.566.825-2.474 1.697zm4.948-3.395l-.566-.824 2.473-1.698.566.825-2.473 1.697zm4.954-3.353l-.536-.844a63.415 63.415 0 0 1 2.59-1.56l.495.868a62.387 62.387 0 0 0-2.549 1.536zm5.173-2.951l-.454-.892a63.35 63.35 0 0 1 2.727-1.306l.41.912a62.35 62.35 0 0 0-2.683 1.286zm5.45-2.452l-.367-.93a63.38 63.38 0 0 1 2.84-1.04l.322.946c-.94.32-1.872.66-2.796 1.024zm5.623-1.91l-.276-.96a63.43 63.43 0 0 1 2.926-.766l.23.974a62.43 62.43 0 0 0-2.88.753zm5.816-1.372l-.183-.983a63.457 63.457 0 0 1 2.986-.482l.135.99c-.983.135-1.962.294-2.938.475zm5.871-.806l-.089-.996a63.44 63.44 0 0 1 3.018-.197l.041 1a62.44 62.44 0 0 0-2.97.193zm5.96-.246l.007-1c1.007.007 2.015.038 3.022.092l-.054.999a62.394 62.394 0 0 0-2.975-.09zm5.961.325l.102-.995c1.003.103 2.003.23 3 .381l-.15.989a62.366 62.366 0 0 0-2.952-.375zm5.909.895l.197-.98c.987.198 1.97.42 2.95.665l-.244.97a61.733 61.733 0 0 0-2.903-.655zm5.804 1.457l.284-.959 2.877.852-.285.96-2.876-.853zm5.753 1.705l.284-.96 2.876.853-.284.96-2.876-.853zm5.752 1.705l.285-.96 2.876.853-.284.959-2.877-.852zm5.753 1.704l.284-.958 2.877.852-.285.959-2.876-.853zm5.753 1.705l.284-.959 2.876.853-.284.959-2.876-.853zm5.752 1.705l.285-.959 2.876.853-.284.959-2.877-.853zm5.753 1.705l.284-.959 2.877.853-.285.958-2.876-.852zm5.753 1.705l.284-.959 2.876.853-.284.958-2.876-.852zm5.752 1.705l.285-.959 2.876.852-.284.96-2.877-.853zm5.753 1.705l.284-.96 2.877.853-.284.96-2.877-.853zm5.753 1.705l.284-.96 2.876.853-.284.959-2.876-.852zm5.753 1.704l.284-.958 2.876.852-.284.959-2.876-.853zm5.752 1.705l.284-.958 2.877.852-.284.959-2.877-.853zm5.753 1.705l.284-.959 2.876.853-.284.959-2.876-.853zm5.753 1.705l.284-.959 2.876.853-.284.959-2.876-.853zm5.752 1.705l.284-.959 2.877.853-.284.958-2.877-.852zm5.753 1.705l.284-.959 2.876.853-.284.958-2.876-.852zm5.753 1.705l.284-.959 2.876.852-.284.96-2.876-.853zm5.752 1.705l.284-.96 2.877.853-.284.96-2.877-.853zm5.753 1.705l.284-.96 2.876.853-.284.959-2.876-.852zm5.753 1.704l.284-.958 2.876.852-.284.959-2.876-.853zm5.755 1.705l.28-.96a62.42 62.42 0 0 0 2.876.767l-.234.972a63.421 63.421 0 0 1-2.922-.779zm5.88 1.417l.187-.982c.975.186 1.954.35 2.936.489l-.14.99a63.422 63.422 0 0 1-2.983-.497zm6.001.852l.093-.996c.988.093 1.978.161 2.97.206l-.046 1a63.393 63.393 0 0 1-3.017-.21zm6.035.275v-1h3v1h-3zm6 0v-1h3v1h-3zm6 0v-1h3v1h-3zm6 0v-1h3v1h-3zm6 0v-1h3v1h-3zm5.999 0l.001-1c1.009.001 2.016.027 3.023.077l-.05.999a62.441 62.441 0 0 0-2.974-.076zm5.945.294l.097-.996a63.43 63.43 0 0 1 3.002.365l-.144.99a62.43 62.43 0 0 0-2.955-.36zm5.909.854l.176-.984 2.953.529-.176.984-2.953-.529zm5.905 1.059l.177-.985 2.953.53-.177.984-2.953-.53zm5.906 1.058l.177-.985 2.953.53-.177.984-2.953-.53zm5.906 1.058l.177-.984 2.953.529-.177.984-2.953-.529zm5.906 1.058l.177-.984 2.953.53-.177.984-2.953-.53zm5.906 1.059l.177-.985 2.953.53-.177.984-2.953-.53zm5.906 1.058l.177-.984 2.952.529-.176.984-2.953-.53zm5.906 1.058l.176-.984 2.953.529-.176.984-2.953-.529zm5.906 1.058l.176-.984 2.953.53-.176.984-2.953-.53zm5.906 1.059l.176-.985 2.953.53-.176.984-2.953-.53zm5.906 1.058l.176-.984 1.182.212c.586.104 1.173.201 1.761.29l-.148.988a63.41 63.41 0 0 1-1.79-.294l-1.181-.212zm5.972.883l.101-.995c.987.1 1.977.176 2.967.229l-.053.999a63.44 63.44 0 0 1-3.015-.233zm6.05.322l.005-1h2.998v1h-3.003zm6.004 0v-1h3v1h-3zm6 0v-1h3v1h-3zm6 0v-1h3v1h-3zm6 0v-1h3v1h-3zm6 0v-1h3v1h-3zm6 0v-1h3v1h-3zm6 0v-1h3v1h-3zm6 0v-1h3v1h-3zm6 0v-1h3v1h-3zm6 0v-1h3v1h-3zm6 0v-1h3v1h-3zm6 0v-1h3v1h-3zm6 0v-1h3v1h-3zm6 0v-1h1.685c.435 0 .87-.004 1.304-.013l.02 1c-.44.01-.882.014-1.324.014h-1.685zm6.031-.148l-.068-.998a62.42 62.42 0 0 0 2.964-.275l.116.993c-1.002.117-2.006.21-3.012.28zm6.015-.703l-.163-.987a62.422 62.422 0 0 0 2.924-.556l.21.978c-.986.212-1.976.4-2.97.565zm5.91-1.271l-.256-.967a62.416 62.416 0 0 0 2.857-.831l.302.953c-.96.305-1.929.586-2.903.845zm5.78-1.834l-.347-.938c.93-.345 1.852-.712 2.765-1.101l.392.92c-.927.395-1.864.768-2.81 1.119zm5.59-2.384l-.436-.9c.188-.09.376-.183.564-.276l2.123-1.055.445.895-2.123 1.055c-.19.095-.382.189-.573.281zm5.382-2.67l-.444-.896 2.686-1.335.445.896-2.687 1.335zm5.374-2.67l-.445-.896 2.687-1.335.444.896-2.686 1.335zm5.373-2.67l-.445-.895 2.687-1.335.445.895-2.687 1.335zm5.373-2.67l-.444-.895 2.686-1.335.445.896-2.687 1.334zm5.374-2.67l-.445-.895 2.687-1.335.444.896-2.686 1.335zm5.373-2.669l-.445-.896 2.687-1.334.445.895-2.687 1.335zm5.373-2.67l-.445-.895 2.687-1.335.445.895-2.687 1.335zm5.374-2.67l-.445-.895 2.686-1.335.445.896-2.686 1.335zm5.373-2.668l-.442-.898a63.692 63.692 0 0 1 2.746-1.27l.398.918c-.91.394-1.811.811-2.702 1.25zm5.46-2.37l-.354-.936a63.367 63.367 0 0 1 2.854-1.002l.309.95c-.944.307-1.88.636-2.809.988zm5.674-1.842l-.263-.965a63.383 63.383 0 0 1 2.935-.725l.216.976c-.968.215-1.93.453-2.888.714zm5.806-1.289l-.17-.985c.993-.171 1.99-.319 2.99-.442l.124.992c-.985.122-1.967.267-2.944.435zm5.926-.731l-.075-.998a63.432 63.432 0 0 1 3.02-.154l.028 1c-.992.027-1.983.077-2.973.152zm5.984-.162l.021-1c1.008.021 2.015.066 3.02.135l-.068.998a62.412 62.412 0 0 0-2.973-.133zm5.893.403l.115-.994c1.001.116 2 .257 2.995.42l-.163.987c-.98-.161-1.962-.3-2.947-.413zm5.89.971l.21-.978c.985.212 1.966.447 2.94.705l-.255.967a62.394 62.394 0 0 0-2.894-.694zm5.776 1.532l.302-.954c.294.094.587.189.88.286l1.978.66-.316.948-1.979-.659c-.288-.096-.576-.19-.865-.281zm5.69 1.889l.316-.949 2.846.949-.316.948-2.846-.948zm5.692 1.897l.316-.949 2.847.948-.317.95-2.846-.95zm5.693 1.897l.316-.95 2.846.95-.316.948-2.846-.948zm5.692 1.896l.316-.948 2.846.948-.316.949-2.846-.949zm5.692 1.897l.316-.948 2.846.948-.316.949-2.846-.949zm5.692 1.897l.317-.949 2.846.949-.316.949-2.847-.949zm5.693 1.897l.316-.949 2.846.949-.316.948-2.846-.948zm5.692 1.897l.316-.949 2.846.949-.316.948-2.846-.948zm5.692 1.897l.316-.949 2.846.948-.316.95-2.846-.95zm5.698 1.896l.308-.952c.944.306 1.896.588 2.853.848l-.262.965a63.414 63.414 0 0 1-2.899-.861zm5.836 1.583l.216-.976a62.41 62.41 0 0 0 2.92.572l-.168.985a63.408 63.408 0 0 1-2.968-.58zm5.978 1.023l.122-.993c.985.12 1.972.217 2.962.29l-.074.998a63.418 63.418 0 0 1-3.01-.295zm6.024.446l.026-1c.992.026 1.984.029 2.976.008l.022 1a63.514 63.514 0 0 1-3.024-.008zm6.067-.13l-.07-.998a63.99 63.99 0 0 0 2.964-.278l.117.994a63.42 63.42 0 0 1-3.011.281zm6.037-.712l-.161-.987 2.96-.484.162.987-2.961.484zm5.92-.968l-.158-.987a63.421 63.421 0 0 1 2.997-.405l.11.994c-.986.11-1.97.242-2.95.398zm5.916-.655l-.063-.998a63.412 63.412 0 0 1 3.021-.118l.015 1a61.48 61.48 0 0 0-2.973.116zm5.966-.089l.033-1a63.41 63.41 0 0 1 3.019.172l-.08.997c-.99-.08-1.98-.136-2.972-.169zm5.927.48l.128-.993c1 .13 1.996.282 2.989.459l-.175.984a62.413 62.413 0 0 0-2.942-.45zm5.884 1.039l.207-.979 2.935.62-.206.979-2.936-.62zm5.87 1.24l.208-.978 2.935.62-.207.979-2.935-.62zm5.871 1.24l.207-.978 2.935.62-.207.979-2.935-.62zm5.87 1.241l.207-.978 2.935.62-.206.978-2.935-.62zm5.87 1.24l.208-.978 2.935.62-.207.979-2.935-.62zm5.871 1.241l.207-.978 2.935.62-.207.978-2.935-.62zm5.87 1.24l.207-.978 2.936.62-.207.979-2.935-.62zm5.871 1.241l.207-.978 2.935.62-.207.978-2.935-.62zm5.87 1.24l.207-.978 2.935.62-.206.979-2.936-.62zm5.87 1.241l.208-.978 2.935.62-.207.978-2.935-.62zm5.871 1.24l.207-.978 2.192.464-.206.978-2.193-.463z" fill="#09939E" fill-rule="nonzero"/><path d="M21.385 167.412l1.087-1.678 20.857 13.512c3.456 2.24 7.728 2.832 11.595 1.642l15.391-6.014c6.363-2.577 10.05-3.088 16.469-2.481l20.025 1.831c7.648.374 11.379-2.956 13.368-10.247l16.724-61.302c2.518-9.234 12.566-14.168 21.415-10.518l39.617 16.343a13.91 13.91 0 0 0 11.438-.374l35.709-17.54a15.91 15.91 0 0 1 18.58 3.354l5.892 6.238a13.914 13.914 0 0 0 15.08 3.44l5.755-2.2c8.78-3.356 18.543 1.592 21.025 10.657l7.596 27.747a13.905 13.905 0 0 0 5.307 7.625l22.322 16.014a13.908 13.908 0 0 0 11.645 2.15l7.748-2.036a13.918 13.918 0 0 0 5.468-2.851l28.78-24.443a15.91 15.91 0 0 1 15.168-3.02l11.028 3.544a15.908 15.908 0 0 1 9.503 8.317l28.266 59.492c4.012 8.443 15.045 10.603 21.947 4.297l17.845-16.307a15.91 15.91 0 0 1 13.605-3.904l31.294 5.743a13.908 13.908 0 0 0 15.53-8.78l7.349-19.534a15.915 15.915 0 0 1 3.006-4.974l27.215-30.576a13.91 13.91 0 0 0 2.988-5.444l12.569-44.24a15.893 15.893 0 0 1 2.868-5.575l15.792-19.779c5.043-6.317 14.025-7.848 20.877-3.558l42.428 26.564a13.91 13.91 0 0 0 10.755 1.705l18.726-4.68a15.912 15.912 0 0 1 15.505 4.596l25.124 26.995c.497.534 1.04 1.031 1.62 1.486l15.085 11.782a15.908 15.908 0 0 1 4.889 6.41l21.768 52.173-1.846.77-21.768-52.173a13.908 13.908 0 0 0-4.274-5.604l-15.087-11.783a16.046 16.046 0 0 1-1.851-1.699L743.078 81.53a13.912 13.912 0 0 0-13.556-4.018l-18.726 4.68a15.91 15.91 0 0 1-12.301-1.95l-42.428-26.564a13.91 13.91 0 0 0-18.253 3.11l-15.792 19.78a13.893 13.893 0 0 0-2.507 4.874l-12.57 44.24a15.91 15.91 0 0 1-3.417 6.227l-27.215 30.576a13.915 13.915 0 0 0-2.628 4.348l-7.35 19.534a15.908 15.908 0 0 1-17.762 10.043l-31.294-5.743a13.91 13.91 0 0 0-11.895 3.413l-17.845 16.307c-7.894 7.213-20.514 4.742-25.103-4.915l-28.265-59.492a13.908 13.908 0 0 0-8.308-7.271l-11.03-3.544a13.911 13.911 0 0 0-13.26 2.64l-28.78 24.443a15.919 15.919 0 0 1-6.254 3.261l-7.748 2.037a15.908 15.908 0 0 1-13.32-2.46l-22.322-16.014a15.906 15.906 0 0 1-6.07-8.722l-7.596-27.747c-2.17-7.925-10.705-12.251-18.382-9.317l-5.754 2.2a15.914 15.914 0 0 1-17.248-3.934l-5.892-6.238a13.91 13.91 0 0 0-16.245-2.933l-35.71 17.54a15.91 15.91 0 0 1-13.082.427l-39.617-16.342c-7.737-3.191-16.52 1.123-18.723 9.195l-16.724 61.302c-2.217 8.127-6.716 12.143-15.437 11.716l-20.07-1.835c-6.107-.577-9.472-.111-15.544 2.348l-15.473 6.043a15.911 15.911 0 0 1-13.341-1.85l-20.856-13.513z" fill="#FFB800" fill-rule="nonzero"/><path d="M21.337 152.74l1.183-2.757 26.864 11.526a20.375 20.375 0 0 0 14.887.465l86.235-30.79a23.382 23.382 0 0 1 12.887-.815l119.09 26.214c2.974.655 6.057.635 9.023-.06l18.719-4.378a23.39 23.39 0 0 1 9.64-.215l147.02 27.595a20.36 20.36 0 0 0 7.787-.052l62.077-12.517a20.353 20.353 0 0 0 8.065-3.575l58.828-43.386a23.38 23.38 0 0 1 23.048-2.688l69.05 29.453a20.375 20.375 0 0 0 16.561-.254l8.462-3.92a23.374 23.374 0 0 1 15.83-1.382l77.687 20.639-.77 2.9-77.688-20.64a20.374 20.374 0 0 0-13.798 1.205l-8.462 3.92a23.375 23.375 0 0 1-18.999.291l-69.05-29.453a20.38 20.38 0 0 0-20.09 2.344l-58.828 43.385a23.352 23.352 0 0 1-9.254 4.102l-62.076 12.517c-2.947.594-5.98.614-8.933.06l-147.02-27.595a20.39 20.39 0 0 0-8.404.187l-18.719 4.379c-3.402.796-6.939.82-10.352.068L162.748 133.3a20.382 20.382 0 0 0-11.233.71L65.28 164.8a23.375 23.375 0 0 1-17.079-.533L21.337 152.74z" fill="#00D972" fill-rule="nonzero"/><g transform="translate(203 255.421)"><mask id="b" fill="#fff"><use xlink:href="#a"/></mask><path fill="#1B446D" mask="url(#b)" d="M10.319 136.253h.895V-40.918h-.895zm5.37 0h.895V-40.918h-.895zm5.371 0h.895V-40.918h-.895zm5.37 0h.895V-40.918h-.895zm5.37 0h.895V-40.918H31.8zm5.37 0h.895V-40.918h-.895zm5.37 0h.896V-40.918h-.896zm5.371 0h.895V-40.918h-.895zm5.37 0h.895V-40.918h-.895zm5.37 0h.895V-40.918h-.895zm5.371 0h.895V-40.918h-.895zm5.37 0h.895V-40.918h-.895zm5.37 0h.895V-40.918h-.895zm5.371 0h.895V-40.918h-.895zm5.37 0h.895V-40.918h-.895zm5.37 0h.895V-40.918h-.895zm5.371 0h.895V-40.918h-.895zm5.37 0h.895V-40.918h-.895zm5.37 0h.895V-40.918h-.895zm5.371 0h.895V-40.918h-.895zm5.37 0h.895V-40.918h-.895zm5.37 0h.895V-40.918h-.895zm5.37 0h.895V-40.918h-.895zm5.37 0h.895V-40.918h-.895zm5.371 0h.895V-40.918h-.895zm5.369 0h.896V-40.918h-.896zm5.371 0h.895V-40.918h-.895zm5.37 0h.895V-40.918h-.895zm5.371 0h.895V-40.918h-.895zm5.37 0h.895V-40.918h-.895zm5.37 0h.895V-40.918h-.895zm5.37 0h.895V-40.918h-.895zm5.371 0h.895V-40.918h-.895zm5.37 0h.895V-40.918h-.895zm5.37 0h.895V-40.918h-.895zm5.371 0h.895V-40.918h-.895zm5.37 0h.895V-40.918h-.895zm5.37 0h.895V-40.918h-.895zm5.37 0h.895V-40.918h-.895zm5.37 0h.895V-40.918h-.895zm5.37 0h.896V-40.918h-.896zm5.371 0h.896V-40.918h-.896zm5.37 0h.896V-40.918h-.896zm5.371 0h.895V-40.918h-.895zm5.37 0h.895V-40.918h-.895zm5.37 0h.895V-40.918h-.895zm5.37 0h.896V-40.918h-.896zm5.37 0h.896V-40.918h-.896zm5.37 0h.896V-40.918h-.896zm5.371 0h.895V-40.918h-.895zm5.371 0h.895V-40.918h-.895z"/></g><g transform="translate(21 272.421)"><mask id="d" fill="#fff"><use xlink:href="#c"/></mask><path fill="#1B446D" mask="url(#d)" d="M4.359 119.253h.896V-57.918h-.896zm5.371 0h.895V-57.918H9.73zm5.37 0h.895V-57.918H15.1zm5.37 0h.895V-57.918h-.895zm5.371 0h.895V-57.918h-.895zm5.37 0h.895V-57.918h-.895zm5.37 0h.895V-57.918h-.895zm5.371 0h.895V-57.918h-.895zm5.37 0h.895V-57.918h-.895zm5.37 0h.895V-57.918h-.895zm5.371 0h.895V-57.918h-.895zm5.37 0h.895V-57.918h-.895zm5.37 0h.895V-57.918h-.895z"/></g><g transform="translate(559 221.421)"><mask id="f" fill="#fff"><use xlink:href="#e"/></mask><path fill="#1B446D" mask="url(#f)" d="M3.386 170.253h.896V-6.918h-.896zm5.37 0h.896V-6.918h-.896zm5.37 0h.896V-6.918h-.896zm5.372 0h.895V-6.918h-.895zm5.37 0h.895V-6.918h-.895zm5.37 0h.895V-6.918h-.895zm5.37 0h.896V-6.918h-.896zm5.37 0h.896V-6.918h-.896zm5.37 0h.896V-6.918h-.896zm5.37 0h.896V-6.918h-.896zm5.371 0h.895V-6.918h-.895zm5.37 0h.895V-6.918h-.895zm5.371 0h.895V-6.918h-.895zm5.37 0h.896V-6.918H73.2zm5.37 0h.896V-6.918h-.896zm5.37 0h.896V-6.918h-.896zm5.371 0h.895V-6.918h-.895zm5.37 0h.895V-6.918h-.895zm5.37 0h.895V-6.918h-.895zm5.37 0h.896V-6.918h-.896zm5.37 0h.896V-6.918h-.896zm5.371 0h.896V-6.918h-.896zm5.371 0h.895V-6.918h-.895zm5.37 0h.895V-6.918h-.895zm5.37 0h.895V-6.918h-.895zm5.37 0h.896V-6.918h-.896zm5.37 0h.896V-6.918h-.896zm5.37 0h.896V-6.918h-.896zm5.371 0h.895V-6.918h-.895zm5.371 0h.895V-6.918h-.895zm5.37 0h.895V-6.918h-.895zm5.37 0h.896V-6.918h-.896zm5.37 0h.896V-6.918h-.896zm5.37 0h.896V-6.918h-.896zm5.37 0h.896V-6.918h-.896zm5.371 0h.895V-6.918h-.895zm5.37 0h.895V-6.918h-.895zm5.37 0h.895V-6.918h-.895zm5.371 0h.896V-6.918h-.896zm5.37 0h.896V-6.918h-.896zm5.37 0h.896V-6.918h-.896zm5.371 0h.895V-6.918h-.895zm5.37 0h.895V-6.918h-.895zm5.37 0h.895V-6.918h-.895zm5.37 0h.896V-6.918h-.896zm5.37 0h.896V-6.918h-.896zm5.37 0h.896V-6.918h-.896z"/></g><g transform="translate(95 320.421)"><mask id="h" fill="#fff"><use xlink:href="#g"/></mask><path fill="#1B446D" mask="url(#h)" d="M.173 71.253h.895v-177.171H.173zm5.37 0h.895v-177.171h-.895zm5.371 0h.895v-177.171h-.895zm5.37 0h.895v-177.171h-.895zm5.37 0h.895v-177.171h-.895zm5.37 0h.895v-177.171h-.895zm5.371 0h.895v-177.171h-.895zm5.37 0h.895v-177.171h-.895zm5.37 0h.895v-177.171h-.895zm5.37 0h.896v-177.171h-.896zm5.371 0h.895v-177.171h-.895zm5.37 0h.895v-177.171h-.895zm5.37 0h.895v-177.171h-.895zm5.371 0h.895v-177.171h-.895zm5.37 0h.895v-177.171h-.895zm5.37 0h.895v-177.171h-.895zm5.371 0h.895v-177.171h-.895zm5.37 0h.895v-177.171h-.895zm5.37 0h.895v-177.171h-.895zm5.371 0h.895v-177.171h-.895zm5.37 0h.895v-177.171h-.895zm5.37 0h.895v-177.171h-.895z"/></g><g transform="translate(483 320.421)"><mask id="j" fill="#fff"><use xlink:href="#i"/></mask><path fill="#1B446D" mask="url(#j)" d="M4.203 71.253h.895v-177.171h-.895zm5.37 0h.896v-177.171h-.896zm5.37 0h.896v-177.171h-.896zm5.37 0h.896v-177.171h-.896zm5.37 0h.896v-177.171h-.896zm5.371 0h.895v-177.171h-.895zm5.37 0h.895v-177.171h-.895zm5.37 0h.895v-177.171h-.895zm5.371 0h.896v-177.171h-.896zm5.37 0h.896v-177.171h-.896zm5.37 0h.896v-177.171h-.896zm5.371 0h.895v-177.171h-.895zm5.37 0h.895v-177.171h-.895zm5.37 0h.895v-177.171h-.895z"/></g><g transform="translate(21 292.421)"><mask id="l" fill="#fff"><use xlink:href="#k"/></mask><path fill="#2F5B8C" mask="url(#l)" d="M4.359 99.253h.896V-77.918h-.896zm5.371 0h.895V-77.918H9.73zm5.37 0h.895V-77.918H15.1zm5.37 0h.895V-77.918h-.895zm5.371 0h.895V-77.918h-.895zm5.37 0h.895V-77.918h-.895zm5.37 0h.895V-77.918h-.895zm5.371 0h.895V-77.918h-.895zm5.37 0h.895V-77.918h-.895zm5.37 0h.895V-77.918h-.895zm5.371 0h.895V-77.918h-.895zm5.37 0h.895V-77.918h-.895zm5.37 0h.895V-77.918h-.895zm5.37 0h.895V-77.918h-.895z"/></g><g transform="translate(93 320.421)"><mask id="n" fill="#fff"><use xlink:href="#m"/></mask><path fill="#2F5B8C" mask="url(#n)" d="M7.543 71.253h.895v-177.171h-.895zm-5.146 0h.895v-177.171h-.895zm10.517 0h.895v-177.171h-.895zm5.37 0h.895v-177.171h-.895zm5.37 0h.895v-177.171h-.895zm5.37 0h.895v-177.171h-.895zm5.371 0h.895v-177.171h-.895zm5.37 0h.895v-177.171h-.895zm5.37 0h.895v-177.171h-.895zm5.37 0h.896v-177.171h-.896zm5.371 0h.895v-177.171h-.895zm5.37 0h.895v-177.171h-.895zm5.37 0h.895v-177.171h-.895zm5.371 0h.895v-177.171h-.895zm5.37 0h.895v-177.171h-.895zm5.37 0h.895v-177.171h-.895zm5.371 0h.895v-177.171h-.895zm5.37 0h.895v-177.171h-.895zm5.37 0h.895v-177.171h-.895zm5.371 0h.895v-177.171h-.895zm5.37 0h.895v-177.171h-.895zm5.37 0h.895v-177.171h-.895z"/></g><g transform="translate(203 280.421)"><mask id="p" fill="#fff"><use xlink:href="#o"/></mask><path fill="#2F5B8C" mask="url(#p)" d="M10.319 111.253h.895V-65.918h-.895zm5.37 0h.895V-65.918h-.895zm5.371 0h.895V-65.918h-.895zm5.37 0h.895V-65.918h-.895zm5.37 0h.895V-65.918H31.8zm5.37 0h.895V-65.918h-.895zm5.37 0h.896V-65.918h-.896zm5.371 0h.895V-65.918h-.895zm5.37 0h.895V-65.918h-.895zm5.37 0h.895V-65.918h-.895zm5.371 0h.895V-65.918h-.895zm5.37 0h.895V-65.918h-.895zm5.37 0h.895V-65.918h-.895zm5.371 0h.895V-65.918h-.895zm5.37 0h.895V-65.918h-.895zm5.37 0h.895V-65.918h-.895zm5.371 0h.895V-65.918h-.895zm5.37 0h.895V-65.918h-.895zm5.37 0h.895V-65.918h-.895zm5.371 0h.895V-65.918h-.895zm5.37 0h.895V-65.918h-.895zm5.37 0h.895V-65.918h-.895zm5.37 0h.895V-65.918h-.895zm5.37 0h.895V-65.918h-.895zm5.371 0h.895V-65.918h-.895zm5.369 0h.896V-65.918h-.896zm5.371 0h.895V-65.918h-.895zm5.37 0h.895V-65.918h-.895zm5.371 0h.895V-65.918h-.895zm5.37 0h.895V-65.918h-.895zm5.37 0h.895V-65.918h-.895zm5.37 0h.895V-65.918h-.895zm5.371 0h.895V-65.918h-.895zm5.37 0h.895V-65.918h-.895zm5.37 0h.895V-65.918h-.895zm5.371 0h.895V-65.918h-.895zm5.37 0h.895V-65.918h-.895zm5.37 0h.895V-65.918h-.895zm5.37 0h.895V-65.918h-.895zm5.37 0h.895V-65.918h-.895zm5.37 0h.896V-65.918h-.896zm5.371 0h.896V-65.918h-.896zm5.37 0h.896V-65.918h-.896zm5.371 0h.895V-65.918h-.895zm5.37 0h.895V-65.918h-.895zm5.37 0h.895V-65.918h-.895zm5.37 0h.896V-65.918h-.896zm5.37 0h.896V-65.918h-.896zm5.37 0h.896V-65.918h-.896zm5.371 0h.895V-65.918h-.895zm5.371 0h.895V-65.918h-.895z"/></g><g transform="translate(483 320.421)"><mask id="r" fill="#fff"><use xlink:href="#q"/></mask><path fill="#2F5B8C" mask="url(#r)" d="M4.203 71.253h.895v-177.171h-.895zm5.37 0h.896v-177.171h-.896zm5.37 0h.896v-177.171h-.896zm5.37 0h.896v-177.171h-.896zm5.37 0h.896v-177.171h-.896zm5.371 0h.895v-177.171h-.895zm5.37 0h.895v-177.171h-.895zm5.37 0h.895v-177.171h-.895zm5.371 0h.896v-177.171h-.896zm5.37 0h.896v-177.171h-.896zm5.37 0h.896v-177.171h-.896zm5.371 0h.895v-177.171h-.895zm5.37 0h.895v-177.171h-.895zm5.37 0h.895v-177.171h-.895z"/></g><g transform="translate(559 266.421)"><mask id="t" fill="#fff"><use xlink:href="#s"/></mask><path fill="#2F5B8C" mask="url(#t)" d="M3.386 125.253h.896V-51.918h-.896z"/><mask id="v" fill="#fff"><use xlink:href="#u"/></mask><path fill="#2F5B8C" mask="url(#v)" d="M8.756 125.253h.896V-51.918h-.896zm5.37 0h.896V-51.918h-.896zm5.372 0h.895V-51.918h-.895zm5.37 0h.895V-51.918h-.895zm5.37 0h.895V-51.918h-.895zm5.37 0h.896V-51.918h-.896zm5.37 0h.896V-51.918h-.896zm5.37 0h.896V-51.918h-.896zm5.37 0h.896V-51.918h-.896zm5.371 0h.895V-51.918h-.895zm5.37 0h.895V-51.918h-.895zm5.371 0h.895V-51.918h-.895zm5.37 0h.896V-51.918H73.2zm5.37 0h.896V-51.918h-.896zm5.37 0h.896V-51.918h-.896zm5.371 0h.895V-51.918h-.895zm5.37 0h.895V-51.918h-.895zm5.37 0h.895V-51.918h-.895zm5.37 0h.896V-51.918h-.896zm5.37 0h.896V-51.918h-.896zm5.371 0h.896V-51.918h-.896zm5.371 0h.895V-51.918h-.895zm5.37 0h.895V-51.918h-.895zm5.37 0h.895V-51.918h-.895zm5.37 0h.896V-51.918h-.896zm5.37 0h.896V-51.918h-.896zm5.37 0h.896V-51.918h-.896zm5.371 0h.895V-51.918h-.895zm5.371 0h.895V-51.918h-.895zm5.37 0h.895V-51.918h-.895zm5.37 0h.896V-51.918h-.896zm5.37 0h.896V-51.918h-.896zm5.37 0h.896V-51.918h-.896zm5.37 0h.896V-51.918h-.896zm5.371 0h.895V-51.918h-.895zm5.37 0h.895V-51.918h-.895zm5.37 0h.895V-51.918h-.895zm5.371 0h.896V-51.918h-.896zm5.37 0h.896V-51.918h-.896zm5.37 0h.896V-51.918h-.896zm5.371 0h.895V-51.918h-.895zm5.37 0h.895V-51.918h-.895zm5.37 0h.895V-51.918h-.895zm5.37 0h.896V-51.918h-.896zm5.37 0h.896V-51.918h-.896zm5.37 0h.896V-51.918h-.896z"/></g><path d="M21.659 329.132l-.356-.934 36.829-14.026a11.88 11.88 0 0 0 1.42-.653l25.833-13.988a11.808 11.808 0 0 0 3.463-2.842l11.89-14.322c5.49-6.617 15.471-7.113 21.592-1.073l30.454 30.056a11.813 11.813 0 0 0 11.5 2.963l26.91-7.58c5.32-1.497 11 .584 14.091 5.163l3.304 4.893c3.984 5.9 12.246 6.96 17.59 2.258a12.816 12.816 0 0 1 10.62-3.01l14.73 2.514a12.808 12.808 0 0 1 7.009 3.677l19.859 20.325a11.806 11.806 0 0 0 5.514 3.187l13.943 3.574a11.81 11.81 0 0 0 10.359-2.256l19.85-16.045a12.808 12.808 0 0 1 8.054-2.848h42.89a11.82 11.82 0 0 0 7.043-2.328l23.61-17.534a12.804 12.804 0 0 1 10.27-2.253l44.744 9.39c2.393.502 4.885.25 7.129-.725l67.572-29.325a12.815 12.815 0 0 1 11.692.765l42.27 25.356a11.816 11.816 0 0 0 11.675.272l7.982-4.297a18.103 18.103 0 0 1 18.353.7l39.64 25.413a11.811 11.811 0 0 0 12.599.096l19.34-11.989a12.818 12.818 0 0 1 8.764-1.763l16.702 2.656a11.815 11.815 0 0 0 8.78-2.095l51.658-37.382a12.815 12.815 0 0 1 14.532-.337l10.21 6.688-.548.836-10.21-6.688a11.815 11.815 0 0 0-13.398.311l-51.658 37.382a12.815 12.815 0 0 1-9.524 2.273l-16.701-2.656a11.819 11.819 0 0 0-8.08 1.625l-19.34 11.99a12.811 12.811 0 0 1-13.666-.105l-39.64-25.414a17.103 17.103 0 0 0-17.339-.66l-7.982 4.296a12.816 12.816 0 0 1-12.664-.294l-42.27-25.356a11.815 11.815 0 0 0-10.779-.705l-67.572 29.325a12.812 12.812 0 0 1-7.733.785l-44.743-9.39a11.804 11.804 0 0 0-9.468 2.078l-23.61 17.534a12.814 12.814 0 0 1-7.64 2.525h-42.89c-2.703 0-5.324.927-7.425 2.626l-19.85 16.045a12.81 12.81 0 0 1-11.236 2.446l-13.943-3.574a12.806 12.806 0 0 1-5.982-3.456l-19.859-20.326a11.808 11.808 0 0 0-6.461-3.389l-14.731-2.514c-3.514-.6-7.113.42-9.79 2.774-5.797 5.102-14.759 3.952-19.08-2.448l-3.303-4.893a11.812 11.812 0 0 0-12.991-4.76l-26.911 7.58a12.813 12.813 0 0 1-12.473-3.214l-30.454-30.056c-5.704-5.628-15.005-5.167-20.121 1l-11.89 14.321a12.807 12.807 0 0 1-3.756 3.084L60.03 314.399c-.496.269-1.01.505-1.541.707L21.66 329.132z" fill="#1882F1" fill-rule="nonzero"/><path stroke="#335777" d="M33.524 253.059h21.481v-21.476H33.524zm10.741-17.896v14.316m-7.16-7.159h14.32m9.435 10.739h21.481v-21.476H60.86zm3.58-10.739h14.321"/><path d="M798.844 79.295h-12.861a7.82 7.82 0 0 1-6.051-2.867l-12.848-15.7a2.82 2.82 0 0 0-2.276-1.032l-12.688.421a7.819 7.819 0 0 1-6.247-2.783l-8.729-10.39a2.82 2.82 0 0 0-2.841-.92l-10.424 2.604a7.817 7.817 0 0 1-7.64-2.28l-3.2-3.465a2.815 2.815 0 0 0-2.382-.888l-5.617.624a7.823 7.823 0 0 1-6.238-2.095l-8.692-8.23a2.805 2.805 0 0 0-1.045-.626l-16.79-5.597a2.821 2.821 0 0 0-3.118.943l-14.092 18.114c-.073.093-7.097 13.712-21.073 40.857a2.821 2.821 0 0 0-.298 1.011l-3.832 38.86a7.82 7.82 0 0 1-3.405 5.71l-41.972 28.337a2.814 2.814 0 0 0-1.203 1.882l-5.918 36.405c-.964 5.927-7.972 8.599-12.638 4.82l-25.62-20.758a2.823 2.823 0 0 0-2.24-.59l-13.197 2.199a7.816 7.816 0 0 1-6.168-1.607l-3.278-2.62a2.817 2.817 0 0 0-3.806.262l-35.3 37.25c-3.313 3.497-8.971 3.194-11.891-.636l-50.376-66.049a7.872 7.872 0 0 1-1.03-1.805l-3.911-9.663a2.82 2.82 0 0 0-1.658-1.594l-9.866-3.55a2.82 2.82 0 0 0-2.725.458l-12.796 10.333c-.386.31-.798.584-1.231.814l-14.534 7.75a7.822 7.822 0 0 1-8.246-.555l-9.92-7.14a2.82 2.82 0 0 0-2.636-.352l-16.45 6.167a7.82 7.82 0 0 1-9.93-4.24l-22.43-52.328a2.815 2.815 0 0 0-1.04-1.242l-23.569-15.53a7.814 7.814 0 0 1-2.91-3.508l-7.918-18.912a2.818 2.818 0 0 0-3.86-1.431l-7.935 3.967a7.819 7.819 0 0 1-7.254-.138l-11.985-6.572a2.82 2.82 0 0 0-3.62.794l-6.967 9.402a7.818 7.818 0 0 1-8.47 2.851l-6.74-1.964a2.818 2.818 0 0 0-3.236 1.305L187.208 86.13a7.817 7.817 0 0 1-8.126 3.822l-4.666-.81a2.819 2.819 0 0 0-3.272 2.366l-2.39 16.328a7.82 7.82 0 0 1-4.2 5.841l-39.257 19.89a2.816 2.816 0 0 0-1.363 1.521l-15.557 41.311c-1.965 5.219-8.607 6.76-12.67 2.94l-17.775-16.703c-1.524-1.432-4.022-.764-4.627 1.237l-10.812 35.752c-1.58 5.223-7.89 7.262-12.227 3.951L20.412 180.79l3.034-3.974L53.3 199.602c1.563 1.193 3.838.458 4.407-1.424l10.812-35.753c1.679-5.552 8.609-7.405 12.837-3.433l17.775 16.704c1.465 1.377 3.859.822 4.567-1.06l15.557-41.31a7.815 7.815 0 0 1 3.782-4.218l39.255-19.89a2.819 2.819 0 0 0 1.515-2.106l2.39-16.329a7.819 7.819 0 0 1 9.075-6.568l4.666.81a2.817 2.817 0 0 0 2.93-1.376l12.774-22.352a7.817 7.817 0 0 1 8.976-3.624l6.74 1.964a2.818 2.818 0 0 0 3.053-1.028l6.967-9.401a7.82 7.82 0 0 1 10.04-2.202l11.987 6.572a2.82 2.82 0 0 0 2.615.05l7.935-3.967c4.046-2.023 8.96-.2 10.707 3.972l7.919 18.912c.216.516.581.957 1.048 1.264l23.568 15.53a7.815 7.815 0 0 1 2.884 3.447l22.432 52.327a2.819 2.819 0 0 0 3.58 1.529l16.45-6.167a7.82 7.82 0 0 1 7.311.975l9.92 7.14a2.821 2.821 0 0 0 2.973.2l14.536-7.75c.103-.054 4.515-3.595 13.236-10.623a7.82 7.82 0 0 1 7.56-1.273l9.865 3.55a7.82 7.82 0 0 1 4.599 4.422l3.91 9.66c.096.234.222.456.374.655l50.375 66.047a2.819 2.819 0 0 0 4.286.23l35.3-37.251a7.817 7.817 0 0 1 10.558-.729l3.28 2.622c.623.5 1.432.71 2.222.579l13.196-2.2a7.824 7.824 0 0 1 6.207 1.637l25.622 20.758c1.682 1.363 4.209.4 4.556-1.736l5.918-36.405a7.814 7.814 0 0 1 3.34-5.224l41.97-28.335a2.82 2.82 0 0 0 1.229-2.058l3.832-38.862a7.823 7.823 0 0 1 .828-2.806l20.787-40.407a7.75 7.75 0 0 1 .785-1.232l14.093-18.116a7.822 7.822 0 0 1 8.643-2.616l16.79 5.597a7.8 7.8 0 0 1 2.906 1.74l8.69 8.23c.602.57 1.425.846 2.249.755l5.615-.624a7.815 7.815 0 0 1 6.608 2.467l3.2 3.464a2.817 2.817 0 0 0 2.754.821l10.424-2.604a7.82 7.82 0 0 1 7.882 2.555l8.728 10.389a2.819 2.819 0 0 0 2.253 1.003l12.687-.422a7.821 7.821 0 0 1 6.312 2.862l12.85 15.701a2.82 2.82 0 0 0 2.18 1.034h12.862a2.82 2.82 0 0 0 2.181-1.034l11.083-11.339 3.573 3.497-10.864 11.103a7.82 7.82 0 0 1-5.973 2.773z" fill="#1882F1" fill-rule="nonzero"/><path d="M21.563 200.015l.732-1.861 86.984 34.22a145.21 145.21 0 0 0 101.925 1.647l51.856-18.487a154.556 154.556 0 0 1 116.334 5.095l28.492 13.067a113.147 113.147 0 0 0 63.174 9.162 115.153 115.153 0 0 1 57.667 6.533l32.304 12.438a124.352 124.352 0 0 0 73.026 5.032l56.377-13.197a115.148 115.148 0 0 1 56.923 1.131l65.014 17.971-.533 1.928-65.014-17.971a113.148 113.148 0 0 0-55.934-1.111l-56.377 13.197a126.352 126.352 0 0 1-74.2-5.114l-32.305-12.438a113.153 113.153 0 0 0-56.665-6.419 115.15 115.15 0 0 1-64.291-9.324l-28.492-13.067a152.556 152.556 0 0 0-114.828-5.029l-51.856 18.487a147.21 147.21 0 0 1-103.33-1.67l-86.983-34.22z" fill="#FFF" fill-rule="nonzero"/><path d="M10.034 13.975c.68 0 1.117.108 1.432.358.486.415.6 1.124.615 2.427 0 .887-.071 1.446-.243 1.897-.28.651-.802.852-1.804.866-.816 0-1.36-.186-1.632-.566-.272-.379-.408-1.116-.408-2.197 0-1.117.093-1.74.4-2.19.316-.452.802-.595 1.64-.595zM8.91 16.76c0 .766.072 1.288.222 1.56.15.265.45.401.902.401.45 0 .751-.136.902-.4.15-.273.229-.795.229-1.561 0-.773-.079-1.296-.23-1.568-.15-.279-.45-.415-.901-.415s-.752.136-.902.415c-.15.272-.222.795-.222 1.568zm5.945-2.785c.68 0 1.117.108 1.432.358.487.415.601 1.124.615 2.427 0 .887-.071 1.446-.243 1.897-.28.651-.802.852-1.804.866-.816 0-1.36-.186-1.632-.566-.272-.379-.408-1.116-.408-2.197 0-1.117.093-1.74.4-2.19.316-.452.803-.595 1.64-.595zm-1.124 2.785c0 .766.072 1.288.222 1.56.15.265.451.401.902.401s.752-.136.902-.4c.15-.273.23-.795.23-1.561 0-.773-.08-1.296-.23-1.568-.15-.279-.45-.415-.902-.415-.45 0-.752.136-.902.415-.15.272-.222.795-.222 1.568zm4.485-1.274c.322 0 .515.179.515.494s-.193.493-.515.493c-.336 0-.523-.178-.523-.493s.187-.494.523-.494zm0 3.05c.322 0 .515.178.515.493s-.193.494-.515.494c-.336 0-.523-.179-.523-.494s.187-.494.523-.494zm3.175-3.645v3.794h.873c.072 0 .108.036.108.108v.587c0 .071-.036.107-.108.107h-2.677c-.079 0-.115-.036-.115-.107v-.587c0-.072.036-.108.108-.108h.923v-3.557c0-.308-.114-.38-.565-.38h-.43c-.079 0-.122-.035-.122-.107v-.458c0-.065.036-.108.115-.129.179-.05.394-.079.659-.079.322 0 .536.022.801.136.28.115.43.38.43.78zm3.082-.916c.458 0 .765.015 1.116.122.509.15.83.472.83 1.138v.573c0 .293-.042.537-.128.73-.086.193-.272.372-.551.537l-1.468.844c-.315.165-.408.308-.408.573v.186h2.556c.035 0 .05.015.05.043v.723c0 .029-.015.043-.043.043H22.89c-.122 0-.187-.064-.187-.2v-.637c0-.294.065-.537.194-.716.136-.18.372-.38.716-.587l1.617-.974c.222-.136.272-.322.272-.658v-.344c0-.48-.35-.594-1.095-.594H23.04c-.043 0-.065-.022-.065-.064v-.516c0-.057.03-.093.094-.114.515-.072.98-.108 1.403-.108zm3.282 1.51c.322 0 .515.18.515.495s-.193.493-.515.493c-.337 0-.523-.178-.523-.493s.186-.494.523-.494zm0 3.05c.322 0 .515.18.515.494 0 .315-.193.494-.515.494-.337 0-.523-.179-.523-.494s.186-.494.523-.494zm2.609-4.56c.823 0 1.396.093 1.718.28.322.186.487.558.487 1.123v.236c0 .638-.222 1.017-.659 1.132.437.121.659.5.659 1.123v.215c0 .573-.158.96-.48 1.153-.322.193-.895.286-1.725.286-.437 0-.845-.029-1.21-.079-.093-.021-.136-.057-.136-.107v-.544c0-.05.036-.072.108-.072h1.21c.536 0 .894-.05 1.059-.15.164-.1.25-.308.25-.616v-.043c0-.3-.057-.508-.179-.622-.114-.115-.35-.172-.715-.172h-1.332c-.064 0-.093-.029-.093-.086v-.566c0-.064.029-.093.093-.093h1.324c.365 0 .609-.057.723-.172.122-.114.18-.322.18-.63v-.085c0-.301-.087-.494-.265-.58-.172-.086-.537-.129-1.089-.129h-1.166c-.072 0-.108-.029-.108-.079v-.53c0-.057.043-.093.136-.114.322-.05.723-.079 1.21-.079zm4.6 0c.457 0 .765.015 1.116.122.508.15.83.472.83 1.138v.573c0 .293-.043.537-.128.73-.086.193-.272.372-.552.537l-1.467.844c-.315.165-.408.308-.408.573v.186h2.555c.036 0 .05.015.05.043v.723c0 .029-.014.043-.042.043H33.38c-.121 0-.186-.064-.186-.2v-.637c0-.294.065-.537.194-.716.136-.18.372-.38.715-.587l1.618-.974c.222-.136.272-.322.272-.658v-.344c0-.48-.35-.594-1.095-.594h-1.367c-.043 0-.065-.022-.065-.064v-.516c0-.057.029-.093.093-.114.516-.072.981-.108 1.403-.108zm235.573 0c.68 0 1.116.108 1.431.358.487.415.602 1.124.616 2.427 0 .887-.072 1.446-.243 1.897-.28.651-.802.852-1.804.866-.816 0-1.36-.186-1.632-.566-.272-.379-.408-1.116-.408-2.197 0-1.117.093-1.74.4-2.19.315-.452.802-.595 1.64-.595zm-1.124 2.785c0 .766.071 1.288.222 1.56.15.265.45.401.902.401.45 0 .751-.136.902-.4.15-.273.229-.795.229-1.561 0-.773-.079-1.296-.23-1.568-.15-.279-.45-.415-.901-.415s-.752.136-.902.415c-.15.272-.222.795-.222 1.568zm5.773-1.869v3.794h.873c.072 0 .108.036.108.108v.587c0 .071-.036.107-.108.107h-2.677c-.078 0-.114-.036-.114-.107v-.587c0-.072.036-.108.107-.108h.924v-3.557c0-.308-.115-.38-.566-.38h-.43c-.078 0-.121-.035-.121-.107v-.458c0-.065.036-.108.114-.129.18-.05.394-.079.659-.079.322 0 .537.022.802.136.279.115.43.38.43.78zm2.03.595c.322 0 .515.179.515.494s-.193.493-.515.493c-.337 0-.523-.178-.523-.493s.186-.494.523-.494zm0 3.05c.322 0 .515.178.515.493s-.193.494-.515.494c-.337 0-.523-.179-.523-.494s.186-.494.523-.494zm2.938-4.56c.458 0 .766.014 1.117.12.508.151.83.473.83 1.14v.572c0 .293-.043.537-.129.73-.085.193-.272.372-.55.537l-1.468.844c-.315.165-.408.308-.408.573v.186h2.555c.036 0 .05.015.05.043v.723c0 .029-.014.043-.043.043h-3.536c-.121 0-.186-.064-.186-.2v-.637c0-.294.065-.537.193-.716.136-.18.373-.38.716-.587l1.618-.974c.222-.136.272-.322.272-.658v-.344c0-.48-.35-.594-1.095-.594h-1.367c-.043 0-.065-.022-.065-.064v-.516c0-.057.029-.093.093-.114.516-.072.98-.108 1.403-.108zm4.005 0c.824 0 1.396.092 1.718.278.323.187.487.559.487 1.124v.236c0 .638-.222 1.017-.658 1.132.436.121.658.5.658 1.123v.215c0 .573-.157.96-.48 1.153-.322.193-.894.286-1.725.286-.436 0-.844-.029-1.21-.079-.092-.021-.135-.057-.135-.107v-.544c0-.05.035-.072.107-.072h1.21c.537 0 .895-.05 1.06-.15.164-.1.25-.308.25-.616v-.043c0-.3-.058-.508-.18-.622-.114-.115-.35-.172-.715-.172h-1.332c-.064 0-.093-.029-.093-.086v-.566c0-.064.03-.093.093-.093h1.325c.365 0 .608-.057.723-.172.121-.114.179-.322.179-.63v-.085c0-.301-.086-.494-.265-.58-.172-.086-.537-.129-1.088-.129h-1.167c-.072 0-.107-.029-.107-.079v-.53c0-.057.043-.093.136-.114.322-.05.723-.079 1.21-.079zm3.547 1.51c.323 0 .516.179.516.494s-.193.493-.516.493c-.336 0-.522-.178-.522-.493s.186-.494.522-.494zm0 3.05c.323 0 .516.178.516.493s-.193.494-.516.494c-.336 0-.522-.179-.522-.494s.186-.494.522-.494zm3.197-4.56h.114c1.21 0 1.776.472 1.776 1.495 0 .637-.215 1.031-.71 1.31.595.265.846.623.846 1.26 0 .988-.638 1.482-1.919 1.482h-.129c-1.31 0-1.918-.48-1.918-1.51 0-.566.293-1.01.873-1.332-.48-.243-.716-.644-.716-1.195 0-1.031.573-1.51 1.783-1.51zm.107.801h-.093c-.58 0-.873.236-.873.701 0 .423.229.623.658.788l.623.193c.365-.207.551-.515.551-.909 0-.515-.286-.773-.866-.773zm.33 2.505l-.774-.25c-.508.25-.68.522-.68.902 0 .522.337.787 1.01.787h.1c.673 0 1.01-.236 1.01-.708 0-.43-.244-.595-.667-.73zm2.158-3.271h3.686c.072 0 .108.036.108.107v.444a.32.32 0 0 1-.05.165l-2.413 4.689c-.028.05-.071.071-.129.071h-.823c-.093 0-.114-.043-.072-.129l2.356-4.545h-2.663c-.08 0-.115-.036-.115-.1v-.595c0-.071.036-.107.115-.107zm235.565-.036c.68 0 1.117.108 1.432.358.486.415.601 1.124.615 2.427 0 .887-.071 1.446-.243 1.897-.28.651-.802.852-1.804.866-.816 0-1.36-.186-1.632-.566-.272-.379-.408-1.116-.408-2.197 0-1.117.093-1.74.4-2.19.316-.452.802-.595 1.64-.595zm-1.124 2.785c0 .766.072 1.288.222 1.56.15.265.451.401.902.401s.752-.136.902-.4c.15-.273.229-.795.229-1.561 0-.773-.079-1.296-.23-1.568-.15-.279-.45-.415-.901-.415s-.752.136-.902.415c-.15.272-.222.795-.222 1.568zm5.537-2.785c.458 0 .766.015 1.117.122.508.15.83.472.83 1.138v.573c0 .293-.043.537-.129.73-.085.193-.272.372-.55.537l-1.468.844c-.315.165-.408.308-.408.573v.186h2.555c.036 0 .05.015.05.043v.723c0 .029-.014.043-.043.043h-3.536c-.122 0-.186-.064-.186-.2v-.637c0-.294.064-.537.193-.716.136-.18.373-.38.716-.587l1.618-.974c.222-.136.272-.322.272-.658v-.344c0-.48-.35-.594-1.095-.594h-1.367c-.043 0-.065-.022-.065-.064v-.516c0-.057.029-.093.093-.114.516-.072.98-.108 1.403-.108zm3.282 1.51c.322 0 .516.18.516.495s-.194.493-.516.493c-.336 0-.522-.178-.522-.493s.186-.494.522-.494zm0 3.05c.322 0 .516.18.516.494 0 .315-.194.494-.516.494-.336 0-.522-.179-.522-.494s.186-.494.522-.494zm3.347-4.56c.68 0 1.117.108 1.432.358.486.415.601 1.124.615 2.427 0 .887-.071 1.446-.243 1.897-.28.651-.802.852-1.804.866-.816 0-1.36-.186-1.632-.566-.272-.379-.408-1.116-.408-2.197 0-1.117.093-1.74.4-2.19.316-.452.802-.595 1.64-.595zm-1.124 2.785c0 .766.072 1.288.222 1.56.15.265.451.401.902.401s.752-.136.902-.4c.15-.273.229-.795.229-1.561 0-.773-.079-1.296-.23-1.568-.15-.279-.45-.415-.901-.415s-.752.136-.902.415c-.15.272-.222.795-.222 1.568zm7.663-1.246v.322c0 .323-.05.595-.157.81l-1.403 2.77c-.029.05-.072.071-.13.071h-.758c-.093 0-.114-.043-.072-.129l1.031-2.076a2.357 2.357 0 0 1-.58.058c-1.26 0-1.854-.451-1.854-1.504v-.329c0-1.11.623-1.532 1.948-1.532 1.324 0 1.975.423 1.975 1.54zm-1.975-.737c-.774 0-1.031.243-1.031.88v.03c0 .636.257.88 1.03.88.78 0 1.053-.244 1.053-.88v-.022c0-.652-.272-.888-1.052-.888zm3.189.709c.322 0 .515.179.515.494s-.193.493-.515.493c-.337 0-.523-.178-.523-.493s.186-.494.523-.494zm0 3.05c.322 0 .515.178.515.493s-.193.494-.515.494c-.337 0-.523-.179-.523-.494s.186-.494.523-.494zm5.064-3.022v.322c0 .323-.05.595-.157.81l-1.403 2.77c-.029.05-.072.071-.13.071h-.758c-.093 0-.114-.043-.072-.129l1.031-2.076a2.357 2.357 0 0 1-.58.058c-1.26 0-1.854-.451-1.854-1.504v-.329c0-1.11.623-1.532 1.948-1.532 1.324 0 1.975.423 1.975 1.54zm-1.975-.737c-.774 0-1.031.243-1.031.88v.03c0 .636.257.88 1.03.88.78 0 1.053-.244 1.053-.88v-.022c0-.652-.272-.888-1.052-.888zm4.649-.802c.68 0 1.117.108 1.432.358.486.415.601 1.124.615 2.427 0 .887-.071 1.446-.243 1.897-.28.651-.802.852-1.804.866-.816 0-1.36-.186-1.632-.566-.272-.379-.408-1.116-.408-2.197 0-1.117.093-1.74.4-2.19.316-.452.802-.595 1.64-.595zm-1.124 2.785c0 .766.072 1.288.222 1.56.15.265.451.401.902.401s.752-.136.902-.4c.15-.273.229-.795.229-1.561 0-.773-.079-1.296-.23-1.568-.15-.279-.45-.415-.901-.415s-.752.136-.902.415c-.15.272-.222.795-.222 1.568z" fill="#436991"/><path d="M466.216 13.236v6.96h1.452c.108 0 .156.048.156.144v.504c0 .108-.048.156-.156.156h-3.912c-.096 0-.144-.048-.144-.156v-.504c0-.096.048-.144.144-.144h1.548v-6.744c0-.54-.276-.684-1.056-.684h-.66c-.108.012-.168-.036-.168-.144v-.396c0-.072.048-.12.144-.156.216-.072.504-.108.876-.108.336 0 .48 0 .864.096.528.096.864.42.912 1.176zm5.016-1.272c.732 0 1.212.036 1.788.192.804.216 1.32.768 1.32 1.848v.732c0 .948-.216 1.56-1.044 1.98l-2.868 1.572c-.732.396-.948.72-.948 1.344v.564h4.812c.06 0 .084.024.084.06v.672c0 .048-.024.072-.072.072h-5.448c-.204 0-.3-.108-.3-.336v-1.032c0-.96.348-1.476 1.44-2.052l2.892-1.584c.432-.24.528-.624.528-1.26v-.732c0-.528-.228-.876-.672-1.032-.444-.156-.852-.204-1.512-.204h-2.136c-.06 0-.084-.024-.084-.072v-.516c0-.06.024-.084.072-.096.852-.084 1.572-.12 2.148-.12z" fill="#FFF"/><path d="M95.803 12.39c1.056 0 1.836.18 2.328.54.492.36.744 1.008.744 1.944 0 1.164-.336 1.824-1.008 1.992v.036c.828.156 1.248.876 1.248 2.148 0 .948-.24 1.584-.72 1.932-.48.336-1.212.504-2.196.504-1.38 0-2.496-.024-3.336-.06-.108-.012-.156-.06-.156-.156v-8.664c0-.096.048-.144.156-.156a55.63 55.63 0 0 1 2.94-.06zm-.06.804H93.63v3.348h1.908c.804 0 1.152-.024 1.596-.132.636-.18.78-.564.828-1.476 0-.684-.168-1.152-.516-1.38-.348-.24-.912-.36-1.704-.36zm.624 4.116H93.63v3.372h2.616c1.38 0 1.956-.348 1.956-1.632 0-1.356-.588-1.74-1.836-1.74zm2.772-4.86h6.552c.096 0 .144.048.144.144v.504c0 .108-.048.156-.144.156h-2.82v8.016c0 .108-.048.156-.156.156h-.6c-.108 0-.156-.048-.156-.156v-8.016h-2.82c-.108 0-.156-.048-.156-.156v-.504c0-.096.048-.144.156-.144zm11.185-.06c.96 0 1.68.024 2.16.072.096.012.144.06.144.168v.408c0 .108-.048.156-.156.156h-2.148c-1.14 0-1.764.18-2.16.792-.384.612-.48 1.416-.48 2.952s.096 2.328.48 2.952c.396.612 1.02.792 2.16.792h2.148c.108 0 .156.048.156.144v.42c0 .108-.048.156-.144.156-.564.06-1.284.084-2.16.084-1.164 0-1.92-.192-2.484-.588-.84-.672-1.056-1.824-1.068-3.96 0-1.452.12-2.376.42-3.108.492-1.092 1.404-1.404 3.132-1.44zm6.806.06h.612c.108 0 .156.048.156.144v8.676c0 .108-.048.156-.156.156h-.612c-.096 0-.144-.048-.144-.156v-8.676c0-.096.048-.144.144-.144zm9.193 0h.612c.096 0 .144.048.144.144v8.676c0 .108-.048.156-.144.156h-.588a.386.386 0 0 1-.336-.18l-5.076-7.608v7.632c0 .108-.048.156-.156.156h-.612c-.108 0-.156-.048-.156-.156v-8.676c0-.096.048-.144.156-.144h.648c.336 0 .408.036.564.276l4.788 7.176v-7.308c0-.096.048-.144.156-.144zm6.277-.06c1.344 0 2.28.348 2.82 1.032s.804 1.86.804 3.504c0 1.656-.264 2.832-.804 3.528-.54.684-1.476 1.032-2.82 1.032-1.332 0-2.412-.024-3.252-.06-.108-.012-.156-.06-.156-.156v-8.664c0-.096.048-.144.156-.156.636-.036 1.716-.06 3.252-.06zm-.144.804h-2.34v7.488h2.484c1.008 0 1.716-.288 2.112-.852.396-.564.6-1.536.6-2.904 0-1.356-.216-2.316-.636-2.88-.42-.564-1.164-.852-2.22-.852zm5.737-.744h5.424c.108 0 .156.048.156.144v.504c0 .108-.048.156-.156.156h-4.68v3.444h4.248c.108 0 .156.048.156.144v.504c0 .108-.048.156-.156.156h-4.248v3.12h4.68c.108 0 .156.048.156.144v.504c0 .108-.048.156-.156.156h-5.424c-.12 0-.18-.06-.18-.18V12.63c0-.12.06-.18.18-.18zm12.41 0h.66c.18 0 .215.072.107.216l-2.724 4.08 2.988 4.464c.096.144.06.216-.108.216h-.66a.32.32 0 0 1-.276-.156l-2.484-3.72-2.472 3.72a.32.32 0 0 1-.276.156h-.66c-.168 0-.204-.072-.108-.216l2.976-4.464-2.736-4.08c-.084-.144-.048-.216.108-.216h.672c.108 0 .204.048.264.156l2.232 3.324 2.22-3.324a.294.294 0 0 1 .276-.156z" fill="#8BABD9"/><path d="M357.679 12.39c1.056 0 1.836.18 2.328.54.492.36.744 1.008.744 1.944 0 1.164-.336 1.824-1.008 1.992v.036c.828.156 1.248.876 1.248 2.148 0 .948-.24 1.584-.72 1.932-.48.336-1.212.504-2.196.504-1.38 0-2.496-.024-3.336-.06-.108-.012-.156-.06-.156-.156v-8.664c0-.096.048-.144.156-.156a55.63 55.63 0 0 1 2.94-.06zm-.06.804h-2.112v3.348h1.908c.804 0 1.152-.024 1.596-.132.636-.18.78-.564.828-1.476 0-.684-.168-1.152-.516-1.38-.348-.24-.912-.36-1.704-.36zm.624 4.116h-2.736v3.372h2.616c1.38 0 1.956-.348 1.956-1.632 0-1.356-.588-1.74-1.836-1.74zm2.772-4.86h6.552c.096 0 .144.048.144.144v.504c0 .108-.048.156-.144.156h-2.82v8.016c0 .108-.048.156-.156.156h-.6c-.108 0-.156-.048-.156-.156v-8.016h-2.82c-.108 0-.156-.048-.156-.156v-.504c0-.096.048-.144.156-.144zm11.185-.06c.96 0 1.68.024 2.16.072.096.012.144.06.144.168v.408c0 .108-.048.156-.156.156H372.2c-1.14 0-1.764.18-2.16.792-.384.612-.48 1.416-.48 2.952s.096 2.328.48 2.952c.396.612 1.02.792 2.16.792h2.148c.108 0 .156.048.156.144v.42c0 .108-.048.156-.144.156-.564.06-1.284.084-2.16.084-1.164 0-1.92-.192-2.484-.588-.84-.672-1.056-1.824-1.068-3.96 0-1.452.12-2.376.42-3.108.492-1.092 1.404-1.404 3.132-1.44zm9.914 0c.984 0 1.716.024 2.196.072.096.012.144.072.144.168v.408c0 .108-.048.156-.156.156h-2.184c-1.14 0-1.764.18-2.16.804-.384.612-.48 1.416-.48 2.952s.096 2.328.48 2.94c.396.612 1.02.792 2.16.792h1.968v-3.516c0-.096.048-.144.156-.144h.564c.108 0 .156.048.156.144v3.732c0 .084-.012.144-.048.192-.192.276-1.068.408-2.616.396h-.18c-1.164 0-1.92-.192-2.484-.576-.84-.672-1.056-1.824-1.068-3.96 0-1.824.168-2.856.708-3.588.54-.732 1.392-.972 2.844-.972zm4.753.06h.612c.108 0 .156.048.156.144v8.028h4.536c.108 0 .156.048.156.144v.504c0 .108-.048.156-.156.156h-5.28c-.12 0-.18-.06-.18-.18v-8.652c0-.096.048-.144.156-.144zm10.105-.06c1.344 0 2.28.348 2.82 1.032s.804 1.86.804 3.504c0 1.656-.264 2.832-.804 3.528-.54.684-1.476 1.032-2.82 1.032-1.332 0-2.412-.024-3.252-.06-.108-.012-.156-.06-.156-.156v-8.664c0-.096.048-.144.156-.156.636-.036 1.716-.06 3.252-.06zm-.144.804h-2.34v7.488h2.484c1.008 0 1.716-.288 2.112-.852.396-.564.6-1.536.6-2.904 0-1.356-.216-2.316-.636-2.88-.42-.564-1.164-.852-2.22-.852z" fill="#FFB800"/><path d="M161.881 14.958h.516c.108 0 .156.048.156.156v2.208h2.208c.108 0 .156.048.156.144v.516c0 .108-.048.156-.156.156h-2.208v2.22c0 .108-.048.156-.156.156h-.516c-.108 0-.156-.048-.156-.156v-2.22h-2.208c-.108 0-.156-.048-.156-.156v-.516c0-.096.048-.144.156-.144h2.208v-2.208c0-.108.048-.156.156-.156zm4.933-1.296v6.96h1.452c.108 0 .156.048.156.144v.504c0 .108-.048.156-.156.156h-3.912c-.096 0-.144-.048-.144-.156v-.504c0-.096.048-.144.144-.144h1.548v-6.744c0-.54-.276-.684-1.056-.684h-.66c-.108.012-.168-.036-.168-.144v-.396c0-.072.048-.12.144-.156.216-.072.504-.108.876-.108.336 0 .48 0 .864.096.528.096.864.42.912 1.176zm5.04-1.272c.733 0 1.213.036 1.789.192.804.216 1.32.768 1.32 1.848v.732c0 .948-.216 1.56-1.044 1.98l-2.868 1.572c-.732.396-.948.72-.948 1.344v.564h4.812c.06 0 .084.024.084.06v.672c0 .048-.024.072-.072.072h-5.448c-.204 0-.3-.108-.3-.336v-1.032c0-.96.348-1.476 1.44-2.052l2.892-1.584c.432-.24.528-.624.528-1.26v-.732c0-.528-.228-.876-.672-1.032-.444-.156-.852-.204-1.512-.204h-2.136c-.06 0-.084-.024-.084-.072v-.516c0-.06.024-.084.072-.096.852-.084 1.572-.12 2.148-.12zm6.374 0c1.404 0 2.352.156 2.856.456.504.3.756.912.756 1.86v.24c0 1.056-.408 1.752-1.14 1.98.756.252 1.14.912 1.14 1.98v.204c0 .948-.252 1.584-.756 1.908-.492.312-1.452.468-2.856.468-.564 0-1.14-.024-1.74-.072-.096-.012-.144-.036-.144-.06v-.588c0-.06.048-.084.156-.084h1.812c1.02 0 1.704-.108 2.064-.312.36-.216.54-.648.54-1.284v-.132c-.012-1.2-.456-1.62-1.788-1.62h-2.196c-.084 0-.132-.036-.132-.12v-.552c0-.084.048-.12.132-.12h2.184c1.344 0 1.8-.408 1.8-1.644v-.216c0-.624-.192-1.032-.564-1.212-.372-.18-1.08-.276-2.124-.276H176.5c-.108 0-.156-.024-.156-.084v-.564c0-.06.048-.084.144-.084.48-.048 1.056-.072 1.74-.072zm6.973 0c.792 0 1.332.168 1.632.516.3.336.444.96.444 1.86 0 .912-.144 1.536-.444 1.884-.288.336-.828.504-1.632.504-.804 0-1.344-.168-1.644-.504-.3-.348-.444-.972-.444-1.884 0-.9.144-1.524.444-1.86.3-.348.84-.516 1.644-.516zm5.016.06h.444c.108 0 .132.048.072.156l-4.548 8.664c-.06.108-.132.156-.24.156h-.444c-.108 0-.132-.048-.072-.156l4.548-8.676a.252.252 0 0 1 .24-.144zm-6.228 2.316c0 1.236.288 1.62 1.212 1.62.912 0 1.2-.384 1.2-1.62 0-1.212-.276-1.596-1.2-1.596-.924 0-1.212.384-1.212 1.596zm9.312 4.332c0 .912-.144 1.536-.444 1.884-.288.336-.828.504-1.632.504-.804 0-1.344-.168-1.644-.504-.288-.348-.432-.972-.432-1.884 0-.9.144-1.524.444-1.86.3-.336.84-.504 1.632-.504.792 0 1.332.168 1.632.504.3.336.444.96.444 1.86zm-3.288 0c0 1.236.288 1.62 1.212 1.62.924 0 1.212-.384 1.212-1.62 0-1.212-.288-1.596-1.212-1.596-.924 0-1.212.384-1.212 1.596z" fill="#1882F1"/><path d="M587.905 13.975c.68 0 1.117.108 1.432.358.486.415.6 1.124.615 2.427 0 .887-.071 1.446-.243 1.897-.28.651-.802.852-1.804.866-.816 0-1.36-.186-1.632-.566-.272-.379-.408-1.116-.408-2.197 0-1.117.093-1.74.4-2.19.316-.452.802-.595 1.64-.595zm-1.124 2.785c0 .766.072 1.288.222 1.56.15.265.451.401.902.401.45 0 .752-.136.902-.4.15-.273.229-.795.229-1.561 0-.773-.079-1.296-.23-1.568-.15-.279-.45-.415-.901-.415s-.752.136-.902.415c-.15.272-.222.795-.222 1.568zm5.208-2.785c.823 0 1.396.093 1.718.28.322.186.487.558.487 1.123v.236c0 .638-.222 1.017-.659 1.132.437.121.659.5.659 1.123v.215c0 .573-.158.96-.48 1.153-.322.193-.895.286-1.725.286-.437 0-.845-.029-1.21-.079-.093-.021-.136-.057-.136-.107v-.544c0-.05.036-.072.107-.072h1.21c.537 0 .895-.05 1.06-.15.164-.1.25-.308.25-.616v-.043c0-.3-.057-.508-.179-.622-.114-.115-.35-.172-.716-.172h-1.331c-.064 0-.093-.029-.093-.086v-.566c0-.064.029-.093.093-.093h1.324c.365 0 .609-.057.723-.172.122-.114.18-.322.18-.63v-.085c0-.301-.087-.494-.266-.58-.171-.086-.537-.129-1.088-.129h-1.167c-.071 0-.107-.029-.107-.079v-.53c0-.057.043-.093.136-.114.322-.05.723-.079 1.21-.079zm3.547 1.51c.322 0 .515.18.515.495s-.193.493-.515.493c-.337 0-.523-.178-.523-.493s.186-.494.523-.494zm0 3.05c.322 0 .515.18.515.494 0 .315-.193.494-.515.494-.337 0-.523-.179-.523-.494s.186-.494.523-.494zm5.065-3.02v.321c0 .323-.05.595-.158.81l-1.403 2.77c-.029.05-.072.071-.129.071h-.759c-.093 0-.114-.043-.071-.129l1.03-2.076a2.35 2.35 0 0 1-.58.058c-1.26 0-1.853-.451-1.853-1.504v-.329c0-1.11.623-1.532 1.947-1.532s1.976.423 1.976 1.54zm-1.976-.738c-.773 0-1.031.243-1.031.88v.03c0 .636.258.88 1.03.88.781 0 1.053-.244 1.053-.88v-.022c0-.652-.272-.888-1.052-.888zm4.499-.802h.114c1.21 0 1.776.473 1.776 1.496 0 .637-.215 1.031-.709 1.31.594.265.845.623.845 1.26 0 .988-.637 1.482-1.919 1.482h-.129c-1.31 0-1.918-.48-1.918-1.51 0-.566.293-1.01.873-1.332-.48-.243-.716-.644-.716-1.195 0-1.031.573-1.51 1.783-1.51zm.107.802h-.093c-.58 0-.873.236-.873.701 0 .423.229.623.658.788l.623.193c.365-.207.551-.515.551-.909 0-.515-.286-.773-.866-.773zm.33 2.505l-.774-.25c-.508.25-.68.522-.68.902 0 .522.337.787 1.01.787h.1c.673 0 1.01-.236 1.01-.708 0-.43-.244-.595-.666-.73zm2.86-1.796c.322 0 .515.179.515.494s-.193.493-.516.493c-.336 0-.522-.178-.522-.493s.186-.494.522-.494zm0 3.05c.322 0 .515.178.515.493s-.193.494-.516.494c-.336 0-.522-.179-.522-.494s.186-.494.522-.494zm1.184-4.525h3.687c.071 0 .107.036.107.107v.444a.31.31 0 0 1-.05.165l-2.412 4.689c-.029.05-.072.071-.13.071h-.822c-.093 0-.115-.043-.072-.129l2.355-4.545h-2.663c-.079 0-.114-.036-.114-.1v-.595c0-.071.035-.107.114-.107zm6.174-.036h.115c1.21 0 1.775.473 1.775 1.496 0 .637-.215 1.031-.709 1.31.595.265.845.623.845 1.26 0 .988-.637 1.482-1.918 1.482h-.13c-1.31 0-1.918-.48-1.918-1.51 0-.566.294-1.01.874-1.332-.48-.243-.716-.644-.716-1.195 0-1.031.573-1.51 1.782-1.51zm.108.802h-.093c-.58 0-.874.236-.874.701 0 .423.23.623.659.788l.623.193c.365-.207.55-.515.55-.909 0-.515-.285-.773-.865-.773zm.329 2.505l-.773-.25c-.508.25-.68.522-.68.902 0 .522.336.787 1.01.787h.1c.672 0 1.009-.236 1.009-.708 0-.43-.244-.595-.666-.73zm185.501-3.307c.68 0 1.116.108 1.431.358.487.415.602 1.124.616 2.427 0 .887-.072 1.446-.243 1.897-.28.651-.802.852-1.804.866-.816 0-1.36-.186-1.632-.566-.272-.379-.408-1.116-.408-2.197 0-1.117.093-1.74.4-2.19.315-.452.802-.595 1.64-.595zm-1.124 2.785c0 .766.071 1.288.222 1.56.15.265.45.401.902.401.45 0 .751-.136.902-.4.15-.273.229-.795.229-1.561 0-.773-.079-1.296-.23-1.568-.15-.279-.45-.415-.901-.415s-.752.136-.902.415c-.15.272-.222.795-.222 1.568zm4.184-2.749h3.236c.078 0 .114.036.114.107v.587c0 .072-.036.108-.114.108h-2.52l-.1 1.353a8.59 8.59 0 0 1 .694-.036c.787 0 1.339.107 1.654.315.315.207.472.615.48 1.217v.343c-.008.595-.173 1.003-.495 1.21-.322.208-.887.308-1.71.308-.552 0-1.01-.021-1.368-.064-.086-.022-.129-.065-.129-.13V18.8c0-.05.036-.079.108-.079h1.396c.508 0 .851-.057 1.023-.172.172-.121.258-.343.258-.68v-.057c-.007-.336-.093-.573-.265-.694-.165-.122-.508-.186-1.016-.186h-1.353c-.1 0-.15-.036-.15-.108v-.558l.15-2.148c0-.071.035-.107.107-.107zm4.721 1.475c.322 0 .515.179.515.494s-.193.493-.515.493c-.336 0-.523-.178-.523-.493s.187-.494.523-.494zm0 3.05c.322 0 .515.178.515.493s-.193.494-.515.494c-.336 0-.523-.179-.523-.494s.187-.494.523-.494zm3.196-4.56h.115c1.21 0 1.775.472 1.775 1.495 0 .637-.215 1.031-.709 1.31.595.265.845.623.845 1.26 0 .988-.637 1.482-1.918 1.482h-.13c-1.31 0-1.918-.48-1.918-1.51 0-.566.294-1.01.874-1.332-.48-.243-.716-.644-.716-1.195 0-1.031.573-1.51 1.782-1.51zm.108.801h-.093c-.58 0-.874.236-.874.701 0 .423.23.623.659.788l.623.193c.365-.207.55-.515.55-.909 0-.515-.285-.773-.865-.773zm.329 2.505l-.773-.25c-.508.25-.68.522-.68.902 0 .522.336.787 1.01.787h.1c.672 0 1.009-.236 1.009-.708 0-.43-.244-.595-.666-.73zm3.583-3.307c.823 0 1.396.093 1.718.28.322.186.487.558.487 1.123v.236c0 .638-.222 1.017-.659 1.132.437.121.659.5.659 1.123v.215c0 .573-.158.96-.48 1.153-.322.193-.895.286-1.725.286-.437 0-.845-.029-1.21-.079-.093-.021-.136-.057-.136-.107v-.544c0-.05.036-.072.107-.072h1.21c.537 0 .895-.05 1.06-.15.164-.1.25-.308.25-.616v-.043c0-.3-.057-.508-.179-.622-.114-.115-.35-.172-.716-.172h-1.331c-.065 0-.093-.029-.093-.086v-.566c0-.064.028-.093.093-.093h1.324c.365 0 .609-.057.723-.172.122-.114.18-.322.18-.63v-.085c0-.301-.087-.494-.266-.58-.172-.086-.537-.129-1.088-.129h-1.167c-.071 0-.107-.029-.107-.079v-.53c0-.057.043-.093.136-.114.322-.05.723-.079 1.21-.079zm3.547 1.51c.322 0 .515.18.515.495s-.193.493-.515.493c-.337 0-.523-.178-.523-.493s.186-.494.523-.494zm0 3.05c.322 0 .515.18.515.494 0 .315-.193.494-.515.494-.337 0-.523-.179-.523-.494s.186-.494.523-.494zm3.196-4.56h.115c1.21 0 1.775.473 1.775 1.496 0 .637-.215 1.031-.709 1.31.594.265.845.623.845 1.26 0 .988-.637 1.482-1.919 1.482h-.128c-1.31 0-1.919-.48-1.919-1.51 0-.566.294-1.01.874-1.332-.48-.243-.716-.644-.716-1.195 0-1.031.572-1.51 1.782-1.51zm.107.802h-.093c-.58 0-.873.236-.873.701 0 .423.23.623.659.788l.622.193c.366-.207.552-.515.552-.909 0-.515-.287-.773-.867-.773zm.33 2.505l-.773-.25c-.509.25-.68.522-.68.902 0 .522.336.787 1.009.787h.1c.673 0 1.01-.236 1.01-.708 0-.43-.244-.595-.666-.73zm2.158-3.271h3.687c.071 0 .107.036.107.107v.444a.31.31 0 0 1-.05.165l-2.412 4.689a.138.138 0 0 1-.13.071h-.823c-.093 0-.114-.043-.071-.129l2.355-4.545h-2.663c-.079 0-.114-.036-.114-.1v-.595c0-.071.035-.107.114-.107z" fill="#436991"/><path d="M469.004 209.695V34.924m15.428-18.713C484.432 7.81 477.62 1 469.216 1 460.813 1 454 7.81 454 16.211s6.813 15.212 15.216 15.212c8.404 0 15.216-6.811 15.216-15.212z" stroke="#1882F1" stroke-dasharray="3"/><path d="M650.235 132.95c0-4.96 4.037-8.995 9-8.995s9 4.035 9 8.996c0 4.96-4.037 8.997-9 8.997s-9-4.036-9-8.997z" fill="#00D972"/><path d="M659.235 120.955c-6.627 0-12 5.37-12 11.997 0 6.625 5.373 11.996 12 11.996 6.628 0 12-5.371 12-11.996 0-6.626-5.372-11.997-12-11.997m0 6c3.31 0 6 2.69 6 5.997a6.005 6.005 0 0 1-6 5.996c-3.309 0-6-2.69-6-5.996a6.005 6.005 0 0 1 6-5.997" fill="#FFF"/><path d="M18.42 374.488c.68 0 1.116.107 1.431.358.487.415.602 1.124.616 2.427 0 .887-.072 1.446-.244 1.897-.279.651-.801.851-1.803.866-.817 0-1.36-.186-1.633-.566-.272-.38-.408-1.116-.408-2.197 0-1.117.093-1.74.401-2.19.315-.452.802-.595 1.64-.595zm-1.124 2.785c0 .766.071 1.288.222 1.56.15.265.45.401.902.401.45 0 .751-.136.901-.4.15-.273.23-.795.23-1.561 0-.773-.08-1.296-.23-1.568-.15-.28-.45-.415-.901-.415s-.752.136-.902.415c-.15.272-.222.795-.222 1.568zm5.945-2.785c.68 0 1.116.107 1.431.358.487.415.602 1.124.616 2.427 0 .887-.072 1.446-.243 1.897-.28.651-.802.851-1.804.866-.816 0-1.36-.186-1.632-.566-.272-.38-.408-1.116-.408-2.197 0-1.117.093-1.74.4-2.19.315-.452.802-.595 1.64-.595zm-1.124 2.785c0 .766.071 1.288.222 1.56.15.265.45.401.902.401.45 0 .751-.136.902-.4.15-.273.229-.795.229-1.561 0-.773-.079-1.296-.23-1.568-.15-.28-.45-.415-.901-.415s-.752.136-.902.415c-.15.272-.222.795-.222 1.568zm5.773-1.869v3.794h.874c.071 0 .107.036.107.108v.587c0 .071-.036.107-.107.107h-2.678c-.078 0-.114-.036-.114-.107v-.587c0-.072.036-.108.107-.108h.924v-3.557c0-.308-.115-.38-.566-.38h-.43c-.078 0-.121-.036-.121-.107v-.458c0-.065.036-.108.114-.13.18-.05.394-.078.659-.078.322 0 .537.022.802.136.279.115.43.38.43.78zm246.683-.873h.651c.072 0 .107.036.107.115v2.777l1.103-1.31a.172.172 0 0 1 .15-.072h.773c.122 0 .143.043.065.136l-1.21 1.425 1.575 2.205c.079.086.057.193-.122.193h-.694a.2.2 0 0 1-.158-.079l-1.482-2.126v2.09c0 .08-.035.115-.107.115h-.651c-.072 0-.108-.036-.108-.115v-5.24c0-.078.036-.114.108-.114zm4.742 1.475c1.224 0 1.675.372 1.675 1.174v2.49c0 .108-.05.173-.143.208-.365.108-.902.158-1.61.158-.552 0-.938-.079-1.167-.23-.23-.157-.344-.479-.344-.966 0-.866.422-1.138 1.36-1.138h1.038v-.372c0-.401-.236-.573-.809-.573h-1.174c-.086 0-.107-.021-.107-.107v-.437c0-.086.021-.093.1-.114a6.32 6.32 0 0 1 1.181-.093zm.809 3.228v-.91h-.988c-.394 0-.551.13-.551.48 0 .401.179.509.723.509.344 0 .616-.029.816-.079zm5.093-1.21c0 .81-.114 1.353-.343 1.618-.222.265-.695.394-1.403.394-.709 0-1.182-.13-1.403-.394-.222-.265-.337-.809-.337-1.618 0-.816.115-1.353.337-1.618.221-.264.694-.4 1.403-.4.708 0 1.18.136 1.403.4.229.265.343.802.343 1.618zm-1.03-1.023c-.108-.165-.344-.244-.716-.244-.373 0-.609.079-.716.244-.108.164-.158.5-.158 1.023 0 .523.05.86.158 1.024.107.157.343.236.716.236.372 0 .608-.079.715-.236.108-.165.158-.501.158-1.024 0-.522-.05-.859-.158-1.023zm3.504-.995c.715 0 1.052.043 1.331.293.286.236.358.637.358 1.403v2.19c0 .072-.036.108-.115.108h-.644c-.071 0-.107-.036-.107-.107v-2.033c0-.544-.022-.802-.172-.945a.443.443 0 0 0-.243-.136 2.914 2.914 0 0 0-.423-.022h-.823v3.136c0 .071-.036.107-.107.107h-.659c-.064 0-.1-.036-.1-.107v-3.658c0-.093.036-.1.1-.115.38-.079.91-.114 1.604-.114zm3.003-1.59c.343 0 .515.165.515.494 0 .33-.172.494-.515.494-.337 0-.523-.179-.523-.494s.186-.494.523-.494zm-.33 1.625h.652c.071 0 .107.036.107.108v3.744c0 .071-.036.107-.107.107h-.652c-.071 0-.107-.036-.107-.107v-3.744c0-.072.036-.108.107-.108zm242.755-.035c.716 0 1.188.136 1.417.4.236.265.351.788.351 1.582 0 .817-.107 1.36-.33 1.64-.221.272-.658.408-1.316.408-.358 0-.659-.015-.91-.043v1.324c0 .079-.035.115-.107.115h-.658c-.072 0-.108-.036-.108-.115v-5.04c0-.078.043-.128.136-.143a9.395 9.395 0 0 1 1.525-.128zm.029.751h-.817v2.477c.244.029.502.043.774.043.393 0 .644-.079.751-.236.108-.158.165-.501.165-1.024 0-.515-.05-.852-.15-1.016-.1-.165-.344-.244-.723-.244zm4.098-.751c.694 0 1.074.086 1.331.393.265.308.337.738.344 1.547v.214c0 .143-.05.194-.244.194h-2.269c.007.379.072.63.186.751.122.122.351.18.702.18h1.224c.072 0 .107.035.107.107v.443c0 .065-.035.108-.1.122-.35.05-.773.079-1.281.079-.695 0-1.153-.13-1.375-.394-.222-.265-.336-.809-.336-1.618s.107-1.353.33-1.618c.221-.264.686-.4 1.38-.4zm0 .751c-.337 0-.559.065-.666.2-.107.13-.165.387-.172.774h1.64c-.008-.387-.058-.644-.165-.773-.108-.136-.315-.2-.637-.2zm4.04-.751c.717 0 1.189.136 1.418.4.236.265.35.788.35 1.582 0 .817-.107 1.36-.328 1.64-.222.272-.659.408-1.318.408-.357 0-.658-.015-.909-.043v1.324c0 .079-.035.115-.107.115h-.659c-.071 0-.107-.036-.107-.115v-5.04c0-.078.043-.128.136-.143a9.395 9.395 0 0 1 1.525-.128zm.03.751h-.817v2.477c.244.029.501.043.773.043.394 0 .645-.079.752-.236.107-.158.165-.501.165-1.024 0-.515-.05-.852-.15-1.016-.1-.165-.344-.244-.724-.244zm4.17-.751c.715 0 1.187.136 1.417.4.236.265.35.788.35 1.582 0 .817-.107 1.36-.329 1.64-.222.272-.659.408-1.317.408-.358 0-.659-.015-.91-.043v1.324c0 .079-.035.115-.107.115h-.658c-.072 0-.108-.036-.108-.115v-5.04c0-.078.043-.128.136-.143a9.395 9.395 0 0 1 1.525-.128zm.028.751h-.816v2.477c.243.029.5.043.773.043.394 0 .644-.079.752-.236.107-.158.164-.501.164-1.024 0-.515-.05-.852-.15-1.016-.1-.165-.344-.244-.723-.244zm4.098-.751c.694 0 1.074.086 1.332.393.264.308.336.738.343 1.547v.214c0 .143-.05.194-.243.194h-2.27c.008.379.072.63.187.751.121.122.35.18.701.18h1.224c.072 0 .108.035.108.107v.443c0 .065-.036.108-.1.122a9.17 9.17 0 0 1-1.282.079c-.694 0-1.152-.13-1.374-.394-.222-.265-.337-.809-.337-1.618s.108-1.353.33-1.618c.221-.264.687-.4 1.381-.4zm0 .751c-.336 0-.558.065-.666.2-.107.13-.164.387-.171.774h1.639c-.007-.387-.057-.644-.165-.773-.107-.136-.315-.2-.637-.2zm3.583-.751c.408 0 .694.028.873.078.079.022.115.065.115.13v.436c0 .079-.043.114-.122.107h-.651c-.437 0-.559.072-.559.387v2.749c0 .071-.036.107-.107.107h-.652c-.071 0-.107-.036-.107-.107v-2.971c0-.401.15-.666.415-.78.265-.115.473-.136.795-.136zm42.888 0c.444 0 .823.028 1.131.078.072.015.107.058.107.13v.436c0 .071-.035.107-.114.107h-1.124c-.372 0-.608.079-.716.244-.1.157-.15.494-.15 1.016 0 .523.05.86.15 1.024.108.164.344.243.716.243h1.124c.079 0 .114.036.114.108v.436c0 .072-.035.115-.107.129a7.17 7.17 0 0 1-1.13.079c-.724 0-1.19-.13-1.411-.394-.222-.265-.33-.802-.33-1.625 0-.852.065-1.281.323-1.603.265-.322.673-.408 1.417-.408zm2.03-1.475h.651c.072 0 .107.036.107.107v1.403c.208-.021.487-.035.838-.035.716 0 1.052.043 1.331.293.287.236.358.637.358 1.403v2.19c0 .072-.036.108-.107.108h-.652c-.071 0-.107-.036-.107-.107v-2.033c0-.544-.021-.802-.172-.952-.15-.15-.286-.158-.665-.158h-.824v3.143c0 .071-.035.107-.107.107h-.659c-.064 0-.1-.036-.1-.107v-5.255c0-.071.036-.107.108-.107zm4.599-.115c.343 0 .515.165.515.494 0 .33-.172.494-.515.494-.337 0-.523-.179-.523-.494s.186-.494.523-.494zm-.33 1.625h.652c.072 0 .107.036.107.108v3.744c0 .071-.035.107-.107.107h-.651c-.072 0-.108-.036-.108-.107v-3.744c0-.072.036-.108.108-.108zm1.772-1.517h.652c.071 0 .107.036.107.107v5.262c0 .071-.036.107-.107.107h-.652c-.071 0-.107-.036-.107-.107v-5.262c0-.071.036-.107.107-.107zm2.101-.108c.344 0 .516.165.516.494 0 .33-.172.494-.516.494-.336 0-.522-.179-.522-.494s.186-.494.522-.494zm-.329 1.625h.652c.071 0 .107.036.107.108v3.744c0 .071-.036.107-.107.107h-.652c-.071 0-.107-.036-.107-.107v-3.744c0-.072.036-.108.107-.108zm201.494-1.553c.68 0 1.116.107 1.431.358.487.415.602 1.124.616 2.427 0 .887-.072 1.446-.244 1.897-.279.651-.801.851-1.803.866-.817 0-1.36-.186-1.633-.566-.272-.38-.408-1.116-.408-2.197 0-1.117.093-1.74.401-2.19.315-.452.802-.595 1.64-.595zm-1.124 2.785c0 .766.071 1.288.222 1.56.15.265.45.401.902.401.45 0 .751-.136.901-.4.15-.273.23-.795.23-1.561 0-.773-.08-1.296-.23-1.568-.15-.28-.45-.415-.901-.415s-.752.136-.902.415c-.15.272-.222.795-.222 1.568zm5.945-2.785c.68 0 1.116.107 1.431.358.487.415.602 1.124.616 2.427 0 .887-.072 1.446-.243 1.897-.28.651-.802.851-1.804.866-.816 0-1.36-.186-1.632-.566-.272-.38-.408-1.116-.408-2.197 0-1.117.093-1.74.4-2.19.315-.452.802-.595 1.64-.595zm-1.124 2.785c0 .766.071 1.288.222 1.56.15.265.45.401.902.401.45 0 .751-.136.902-.4.15-.273.229-.795.229-1.561 0-.773-.079-1.296-.23-1.568-.15-.28-.45-.415-.901-.415s-.752.136-.902.415c-.15.272-.222.795-.222 1.568zm7.663-1.246v.322c0 .322-.05.594-.157.81l-1.404 2.77c-.028.05-.071.071-.128.071h-.76c-.092 0-.114-.043-.07-.129l1.03-2.076c-.136.036-.33.057-.58.057-1.26 0-1.854-.45-1.854-1.503v-.33c0-1.109.623-1.531 1.947-1.531 1.325 0 1.976.422 1.976 1.54zm-1.976-.737c-.773 0-1.03.243-1.03.88v.029c0 .637.257.88 1.03.88.78 0 1.053-.243 1.053-.88v-.022c0-.651-.272-.887-1.053-.887z" fill="#436991"/><g transform="translate(159 182)"><use fill="#000" filter="url(#w)" xlink:href="#x"/><path stroke="#879BBA" d="M87 16.75V17h-5.5v66H87v.25V83h5.5V17H87v-.25z" stroke-linejoin="square" fill-opacity=".2" fill="#879BBA"/></g><g transform="translate(159 182)"><use fill="#000" filter="url(#y)" xlink:href="#z"/><path stroke="#879BBA" d="M508.5 56v66h5.5v.25-.25h5.5V56H514V39l.5.5h-1l.5-.5v17h-5.5z" stroke-linejoin="square" fill-opacity=".2" fill="#879BBA"/></g><g transform="translate(159 182)"><use fill="#000" filter="url(#A)" xlink:href="#B"/><path stroke="#879BBA" d="M27.5 20.7v52.6H33v.25-.25h5.5V20.7H33V7l.5.5h-1L33 7v13.7h-5.5z" stroke-linejoin="square" fill-opacity=".2" fill="#879BBA"/></g><g transform="translate(159 182)"><use fill="#000" filter="url(#C)" xlink:href="#D"/><path stroke="#879BBA" d="M114 58.273v.25h-5.5v42.954h5.5v.25-.25h5.5V58.523H114v-.25z" stroke-linejoin="square" fill-opacity=".2" fill="#879BBA"/></g><g transform="translate(159 182)"><use fill="#000" filter="url(#E)" xlink:href="#F"/><path stroke="#879BBA" d="M6 47.285v.25H.5v28.93H6v.25-.25h5.5v-28.93H6v-.25z" stroke-linejoin="square" fill-opacity=".2" fill="#879BBA"/></g><g transform="translate(159 182)"><use fill="#000" filter="url(#G)" xlink:href="#H"/><path stroke="#879BBA" d="M481.5 80.534v28.931h5.5v.25-.25h5.5v-28.93H487V68l.5.5h-1l.5-.5v12.534h-5.5z" stroke-linejoin="square" fill-opacity=".2" fill="#879BBA"/></g><g transform="translate(159 182)"><use fill="#000" filter="url(#I)" xlink:href="#J"/><path stroke="#879BBA" d="M195 98.011v4.512h-5.5v18.954h5.5v.25-.25h5.5v-18.954H195v-4.511z" stroke-linejoin="square" fill-opacity=".2" fill="#879BBA"/></g><g transform="translate(159 182)"><use fill="#000" filter="url(#K)" xlink:href="#L"/><path stroke="#879BBA" d="M135.5 73.523v18.954h5.5v.25-.25h5.5V73.523H141V65l.5.5h-1l.5-.5v8.523h-5.5z" stroke-linejoin="square" fill-opacity=".2" fill="#879BBA"/></g><g transform="translate(159 182)"><use fill="#000" filter="url(#M)" xlink:href="#N"/><path stroke="#879BBA" d="M535.5 132.974v25.052h5.5v.25-.25h5.5v-25.052H541V122l.5.5h-1l.5-.5v10.974h-5.5z" stroke-linejoin="square" fill-opacity=".2" fill="#879BBA"/></g><g transform="translate(159 182)"><use fill="#000" filter="url(#O)" xlink:href="#P"/><path stroke="#879BBA" d="M54.5 33.209V68.79H60v.25-.25h5.5V33.21H60V18l.5.5h-1l.5-.5v15.209h-5.5z" stroke-linejoin="square" fill-opacity=".2" fill="#879BBA"/></g><g transform="translate(159 182)"><use fill="#000" filter="url(#Q)" xlink:href="#R"/><path stroke="#879BBA" d="M168 46.75V47h-5.5v66h5.5v.25-.25h5.5V47H168v-.25z" stroke-linejoin="square" fill-opacity=".2" fill="#879BBA"/></g></g></svg>