<svg width="835" height="390" xmlns="http://www.w3.org/2000/svg" xmlns:xlink="http://www.w3.org/1999/xlink"><defs><path d="M155.483 10.11l-20.852 19.746c-10.108 9.572-25.974 9.449-35.932-.278l-1.889-1.847C82.231 13.49 59.094 13.017 43.945 26.65L.622 65.639h280.15L201.677 7.278A35.952 35.952 0 0 0 180.28.236a36 36 0 0 0-24.797 9.874z" id="a"/><path d="M8.989 7.478L.928 13.89v34.749h73.395L54.845 15.876C49.004 6.052 38.694.746 28.212.746A30.742 30.742 0 0 0 8.989 7.478z" id="c"/><path d="M218.211 8.628l-48.596 54.871c-13.527 15.274-36.702 17.146-52.508 4.244L95.176 49.839a34.39 34.39 0 0 0-35.836-4.728l-15.021 6.746a64.252 64.252 0 0 0-27.347 23.289L.85 99.639h252.254V8.07C248.431 3.122 242.17.66 235.916.66c-6.508.001-13.009 2.666-17.705 7.968z" id="e"/><path d="M.323.639v35.195l5.339-2.03a24.765 24.765 0 0 1 23.607 3.301L62.73 62.077a35.243 35.243 0 0 0 39.572 1.753l11.542-7.117V.639H.323z" id="g"/><path d="M.772.639V48.66l13.764-14.913c9.234-10.005 24.715-10.957 35.106-2.159L70.75 49.46c2.409 2.038 6.1.327 6.1-2.827V.639H.772z" id="i"/><path d="M3.388 3.742l-2.46.95v23.947h73.395L58.115 13.93A52.999 52.999 0 0 0 3.388 3.742z" id="k"/><path d="M.83.639v20.953l2.654-1.054a43.207 43.207 0 0 1 33.276 2.62l23.1 11.884a56.064 56.064 0 0 0 45.403 2.614l10.581-3.984V.639H.83z" id="m"/><path d="M154.891 7.398l-17.646 10.629a36.729 36.729 0 0 1-36.05 1.046l-5.733-3.015a48.499 48.499 0 0 0-44.084-.541L.622 40.639h280.15l-31.197-8.146a72.036 72.036 0 0 1-22.614-10.34L207.82 8.992A48.853 48.853 0 0 0 180.116.388a48.868 48.868 0 0 0-25.225 7.01z" id="o"/><path d="M.772.638v25.829c2.524.357 5.3-.168 8.055-1.856l6.169-4.432a36.194 36.194 0 0 1 37.013-.206l9.12 5.908c5.046 3.269 10.759 3.676 15.721 2.008V.638H.772z" id="q"/><path d="M206.068 8.864l-57.155 33.063a20.472 20.472 0 0 1-22.638-1.422l-19.807-15.053a47.031 47.031 0 0 0-41.485-7.745L46.17 23.131a76.072 76.072 0 0 0-31.875 18.474L.85 54.638l280.15.001V27.852a19.331 19.331 0 0 0-9.869-16.858l-4.483-2.518a61.135 61.135 0 0 0-29.95-7.833 61.138 61.138 0 0 0-30.63 8.221z" id="s"/><path d="M206.068 8.864l-57.155 33.063a20.472 20.472 0 0 1-22.638-1.422l-19.807-15.053a47.031 47.031 0 0 0-41.485-7.745L46.17 23.131a76.072 76.072 0 0 0-31.875 18.474L.85 54.638l280.15.001V27.852a19.331 19.331 0 0 0-9.869-16.858l-4.483-2.518a61.135 61.135 0 0 0-29.95-7.833 61.138 61.138 0 0 0-30.63 8.221z" id="u"/><path id="x" d="M86.5 0v16.5H81v67h5.5V100h1V83.5H93v-67h-5.5V0z"/><filter x="-133.3%" y="-14%" width="366.7%" height="132%" filterUnits="objectBoundingBox" id="w"><feOffset dy="2" in="SourceAlpha" result="shadowOffsetOuter1"/><feGaussianBlur stdDeviation="5" in="shadowOffsetOuter1" result="shadowBlurOuter1"/><feComposite in="shadowBlurOuter1" in2="SourceAlpha" operator="out" result="shadowBlurOuter1"/><feColorMatrix values="0 0 0 0 0.529411765 0 0 0 0 0.607843137 0 0 0 0 0.729411765 0 0 0 0.6 0" in="shadowBlurOuter1"/></filter><path id="z" d="M513.5 39v16.5H508v67h5.5V139h1v-16.5h5.5v-67h-5.5V39z"/><filter x="-133.3%" y="-14%" width="366.7%" height="132%" filterUnits="objectBoundingBox" id="y"><feOffset dy="2" in="SourceAlpha" result="shadowOffsetOuter1"/><feGaussianBlur stdDeviation="5" in="shadowOffsetOuter1" result="shadowBlurOuter1"/><feComposite in="shadowBlurOuter1" in2="SourceAlpha" operator="out" result="shadowBlurOuter1"/><feColorMatrix values="0 0 0 0 0.529411765 0 0 0 0 0.607843137 0 0 0 0 0.729411765 0 0 0 0.6 0" in="shadowBlurOuter1"/></filter><path id="B" d="M32.5 7v13.2H27v53.6h5.5V87h1V73.8H39V20.2h-5.5V7z"/><filter x="-133.3%" y="-17.5%" width="366.7%" height="140%" filterUnits="objectBoundingBox" id="A"><feOffset dy="2" in="SourceAlpha" result="shadowOffsetOuter1"/><feGaussianBlur stdDeviation="5" in="shadowOffsetOuter1" result="shadowBlurOuter1"/><feComposite in="shadowBlurOuter1" in2="SourceAlpha" operator="out" result="shadowBlurOuter1"/><feColorMatrix values="0 0 0 0 0.529411765 0 0 0 0 0.607843137 0 0 0 0 0.729411765 0 0 0 0.6 0" in="shadowBlurOuter1"/></filter><path id="D" d="M113.5 40v18.023H108v43.954h5.5V120h1v-18.023h5.5V58.023h-5.5V40z"/><filter x="-133.3%" y="-17.5%" width="366.7%" height="140%" filterUnits="objectBoundingBox" id="C"><feOffset dy="2" in="SourceAlpha" result="shadowOffsetOuter1"/><feGaussianBlur stdDeviation="5" in="shadowOffsetOuter1" result="shadowBlurOuter1"/><feComposite in="shadowBlurOuter1" in2="SourceAlpha" operator="out" result="shadowBlurOuter1"/><feColorMatrix values="0 0 0 0 0.529411765 0 0 0 0 0.607843137 0 0 0 0 0.729411765 0 0 0 0.6 0" in="shadowBlurOuter1"/></filter><path id="F" d="M5.5 35v12.035H0v29.93h5.5V89h1V76.966H12V47.035H6.5V35z"/><filter x="-133.3%" y="-25.9%" width="366.7%" height="159.3%" filterUnits="objectBoundingBox" id="E"><feOffset dy="2" in="SourceAlpha" result="shadowOffsetOuter1"/><feGaussianBlur stdDeviation="5" in="shadowOffsetOuter1" result="shadowBlurOuter1"/><feComposite in="shadowBlurOuter1" in2="SourceAlpha" operator="out" result="shadowBlurOuter1"/><feColorMatrix values="0 0 0 0 0.529411765 0 0 0 0 0.607843137 0 0 0 0 0.729411765 0 0 0 0.6 0" in="shadowBlurOuter1"/></filter><path id="H" d="M486.5 68v12.034H481v29.931h5.5V122h1v-12.034h5.5V80.035h-5.5V68z"/><filter x="-133.3%" y="-25.9%" width="366.7%" height="159.3%" filterUnits="objectBoundingBox" id="G"><feOffset dy="2" in="SourceAlpha" result="shadowOffsetOuter1"/><feGaussianBlur stdDeviation="5" in="shadowOffsetOuter1" result="shadowBlurOuter1"/><feComposite in="shadowBlurOuter1" in2="SourceAlpha" operator="out" result="shadowBlurOuter1"/><feColorMatrix values="0 0 0 0 0.529411765 0 0 0 0 0.607843137 0 0 0 0 0.729411765 0 0 0 0.6 0" in="shadowBlurOuter1"/></filter><path id="J" d="M194.5 94v8.023H189v19.954h5.5V130h1v-8.023h5.5v-19.954h-5.5V94z"/><filter x="-133.3%" y="-38.9%" width="366.7%" height="188.9%" filterUnits="objectBoundingBox" id="I"><feOffset dy="2" in="SourceAlpha" result="shadowOffsetOuter1"/><feGaussianBlur stdDeviation="5" in="shadowOffsetOuter1" result="shadowBlurOuter1"/><feComposite in="shadowBlurOuter1" in2="SourceAlpha" operator="out" result="shadowBlurOuter1"/><feColorMatrix values="0 0 0 0 0.529411765 0 0 0 0 0.607843137 0 0 0 0 0.729411765 0 0 0 0.6 0" in="shadowBlurOuter1"/></filter><path id="L" d="M140.5 65v8.023H135v19.954h5.5V101h1v-8.023h5.5V73.023h-5.5V65z"/><filter x="-133.3%" y="-38.9%" width="366.7%" height="188.9%" filterUnits="objectBoundingBox" id="K"><feOffset dy="2" in="SourceAlpha" result="shadowOffsetOuter1"/><feGaussianBlur stdDeviation="5" in="shadowOffsetOuter1" result="shadowBlurOuter1"/><feComposite in="shadowBlurOuter1" in2="SourceAlpha" operator="out" result="shadowBlurOuter1"/><feColorMatrix values="0 0 0 0 0.529411765 0 0 0 0 0.607843137 0 0 0 0 0.729411765 0 0 0 0.6 0" in="shadowBlurOuter1"/></filter><path id="N" d="M540.5 122v10.474H535v26.052h5.5V169h1v-10.474h5.5v-26.052h-5.5V122z"/><filter x="-133.3%" y="-29.8%" width="366.7%" height="168.1%" filterUnits="objectBoundingBox" id="M"><feOffset dy="2" in="SourceAlpha" result="shadowOffsetOuter1"/><feGaussianBlur stdDeviation="5" in="shadowOffsetOuter1" result="shadowBlurOuter1"/><feComposite in="shadowBlurOuter1" in2="SourceAlpha" operator="out" result="shadowBlurOuter1"/><feColorMatrix values="0 0 0 0 0.529411765 0 0 0 0 0.607843137 0 0 0 0 0.729411765 0 0 0 0.6 0" in="shadowBlurOuter1"/></filter><path id="P" d="M59.5 18v14.709H54V69.29h5.5V84h1V69.291H66V32.71h-5.5V18z"/><filter x="-58.3%" y="-7.6%" width="216.7%" height="121.2%" filterUnits="objectBoundingBox" id="O"><feOffset dy="2" in="SourceAlpha" result="shadowOffsetOuter1"/><feGaussianBlur stdDeviation="2" in="shadowOffsetOuter1" result="shadowBlurOuter1"/><feComposite in="shadowBlurOuter1" in2="SourceAlpha" operator="out" result="shadowBlurOuter1"/><feColorMatrix values="0 0 0 0 0.529411765 0 0 0 0 0.607843137 0 0 0 0 0.729411765 0 0 0 0.6 0" in="shadowBlurOuter1"/></filter><path id="R" d="M167.5 30v16.5H162v67h5.5V130h1v-16.5h5.5v-67h-5.5V30z"/><filter x="-133.3%" y="-14%" width="366.7%" height="132%" filterUnits="objectBoundingBox" id="Q"><feOffset dy="2" in="SourceAlpha" result="shadowOffsetOuter1"/><feGaussianBlur stdDeviation="5" in="shadowOffsetOuter1" result="shadowBlurOuter1"/><feComposite in="shadowBlurOuter1" in2="SourceAlpha" operator="out" result="shadowBlurOuter1"/><feColorMatrix values="0 0 0 0 0.529411765 0 0 0 0 0.607843137 0 0 0 0 0.729411765 0 0 0 0.6 0" in="shadowBlurOuter1"/></filter></defs><g fill="none" fill-rule="evenodd"><path d="M21.929 27.58v2" stroke="#345475"/><path d="M21.929 33.587v328.648" stroke="#345475" stroke-dasharray="4.007,4.007"/><path d="M282.238 27.58v2" stroke="#345475"/><path d="M282.238 33.587v328.648" stroke="#345475" stroke-dasharray="4.007,4.007"/><path d="M541.8 27.58v2" stroke="#345475"/><path d="M541.8 33.587V364.5" stroke="#345475" stroke-dasharray="4.007,4.007"/><path d="M600.277 27.58v2" stroke="#345475"/><path d="M600.277 33.587v336.429" stroke="#345475" stroke-dasharray="4.007,4.007"/><path d="M812.105 27.58v2" stroke="#345475"/><path d="M812.105 33.587v328.648" stroke="#345475" stroke-dasharray="4.007,4.007"/><g stroke="#345475"><path d="M0 54.127h834.779M0 85.743h834.779" stroke-dasharray="4"/><path d="M0 261.827h834.779"/><path d="M0 321.06h834.779" stroke-dasharray="4"/></g><path d="M21.481 194.185h17.633a62.917 62.917 0 0 0 35.598-11.04l46.458-31.881a62.915 62.915 0 0 1 53.476-8.446l120.919 35.836a62.913 62.913 0 0 0 17.877 2.594h30.033c3.721 0 7.435.33 11.097.986l61.192 10.965c3.662.656 7.376.986 11.096.986h85.345a62.918 62.918 0 0 0 27.995-6.571l47.566-23.633a62.906 62.906 0 0 1 47.884-3.344l55.514 18.499a62.917 62.917 0 0 0 30.049 2.402l5.864-.96a62.912 62.912 0 0 1 23.167.535l61.861 13.072" stroke="#09939E" stroke-dasharray="3"/><path d="M21.929 166.573l20.856 13.512a14.911 14.911 0 0 0 12.503 1.735l15.403-6.02c6.582-2.665 10.162-2.963 16.002-2.411l20.067 1.834c9.148.447 12.613-4.5 14.382-10.983l16.724-61.302c2.36-8.653 11.776-13.277 20.069-9.856l39.617 16.342a14.91 14.91 0 0 0 12.26-.4l35.709-17.54a14.91 14.91 0 0 1 17.413 3.143l5.892 6.238a14.914 14.914 0 0 0 16.164 3.687l5.754-2.2c8.229-3.145 17.378 1.492 19.704 9.987l7.596 27.747a14.905 14.905 0 0 0 5.688 8.174l22.322 16.014a14.908 14.908 0 0 0 12.483 2.305l7.748-2.037a14.918 14.918 0 0 0 5.86-3.056l28.78-24.443a14.911 14.911 0 0 1 14.215-2.83l11.029 3.544a14.908 14.908 0 0 1 8.905 7.794l28.266 59.492c4.3 9.05 16.127 11.366 23.525 4.606l17.845-16.307a14.91 14.91 0 0 1 12.75-3.658l31.294 5.743a14.908 14.908 0 0 0 16.646-9.412l7.349-19.534a14.915 14.915 0 0 1 2.817-4.661l27.215-30.576a14.91 14.91 0 0 0 3.203-5.836l12.569-44.24a14.893 14.893 0 0 1 2.688-5.224l15.792-19.78c4.726-5.92 13.143-7.354 19.565-3.333l42.428 26.564a14.91 14.91 0 0 0 11.528 1.827l18.726-4.68a14.912 14.912 0 0 1 14.53 4.307l25.124 26.995a15.047 15.047 0 0 0 1.736 1.593l15.086 11.782a14.908 14.908 0 0 1 4.58 6.007l21.769 52.173" stroke="#FFB800" stroke-width="2"/><path d="M21.929 151.361l26.864 11.526a21.875 21.875 0 0 0 15.983.5l86.235-30.79a21.882 21.882 0 0 1 12.06-.763l119.089 26.214c3.194.703 6.504.681 9.688-.064l18.719-4.379a21.889 21.889 0 0 1 9.02-.2l147.022 27.594c2.764.52 5.602.5 8.36-.056l62.076-12.517a21.852 21.852 0 0 0 8.66-3.838l58.828-43.386a21.88 21.88 0 0 1 21.569-2.516l69.05 29.453a21.875 21.875 0 0 0 17.78-.272l8.462-3.92a21.874 21.874 0 0 1 14.814-1.294l77.687 20.64" stroke="#00D972" stroke-width="3"/><g transform="translate(203 255.421)"><mask id="b" fill="#fff"><use xlink:href="#a"/></mask><path fill="#1B446D" mask="url(#b)" d="M10.319 136.253h.895V-40.918h-.895zm5.37 0h.895V-40.918h-.895zm5.371 0h.895V-40.918h-.895zm5.37 0h.895V-40.918h-.895zm5.37 0h.895V-40.918H31.8zm5.37 0h.895V-40.918h-.895zm5.37 0h.896V-40.918h-.896zm5.371 0h.895V-40.918h-.895zm5.37 0h.895V-40.918h-.895zm5.37 0h.895V-40.918h-.895zm5.371 0h.895V-40.918h-.895zm5.37 0h.895V-40.918h-.895zm5.37 0h.895V-40.918h-.895zm5.371 0h.895V-40.918h-.895zm5.37 0h.895V-40.918h-.895zm5.37 0h.895V-40.918h-.895zm5.371 0h.895V-40.918h-.895zm5.37 0h.895V-40.918h-.895zm5.37 0h.895V-40.918h-.895zm5.371 0h.895V-40.918h-.895zm5.37 0h.895V-40.918h-.895zm5.37 0h.895V-40.918h-.895zm5.37 0h.895V-40.918h-.895zm5.37 0h.895V-40.918h-.895zm5.371 0h.895V-40.918h-.895zm5.369 0h.896V-40.918h-.896zm5.371 0h.895V-40.918h-.895zm5.37 0h.895V-40.918h-.895zm5.371 0h.895V-40.918h-.895zm5.37 0h.895V-40.918h-.895zm5.37 0h.895V-40.918h-.895zm5.37 0h.895V-40.918h-.895zm5.371 0h.895V-40.918h-.895zm5.37 0h.895V-40.918h-.895zm5.37 0h.895V-40.918h-.895zm5.371 0h.895V-40.918h-.895zm5.37 0h.895V-40.918h-.895zm5.37 0h.895V-40.918h-.895zm5.37 0h.895V-40.918h-.895zm5.37 0h.895V-40.918h-.895zm5.37 0h.896V-40.918h-.896zm5.371 0h.896V-40.918h-.896zm5.37 0h.896V-40.918h-.896zm5.371 0h.895V-40.918h-.895zm5.37 0h.895V-40.918h-.895zm5.37 0h.895V-40.918h-.895zm5.37 0h.896V-40.918h-.896zm5.37 0h.896V-40.918h-.896zm5.37 0h.896V-40.918h-.896zm5.371 0h.895V-40.918h-.895zm5.371 0h.895V-40.918h-.895z"/></g><g transform="translate(21 272.421)"><mask id="d" fill="#fff"><use xlink:href="#c"/></mask><path fill="#1B446D" mask="url(#d)" d="M4.359 119.253h.896V-57.918h-.896zm5.371 0h.895V-57.918H9.73zm5.37 0h.895V-57.918H15.1zm5.37 0h.895V-57.918h-.895zm5.371 0h.895V-57.918h-.895zm5.37 0h.895V-57.918h-.895zm5.37 0h.895V-57.918h-.895zm5.371 0h.895V-57.918h-.895zm5.37 0h.895V-57.918h-.895zm5.37 0h.895V-57.918h-.895zm5.371 0h.895V-57.918h-.895zm5.37 0h.895V-57.918h-.895zm5.37 0h.895V-57.918h-.895z"/></g><g transform="translate(559 221.421)"><mask id="f" fill="#fff"><use xlink:href="#e"/></mask><path fill="#1B446D" mask="url(#f)" d="M3.386 170.253h.896V-6.918h-.896zm5.37 0h.896V-6.918h-.896zm5.37 0h.896V-6.918h-.896zm5.372 0h.895V-6.918h-.895zm5.37 0h.895V-6.918h-.895zm5.37 0h.895V-6.918h-.895zm5.37 0h.896V-6.918h-.896zm5.37 0h.896V-6.918h-.896zm5.37 0h.896V-6.918h-.896zm5.37 0h.896V-6.918h-.896zm5.371 0h.895V-6.918h-.895zm5.37 0h.895V-6.918h-.895zm5.371 0h.895V-6.918h-.895zm5.37 0h.896V-6.918H73.2zm5.37 0h.896V-6.918h-.896zm5.37 0h.896V-6.918h-.896zm5.371 0h.895V-6.918h-.895zm5.37 0h.895V-6.918h-.895zm5.37 0h.895V-6.918h-.895zm5.37 0h.896V-6.918h-.896zm5.37 0h.896V-6.918h-.896zm5.371 0h.896V-6.918h-.896zm5.371 0h.895V-6.918h-.895zm5.37 0h.895V-6.918h-.895zm5.37 0h.895V-6.918h-.895zm5.37 0h.896V-6.918h-.896zm5.37 0h.896V-6.918h-.896zm5.37 0h.896V-6.918h-.896zm5.371 0h.895V-6.918h-.895zm5.371 0h.895V-6.918h-.895zm5.37 0h.895V-6.918h-.895zm5.37 0h.896V-6.918h-.896zm5.37 0h.896V-6.918h-.896zm5.37 0h.896V-6.918h-.896zm5.37 0h.896V-6.918h-.896zm5.371 0h.895V-6.918h-.895zm5.37 0h.895V-6.918h-.895zm5.37 0h.895V-6.918h-.895zm5.371 0h.896V-6.918h-.896zm5.37 0h.896V-6.918h-.896zm5.37 0h.896V-6.918h-.896zm5.371 0h.895V-6.918h-.895zm5.37 0h.895V-6.918h-.895zm5.37 0h.895V-6.918h-.895zm5.37 0h.896V-6.918h-.896zm5.37 0h.896V-6.918h-.896zm5.37 0h.896V-6.918h-.896z"/></g><g transform="translate(95 320.421)"><mask id="h" fill="#fff"><use xlink:href="#g"/></mask><path fill="#1B446D" mask="url(#h)" d="M.173 71.253h.895v-177.171H.173zm5.37 0h.895v-177.171h-.895zm5.371 0h.895v-177.171h-.895zm5.37 0h.895v-177.171h-.895zm5.37 0h.895v-177.171h-.895zm5.37 0h.895v-177.171h-.895zm5.371 0h.895v-177.171h-.895zm5.37 0h.895v-177.171h-.895zm5.37 0h.895v-177.171h-.895zm5.37 0h.896v-177.171h-.896zm5.371 0h.895v-177.171h-.895zm5.37 0h.895v-177.171h-.895zm5.37 0h.895v-177.171h-.895zm5.371 0h.895v-177.171h-.895zm5.37 0h.895v-177.171h-.895zm5.37 0h.895v-177.171h-.895zm5.371 0h.895v-177.171h-.895zm5.37 0h.895v-177.171h-.895zm5.37 0h.895v-177.171h-.895zm5.371 0h.895v-177.171h-.895zm5.37 0h.895v-177.171h-.895zm5.37 0h.895v-177.171h-.895z"/></g><g transform="translate(483 320.421)"><mask id="j" fill="#fff"><use xlink:href="#i"/></mask><path fill="#1B446D" mask="url(#j)" d="M4.203 71.253h.895v-177.171h-.895zm5.37 0h.896v-177.171h-.896zm5.37 0h.896v-177.171h-.896zm5.37 0h.896v-177.171h-.896zm5.37 0h.896v-177.171h-.896zm5.371 0h.895v-177.171h-.895zm5.37 0h.895v-177.171h-.895zm5.37 0h.895v-177.171h-.895zm5.371 0h.896v-177.171h-.896zm5.37 0h.896v-177.171h-.896zm5.37 0h.896v-177.171h-.896zm5.371 0h.895v-177.171h-.895zm5.37 0h.895v-177.171h-.895zm5.37 0h.895v-177.171h-.895z"/></g><g transform="translate(21 292.421)"><mask id="l" fill="#fff"><use xlink:href="#k"/></mask><path fill="#2F5B8C" mask="url(#l)" d="M4.359 99.253h.896V-77.918h-.896zm5.371 0h.895V-77.918H9.73zm5.37 0h.895V-77.918H15.1zm5.37 0h.895V-77.918h-.895zm5.371 0h.895V-77.918h-.895zm5.37 0h.895V-77.918h-.895zm5.37 0h.895V-77.918h-.895zm5.371 0h.895V-77.918h-.895zm5.37 0h.895V-77.918h-.895zm5.37 0h.895V-77.918h-.895zm5.371 0h.895V-77.918h-.895zm5.37 0h.895V-77.918h-.895zm5.37 0h.895V-77.918h-.895zm5.37 0h.895V-77.918h-.895z"/></g><g transform="translate(93 320.421)"><mask id="n" fill="#fff"><use xlink:href="#m"/></mask><path fill="#2F5B8C" mask="url(#n)" d="M7.543 71.253h.895v-177.171h-.895zm-5.146 0h.895v-177.171h-.895zm10.517 0h.895v-177.171h-.895zm5.37 0h.895v-177.171h-.895zm5.37 0h.895v-177.171h-.895zm5.37 0h.895v-177.171h-.895zm5.371 0h.895v-177.171h-.895zm5.37 0h.895v-177.171h-.895zm5.37 0h.895v-177.171h-.895zm5.37 0h.896v-177.171h-.896zm5.371 0h.895v-177.171h-.895zm5.37 0h.895v-177.171h-.895zm5.37 0h.895v-177.171h-.895zm5.371 0h.895v-177.171h-.895zm5.37 0h.895v-177.171h-.895zm5.37 0h.895v-177.171h-.895zm5.371 0h.895v-177.171h-.895zm5.37 0h.895v-177.171h-.895zm5.37 0h.895v-177.171h-.895zm5.371 0h.895v-177.171h-.895zm5.37 0h.895v-177.171h-.895zm5.37 0h.895v-177.171h-.895z"/></g><g transform="translate(203 280.421)"><mask id="p" fill="#fff"><use xlink:href="#o"/></mask><path fill="#2F5B8C" mask="url(#p)" d="M10.319 111.253h.895V-65.918h-.895zm5.37 0h.895V-65.918h-.895zm5.371 0h.895V-65.918h-.895zm5.37 0h.895V-65.918h-.895zm5.37 0h.895V-65.918H31.8zm5.37 0h.895V-65.918h-.895zm5.37 0h.896V-65.918h-.896zm5.371 0h.895V-65.918h-.895zm5.37 0h.895V-65.918h-.895zm5.37 0h.895V-65.918h-.895zm5.371 0h.895V-65.918h-.895zm5.37 0h.895V-65.918h-.895zm5.37 0h.895V-65.918h-.895zm5.371 0h.895V-65.918h-.895zm5.37 0h.895V-65.918h-.895zm5.37 0h.895V-65.918h-.895zm5.371 0h.895V-65.918h-.895zm5.37 0h.895V-65.918h-.895zm5.37 0h.895V-65.918h-.895zm5.371 0h.895V-65.918h-.895zm5.37 0h.895V-65.918h-.895zm5.37 0h.895V-65.918h-.895zm5.37 0h.895V-65.918h-.895zm5.37 0h.895V-65.918h-.895zm5.371 0h.895V-65.918h-.895zm5.369 0h.896V-65.918h-.896zm5.371 0h.895V-65.918h-.895zm5.37 0h.895V-65.918h-.895zm5.371 0h.895V-65.918h-.895zm5.37 0h.895V-65.918h-.895zm5.37 0h.895V-65.918h-.895zm5.37 0h.895V-65.918h-.895zm5.371 0h.895V-65.918h-.895zm5.37 0h.895V-65.918h-.895zm5.37 0h.895V-65.918h-.895zm5.371 0h.895V-65.918h-.895zm5.37 0h.895V-65.918h-.895zm5.37 0h.895V-65.918h-.895zm5.37 0h.895V-65.918h-.895zm5.37 0h.895V-65.918h-.895zm5.37 0h.896V-65.918h-.896zm5.371 0h.896V-65.918h-.896zm5.37 0h.896V-65.918h-.896zm5.371 0h.895V-65.918h-.895zm5.37 0h.895V-65.918h-.895zm5.37 0h.895V-65.918h-.895zm5.37 0h.896V-65.918h-.896zm5.37 0h.896V-65.918h-.896zm5.37 0h.896V-65.918h-.896zm5.371 0h.895V-65.918h-.895zm5.371 0h.895V-65.918h-.895z"/></g><g transform="translate(483 320.421)"><mask id="r" fill="#fff"><use xlink:href="#q"/></mask><path fill="#2F5B8C" mask="url(#r)" d="M4.203 71.253h.895v-177.171h-.895zm5.37 0h.896v-177.171h-.896zm5.37 0h.896v-177.171h-.896zm5.37 0h.896v-177.171h-.896zm5.37 0h.896v-177.171h-.896zm5.371 0h.895v-177.171h-.895zm5.37 0h.895v-177.171h-.895zm5.37 0h.895v-177.171h-.895zm5.371 0h.896v-177.171h-.896zm5.37 0h.896v-177.171h-.896zm5.37 0h.896v-177.171h-.896zm5.371 0h.895v-177.171h-.895zm5.37 0h.895v-177.171h-.895zm5.37 0h.895v-177.171h-.895z"/></g><g transform="translate(559 266.421)"><mask id="t" fill="#fff"><use xlink:href="#s"/></mask><path fill="#2F5B8C" mask="url(#t)" d="M3.386 125.253h.896V-51.918h-.896z"/><mask id="v" fill="#fff"><use xlink:href="#u"/></mask><path fill="#2F5B8C" mask="url(#v)" d="M8.756 125.253h.896V-51.918h-.896zm5.37 0h.896V-51.918h-.896zm5.372 0h.895V-51.918h-.895zm5.37 0h.895V-51.918h-.895zm5.37 0h.895V-51.918h-.895zm5.37 0h.896V-51.918h-.896zm5.37 0h.896V-51.918h-.896zm5.37 0h.896V-51.918h-.896zm5.37 0h.896V-51.918h-.896zm5.371 0h.895V-51.918h-.895zm5.37 0h.895V-51.918h-.895zm5.371 0h.895V-51.918h-.895zm5.37 0h.896V-51.918H73.2zm5.37 0h.896V-51.918h-.896zm5.37 0h.896V-51.918h-.896zm5.371 0h.895V-51.918h-.895zm5.37 0h.895V-51.918h-.895zm5.37 0h.895V-51.918h-.895zm5.37 0h.896V-51.918h-.896zm5.37 0h.896V-51.918h-.896zm5.371 0h.896V-51.918h-.896zm5.371 0h.895V-51.918h-.895zm5.37 0h.895V-51.918h-.895zm5.37 0h.895V-51.918h-.895zm5.37 0h.896V-51.918h-.896zm5.37 0h.896V-51.918h-.896zm5.37 0h.896V-51.918h-.896zm5.371 0h.895V-51.918h-.895zm5.371 0h.895V-51.918h-.895zm5.37 0h.895V-51.918h-.895zm5.37 0h.896V-51.918h-.896zm5.37 0h.896V-51.918h-.896zm5.37 0h.896V-51.918h-.896zm5.37 0h.896V-51.918h-.896zm5.371 0h.895V-51.918h-.895zm5.37 0h.895V-51.918h-.895zm5.37 0h.895V-51.918h-.895zm5.371 0h.896V-51.918h-.896zm5.37 0h.896V-51.918h-.896zm5.37 0h.896V-51.918h-.896zm5.371 0h.895V-51.918h-.895zm5.37 0h.895V-51.918h-.895zm5.37 0h.895V-51.918h-.895zm5.37 0h.896V-51.918h-.896zm5.37 0h.896V-51.918h-.896zm5.37 0h.896V-51.918h-.896z"/></g><path d="M21.481 328.665L58.31 314.64a12.38 12.38 0 0 0 1.481-.68l25.832-13.988a12.307 12.307 0 0 0 3.61-2.963l11.889-14.322c5.304-6.392 14.945-6.87 20.857-1.036l30.454 30.056a12.313 12.313 0 0 0 11.986 3.088l26.911-7.579a12.312 12.312 0 0 1 13.541 4.961l3.304 4.893c4.152 6.15 12.764 7.255 18.335 2.353a12.316 12.316 0 0 1 10.204-2.892l14.731 2.514a12.308 12.308 0 0 1 6.735 3.533l19.859 20.325a12.306 12.306 0 0 0 5.748 3.322l13.943 3.574a12.31 12.31 0 0 0 10.797-2.35l19.851-16.046a12.308 12.308 0 0 1 7.739-2.737h42.89c2.644 0 5.219-.85 7.341-2.427l23.611-17.534a12.304 12.304 0 0 1 9.869-2.165l44.743 9.39c2.495.524 5.092.26 7.431-.755l67.572-29.325a12.315 12.315 0 0 1 11.236.735l42.269 25.356a12.316 12.316 0 0 0 12.17.283l7.982-4.297a17.603 17.603 0 0 1 17.846.68l39.64 25.414a12.311 12.311 0 0 0 13.132.1l19.341-11.989a12.318 12.318 0 0 1 8.421-1.694l16.702 2.656c3.219.512 6.51-.273 9.152-2.184l51.658-37.382a12.315 12.315 0 0 1 13.965-.324l10.21 6.688" stroke="#1882F1"/><path stroke="#335777" d="M33.524 253.059h21.481v-21.476H33.524zm10.741-17.896v14.316m-7.16-7.159h14.32m9.435 10.739h21.481v-21.476H60.86zm3.58-10.739h14.321"/><path d="M21.929 178.802l29.854 22.787c2.95 2.252 7.243.865 8.317-2.687l10.812-35.753c1.142-3.777 5.856-5.037 8.732-2.335l17.775 16.704c2.764 2.598 7.282 1.55 8.619-2l15.557-41.311a5.315 5.315 0 0 1 2.572-2.87l39.257-19.89a5.319 5.319 0 0 0 2.857-3.973l2.39-16.328a5.319 5.319 0 0 1 6.173-4.468l4.666.81a5.317 5.317 0 0 0 5.528-2.598l12.775-22.352a5.318 5.318 0 0 1 6.106-2.465l6.739 1.964a5.318 5.318 0 0 0 5.762-1.94l6.967-9.401a5.32 5.32 0 0 1 6.83-1.498l11.986 6.572a5.319 5.319 0 0 0 4.935.094l7.935-3.967a5.318 5.318 0 0 1 7.283 2.702l7.919 18.91a5.315 5.315 0 0 0 1.979 2.388l23.569 15.53a5.314 5.314 0 0 1 1.96 2.344l22.433 52.328a5.32 5.32 0 0 0 6.755 2.884l16.449-6.167a5.32 5.32 0 0 1 4.974.663l9.92 7.14a5.322 5.322 0 0 0 5.61.378l14.533-7.75c.297-.157.577-.343.839-.554l12.794-10.331a5.32 5.32 0 0 1 5.142-.866l9.866 3.55a5.32 5.32 0 0 1 3.128 3.008l3.912 9.664a5.4 5.4 0 0 0 .7 1.229l50.376 66.047c1.986 2.605 5.835 2.81 8.089.433l35.3-37.251a5.317 5.317 0 0 1 7.182-.495l3.278 2.62a5.317 5.317 0 0 0 4.196 1.094l13.196-2.2a5.324 5.324 0 0 1 4.223 1.114l25.622 20.758c3.174 2.57 7.94.753 8.597-3.278l5.918-36.405a5.314 5.314 0 0 1 2.272-3.553l41.97-28.336a5.32 5.32 0 0 0 2.317-3.884l3.832-38.86a5.323 5.323 0 0 1 .563-1.91l20.79-40.414c.15-.294.33-.573.532-.833l14.093-18.115a5.321 5.321 0 0 1 5.88-1.78l16.792 5.597c.737.245 1.412.65 1.975 1.184l8.69 8.229a5.323 5.323 0 0 0 4.244 1.425l5.616-.624a5.315 5.315 0 0 1 4.495 1.678l3.199 3.464a5.317 5.317 0 0 0 5.197 1.55l10.425-2.604a5.32 5.32 0 0 1 5.36 1.738l8.73 10.39a5.318 5.318 0 0 0 4.249 1.893l12.689-.422a5.32 5.32 0 0 1 4.293 1.946l12.849 15.702a5.32 5.32 0 0 0 4.116 1.95h12.86a5.32 5.32 0 0 0 4.117-1.95l10.935-11.174" stroke="#1882F1" stroke-width="5"/><path d="M21.929 199.084l86.984 34.22a146.21 146.21 0 0 0 102.627 1.66l51.856-18.488a153.556 153.556 0 0 1 115.58 5.062l28.493 13.067a114.147 114.147 0 0 0 63.733 9.243 114.153 114.153 0 0 1 57.166 6.476l32.304 12.438a125.352 125.352 0 0 0 73.613 5.073l56.377-13.197a114.148 114.148 0 0 1 56.429 1.121l65.014 17.971" stroke="#FFF" stroke-width="2"/><text font-family="UniviaPro-Medium, Univia Pro" font-size="7.158" font-weight="400" letter-spacing="-.025" fill="#436991" transform="translate(0 1)"><tspan x="7.614" y="18.487">00:12:32</tspan></text><text font-family="UniviaPro-Medium, Univia Pro" font-size="7.158" font-weight="400" letter-spacing="-.025" fill="#436991" transform="translate(0 1)"><tspan x="268.117" y="18.487">01:23:87</tspan></text><text font-family="UniviaPro-Medium, Univia Pro" font-size="7.158" font-weight="400" letter-spacing="-.025" fill="#436991" transform="translate(0 1)"><tspan x="526.643" y="18.487">02:09:90</tspan></text><text font-family="UniviaPro-Book, Univia Pro" font-size="12" font-weight="300" fill="#FFF" transform="translate(0 1)"><tspan x="463" y="20">12</tspan></text><text font-family="UniviaPro-Book, Univia Pro" font-size="12" font-weight="300" letter-spacing="-.467" fill="#8BABD9" transform="translate(0 1)"><tspan x="91.663" y="20.426">B</tspan> <tspan x="98.815" y="20.426" letter-spacing=".025">TC INDEX</tspan></text><text font-family="UniviaPro-Book, Univia Pro" font-size="12" font-weight="300" letter-spacing="-.467" fill="#FFB800" transform="translate(0 1)"><tspan x="353.539" y="20.426">B</tspan> <tspan x="360.691" y="20.426" letter-spacing=".025">TC GLD</tspan></text><text font-family="UniviaPro-Book, Univia Pro" font-size="12" font-weight="300" letter-spacing="-.887" fill="#1882F1" transform="translate(0 1)"><tspan x="158.881" y="20.426">+</tspan> <tspan x="163.598" y="20.426" letter-spacing=".025">123%</tspan></text><text font-family="UniviaPro-Medium, Univia Pro" font-size="7.158" font-weight="400" letter-spacing="-.025" fill="#436991" transform="translate(0 1)"><tspan x="585.485" y="18.487">03:98:78</tspan></text><text font-family="UniviaPro-Medium, Univia Pro" font-size="7.158" font-weight="400" letter-spacing="-.025" fill="#436991" transform="translate(0 1)"><tspan x="797.297" y="18.487">05:83:87</tspan></text><path d="M469.004 209.695V34.924m15.428-18.713C484.432 7.81 477.62 1 469.216 1 460.813 1 454 7.81 454 16.211s6.813 15.212 15.216 15.212c8.404 0 15.216-6.811 15.216-15.212z" stroke="#1882F1" stroke-dasharray="3"/><path d="M650.235 132.95c0-4.96 4.037-8.995 9-8.995s9 4.035 9 8.996c0 4.96-4.037 8.997-9 8.997s-9-4.036-9-8.997z" fill="#00D972"/><path d="M659.235 120.955c-6.627 0-12 5.37-12 11.997 0 6.625 5.373 11.996 12 11.996 6.628 0 12-5.371 12-11.996 0-6.626-5.372-11.997-12-11.997m0 6c3.31 0 6 2.69 6 5.997a6.005 6.005 0 0 1-6 5.996c-3.309 0-6-2.69-6-5.996a6.005 6.005 0 0 1 6-5.997" fill="#FFF"/><g fill="#436991" font-family="UniviaPro-Medium, Univia Pro" font-size="7.158" font-weight="400"><text letter-spacing="-.025" transform="translate(16 374)"><tspan x="0" y="6">001</tspan></text><text letter-spacing="-.168" transform="translate(16 374)"><tspan x="258" y="6">k</tspan> <tspan x="261.49" y="6" letter-spacing="-.025">aoni</tspan></text><text letter-spacing="-.025" transform="translate(16 374)"><tspan x="515" y="6">pepper</tspan></text><text letter-spacing="-.025" transform="translate(16 374)"><tspan x="578" y="6">chili</tspan></text><text letter-spacing="-.025" transform="translate(16 374)"><tspan x="789" y="6">009</tspan></text></g><g transform="translate(159 182)"><use fill="#000" filter="url(#w)" xlink:href="#x"/><path stroke="#879BBA" d="M87 16.75V17h-5.5v66H87v.25V83h5.5V17H87v-.25z" stroke-linejoin="square" fill-opacity=".2" fill="#879BBA"/></g><g transform="translate(159 182)"><use fill="#000" filter="url(#y)" xlink:href="#z"/><path stroke="#879BBA" d="M508.5 56v66h5.5v.25-.25h5.5V56H514V39l.5.5h-1l.5-.5v17h-5.5z" stroke-linejoin="square" fill-opacity=".2" fill="#879BBA"/></g><g transform="translate(159 182)"><use fill="#000" filter="url(#A)" xlink:href="#B"/><path stroke="#879BBA" d="M27.5 20.7v52.6H33v.25-.25h5.5V20.7H33V7l.5.5h-1L33 7v13.7h-5.5z" stroke-linejoin="square" fill-opacity=".2" fill="#879BBA"/></g><g transform="translate(159 182)"><use fill="#000" filter="url(#C)" xlink:href="#D"/><path stroke="#879BBA" d="M114 58.273v.25h-5.5v42.954h5.5v.25-.25h5.5V58.523H114v-.25z" stroke-linejoin="square" fill-opacity=".2" fill="#879BBA"/></g><g transform="translate(159 182)"><use fill="#000" filter="url(#E)" xlink:href="#F"/><path stroke="#879BBA" d="M6 47.285v.25H.5v28.93H6v.25-.25h5.5v-28.93H6v-.25z" stroke-linejoin="square" fill-opacity=".2" fill="#879BBA"/></g><g transform="translate(159 182)"><use fill="#000" filter="url(#G)" xlink:href="#H"/><path stroke="#879BBA" d="M481.5 80.534v28.931h5.5v.25-.25h5.5v-28.93H487V68l.5.5h-1l.5-.5v12.534h-5.5z" stroke-linejoin="square" fill-opacity=".2" fill="#879BBA"/></g><g transform="translate(159 182)"><use fill="#000" filter="url(#I)" xlink:href="#J"/><path stroke="#879BBA" d="M195 98.011v4.512h-5.5v18.954h5.5v.25-.25h5.5v-18.954H195v-4.511z" stroke-linejoin="square" fill-opacity=".2" fill="#879BBA"/></g><g transform="translate(159 182)"><use fill="#000" filter="url(#K)" xlink:href="#L"/><path stroke="#879BBA" d="M135.5 73.523v18.954h5.5v.25-.25h5.5V73.523H141V65l.5.5h-1l.5-.5v8.523h-5.5z" stroke-linejoin="square" fill-opacity=".2" fill="#879BBA"/></g><g transform="translate(159 182)"><use fill="#000" filter="url(#M)" xlink:href="#N"/><path stroke="#879BBA" d="M535.5 132.974v25.052h5.5v.25-.25h5.5v-25.052H541V122l.5.5h-1l.5-.5v10.974h-5.5z" stroke-linejoin="square" fill-opacity=".2" fill="#879BBA"/></g><g transform="translate(159 182)"><use fill="#000" filter="url(#O)" xlink:href="#P"/><path stroke="#879BBA" d="M54.5 33.209V68.79H60v.25-.25h5.5V33.21H60V18l.5.5h-1l.5-.5v15.209h-5.5z" stroke-linejoin="square" fill-opacity=".2" fill="#879BBA"/></g><g transform="translate(159 182)"><use fill="#000" filter="url(#Q)" xlink:href="#R"/><path stroke="#879BBA" d="M168 46.75V47h-5.5v66h5.5v.25-.25h5.5V47H168v-.25z" stroke-linejoin="square" fill-opacity=".2" fill="#879BBA"/></g></g></svg>