<svg width="120" height="22" xmlns="http://www.w3.org/2000/svg"><path d="M50.238 0l-2.58 1.222-6.726 18.969-.156.445 2.58-1.22L44.592 22l6.726-18.976.15-.445L50.238 0zM33.239 0L30.66 1.222l-6.769 19.06 2.581-1.221 1.236 2.577.042-.115 6.726-18.944L33.24 0zM7.884.16L5.868 2.133 7.884 4.1H27l-2.004-1.967L27 .16H7.884zM33.09 18.07l1.23 2.584 2.599-1.221L40.878 8.28l-2.586 1.222-1.23-2.584-3.972 11.153zM3.655 8.434l2.015 1.955-2.015 1.986h11.82l2.01-1.986-2-1.955H3.656zm-1.639 8.268L0 18.676l2.016 1.968h19.127l-2.01-1.968 2.01-1.974H2.016zM107.4 11.611a5.496 5.496 0 0 0 .6 2.573c1.323 2.41 4.312 3.27 6.678 1.925a4.676 4.676 0 0 0 1.812-1.882c.408-.8.615-1.69.6-2.592a5.403 5.403 0 0 0-.6-2.567c-1.32-2.411-4.309-3.276-6.677-1.932l-.097.057a4.697 4.697 0 0 0-1.722 1.832 5.537 5.537 0 0 0-.594 2.586zm-20.052 7.401V4.174h3.066l4.506 6.624 4.506-6.624h3.054v14.838H99.6V8.77l-4.674 6.435H94.8l-4.644-6.393v10.206l-2.808-.006zm-15.948 0l5.172-7.548-4.986-7.29h3.348l3.6 5.261 3.6-5.26h3.27L80.4 11.427l5.148 7.584H82.2l-3.78-5.562-3.792 5.562H71.4zm-9.6-8.77h7.8v2.591h-7.8v3.587h8.208v2.592H58.902V4.174h10.98v2.592H61.8v3.477zm42.702 1.37c-.025-3.102 1.818-5.903 4.644-7.06a7.96 7.96 0 0 1 3.12-.611 8.107 8.107 0 0 1 3.12.612 7.453 7.453 0 0 1 2.454 1.644 7.538 7.538 0 0 1 1.578 2.444c1.17 2.865.544 6.164-1.59 8.379a7.59 7.59 0 0 1-2.478 1.662 7.993 7.993 0 0 1-3.126.61 7.775 7.775 0 0 1-4.002-1.038 7.222 7.222 0 0 1-2.748-2.786 7.75 7.75 0 0 1-.972-3.85v-.007z" fill="#062958" fill-rule="evenodd"/></svg>