<svg width="158" height="40" xmlns="http://www.w3.org/2000/svg"><g fill="none" fill-rule="evenodd"><path d="M131.846 26.27h2.516V9.42h-2.516v16.85zm22.587-10.78l-2.87 7.295h-.083l-2.98-7.294h-2.708l4.485 10.207-2.544 5.689h2.626l6.89-15.896h-2.816zm-14.22 8.847c-.82 0-1.968-.408-1.968-1.415 0-1.307 1.422-1.797 2.652-1.797 1.094 0 1.614.245 2.298.572-.192 1.551-1.532 2.64-2.981 2.64zm.302-9.227c-1.805 0-3.692.789-4.458 2.585l2.215.926c.493-.926 1.367-1.225 2.297-1.225 1.313 0 2.626.79 2.653 2.178v.163c-.465-.272-1.422-.653-2.625-.653-2.407 0-4.84 1.333-4.84 3.783 0 2.26 1.968 3.702 4.156 3.702 1.695 0 2.625-.762 3.2-1.66h.082v1.306h2.433v-6.45c-.027-2.968-2.242-4.655-5.113-4.655zm-15.505 2.422h-3.582v-5.77h3.582c1.86 0 2.953 1.551 2.953 2.885-.027 1.307-1.093 2.885-2.953 2.885zm-.082-8.111h-6.015v16.848h2.515v-6.396h3.5c2.79 0 5.524-2.014 5.524-5.226s-2.735-5.226-5.524-5.226zM92.169 24.364c-1.723 0-3.172-1.442-3.172-3.457 0-2.014 1.45-3.484 3.172-3.484 1.696 0 3.063 1.47 3.063 3.484 0 1.987-1.367 3.457-3.063 3.457zm2.872-7.948h-.083c-.574-.68-1.64-1.28-3.007-1.28-2.872 0-5.47 2.532-5.47 5.744 0 3.212 2.626 5.716 5.47 5.716 1.367 0 2.433-.599 3.007-1.306h.083v.816c0 2.205-1.176 3.375-3.063 3.375-1.532 0-2.489-1.116-2.871-2.041l-2.188.925c.629 1.525 2.297 3.403 5.06 3.403 2.952 0 5.44-1.742 5.44-5.961V15.49h-2.378v.925zm4.128 9.853h2.516V9.421H99.17v16.848zm6.208-5.552c-.055-2.205 1.722-3.348 2.98-3.348 1.012 0 1.832.49 2.133 1.225l-5.113 2.123zm7.793-1.933c-.465-1.28-1.942-3.647-4.895-3.647-2.953 0-5.387 2.314-5.387 5.743 0 3.212 2.434 5.743 5.66 5.743 2.626 0 4.13-1.605 4.759-2.531l-1.942-1.307c-.656.953-1.53 1.58-2.816 1.58-1.286 0-2.188-.572-2.762-1.743l7.656-3.185-.273-.653zm-60.897-1.878v2.422h5.797c-.164 1.361-.629 2.369-1.312 3.049-.848.844-2.16 1.77-4.485 1.77-3.582 0-6.371-2.886-6.371-6.479s2.789-6.478 6.371-6.478c1.942 0 3.336.762 4.375 1.742l1.723-1.715c-1.449-1.388-3.39-2.45-6.098-2.45-4.894 0-9.023 4.002-9.023 8.901 0 4.9 4.101 8.901 9.023 8.901 2.653 0 4.622-.871 6.208-2.504 1.613-1.606 2.105-3.865 2.105-5.689 0-.572-.055-1.09-.137-1.524l-8.176.054zm14.876 7.458c-1.723 0-3.227-1.442-3.227-3.484 0-2.069 1.504-3.484 3.227-3.484 1.723 0 3.226 1.415 3.226 3.484 0 2.042-1.476 3.484-3.226 3.484zm0-9.227c-3.172 0-5.743 2.422-5.743 5.743 0 3.294 2.57 5.743 5.743 5.743 3.172 0 5.742-2.422 5.742-5.743 0-3.32-2.57-5.743-5.742-5.743zm12.524 9.227c-1.723 0-3.227-1.442-3.227-3.484 0-2.069 1.504-3.484 3.227-3.484 1.722 0 3.227 1.415 3.227 3.484 0 2.042-1.505 3.484-3.227 3.484zm0-9.227c-3.145 0-5.743 2.422-5.743 5.743 0 3.294 2.57 5.743 5.743 5.743 3.172 0 5.742-2.422 5.742-5.743 0-3.32-2.57-5.743-5.742-5.743z" fill="#264C7F"/><path d="M3.421.208L21.11 18.474l5.146-5.428C22.267 10.802 6.2 1.759 3.42.208m23.121 26.346l-5.42-5.597L3.455 39.593c2.516-1.422 14.474-8.171 23.087-13.04m9.134-8.196c-.607-.33-3.75-2.107-7.878-4.441l-5.493 5.793 5.782 5.97c4.192-2.373 7.306-4.13 7.59-4.276.974-.534 1.978-1.947 0-3.046M.752 39.945l19.173-20.223L.827 0C.343.365 0 1.033 0 2.089v35.74c0 .951.258 1.715.752 2.116" fill="#153B6D"/><path d="M27.153 26.162c4.658-2.6 8.219-4.581 8.523-4.736.975-.527 1.979-1.92 0-3.003-.639-.34-4.079-2.26-8.523-4.736l-6.118 6.253 6.118 6.222z" fill="#FFD400"/><path d="M21.035 19.94L1.492 39.969c.456.062.974-.062 1.583-.402 1.278-.712 14.855-8.266 24.078-13.405l-6.118-6.222z" fill="#F33"/><path d="M21.035 19.94l6.118-6.254S4.444 1.087 3.075.344A2.349 2.349 0 0 0 1.46.034L21.035 19.94z" fill="#48FF48"/><path d="M21.035 19.94L1.46.034C.67.22.001.932.001 2.387v35.23c0 1.33.516 2.29 1.49 2.383l19.544-20.06z" fill="#3BCCFF"/><path d="M131.846 26.471h2.516V9.623h-2.516V26.47zm22.587-10.779l-2.87 7.295h-.083l-2.98-7.295h-2.708l4.485 10.208-2.544 5.688h2.626l6.89-15.896h-2.816zm-14.22 8.847c-.82 0-1.968-.408-1.968-1.416 0-1.306 1.422-1.796 2.652-1.796 1.094 0 1.614.245 2.298.571-.192 1.552-1.532 2.64-2.981 2.64zm.302-9.228c-1.805 0-3.692.79-4.458 2.586l2.215.926c.493-.926 1.367-1.225 2.297-1.225 1.313 0 2.626.79 2.653 2.177v.164c-.465-.273-1.422-.654-2.625-.654-2.407 0-4.84 1.334-4.84 3.784 0 2.259 1.968 3.702 4.156 3.702 1.695 0 2.625-.763 3.2-1.66h.082v1.306h2.433v-6.451c-.027-2.967-2.242-4.655-5.113-4.655zm-15.505 2.423h-3.582v-5.77h3.582c1.86 0 2.953 1.551 2.953 2.885-.027 1.306-1.093 2.885-2.953 2.885zm-.082-8.111h-6.015V26.47h2.515v-6.396h3.5c2.79 0 5.524-2.014 5.524-5.226s-2.735-5.226-5.524-5.226zM92.169 24.566c-1.723 0-3.172-1.443-3.172-3.457s1.45-3.484 3.172-3.484c1.696 0 3.063 1.47 3.063 3.484 0 1.987-1.367 3.457-3.063 3.457zm2.872-7.948h-.083c-.574-.68-1.64-1.28-3.007-1.28-2.872 0-5.47 2.532-5.47 5.744 0 3.212 2.626 5.716 5.47 5.716 1.367 0 2.433-.599 3.007-1.307h.083v.817c0 2.205-1.176 3.375-3.063 3.375-1.532 0-2.489-1.116-2.871-2.041l-2.188.925c.629 1.524 2.297 3.402 5.06 3.402 2.952 0 5.44-1.741 5.44-5.96V15.691h-2.378v.926zm4.128 9.853h2.516V9.623H99.17V26.47zm6.208-5.553c-.055-2.204 1.722-3.347 2.98-3.347 1.012 0 1.832.49 2.133 1.225l-5.113 2.122zm7.793-1.932c-.465-1.28-1.942-3.647-4.895-3.647-2.953 0-5.387 2.313-5.387 5.743 0 3.212 2.434 5.743 5.66 5.743 2.626 0 4.13-1.606 4.759-2.531l-1.942-1.307c-.656.953-1.53 1.579-2.816 1.579-1.286 0-2.188-.572-2.762-1.742l7.656-3.185-.273-.653zm-60.897-1.878v2.422h5.797c-.164 1.361-.629 2.368-1.312 3.049-.848.844-2.16 1.77-4.485 1.77-3.582 0-6.371-2.886-6.371-6.48 0-3.592 2.789-6.477 6.371-6.477 1.942 0 3.336.762 4.375 1.742l1.723-1.715c-1.449-1.388-3.39-2.45-6.098-2.45-4.894 0-9.023 4.002-9.023 8.9 0 4.9 4.101 8.902 9.023 8.902 2.653 0 4.622-.871 6.208-2.504 1.613-1.606 2.105-3.866 2.105-5.69a8.29 8.29 0 0 0-.137-1.523l-8.176.054zm14.876 7.458c-1.723 0-3.227-1.443-3.227-3.484 0-2.069 1.504-3.484 3.227-3.484 1.723 0 3.226 1.415 3.226 3.484 0 2.041-1.476 3.484-3.226 3.484zm0-9.227c-3.172 0-5.743 2.422-5.743 5.743 0 3.294 2.57 5.743 5.743 5.743 3.172 0 5.742-2.422 5.742-5.743s-2.57-5.743-5.742-5.743zm12.524 9.227c-1.723 0-3.227-1.443-3.227-3.484 0-2.069 1.504-3.484 3.227-3.484 1.722 0 3.227 1.415 3.227 3.484 0 2.041-1.505 3.484-3.227 3.484zm0-9.227c-3.145 0-5.743 2.422-5.743 5.743 0 3.294 2.57 5.743 5.743 5.743 3.172 0 5.742-2.422 5.742-5.743s-2.57-5.743-5.742-5.743z" fill="#F2F6F8"/></g></svg>