<svg width="20" height="20" xmlns="http://www.w3.org/2000/svg"><path d="M6.174 14.417a1.92 1.92 0 0 1-1.908-1.931 1.92 1.92 0 0 1 1.908-1.931 1.92 1.92 0 0 1 1.907 1.931 1.92 1.92 0 0 1-1.907 1.931M19.998 2.68l-.24-2.191a.544.544 0 0 0-.587-.486l-2.644.244a.528.528 0 0 0-.333.159L8.317 8.378a5.903 5.903 0 0 0-2.337-.48c-1.597 0-3.1.63-4.23 1.772A6.053 6.053 0 0 0 0 13.95c0 1.617.623 3.134 1.751 4.279a5.93 5.93 0 0 0 8.455 0 6.047 6.047 0 0 0 1.755-4.279c0-.827-.166-1.626-.475-2.366l2.589-2.62a.549.549 0 0 0 .157-.407l-.05-1.428 1.414.047a.543.543 0 0 0 .559-.563l-.049-1.433 1.413.052a.542.542 0 0 0 .559-.567l-.048-1.429 1.412.048a.534.534 0 0 0 .414-.172.552.552 0 0 0 .142-.433" fill="#CCD5E2" fill-rule="evenodd"/></svg>