<svg width="120" height="18" xmlns="http://www.w3.org/2000/svg"><path d="M10.396.05c1.913-.127 3.856.287 5.583 1.146 2.53 1.274 4.567 3.63 5.524 6.369.431 1.209.646 2.516.646 3.79v4.807c0 .19 0 .382-.03.573-.093.478-.431.924-.863 1.115-.31.159-.648.159-.988.127-.71-.127-1.265-.829-1.265-1.56v-4.458c0-.415.032-.86-.215-1.242-.37-.701-1.235-1.02-1.913-.732a1.62 1.62 0 0 0-1.018 1.496v4.522c0 .286.03.572-.063.828a1.669 1.669 0 0 1-1.079 1.113 1.577 1.577 0 0 1-1.788-.763c-.247-.382-.217-.86-.217-1.307v-4.489c-.03-.764-.617-1.464-1.358-1.56a1.592 1.592 0 0 0-1.325.446 1.692 1.692 0 0 0-.494 1.179v4.362c0 .381.03.732-.093 1.082-.215.637-.833 1.083-1.45 1.05-.647.033-1.296-.445-1.511-1.082-.125-.318-.093-.669-.093-.988v-4.52c0-.733-.556-1.433-1.264-1.56-.649-.16-1.358.191-1.667.796a1.57 1.57 0 0 0-.216.827v4.904c0 .478-.216.955-.554 1.242-.526.478-1.39.51-1.976.064C.248 17.404 0 16.894 0 16.385V11.45c0-1.88.463-3.758 1.327-5.414.71-1.336 1.666-2.548 2.838-3.502C5.923 1.07 8.145.21 10.396.05m19.77.35v7.449l7.537-7.45h3.64l-6.547 6.198 7.026 10.845h-3.449l-5.652-8.9-2.555 2.439v6.46H27.45V.4zm16.351 0v3.593h.063c.66-1.384 1.47-2.406 2.428-3.066.958-.658 2.171-.967 3.64-.923V2.97c-1.085 0-2.01.153-2.778.461-.767.308-1.384.758-1.852 1.352-.469.593-.81 1.313-1.022 2.16-.213.845-.319 1.817-.319 2.916v7.582h-2.715V.4h2.555zm18.586 8.24c-.341.263-.788.454-1.341.575-.554.12-1.134.219-1.741.294-.606.078-1.219.165-1.836.263a6.64 6.64 0 0 0-1.661.476 3.02 3.02 0 0 0-1.197.934c-.309.406-.463.958-.463 1.657 0 .46.09.848.271 1.164.181.317.415.575.703.772.287.195.623.338 1.006.425.383.088.787.132 1.214.132.894 0 1.66-.126 2.299-.376.639-.252 1.16-.57 1.565-.953.404-.383.702-.798.894-1.245.191-.448.287-.87.287-1.265V8.64zm4.407 8.736c-.469.285-1.117.428-1.948.428-.702 0-1.261-.203-1.676-.61-.416-.407-.623-1.072-.623-1.994-.746.922-1.613 1.587-2.603 1.994-.99.407-2.06.61-3.209.61a8.345 8.345 0 0 1-2.124-.264 4.884 4.884 0 0 1-1.741-.824 3.946 3.946 0 0 1-1.166-1.467c-.287-.604-.431-1.335-.431-2.19 0-.969.16-1.76.48-2.375a4.265 4.265 0 0 1 1.261-1.499 5.685 5.685 0 0 1 1.789-.875c.67-.196 1.357-.362 2.059-.494a24.406 24.406 0 0 1 2.124-.345 11.492 11.492 0 0 0 1.772-.33c.511-.143.916-.352 1.214-.627.298-.275.447-.676.447-1.203 0-.615-.112-1.109-.335-1.484a2.34 2.34 0 0 0-.863-.856 3.44 3.44 0 0 0-1.181-.396 8.695 8.695 0 0 0-1.293-.099c-1.15 0-2.108.227-2.875.676-.766.451-1.181 1.302-1.245 2.554h-2.715c.042-1.055.256-1.943.639-2.67A4.945 4.945 0 0 1 56.8 1.274 6.313 6.313 0 0 1 58.987.3a11.2 11.2 0 0 1 2.635-.296c.745 0 1.485.055 2.22.165a5.68 5.68 0 0 1 1.996.675 3.88 3.88 0 0 1 1.437 1.43c.362.613.543 1.415.543 2.4v8.75c0 .658.037 1.141.112 1.448.074.307.324.46.75.46.234 0 .511-.044.83-.132v2.176zM75.099.4v7.449l7.537-7.45h3.64L79.73 6.598l7.027 10.845h-3.45l-5.652-8.9-2.555 2.439v6.46h-2.714V.4zm24.925 5.01a4.819 4.819 0 0 0-.99-1.533 4.696 4.696 0 0 0-1.469-1.021 4.53 4.53 0 0 0-1.868-.38c-.703 0-1.337.128-1.9.38a4.385 4.385 0 0 0-1.453 1.037 4.98 4.98 0 0 0-.958 1.535 5.968 5.968 0 0 0-.416 1.86h9.486a5.912 5.912 0 0 0-.432-1.877m.655 10.943c-1.236.967-2.789 1.45-4.663 1.45-1.32 0-2.465-.22-3.433-.66A6.77 6.77 0 0 1 90.14 15.3c-.66-.791-1.155-1.737-1.485-2.836-.33-1.098-.516-2.295-.559-3.591 0-1.297.192-2.483.575-3.56.383-1.077.92-2.012 1.613-2.803a7.318 7.318 0 0 1 2.46-1.845c.946-.44 1.984-.66 3.113-.66 1.47 0 2.687.313 3.656.94a7.362 7.362 0 0 1 2.332 2.39c.585.966.99 2.022 1.213 3.163a14.07 14.07 0 0 1 .272 3.264H90.97a6.97 6.97 0 0 0 .256 2.126c.192.67.5 1.265.926 1.78.426.517.97.929 1.63 1.237.66.307 1.436.46 2.33.46 1.15 0 2.092-.274 2.827-.823.733-.55 1.218-1.385 1.452-2.505h2.683c-.362 1.912-1.16 3.35-2.395 4.318M108.886.4v2.703h.063c1.13-2.065 2.917-3.1 5.366-3.1 1.086 0 1.99.154 2.715.462.723.31 1.31.737 1.756 1.286.447.55.761 1.204.942 1.962.181.758.272 1.599.272 2.522v11.207h-2.715V5.905c0-1.056-.298-1.89-.894-2.506-.597-.615-1.416-.923-2.46-.923-.829 0-1.548.133-2.155.396a4.05 4.05 0 0 0-1.517 1.121 4.879 4.879 0 0 0-.91 1.697 7.123 7.123 0 0 0-.303 2.126v9.626h-2.715V.4h2.555z" fill="#062958" fill-rule="evenodd"/></svg>