<svg width="305" height="216" xmlns="http://www.w3.org/2000/svg"><defs><filter x="-51.9%" y="-42.9%" width="203.9%" height="185.9%" filterUnits="objectBoundingBox" id="a"><feGaussianBlur stdDeviation="2" in="SourceGraphic"/></filter><filter x="-10.5%" y="-28.5%" width="121%" height="157%" filterUnits="objectBoundingBox" id="b"><feGaussianBlur stdDeviation="2" in="SourceGraphic"/></filter><filter x="-56.5%" y="-42%" width="213%" height="184.1%" filterUnits="objectBoundingBox" id="c"><feGaussianBlur stdDeviation="2" in="SourceGraphic"/></filter><filter x="-13.4%" y="-39.9%" width="126.9%" height="179.8%" filterUnits="objectBoundingBox" id="d"><feGaussianBlur stdDeviation="7" in="SourceGraphic"/></filter><filter x="-75.8%" y="-62.6%" width="251.5%" height="225.2%" filterUnits="objectBoundingBox" id="e"><feGaussianBlur stdDeviation="7" in="SourceGraphic"/></filter><filter x="-81.7%" y="-60.8%" width="263.3%" height="221.6%" filterUnits="objectBoundingBox" id="f"><feGaussianBlur stdDeviation="7" in="SourceGraphic"/></filter></defs><g fill="none" fill-rule="evenodd"><g opacity=".6" fill="#0B66D0"><path d="M9.15 10.8a.96.96 0 0 1-.275.688.927.927 0 0 1-.7.287.898.898 0 0 1-.675-.287.96.96 0 0 1-.275-.688.96.96 0 0 1 .275-.688.898.898 0 0 1 .675-.287c.283 0 .517.096.7.288a.96.96 0 0 1 .275.687zm2.4 0a.96.96 0 0 1-.275.688.898.898 0 0 1-.675.287.938.938 0 0 1-.688-.287.938.938 0 0 1-.287-.688c0-.267.096-.496.287-.688a.938.938 0 0 1 .688-.287c.267 0 .492.096.675.288a.96.96 0 0 1 .275.687zm0 2.4a.948.948 0 0 1-.275.7.918.918 0 0 1-.675.275.96.96 0 0 1-.688-.275.927.927 0 0 1-.287-.7c0-.267.096-.492.287-.675a.96.96 0 0 1 .688-.275c.267 0 .492.092.675.275a.918.918 0 0 1 .275.675zm-2.4 0a.948.948 0 0 1-.275.7.948.948 0 0 1-.7.275.918.918 0 0 1-.675-.275.948.948 0 0 1-.275-.7c0-.267.092-.492.275-.675a.918.918 0 0 1 .675-.275.95.95 0 0 1 .7.275.918.918 0 0 1 .275.675zm-7.225-2.4a.96.96 0 0 1-.275.688.898.898 0 0 1-.675.287.927.927 0 0 1-.7-.287A.96.96 0 0 1 0 10.8a.96.96 0 0 1 .275-.688.927.927 0 0 1 .7-.287c.267 0 .492.096.675.288a.96.96 0 0 1 .275.687zm2.425 0a.938.938 0 0 1-.287.688.938.938 0 0 1-.688.287.938.938 0 0 1-.688-.287.938.938 0 0 1-.287-.688c0-.267.096-.496.288-.688a.938.938 0 0 1 .687-.287c.267 0 .496.096.688.288.191.191.287.42.287.687zm-2.425 2.4a.948.948 0 0 1-.275.7.918.918 0 0 1-.675.275.948.948 0 0 1-.7-.275.948.948 0 0 1-.275-.7c0-.267.092-.492.275-.675a.948.948 0 0 1 .7-.275c.267 0 .492.092.675.275a.918.918 0 0 1 .275.675zm2.425 0a.927.927 0 0 1-.287.7.96.96 0 0 1-.688.275.96.96 0 0 1-.688-.275.927.927 0 0 1-.287-.7c0-.267.096-.492.288-.675a.96.96 0 0 1 .687-.275.96.96 0 0 1 .688.275.898.898 0 0 1 .287.675zm2.375-2.4a.96.96 0 0 1-.275.688.927.927 0 0 1-.7.287.898.898 0 0 1-.675-.287.96.96 0 0 1-.275-.688.96.96 0 0 1 .275-.688.898.898 0 0 1 .675-.287c.283 0 .517.096.7.288a.96.96 0 0 1 .275.687zm0 2.4a.948.948 0 0 1-.275.7.948.948 0 0 1-.7.275.918.918 0 0 1-.675-.275.948.948 0 0 1-.275-.7c0-.267.092-.492.275-.675a.918.918 0 0 1 .675-.275.95.95 0 0 1 .7.275.918.918 0 0 1 .275.675zm0-7.225a.96.96 0 0 1-.275.688.927.927 0 0 1-.7.287.898.898 0 0 1-.675-.288.96.96 0 0 1-.275-.687.96.96 0 0 1 .275-.688A.898.898 0 0 1 5.75 5c.283 0 .517.096.7.287a.96.96 0 0 1 .275.688zm0 2.4a.948.948 0 0 1-.275.7.948.948 0 0 1-.7.275.918.918 0 0 1-.675-.275.948.948 0 0 1-.275-.7c0-.267.092-.492.275-.675a.918.918 0 0 1 .675-.275.95.95 0 0 1 .7.275.918.918 0 0 1 .275.675zm0 7.225a.96.96 0 0 1-.275.688.927.927 0 0 1-.7.287.898.898 0 0 1-.675-.287.96.96 0 0 1-.275-.688.96.96 0 0 1 .275-.688.898.898 0 0 1 .675-.287c.283 0 .517.096.7.287a.96.96 0 0 1 .275.688zm0 2.4a.948.948 0 0 1-.275.7.948.948 0 0 1-.7.275.918.918 0 0 1-.675-.275.948.948 0 0 1-.275-.7c0-.267.092-.492.275-.675a.918.918 0 0 1 .675-.275.95.95 0 0 1 .7.275.918.918 0 0 1 .275.675z" filter="url(#a)" transform="translate(99 3)"/><path d="M21.844 3.036c0 .299-.103.55-.308.756a1.028 1.028 0 0 1-.756.308c-.299 0-.555-.103-.77-.308a1.005 1.005 0 0 1-.322-.756c0-.317.107-.579.322-.784.215-.205.471-.308.77-.308.299 0 .55.103.756.308.205.205.308.467.308.784zm2.716 0c0 .299-.103.55-.308.756a1.062 1.062 0 0 1-.784.308 1.03 1.03 0 0 1-.756-.308 1.028 1.028 0 0 1-.308-.756c0-.317.103-.579.308-.784.205-.205.457-.308.756-.308.317 0 .579.103.784.308.205.205.308.467.308.784zm2.688 0c0 .299-.103.55-.308.756a1.028 1.028 0 0 1-.756.308c-.317 0-.579-.103-.784-.308a1.028 1.028 0 0 1-.308-.756c0-.317.103-.579.308-.784.205-.205.467-.308.784-.308.299 0 .55.103.756.308.205.205.308.467.308.784zm2.716 0c0 .299-.107.55-.322.756a1.075 1.075 0 0 1-.77.308c-.299 0-.555-.103-.77-.308a1.005 1.005 0 0 1-.322-.756c0-.317.107-.579.322-.784.215-.205.471-.308.77-.308.299 0 .555.103.77.308.215.205.322.467.322.784zM19.156 5.724c0 .299-.103.55-.308.756a1.028 1.028 0 0 1-.756.308c-.317 0-.579-.103-.784-.308A1.028 1.028 0 0 1 17 5.724c0-.299.103-.555.308-.77.205-.215.467-.322.784-.322.299 0 .55.107.756.322.205.215.308.471.308.77zm2.688 0c0 .299-.103.55-.308.756a1.028 1.028 0 0 1-.756.308c-.299 0-.555-.103-.77-.308a1.005 1.005 0 0 1-.322-.756c0-.299.107-.555.322-.77a1.05 1.05 0 0 1 .77-.322c.299 0 .55.107.756.322.205.215.308.471.308.77zm2.716 0c0 .299-.103.55-.308.756a1.062 1.062 0 0 1-.784.308 1.03 1.03 0 0 1-.756-.308 1.028 1.028 0 0 1-.308-.756c0-.299.103-.555.308-.77.205-.215.457-.322.756-.322.317 0 .579.107.784.322.205.215.308.471.308.77zm2.688 0c0 .299-.103.55-.308.756a1.028 1.028 0 0 1-.756.308c-.317 0-.579-.103-.784-.308a1.028 1.028 0 0 1-.308-.756c0-.299.103-.555.308-.77.205-.215.467-.322.784-.322.299 0 .55.107.756.322.205.215.308.471.308.77zm2.716 0c0 .299-.107.55-.322.756a1.075 1.075 0 0 1-.77.308c-.299 0-.555-.103-.77-.308a1.005 1.005 0 0 1-.322-.756c0-.299.107-.555.322-.77a1.05 1.05 0 0 1 .77-.322c.299 0 .555.107.77.322.215.215.322.471.322.77zm2.688 0c0 .299-.103.55-.308.756a1.062 1.062 0 0 1-.784.308 1.03 1.03 0 0 1-.756-.308 1.028 1.028 0 0 1-.308-.756c0-.299.103-.555.308-.77.205-.215.457-.322.756-.322.317 0 .579.107.784.322.205.215.308.471.308.77zM19.156 8.412c0 .317-.103.579-.308.784a1.028 1.028 0 0 1-.756.308c-.317 0-.579-.103-.784-.308A1.062 1.062 0 0 1 17 8.412c0-.299.103-.55.308-.756.205-.205.467-.308.784-.308.299 0 .55.103.756.308.205.205.308.457.308.756zm2.688 0c0 .317-.103.579-.308.784a1.028 1.028 0 0 1-.756.308c-.299 0-.555-.103-.77-.308a1.038 1.038 0 0 1-.322-.784c0-.299.107-.55.322-.756.215-.205.471-.308.77-.308.299 0 .55.103.756.308.205.205.308.457.308.756zm8.12 0c0 .317-.107.579-.322.784a1.075 1.075 0 0 1-.77.308c-.299 0-.555-.103-.77-.308a1.038 1.038 0 0 1-.322-.784c0-.299.107-.55.322-.756.215-.205.471-.308.77-.308.299 0 .555.103.77.308.215.205.322.457.322.756zm2.688 0c0 .317-.103.579-.308.784a1.062 1.062 0 0 1-.784.308 1.03 1.03 0 0 1-.756-.308 1.062 1.062 0 0 1-.308-.784c0-.299.103-.55.308-.756.205-.205.457-.308.756-.308.317 0 .579.103.784.308.205.205.308.457.308.756zm-13.496 2.716c0 .299-.103.55-.308.756a1.028 1.028 0 0 1-.756.308c-.317 0-.579-.103-.784-.308a1.028 1.028 0 0 1-.308-.756c0-.317.103-.579.308-.784.205-.205.467-.308.784-.308.299 0 .55.103.756.308.205.205.308.467.308.784zm2.688 0c0 .299-.103.55-.308.756a1.028 1.028 0 0 1-.756.308c-.299 0-.555-.103-.77-.308a1.005 1.005 0 0 1-.322-.756c0-.317.107-.579.322-.784.215-.205.471-.308.77-.308.299 0 .55.103.756.308.205.205.308.467.308.784zm8.12 0c0 .299-.107.55-.322.756a1.075 1.075 0 0 1-.77.308c-.299 0-.555-.103-.77-.308a1.005 1.005 0 0 1-.322-.756c0-.317.107-.579.322-.784.215-.205.471-.308.77-.308.299 0 .555.103.77.308.215.205.322.467.322.784zm2.688 0c0 .299-.103.55-.308.756a1.062 1.062 0 0 1-.784.308 1.03 1.03 0 0 1-.756-.308 1.028 1.028 0 0 1-.308-.756c0-.317.103-.579.308-.784.205-.205.457-.308.756-.308.317 0 .579.103.784.308.205.205.308.467.308.784zm-13.496 2.688c0 .299-.103.555-.308.77a1.005 1.005 0 0 1-.756.322c-.317 0-.579-.107-.784-.322a1.075 1.075 0 0 1-.308-.77c0-.299.103-.55.308-.756.205-.205.467-.308.784-.308.299 0 .55.103.756.308.205.205.308.457.308.756zm2.688 0c0 .299-.103.555-.308.77a1.005 1.005 0 0 1-.756.322 1.05 1.05 0 0 1-.77-.322 1.05 1.05 0 0 1-.322-.77c0-.299.107-.55.322-.756.215-.205.471-.308.77-.308.299 0 .55.103.756.308.205.205.308.457.308.756zm8.12 0c0 .299-.107.555-.322.77a1.05 1.05 0 0 1-.77.322 1.05 1.05 0 0 1-.77-.322 1.05 1.05 0 0 1-.322-.77c0-.299.107-.55.322-.756.215-.205.471-.308.77-.308.299 0 .555.103.77.308.215.205.322.457.322.756zm2.688 0c0 .299-.103.555-.308.77a1.038 1.038 0 0 1-.784.322c-.299 0-.55-.107-.756-.322a1.075 1.075 0 0 1-.308-.77c0-.299.103-.55.308-.756.205-.205.457-.308.756-.308.317 0 .579.103.784.308.205.205.308.457.308.756zm-13.496 2.688c0 .317-.103.579-.308.784a1.028 1.028 0 0 1-.756.308c-.317 0-.579-.103-.784-.308a1.062 1.062 0 0 1-.308-.784c0-.299.103-.55.308-.756.205-.205.467-.308.784-.308.299 0 .55.103.756.308.205.205.308.457.308.756zm2.688 0c0 .317-.103.579-.308.784a1.028 1.028 0 0 1-.756.308c-.299 0-.555-.103-.77-.308a1.038 1.038 0 0 1-.322-.784c0-.299.107-.55.322-.756.215-.205.471-.308.77-.308.299 0 .55.103.756.308.205.205.308.457.308.756zm8.12 0c0 .317-.107.579-.322.784a1.075 1.075 0 0 1-.77.308c-.299 0-.555-.103-.77-.308a1.038 1.038 0 0 1-.322-.784c0-.299.107-.55.322-.756.215-.205.471-.308.77-.308.299 0 .555.103.77.308.215.205.322.457.322.756zm2.688 0c0 .317-.103.579-.308.784a1.062 1.062 0 0 1-.784.308 1.03 1.03 0 0 1-.756-.308 1.062 1.062 0 0 1-.308-.784c0-.299.103-.55.308-.756.205-.205.457-.308.756-.308.317 0 .579.103.784.308.205.205.308.457.308.756zM19.156 19.22c0 .299-.103.55-.308.756a1.028 1.028 0 0 1-.756.308c-.317 0-.579-.103-.784-.308A1.028 1.028 0 0 1 17 19.22c0-.299.103-.555.308-.77.205-.215.467-.322.784-.322.299 0 .55.107.756.322.205.215.308.471.308.77zm2.688 0c0 .299-.103.55-.308.756a1.028 1.028 0 0 1-.756.308c-.299 0-.555-.103-.77-.308a1.005 1.005 0 0 1-.322-.756c0-.299.107-.555.322-.77a1.05 1.05 0 0 1 .77-.322c.299 0 .55.107.756.322.205.215.308.471.308.77zm2.716 0c0 .299-.103.55-.308.756a1.062 1.062 0 0 1-.784.308 1.03 1.03 0 0 1-.756-.308 1.028 1.028 0 0 1-.308-.756c0-.299.103-.555.308-.77.205-.215.457-.322.756-.322.317 0 .579.107.784.322.205.215.308.471.308.77zm2.688 0c0 .299-.103.55-.308.756a1.028 1.028 0 0 1-.756.308c-.317 0-.579-.103-.784-.308a1.028 1.028 0 0 1-.308-.756c0-.299.103-.555.308-.77.205-.215.467-.322.784-.322.299 0 .55.107.756.322.205.215.308.471.308.77zm2.716 0c0 .299-.107.55-.322.756a1.075 1.075 0 0 1-.77.308c-.299 0-.555-.103-.77-.308a1.005 1.005 0 0 1-.322-.756c0-.299.107-.555.322-.77a1.05 1.05 0 0 1 .77-.322c.299 0 .555.107.77.322.215.215.322.471.322.77zm2.688 0c0 .299-.103.55-.308.756a1.062 1.062 0 0 1-.784.308 1.03 1.03 0 0 1-.756-.308 1.028 1.028 0 0 1-.308-.756c0-.299.103-.555.308-.77.205-.215.457-.322.756-.322.317 0 .579.107.784.322.205.215.308.471.308.77zm-10.808 2.688c0 .299-.103.555-.308.77a1.005 1.005 0 0 1-.756.322 1.05 1.05 0 0 1-.77-.322 1.05 1.05 0 0 1-.322-.77c0-.299.107-.55.322-.756.215-.205.471-.308.77-.308.299 0 .55.103.756.308.205.205.308.457.308.756zm2.716 0c0 .299-.103.555-.308.77a1.038 1.038 0 0 1-.784.322c-.299 0-.55-.107-.756-.322a1.075 1.075 0 0 1-.308-.77c0-.299.103-.55.308-.756.205-.205.457-.308.756-.308.317 0 .579.103.784.308.205.205.308.457.308.756zm2.688 0c0 .299-.103.555-.308.77a1.005 1.005 0 0 1-.756.322c-.317 0-.579-.107-.784-.322a1.075 1.075 0 0 1-.308-.77c0-.299.103-.55.308-.756.205-.205.467-.308.784-.308.299 0 .55.103.756.308.205.205.308.457.308.756zm2.716 0c0 .299-.107.555-.322.77a1.05 1.05 0 0 1-.77.322 1.05 1.05 0 0 1-.77-.322 1.05 1.05 0 0 1-.322-.77c0-.299.107-.55.322-.756.215-.205.471-.308.77-.308.299 0 .555.103.77.308.215.205.322.457.322.756zm8.4.028c0 .299-.103.55-.308.756a1.062 1.062 0 0 1-.784.308 1.03 1.03 0 0 1-.756-.308 1.028 1.028 0 0 1-.308-.756c0-.317.103-.579.308-.784.205-.205.457-.308.756-.308.317 0 .579.103.784.308.205.205.308.467.308.784zm0-2.716c0 .317-.103.579-.308.784a1.062 1.062 0 0 1-.784.308 1.03 1.03 0 0 1-.756-.308 1.062 1.062 0 0 1-.308-.784c0-.299.103-.55.308-.756.205-.205.457-.308.756-.308.317 0 .579.103.784.308.205.205.308.457.308.756zm2.688 2.716c0 .299-.103.55-.308.756a1.028 1.028 0 0 1-.756.308c-.299 0-.555-.103-.77-.308a1.005 1.005 0 0 1-.322-.756c0-.317.107-.579.322-.784.215-.205.471-.308.77-.308.299 0 .55.103.756.308.205.205.308.467.308.784zm0-2.688c0 .299-.103.55-.308.756a1.028 1.028 0 0 1-.756.308c-.299 0-.555-.103-.77-.308a1.005 1.005 0 0 1-.322-.756c0-.317.107-.579.322-.784.215-.205.471-.308.77-.308.299 0 .55.103.756.308.205.205.308.467.308.784zm5.712-16.212c0 .299-.103.55-.308.756a1.028 1.028 0 0 1-.756.308c-.317 0-.579-.103-.784-.308a1.028 1.028 0 0 1-.308-.756c0-.317.103-.579.308-.784.205-.205.467-.308.784-.308.299 0 .55.103.756.308.205.205.308.467.308.784zm2.688 0c0 .299-.103.55-.308.756a1.028 1.028 0 0 1-.756.308c-.299 0-.555-.103-.77-.308a1.005 1.005 0 0 1-.322-.756c0-.317.107-.579.322-.784.215-.205.471-.308.77-.308.299 0 .55.103.756.308.205.205.308.467.308.784zm2.716 0c0 .299-.103.55-.308.756a1.062 1.062 0 0 1-.784.308 1.03 1.03 0 0 1-.756-.308 1.028 1.028 0 0 1-.308-.756c0-.317.103-.579.308-.784.205-.205.457-.308.756-.308.317 0 .579.103.784.308.205.205.308.467.308.784zm-5.404 2.688c0 .299-.103.555-.308.77a1.005 1.005 0 0 1-.756.322c-.317 0-.579-.107-.784-.322a1.075 1.075 0 0 1-.308-.77c0-.299.103-.555.308-.77.205-.215.467-.322.784-.322.299 0 .55.107.756.322.205.215.308.471.308.77zm2.688 0c0 .299-.103.555-.308.77a1.005 1.005 0 0 1-.756.322 1.05 1.05 0 0 1-.77-.322 1.05 1.05 0 0 1-.322-.77c0-.299.107-.555.322-.77a1.05 1.05 0 0 1 .77-.322c.299 0 .55.107.756.322.205.215.308.471.308.77zm2.716 0c0 .299-.103.555-.308.77a1.038 1.038 0 0 1-.784.322c-.299 0-.55-.107-.756-.322a1.075 1.075 0 0 1-.308-.77c0-.299.103-.555.308-.77.205-.215.457-.322.756-.322.317 0 .579.107.784.322.205.215.308.471.308.77zm-2.716 2.688c0 .317-.103.579-.308.784a1.028 1.028 0 0 1-.756.308c-.299 0-.555-.103-.77-.308a1.038 1.038 0 0 1-.322-.784c0-.299.107-.55.322-.756.215-.205.471-.308.77-.308.299 0 .55.103.756.308.205.205.308.457.308.756zm2.716 0c0 .317-.103.579-.308.784a1.062 1.062 0 0 1-.784.308 1.03 1.03 0 0 1-.756-.308 1.062 1.062 0 0 1-.308-.784c0-.299.103-.55.308-.756.205-.205.457-.308.756-.308.317 0 .579.103.784.308.205.205.308.457.308.756zm-2.716 2.716c0 .299-.103.55-.308.756a1.028 1.028 0 0 1-.756.308c-.299 0-.555-.103-.77-.308a1.005 1.005 0 0 1-.322-.756c0-.317.107-.579.322-.784.215-.205.471-.308.77-.308.299 0 .55.103.756.308.205.205.308.467.308.784zm2.716 0c0 .299-.103.55-.308.756a1.062 1.062 0 0 1-.784.308 1.03 1.03 0 0 1-.756-.308 1.028 1.028 0 0 1-.308-.756c0-.317.103-.579.308-.784.205-.205.457-.308.756-.308.317 0 .579.103.784.308.205.205.308.467.308.784zm-2.716 2.688c0 .299-.103.555-.308.77a1.005 1.005 0 0 1-.756.322 1.05 1.05 0 0 1-.77-.322 1.05 1.05 0 0 1-.322-.77c0-.299.107-.55.322-.756.215-.205.471-.308.77-.308.299 0 .55.103.756.308.205.205.308.457.308.756zm2.716 0c0 .299-.103.555-.308.77a1.038 1.038 0 0 1-.784.322c-.299 0-.55-.107-.756-.322a1.075 1.075 0 0 1-.308-.77c0-.299.103-.55.308-.756.205-.205.457-.308.756-.308.317 0 .579.103.784.308.205.205.308.457.308.756zm-2.716 2.716c0 .299-.103.55-.308.756a1.028 1.028 0 0 1-.756.308c-.299 0-.555-.103-.77-.308a1.005 1.005 0 0 1-.322-.756c0-.317.107-.579.322-.784.215-.205.471-.308.77-.308.299 0 .55.103.756.308.205.205.308.467.308.784zm2.716 0c0 .299-.103.55-.308.756a1.062 1.062 0 0 1-.784.308 1.03 1.03 0 0 1-.756-.308 1.028 1.028 0 0 1-.308-.756c0-.317.103-.579.308-.784.205-.205.457-.308.756-.308.317 0 .579.103.784.308.205.205.308.467.308.784zm-5.404 2.688c0 .299-.103.55-.308.756a1.028 1.028 0 0 1-.756.308c-.317 0-.579-.103-.784-.308a1.028 1.028 0 0 1-.308-.756c0-.299.103-.555.308-.77.205-.215.467-.322.784-.322.299 0 .55.107.756.322.205.215.308.471.308.77zm2.688 0c0 .299-.103.55-.308.756a1.028 1.028 0 0 1-.756.308c-.299 0-.555-.103-.77-.308a1.005 1.005 0 0 1-.322-.756c0-.299.107-.555.322-.77a1.05 1.05 0 0 1 .77-.322c.299 0 .55.107.756.322.205.215.308.471.308.77zm2.716 0c0 .299-.103.55-.308.756a1.062 1.062 0 0 1-.784.308 1.03 1.03 0 0 1-.756-.308 1.028 1.028 0 0 1-.308-.756c0-.299.103-.555.308-.77.205-.215.457-.322.756-.322.317 0 .579.107.784.322.205.215.308.471.308.77zm2.688 0c0 .299-.103.55-.308.756a1.028 1.028 0 0 1-.756.308c-.317 0-.579-.103-.784-.308a1.028 1.028 0 0 1-.308-.756c0-.299.103-.555.308-.77.205-.215.467-.322.784-.322.299 0 .55.107.756.322.205.215.308.471.308.77zm-8.092 2.688c0 .317-.103.579-.308.784A1.028 1.028 0 0 1 45.7 23c-.317 0-.579-.103-.784-.308a1.062 1.062 0 0 1-.308-.784c0-.299.103-.55.308-.756.205-.205.467-.308.784-.308.299 0 .55.103.756.308.205.205.308.457.308.756zm2.688 0c0 .317-.103.579-.308.784a1.028 1.028 0 0 1-.756.308c-.299 0-.555-.103-.77-.308a1.038 1.038 0 0 1-.322-.784c0-.299.107-.55.322-.756.215-.205.471-.308.77-.308.299 0 .55.103.756.308.205.205.308.457.308.756zm2.716 0c0 .317-.103.579-.308.784a1.062 1.062 0 0 1-.784.308 1.03 1.03 0 0 1-.756-.308 1.062 1.062 0 0 1-.308-.784c0-.299.103-.55.308-.756.205-.205.457-.308.756-.308.317 0 .579.103.784.308.205.205.308.457.308.756zm2.688 0c0 .317-.103.579-.308.784a1.028 1.028 0 0 1-.756.308c-.317 0-.579-.103-.784-.308a1.062 1.062 0 0 1-.308-.784c0-.299.103-.55.308-.756.205-.205.467-.308.784-.308.299 0 .55.103.756.308.205.205.308.457.308.756zm8.4-18.872c0 .299-.103.55-.308.756a1.028 1.028 0 0 1-.756.308c-.299 0-.555-.103-.77-.308a1.005 1.005 0 0 1-.322-.756c0-.317.107-.579.322-.784.215-.205.471-.308.77-.308.299 0 .55.103.756.308.205.205.308.467.308.784zm2.716 0c0 .299-.107.55-.322.756a1.075 1.075 0 0 1-.77.308 1.03 1.03 0 0 1-.756-.308 1.028 1.028 0 0 1-.308-.756c0-.317.103-.579.308-.784.205-.205.457-.308.756-.308s.555.103.77.308c.215.205.322.467.322.784zm2.688 0c0 .299-.103.55-.308.756a1.028 1.028 0 0 1-.756.308c-.317 0-.579-.103-.784-.308a1.028 1.028 0 0 1-.308-.756c0-.317.103-.579.308-.784.205-.205.467-.308.784-.308.299 0 .55.103.756.308.205.205.308.467.308.784zm2.716 0c0 .299-.107.55-.322.756a1.075 1.075 0 0 1-.77.308c-.299 0-.555-.103-.77-.308a1.005 1.005 0 0 1-.322-.756c0-.317.107-.579.322-.784.215-.205.471-.308.77-.308.299 0 .555.103.77.308.215.205.322.467.322.784zM60.568 5.724c0 .299-.103.555-.308.77a1.038 1.038 0 0 1-.784.322c-.299 0-.55-.107-.756-.322a1.075 1.075 0 0 1-.308-.77c0-.299.103-.55.308-.756.205-.205.457-.308.756-.308.317 0 .579.103.784.308.205.205.308.457.308.756zm2.688 0c0 .299-.103.555-.308.77a1.005 1.005 0 0 1-.756.322 1.05 1.05 0 0 1-.77-.322 1.05 1.05 0 0 1-.322-.77c0-.299.107-.55.322-.756.215-.205.471-.308.77-.308.299 0 .55.103.756.308.205.205.308.457.308.756zm2.716 0c0 .299-.107.555-.322.77a1.05 1.05 0 0 1-.77.322c-.299 0-.55-.107-.756-.322a1.075 1.075 0 0 1-.308-.77c0-.299.103-.55.308-.756.205-.205.457-.308.756-.308s.555.103.77.308c.215.205.322.457.322.756zm2.688 0c0 .299-.103.555-.308.77a1.005 1.005 0 0 1-.756.322c-.317 0-.579-.107-.784-.322a1.075 1.075 0 0 1-.308-.77c0-.299.103-.55.308-.756.205-.205.467-.308.784-.308.299 0 .55.103.756.308.205.205.308.457.308.756zm2.716 0c0 .299-.107.555-.322.77a1.05 1.05 0 0 1-.77.322 1.05 1.05 0 0 1-.77-.322 1.05 1.05 0 0 1-.322-.77c0-.299.107-.55.322-.756.215-.205.471-.308.77-.308.299 0 .555.103.77.308.215.205.322.457.322.756zm2.688 0c0 .299-.103.555-.308.77a1.038 1.038 0 0 1-.784.322c-.299 0-.55-.107-.756-.322a1.075 1.075 0 0 1-.308-.77c0-.299.103-.55.308-.756.205-.205.457-.308.756-.308.317 0 .579.103.784.308.205.205.308.457.308.756zM60.568 8.412c0 .317-.103.579-.308.784a1.062 1.062 0 0 1-.784.308 1.03 1.03 0 0 1-.756-.308 1.062 1.062 0 0 1-.308-.784c0-.299.103-.55.308-.756.205-.205.457-.308.756-.308.317 0 .579.103.784.308.205.205.308.457.308.756zm2.688 0c0 .317-.103.579-.308.784a1.028 1.028 0 0 1-.756.308c-.299 0-.555-.103-.77-.308a1.038 1.038 0 0 1-.322-.784c0-.299.107-.55.322-.756.215-.205.471-.308.77-.308.299 0 .55.103.756.308.205.205.308.457.308.756zm8.12 0c0 .317-.107.579-.322.784a1.075 1.075 0 0 1-.77.308c-.299 0-.555-.103-.77-.308a1.038 1.038 0 0 1-.322-.784c0-.299.107-.55.322-.756.215-.205.471-.308.77-.308.299 0 .555.103.77.308.215.205.322.457.322.756zm2.688 0c0 .317-.103.579-.308.784a1.062 1.062 0 0 1-.784.308 1.03 1.03 0 0 1-.756-.308 1.062 1.062 0 0 1-.308-.784c0-.299.103-.55.308-.756.205-.205.457-.308.756-.308.317 0 .579.103.784.308.205.205.308.457.308.756zm-13.496 2.716c0 .299-.103.55-.308.756a1.062 1.062 0 0 1-.784.308 1.03 1.03 0 0 1-.756-.308 1.028 1.028 0 0 1-.308-.756c0-.299.103-.555.308-.77.205-.215.457-.322.756-.322.317 0 .579.107.784.322.205.215.308.471.308.77zm2.688 0c0 .299-.103.55-.308.756a1.028 1.028 0 0 1-.756.308c-.299 0-.555-.103-.77-.308a1.005 1.005 0 0 1-.322-.756c0-.299.107-.555.322-.77a1.05 1.05 0 0 1 .77-.322c.299 0 .55.107.756.322.205.215.308.471.308.77zm2.716 0c0 .299-.107.55-.322.756a1.075 1.075 0 0 1-.77.308 1.03 1.03 0 0 1-.756-.308 1.028 1.028 0 0 1-.308-.756c0-.299.103-.555.308-.77.205-.215.457-.322.756-.322s.555.107.77.322c.215.215.322.471.322.77zm2.688 0c0 .299-.103.55-.308.756a1.028 1.028 0 0 1-.756.308c-.317 0-.579-.103-.784-.308a1.028 1.028 0 0 1-.308-.756c0-.299.103-.555.308-.77.205-.215.467-.322.784-.322.299 0 .55.107.756.322.205.215.308.471.308.77zm2.716 0c0 .299-.107.55-.322.756a1.075 1.075 0 0 1-.77.308c-.299 0-.555-.103-.77-.308a1.005 1.005 0 0 1-.322-.756c0-.299.107-.555.322-.77a1.05 1.05 0 0 1 .77-.322c.299 0 .555.107.77.322.215.215.322.471.322.77zm2.688 0c0 .299-.103.55-.308.756a1.062 1.062 0 0 1-.784.308 1.03 1.03 0 0 1-.756-.308 1.028 1.028 0 0 1-.308-.756c0-.299.103-.555.308-.77.205-.215.457-.322.756-.322.317 0 .579.107.784.322.205.215.308.471.308.77zm-13.496 2.688c0 .317-.103.579-.308.784a1.062 1.062 0 0 1-.784.308 1.03 1.03 0 0 1-.756-.308 1.062 1.062 0 0 1-.308-.784c0-.299.103-.55.308-.756.205-.205.457-.308.756-.308.317 0 .579.103.784.308.205.205.308.457.308.756zm2.688 0c0 .317-.103.579-.308.784a1.028 1.028 0 0 1-.756.308c-.299 0-.555-.103-.77-.308a1.038 1.038 0 0 1-.322-.784c0-.299.107-.55.322-.756.215-.205.471-.308.77-.308.299 0 .55.103.756.308.205.205.308.457.308.756zm2.716 0c0 .317-.107.579-.322.784a1.075 1.075 0 0 1-.77.308 1.03 1.03 0 0 1-.756-.308 1.062 1.062 0 0 1-.308-.784c0-.299.103-.55.308-.756.205-.205.457-.308.756-.308s.555.103.77.308c.215.205.322.457.322.756zm2.688 0c0 .317-.103.579-.308.784a1.028 1.028 0 0 1-.756.308c-.317 0-.579-.103-.784-.308a1.062 1.062 0 0 1-.308-.784c0-.299.103-.55.308-.756.205-.205.467-.308.784-.308.299 0 .55.103.756.308.205.205.308.457.308.756zm2.716 0c0 .317-.107.579-.322.784a1.075 1.075 0 0 1-.77.308c-.299 0-.555-.103-.77-.308a1.038 1.038 0 0 1-.322-.784c0-.299.107-.55.322-.756.215-.205.471-.308.77-.308.299 0 .555.103.77.308.215.205.322.457.322.756zm2.688 0c0 .317-.103.579-.308.784a1.062 1.062 0 0 1-.784.308 1.03 1.03 0 0 1-.756-.308 1.062 1.062 0 0 1-.308-.784c0-.299.103-.55.308-.756.205-.205.457-.308.756-.308.317 0 .579.103.784.308.205.205.308.457.308.756zm-13.496 2.716c0 .299-.103.55-.308.756a1.062 1.062 0 0 1-.784.308 1.03 1.03 0 0 1-.756-.308 1.028 1.028 0 0 1-.308-.756c0-.317.103-.579.308-.784.205-.205.457-.308.756-.308.317 0 .579.103.784.308.205.205.308.467.308.784zm2.688 0c0 .299-.103.55-.308.756a1.028 1.028 0 0 1-.756.308c-.299 0-.555-.103-.77-.308a1.005 1.005 0 0 1-.322-.756c0-.317.107-.579.322-.784.215-.205.471-.308.77-.308.299 0 .55.103.756.308.205.205.308.467.308.784zm8.12 0c0 .299-.107.55-.322.756a1.075 1.075 0 0 1-.77.308c-.299 0-.555-.103-.77-.308a1.005 1.005 0 0 1-.322-.756c0-.317.107-.579.322-.784.215-.205.471-.308.77-.308.299 0 .555.103.77.308.215.205.322.467.322.784zm2.688 0c0 .299-.103.55-.308.756a1.062 1.062 0 0 1-.784.308 1.03 1.03 0 0 1-.756-.308 1.028 1.028 0 0 1-.308-.756c0-.317.103-.579.308-.784.205-.205.457-.308.756-.308.317 0 .579.103.784.308.205.205.308.467.308.784zM60.568 19.22c0 .299-.103.555-.308.77a1.038 1.038 0 0 1-.784.322c-.299 0-.55-.107-.756-.322a1.075 1.075 0 0 1-.308-.77c0-.299.103-.555.308-.77.205-.215.457-.322.756-.322.317 0 .579.107.784.322.205.215.308.471.308.77zm2.688 0c0 .299-.103.555-.308.77a1.005 1.005 0 0 1-.756.322 1.05 1.05 0 0 1-.77-.322 1.05 1.05 0 0 1-.322-.77c0-.299.107-.555.322-.77a1.05 1.05 0 0 1 .77-.322c.299 0 .55.107.756.322.205.215.308.471.308.77zm2.716 0c0 .299-.107.555-.322.77a1.05 1.05 0 0 1-.77.322c-.299 0-.55-.107-.756-.322a1.075 1.075 0 0 1-.308-.77c0-.299.103-.555.308-.77.205-.215.457-.322.756-.322s.555.107.77.322c.215.215.322.471.322.77zm2.688 0c0 .299-.103.555-.308.77a1.005 1.005 0 0 1-.756.322c-.317 0-.579-.107-.784-.322a1.075 1.075 0 0 1-.308-.77c0-.299.103-.555.308-.77.205-.215.467-.322.784-.322.299 0 .55.107.756.322.205.215.308.471.308.77zm2.716 0c0 .299-.107.555-.322.77a1.05 1.05 0 0 1-.77.322 1.05 1.05 0 0 1-.77-.322 1.05 1.05 0 0 1-.322-.77c0-.299.107-.555.322-.77a1.05 1.05 0 0 1 .77-.322c.299 0 .555.107.77.322.215.215.322.471.322.77zm2.688 0c0 .299-.103.555-.308.77a1.038 1.038 0 0 1-.784.322c-.299 0-.55-.107-.756-.322a1.075 1.075 0 0 1-.308-.77c0-.299.103-.555.308-.77.205-.215.457-.322.756-.322.317 0 .579.107.784.322.205.215.308.471.308.77zm-10.808 2.688c0 .317-.103.579-.308.784a1.028 1.028 0 0 1-.756.308c-.299 0-.555-.103-.77-.308a1.038 1.038 0 0 1-.322-.784c0-.299.107-.55.322-.756.215-.205.471-.308.77-.308.299 0 .55.103.756.308.205.205.308.457.308.756zm2.716 0c0 .317-.107.579-.322.784a1.075 1.075 0 0 1-.77.308 1.03 1.03 0 0 1-.756-.308 1.062 1.062 0 0 1-.308-.784c0-.299.103-.55.308-.756.205-.205.457-.308.756-.308s.555.103.77.308c.215.205.322.457.322.756zm2.688 0c0 .317-.103.579-.308.784a1.028 1.028 0 0 1-.756.308c-.317 0-.579-.103-.784-.308a1.062 1.062 0 0 1-.308-.784c0-.299.103-.55.308-.756.205-.205.467-.308.784-.308.299 0 .55.103.756.308.205.205.308.457.308.756zm2.716 0c0 .317-.107.579-.322.784a1.075 1.075 0 0 1-.77.308c-.299 0-.555-.103-.77-.308a1.038 1.038 0 0 1-.322-.784c0-.299.107-.55.322-.756.215-.205.471-.308.77-.308.299 0 .555.103.77.308.215.205.322.457.322.756z" filter="url(#b)" transform="translate(99 3)"/><path d="M82.463 6.453a.73.73 0 0 1-.209.522.682.682 0 0 1-.513.219.713.713 0 0 1-.522-.218.713.713 0 0 1-.219-.523.68.68 0 0 1 .219-.513.73.73 0 0 1 .522-.209c.203 0 .374.07.513.209.14.14.209.31.209.513zm1.843 0a.73.73 0 0 1-.741.741.682.682 0 0 1-.513-.218.73.73 0 0 1-.209-.523c0-.203.07-.374.209-.513.14-.14.31-.209.513-.209a.72.72 0 0 1 .532.209c.14.14.209.31.209.513zm5.491 0a.73.73 0 0 1-.741.741.682.682 0 0 1-.513-.218.73.73 0 0 1-.209-.523c0-.203.07-.374.209-.513.14-.14.31-.209.513-.209a.72.72 0 0 1 .532.209c.14.14.209.31.209.513zm1.824 0a.73.73 0 0 1-.209.522.682.682 0 0 1-.513.219.73.73 0 0 1-.741-.741c0-.203.07-.374.209-.513a.72.72 0 0 1 .532-.209c.203 0 .374.07.513.209.14.14.209.31.209.513zm-9.158 1.843c0 .203-.07.374-.209.513a.697.697 0 0 1-.513.209.73.73 0 0 1-.522-.209.682.682 0 0 1-.219-.513c0-.215.073-.393.219-.532a.73.73 0 0 1 .522-.209c.203 0 .374.07.513.209a.72.72 0 0 1 .209.532zm1.843 0c0 .203-.07.374-.209.513a.72.72 0 0 1-.532.209.697.697 0 0 1-.513-.209.697.697 0 0 1-.209-.513.72.72 0 0 1 .209-.532c.14-.14.31-.209.513-.209a.72.72 0 0 1 .532.209.72.72 0 0 1 .209.532zm5.491 0c0 .203-.07.374-.209.513a.72.72 0 0 1-.532.209.697.697 0 0 1-.513-.209.697.697 0 0 1-.209-.513.72.72 0 0 1 .209-.532c.14-.14.31-.209.513-.209a.72.72 0 0 1 .532.209.72.72 0 0 1 .209.532zm1.824 0c0 .203-.07.374-.209.513a.697.697 0 0 1-.513.209.72.72 0 0 1-.532-.209.697.697 0 0 1-.209-.513.72.72 0 0 1 .209-.532.72.72 0 0 1 .532-.209c.203 0 .374.07.513.209a.72.72 0 0 1 .209.532zm-3.648 1.824a.682.682 0 0 1-.219.513.73.73 0 0 1-.522.209.73.73 0 0 1-.522-.209.682.682 0 0 1-.219-.513.71.71 0 0 1 .219-.522.713.713 0 0 1 .522-.219.71.71 0 0 1 .522.219c.146.145.219.32.219.522zm1.824 0c0 .203-.07.374-.209.513a.72.72 0 0 1-.532.209.697.697 0 0 1-.513-.209.697.697 0 0 1-.209-.513.73.73 0 0 1 .209-.522.682.682 0 0 1 .513-.219c.215 0 .393.073.532.219a.73.73 0 0 1 .209.522zm-3.667 1.824a.72.72 0 0 1-.209.532.697.697 0 0 1-.513.209.72.72 0 0 1-.532-.209.72.72 0 0 1-.209-.532c0-.203.07-.374.209-.513a.72.72 0 0 1 .532-.209c.203 0 .374.07.513.209.14.14.209.31.209.513zm1.843 0a.73.73 0 0 1-.741.741.73.73 0 0 1-.741-.741.68.68 0 0 1 .219-.513.73.73 0 0 1 .522-.209.73.73 0 0 1 .522.209c.146.14.219.31.219.513zm-1.843 1.843c0 .203-.07.374-.209.513a.697.697 0 0 1-.513.209.72.72 0 0 1-.532-.209.697.697 0 0 1-.209-.513.72.72 0 0 1 .209-.532.72.72 0 0 1 .532-.209c.203 0 .374.07.513.209a.72.72 0 0 1 .209.532zm1.843 0a.682.682 0 0 1-.219.513.73.73 0 0 1-.522.209.73.73 0 0 1-.522-.209.682.682 0 0 1-.219-.513c0-.215.073-.393.219-.532a.73.73 0 0 1 .522-.209.73.73 0 0 1 .741.741zm-3.667 1.824a.73.73 0 0 1-.741.741.682.682 0 0 1-.513-.218.73.73 0 0 1-.209-.523.73.73 0 0 1 .209-.523.682.682 0 0 1 .513-.218c.215 0 .393.073.532.219a.73.73 0 0 1 .209.522zm1.824 0a.73.73 0 0 1-.209.523.682.682 0 0 1-.513.218.73.73 0 0 1-.741-.741.73.73 0 0 1 .741-.741.68.68 0 0 1 .513.219.73.73 0 0 1 .209.522zm-3.667 1.824a.72.72 0 0 1-.209.532.697.697 0 0 1-.513.209.73.73 0 0 1-.741-.741.68.68 0 0 1 .219-.513.73.73 0 0 1 .522-.209c.203 0 .374.07.513.209.14.14.209.31.209.513zm1.843 0a.72.72 0 0 1-.209.532.72.72 0 0 1-.532.209.697.697 0 0 1-.513-.209.72.72 0 0 1-.209-.532c0-.203.07-.374.209-.513.14-.14.31-.209.513-.209a.72.72 0 0 1 .532.209c.14.14.209.31.209.513zm5.491 0a.72.72 0 0 1-.209.532.72.72 0 0 1-.532.209.697.697 0 0 1-.513-.209.72.72 0 0 1-.209-.532c0-.203.07-.374.209-.513.14-.14.31-.209.513-.209a.72.72 0 0 1 .532.209c.14.14.209.31.209.513zm1.824 0a.72.72 0 0 1-.209.532.697.697 0 0 1-.513.209.72.72 0 0 1-.532-.209.72.72 0 0 1-.209-.532c0-.203.07-.374.209-.513a.72.72 0 0 1 .532-.209c.203 0 .374.07.513.209.14.14.209.31.209.513zm-9.158 1.843c0 .203-.07.374-.209.513a.697.697 0 0 1-.513.209.73.73 0 0 1-.522-.209.682.682 0 0 1-.219-.513c0-.215.073-.393.219-.532a.73.73 0 0 1 .522-.209c.203 0 .374.07.513.209a.72.72 0 0 1 .209.532zm1.843 0c0 .203-.07.374-.209.513a.72.72 0 0 1-.532.209.697.697 0 0 1-.513-.209.697.697 0 0 1-.209-.513.72.72 0 0 1 .209-.532c.14-.14.31-.209.513-.209a.72.72 0 0 1 .532.209.72.72 0 0 1 .209.532zm5.491 0c0 .203-.07.374-.209.513a.72.72 0 0 1-.532.209.697.697 0 0 1-.513-.209.697.697 0 0 1-.209-.513.72.72 0 0 1 .209-.532c.14-.14.31-.209.513-.209a.72.72 0 0 1 .532.209.72.72 0 0 1 .209.532zm1.824 0c0 .203-.07.374-.209.513a.697.697 0 0 1-.513.209.72.72 0 0 1-.532-.209.697.697 0 0 1-.209-.513.72.72 0 0 1 .209-.532.72.72 0 0 1 .532-.209c.203 0 .374.07.513.209a.72.72 0 0 1 .209.532z" filter="url(#c)" transform="translate(99 3)"/></g><path d="M200.92 64.48c0 .427-.147.787-.44 1.08-.293.293-.653.44-1.08.44-.427 0-.793-.147-1.1-.44a1.436 1.436 0 0 1-.46-1.08c0-.453.153-.827.46-1.12.307-.293.673-.44 1.1-.44.427 0 .787.147 1.08.44.293.293.44.667.44 1.12zm3.88 0c0 .427-.147.787-.44 1.08-.293.293-.667.44-1.12.44-.427 0-.787-.147-1.08-.44a1.468 1.468 0 0 1-.44-1.08c0-.453.147-.827.44-1.12.293-.293.653-.44 1.08-.44.453 0 .827.147 1.12.44.293.293.44.667.44 1.12zm3.84 0c0 .427-.147.787-.44 1.08-.293.293-.653.44-1.08.44-.453 0-.827-.147-1.12-.44a1.468 1.468 0 0 1-.44-1.08c0-.453.147-.827.44-1.12.293-.293.667-.44 1.12-.44.427 0 .787.147 1.08.44.293.293.44.667.44 1.12zm3.88 0c0 .427-.153.787-.46 1.08-.307.293-.673.44-1.1.44-.427 0-.793-.147-1.1-.44a1.436 1.436 0 0 1-.46-1.08c0-.453.153-.827.46-1.12.307-.293.673-.44 1.1-.44.427 0 .793.147 1.1.44.307.293.46.667.46 1.12zm-15.44 3.84c0 .427-.147.787-.44 1.08-.293.293-.653.44-1.08.44-.453 0-.827-.147-1.12-.44a1.468 1.468 0 0 1-.44-1.08c0-.427.147-.793.44-1.1.293-.307.667-.46 1.12-.46.427 0 .787.153 1.08.46.293.307.44.673.44 1.1zm3.84 0c0 .427-.147.787-.44 1.08-.293.293-.653.44-1.08.44-.427 0-.793-.147-1.1-.44a1.436 1.436 0 0 1-.46-1.08 1.5 1.5 0 0 1 .46-1.1 1.5 1.5 0 0 1 1.1-.46c.427 0 .787.153 1.08.46.293.307.44.673.44 1.1zm3.88 0c0 .427-.147.787-.44 1.08-.293.293-.667.44-1.12.44-.427 0-.787-.147-1.08-.44a1.468 1.468 0 0 1-.44-1.08c0-.427.147-.793.44-1.1.293-.307.653-.46 1.08-.46.453 0 .827.153 1.12.46.293.307.44.673.44 1.1zm3.84 0c0 .427-.147.787-.44 1.08-.293.293-.653.44-1.08.44-.453 0-.827-.147-1.12-.44a1.468 1.468 0 0 1-.44-1.08c0-.427.147-.793.44-1.1.293-.307.667-.46 1.12-.46.427 0 .787.153 1.08.46.293.307.44.673.44 1.1zm3.88 0c0 .427-.153.787-.46 1.08-.307.293-.673.44-1.1.44-.427 0-.793-.147-1.1-.44a1.436 1.436 0 0 1-.46-1.08 1.5 1.5 0 0 1 .46-1.1 1.5 1.5 0 0 1 1.1-.46 1.5 1.5 0 0 1 1.1.46 1.5 1.5 0 0 1 .46 1.1zm3.84 0c0 .427-.147.787-.44 1.08-.293.293-.667.44-1.12.44-.427 0-.787-.147-1.08-.44a1.468 1.468 0 0 1-.44-1.08c0-.427.147-.793.44-1.1.293-.307.653-.46 1.08-.46.453 0 .827.153 1.12.46.293.307.44.673.44 1.1zm-19.28 3.84c0 .453-.147.827-.44 1.12-.293.293-.653.44-1.08.44-.453 0-.827-.147-1.12-.44-.293-.293-.44-.667-.44-1.12 0-.427.147-.787.44-1.08.293-.293.667-.44 1.12-.44.427 0 .787.147 1.08.44.293.293.44.653.44 1.08zm3.84 0c0 .453-.147.827-.44 1.12-.293.293-.653.44-1.08.44-.427 0-.793-.147-1.1-.44-.307-.293-.46-.667-.46-1.12 0-.427.153-.787.46-1.08.307-.293.673-.44 1.1-.44.427 0 .787.147 1.08.44.293.293.44.653.44 1.08zm11.6 0c0 .453-.153.827-.46 1.12-.307.293-.673.44-1.1.44-.427 0-.793-.147-1.1-.44-.307-.293-.46-.667-.46-1.12 0-.427.153-.787.46-1.08.307-.293.673-.44 1.1-.44.427 0 .793.147 1.1.44.307.293.46.653.46 1.08zm3.84 0c0 .453-.147.827-.44 1.12-.293.293-.667.44-1.12.44-.427 0-.787-.147-1.08-.44-.293-.293-.44-.667-.44-1.12 0-.427.147-.787.44-1.08.293-.293.653-.44 1.08-.44.453 0 .827.147 1.12.44.293.293.44.653.44 1.08zm-19.28 3.88c0 .427-.147.787-.44 1.08-.293.293-.653.44-1.08.44-.453 0-.827-.147-1.12-.44a1.468 1.468 0 0 1-.44-1.08c0-.453.147-.827.44-1.12.293-.293.667-.44 1.12-.44.427 0 .787.147 1.08.44.293.293.44.667.44 1.12zm3.84 0c0 .427-.147.787-.44 1.08-.293.293-.653.44-1.08.44-.427 0-.793-.147-1.1-.44a1.436 1.436 0 0 1-.46-1.08c0-.453.153-.827.46-1.12.307-.293.673-.44 1.1-.44.427 0 .787.147 1.08.44.293.293.44.667.44 1.12zm11.6 0c0 .427-.153.787-.46 1.08-.307.293-.673.44-1.1.44-.427 0-.793-.147-1.1-.44a1.436 1.436 0 0 1-.46-1.08c0-.453.153-.827.46-1.12.307-.293.673-.44 1.1-.44.427 0 .793.147 1.1.44.307.293.46.667.46 1.12zm3.84 0c0 .427-.147.787-.44 1.08-.293.293-.667.44-1.12.44-.427 0-.787-.147-1.08-.44a1.468 1.468 0 0 1-.44-1.08c0-.453.147-.827.44-1.12.293-.293.653-.44 1.08-.44.453 0 .827.147 1.12.44.293.293.44.667.44 1.12zm-19.28 3.84c0 .427-.147.793-.44 1.1-.293.307-.653.46-1.08.46-.453 0-.827-.153-1.12-.46a1.536 1.536 0 0 1-.44-1.1c0-.427.147-.787.44-1.08.293-.293.667-.44 1.12-.44.427 0 .787.147 1.08.44.293.293.44.653.44 1.08zm3.84 0c0 .427-.147.793-.44 1.1-.293.307-.653.46-1.08.46a1.5 1.5 0 0 1-1.1-.46 1.501 1.501 0 0 1-.46-1.1c0-.427.153-.787.46-1.08.307-.293.673-.44 1.1-.44.427 0 .787.147 1.08.44.293.293.44.653.44 1.08zm11.6 0a1.5 1.5 0 0 1-.46 1.1 1.5 1.5 0 0 1-1.1.46 1.5 1.5 0 0 1-1.1-.46 1.501 1.501 0 0 1-.46-1.1c0-.427.153-.787.46-1.08.307-.293.673-.44 1.1-.44.427 0 .793.147 1.1.44.307.293.46.653.46 1.08zm3.84 0c0 .427-.147.793-.44 1.1-.293.307-.667.46-1.12.46-.427 0-.787-.153-1.08-.46a1.536 1.536 0 0 1-.44-1.1c0-.427.147-.787.44-1.08.293-.293.653-.44 1.08-.44.453 0 .827.147 1.12.44.293.293.44.653.44 1.08zm-19.28 3.84c0 .453-.147.827-.44 1.12-.293.293-.653.44-1.08.44-.453 0-.827-.147-1.12-.44-.293-.293-.44-.667-.44-1.12 0-.427.147-.787.44-1.08.293-.293.667-.44 1.12-.44.427 0 .787.147 1.08.44.293.293.44.653.44 1.08zm3.84 0c0 .453-.147.827-.44 1.12-.293.293-.653.44-1.08.44-.427 0-.793-.147-1.1-.44-.307-.293-.46-.667-.46-1.12 0-.427.153-.787.46-1.08.307-.293.673-.44 1.1-.44.427 0 .787.147 1.08.44.293.293.44.653.44 1.08zm11.6 0c0 .453-.153.827-.46 1.12-.307.293-.673.44-1.1.44-.427 0-.793-.147-1.1-.44-.307-.293-.46-.667-.46-1.12 0-.427.153-.787.46-1.08.307-.293.673-.44 1.1-.44.427 0 .793.147 1.1.44.307.293.46.653.46 1.08zm3.84 0c0 .453-.147.827-.44 1.12-.293.293-.667.44-1.12.44-.427 0-.787-.147-1.08-.44-.293-.293-.44-.667-.44-1.12 0-.427.147-.787.44-1.08.293-.293.653-.44 1.08-.44.453 0 .827.147 1.12.44.293.293.44.653.44 1.08zm-19.28 3.88c0 .427-.147.787-.44 1.08-.293.293-.653.44-1.08.44-.453 0-.827-.147-1.12-.44a1.468 1.468 0 0 1-.44-1.08c0-.427.147-.793.44-1.1.293-.307.667-.46 1.12-.46.427 0 .787.153 1.08.46.293.307.44.673.44 1.1zm3.84 0c0 .427-.147.787-.44 1.08-.293.293-.653.44-1.08.44-.427 0-.793-.147-1.1-.44a1.436 1.436 0 0 1-.46-1.08 1.5 1.5 0 0 1 .46-1.1 1.5 1.5 0 0 1 1.1-.46c.427 0 .787.153 1.08.46.293.307.44.673.44 1.1zm3.88 0c0 .427-.147.787-.44 1.08-.293.293-.667.44-1.12.44-.427 0-.787-.147-1.08-.44a1.468 1.468 0 0 1-.44-1.08c0-.427.147-.793.44-1.1.293-.307.653-.46 1.08-.46.453 0 .827.153 1.12.46.293.307.44.673.44 1.1zm3.84 0c0 .427-.147.787-.44 1.08-.293.293-.653.44-1.08.44-.453 0-.827-.147-1.12-.44a1.468 1.468 0 0 1-.44-1.08c0-.427.147-.793.44-1.1.293-.307.667-.46 1.12-.46.427 0 .787.153 1.08.46.293.307.44.673.44 1.1zm3.88 0c0 .427-.153.787-.46 1.08-.307.293-.673.44-1.1.44-.427 0-.793-.147-1.1-.44a1.436 1.436 0 0 1-.46-1.08 1.5 1.5 0 0 1 .46-1.1 1.5 1.5 0 0 1 1.1-.46 1.5 1.5 0 0 1 1.1.46 1.5 1.5 0 0 1 .46 1.1zm3.84 0c0 .427-.147.787-.44 1.08-.293.293-.667.44-1.12.44-.427 0-.787-.147-1.08-.44a1.468 1.468 0 0 1-.44-1.08c0-.427.147-.793.44-1.1.293-.307.653-.46 1.08-.46.453 0 .827.153 1.12.46.293.307.44.673.44 1.1zm-15.44 3.84c0 .427-.147.793-.44 1.1-.293.307-.653.46-1.08.46a1.5 1.5 0 0 1-1.1-.46 1.501 1.501 0 0 1-.46-1.1c0-.427.153-.787.46-1.08.307-.293.673-.44 1.1-.44.427 0 .787.147 1.08.44.293.293.44.653.44 1.08zm3.88 0c0 .427-.147.793-.44 1.1-.293.307-.667.46-1.12.46-.427 0-.787-.153-1.08-.46a1.536 1.536 0 0 1-.44-1.1c0-.427.147-.787.44-1.08.293-.293.653-.44 1.08-.44.453 0 .827.147 1.12.44.293.293.44.653.44 1.08zm3.84 0c0 .427-.147.793-.44 1.1-.293.307-.653.46-1.08.46-.453 0-.827-.153-1.12-.46a1.536 1.536 0 0 1-.44-1.1c0-.427.147-.787.44-1.08.293-.293.667-.44 1.12-.44.427 0 .787.147 1.08.44.293.293.44.653.44 1.08zm3.88 0a1.5 1.5 0 0 1-.46 1.1 1.5 1.5 0 0 1-1.1.46 1.5 1.5 0 0 1-1.1-.46 1.501 1.501 0 0 1-.46-1.1c0-.427.153-.787.46-1.08.307-.293.673-.44 1.1-.44.427 0 .793.147 1.1.44.307.293.46.653.46 1.08zm12 .04c0 .427-.147.787-.44 1.08-.293.293-.667.44-1.12.44-.427 0-.787-.147-1.08-.44a1.468 1.468 0 0 1-.44-1.08c0-.453.147-.827.44-1.12.293-.293.653-.44 1.08-.44.453 0 .827.147 1.12.44.293.293.44.667.44 1.12zm0-3.88c0 .453-.147.827-.44 1.12-.293.293-.667.44-1.12.44-.427 0-.787-.147-1.08-.44-.293-.293-.44-.667-.44-1.12 0-.427.147-.787.44-1.08.293-.293.653-.44 1.08-.44.453 0 .827.147 1.12.44.293.293.44.653.44 1.08zm3.84 3.88c0 .427-.147.787-.44 1.08-.293.293-.653.44-1.08.44-.427 0-.793-.147-1.1-.44a1.436 1.436 0 0 1-.46-1.08c0-.453.153-.827.46-1.12.307-.293.673-.44 1.1-.44.427 0 .787.147 1.08.44.293.293.44.667.44 1.12zm0-3.84c0 .427-.147.787-.44 1.08-.293.293-.653.44-1.08.44-.427 0-.793-.147-1.1-.44a1.436 1.436 0 0 1-.46-1.08c0-.453.153-.827.46-1.12.307-.293.673-.44 1.1-.44.427 0 .787.147 1.08.44.293.293.44.667.44 1.12zm19.76-23.16c0 .453-.153.827-.46 1.12-.307.293-.673.44-1.1.44-.427 0-.793-.147-1.1-.44-.307-.293-.46-.667-.46-1.12 0-.427.153-.787.46-1.08.307-.293.673-.44 1.1-.44.427 0 .793.147 1.1.44.307.293.46.653.46 1.08zm3.84 0c0 .453-.147.827-.44 1.12-.293.293-.667.44-1.12.44-.427 0-.787-.147-1.08-.44-.293-.293-.44-.667-.44-1.12 0-.427.147-.787.44-1.08.293-.293.653-.44 1.08-.44.453 0 .827.147 1.12.44.293.293.44.653.44 1.08zm-7.72 3.88c0 .427-.147.787-.44 1.08-.293.293-.653.44-1.08.44-.453 0-.827-.147-1.12-.44a1.468 1.468 0 0 1-.44-1.08c0-.453.147-.827.44-1.12.293-.293.667-.44 1.12-.44.427 0 .787.147 1.08.44.293.293.44.667.44 1.12zm3.88 0c0 .427-.153.787-.46 1.08-.307.293-.673.44-1.1.44-.427 0-.793-.147-1.1-.44a1.436 1.436 0 0 1-.46-1.08c0-.453.153-.827.46-1.12.307-.293.673-.44 1.1-.44.427 0 .793.147 1.1.44.307.293.46.667.46 1.12zm3.84 0c0 .427-.147.787-.44 1.08-.293.293-.667.44-1.12.44-.427 0-.787-.147-1.08-.44a1.468 1.468 0 0 1-.44-1.08c0-.453.147-.827.44-1.12.293-.293.653-.44 1.08-.44.453 0 .827.147 1.12.44.293.293.44.667.44 1.12zM240.4 72.2c0 .427-.147.793-.44 1.1-.293.307-.667.46-1.12.46-.427 0-.787-.153-1.08-.46a1.536 1.536 0 0 1-.44-1.1c0-.427.147-.793.44-1.1.293-.307.653-.46 1.08-.46.453 0 .827.153 1.12.46.293.307.44.673.44 1.1zm3.84 0c0 .427-.147.793-.44 1.1-.293.307-.653.46-1.08.46-.453 0-.827-.153-1.12-.46a1.536 1.536 0 0 1-.44-1.1c0-.427.147-.793.44-1.1.293-.307.667-.46 1.12-.46.427 0 .787.153 1.08.46.293.307.44.673.44 1.1zm3.88 0a1.5 1.5 0 0 1-.46 1.1 1.5 1.5 0 0 1-1.1.46 1.5 1.5 0 0 1-1.1-.46 1.501 1.501 0 0 1-.46-1.1 1.5 1.5 0 0 1 .46-1.1 1.5 1.5 0 0 1 1.1-.46 1.5 1.5 0 0 1 1.1.46 1.5 1.5 0 0 1 .46 1.1zm3.84 0c0 .427-.147.793-.44 1.1-.293.307-.667.46-1.12.46-.427 0-.787-.153-1.08-.46a1.536 1.536 0 0 1-.44-1.1c0-.427.147-.793.44-1.1.293-.307.653-.46 1.08-.46.453 0 .827.153 1.12.46.293.307.44.673.44 1.1zm-15.44 3.84c0 .453-.147.827-.44 1.12-.293.293-.653.44-1.08.44-.427 0-.793-.147-1.1-.44-.307-.293-.46-.667-.46-1.12 0-.427.153-.787.46-1.08.307-.293.673-.44 1.1-.44.427 0 .787.147 1.08.44.293.293.44.653.44 1.08zm3.88 0c0 .453-.147.827-.44 1.12-.293.293-.667.44-1.12.44-.427 0-.787-.147-1.08-.44-.293-.293-.44-.667-.44-1.12 0-.427.147-.787.44-1.08.293-.293.653-.44 1.08-.44.453 0 .827.147 1.12.44.293.293.44.653.44 1.08zm7.72 0c0 .453-.153.827-.46 1.12-.307.293-.673.44-1.1.44-.427 0-.793-.147-1.1-.44-.307-.293-.46-.667-.46-1.12 0-.427.153-.787.46-1.08.307-.293.673-.44 1.1-.44.427 0 .793.147 1.1.44.307.293.46.653.46 1.08zm3.84 0c0 .453-.147.827-.44 1.12-.293.293-.667.44-1.12.44-.427 0-.787-.147-1.08-.44-.293-.293-.44-.667-.44-1.12 0-.427.147-.787.44-1.08.293-.293.653-.44 1.08-.44.453 0 .827.147 1.12.44.293.293.44.653.44 1.08zm-15.44 3.88c0 .427-.147.787-.44 1.08-.293.293-.653.44-1.08.44-.427 0-.793-.147-1.1-.44a1.436 1.436 0 0 1-.46-1.08 1.5 1.5 0 0 1 .46-1.1 1.5 1.5 0 0 1 1.1-.46c.427 0 .787.153 1.08.46.293.307.44.673.44 1.1zm3.88 0c0 .427-.147.787-.44 1.08-.293.293-.667.44-1.12.44-.427 0-.787-.147-1.08-.44a1.468 1.468 0 0 1-.44-1.08c0-.427.147-.793.44-1.1.293-.307.653-.46 1.08-.46.453 0 .827.153 1.12.46.293.307.44.673.44 1.1zm3.84 0c0 .427-.147.787-.44 1.08-.293.293-.653.44-1.08.44-.453 0-.827-.147-1.12-.44a1.468 1.468 0 0 1-.44-1.08c0-.427.147-.793.44-1.1.293-.307.667-.46 1.12-.46.427 0 .787.153 1.08.46.293.307.44.673.44 1.1zm3.88 0c0 .427-.153.787-.46 1.08-.307.293-.673.44-1.1.44-.427 0-.793-.147-1.1-.44a1.436 1.436 0 0 1-.46-1.08 1.5 1.5 0 0 1 .46-1.1 1.5 1.5 0 0 1 1.1-.46 1.5 1.5 0 0 1 1.1.46 1.5 1.5 0 0 1 .46 1.1zm3.84 0c0 .427-.147.787-.44 1.08-.293.293-.667.44-1.12.44-.427 0-.787-.147-1.08-.44a1.468 1.468 0 0 1-.44-1.08c0-.427.147-.793.44-1.1.293-.307.653-.46 1.08-.46.453 0 .827.153 1.12.46.293.307.44.673.44 1.1zm3.84 0c0 .427-.147.787-.44 1.08-.293.293-.653.44-1.08.44-.427 0-.793-.147-1.1-.44a1.436 1.436 0 0 1-.46-1.08 1.5 1.5 0 0 1 .46-1.1 1.5 1.5 0 0 1 1.1-.46c.427 0 .787.153 1.08.46.293.307.44.673.44 1.1zm-19.28 3.84c0 .427-.147.793-.44 1.1-.293.307-.653.46-1.08.46a1.5 1.5 0 0 1-1.1-.46 1.501 1.501 0 0 1-.46-1.1c0-.427.153-.787.46-1.08.307-.293.673-.44 1.1-.44.427 0 .787.147 1.08.44.293.293.44.653.44 1.08zm3.88 0c0 .427-.147.793-.44 1.1-.293.307-.667.46-1.12.46-.427 0-.787-.153-1.08-.46a1.536 1.536 0 0 1-.44-1.1c0-.427.147-.787.44-1.08.293-.293.653-.44 1.08-.44.453 0 .827.147 1.12.44.293.293.44.653.44 1.08zm3.84 0c0 .427-.147.793-.44 1.1-.293.307-.653.46-1.08.46-.453 0-.827-.153-1.12-.46a1.536 1.536 0 0 1-.44-1.1c0-.427.147-.787.44-1.08.293-.293.667-.44 1.12-.44.427 0 .787.147 1.08.44.293.293.44.653.44 1.08zm3.88 0a1.5 1.5 0 0 1-.46 1.1 1.5 1.5 0 0 1-1.1.46 1.5 1.5 0 0 1-1.1-.46 1.501 1.501 0 0 1-.46-1.1c0-.427.153-.787.46-1.08.307-.293.673-.44 1.1-.44.427 0 .793.147 1.1.44.307.293.46.653.46 1.08zm3.84 0c0 .427-.147.793-.44 1.1-.293.307-.667.46-1.12.46-.427 0-.787-.153-1.08-.46a1.536 1.536 0 0 1-.44-1.1c0-.427.147-.787.44-1.08.293-.293.653-.44 1.08-.44.453 0 .827.147 1.12.44.293.293.44.653.44 1.08zm3.84 0c0 .427-.147.793-.44 1.1-.293.307-.653.46-1.08.46a1.5 1.5 0 0 1-1.1-.46 1.501 1.501 0 0 1-.46-1.1c0-.427.153-.787.46-1.08.307-.293.673-.44 1.1-.44.427 0 .787.147 1.08.44.293.293.44.653.44 1.08zm-7.68 3.88c0 .427-.153.787-.46 1.08-.307.293-.673.44-1.1.44-.427 0-.793-.147-1.1-.44a1.436 1.436 0 0 1-.46-1.08c0-.453.153-.827.46-1.12.307-.293.673-.44 1.1-.44.427 0 .793.147 1.1.44.307.293.46.667.46 1.12zm3.84 0c0 .427-.147.787-.44 1.08-.293.293-.667.44-1.12.44-.427 0-.787-.147-1.08-.44a1.468 1.468 0 0 1-.44-1.08c0-.453.147-.827.44-1.12.293-.293.653-.44 1.08-.44.453 0 .827.147 1.12.44.293.293.44.667.44 1.12zm-3.84 3.84c0 .427-.153.787-.46 1.08-.307.293-.673.44-1.1.44-.427 0-.793-.147-1.1-.44a1.436 1.436 0 0 1-.46-1.08 1.5 1.5 0 0 1 .46-1.1 1.5 1.5 0 0 1 1.1-.46 1.5 1.5 0 0 1 1.1.46 1.5 1.5 0 0 1 .46 1.1zm3.84 0c0 .427-.147.787-.44 1.08-.293.293-.667.44-1.12.44-.427 0-.787-.147-1.08-.44a1.468 1.468 0 0 1-.44-1.08c0-.427.147-.793.44-1.1.293-.307.653-.46 1.08-.46.453 0 .827.153 1.12.46.293.307.44.673.44 1.1zm15.88-27c0 .427-.147.793-.44 1.1-.293.307-.667.46-1.12.46-.427 0-.787-.153-1.08-.46a1.536 1.536 0 0 1-.44-1.1c0-.427.147-.793.44-1.1.293-.307.653-.46 1.08-.46.453 0 .827.153 1.12.46.293.307.44.673.44 1.1zm3.84 0c0 .427-.147.793-.44 1.1-.293.307-.653.46-1.08.46a1.5 1.5 0 0 1-1.1-.46 1.501 1.501 0 0 1-.46-1.1 1.5 1.5 0 0 1 .46-1.1 1.5 1.5 0 0 1 1.1-.46c.427 0 .787.153 1.08.46.293.307.44.673.44 1.1zm3.88 0c0 .427-.147.793-.44 1.1-.293.307-.667.46-1.12.46-.427 0-.787-.153-1.08-.46a1.536 1.536 0 0 1-.44-1.1c0-.427.147-.793.44-1.1.293-.307.653-.46 1.08-.46.453 0 .827.153 1.12.46.293.307.44.673.44 1.1zm3.84 0c0 .427-.147.793-.44 1.1-.293.307-.653.46-1.08.46-.453 0-.827-.153-1.12-.46a1.536 1.536 0 0 1-.44-1.1c0-.427.147-.793.44-1.1.293-.307.667-.46 1.12-.46.427 0 .787.153 1.08.46.293.307.44.673.44 1.1zM264 68.32c0 .453-.153.827-.46 1.12-.307.293-.673.44-1.1.44-.427 0-.787-.147-1.08-.44-.293-.293-.44-.667-.44-1.12 0-.427.147-.787.44-1.08.293-.293.653-.44 1.08-.44.427 0 .793.147 1.1.44.307.293.46.653.46 1.08zm3.84 0c0 .453-.147.827-.44 1.12-.293.293-.667.44-1.12.44-.427 0-.787-.147-1.08-.44-.293-.293-.44-.667-.44-1.12 0-.427.147-.787.44-1.08.293-.293.653-.44 1.08-.44.453 0 .827.147 1.12.44.293.293.44.653.44 1.08zm3.84 0c0 .453-.147.827-.44 1.12-.293.293-.653.44-1.08.44-.427 0-.793-.147-1.1-.44-.307-.293-.46-.667-.46-1.12 0-.427.153-.787.46-1.08.307-.293.673-.44 1.1-.44.427 0 .787.147 1.08.44.293.293.44.653.44 1.08zm3.88 0c0 .453-.147.827-.44 1.12-.293.293-.667.44-1.12.44-.427 0-.787-.147-1.08-.44-.293-.293-.44-.667-.44-1.12 0-.427.147-.787.44-1.08.293-.293.653-.44 1.08-.44.453 0 .827.147 1.12.44.293.293.44.653.44 1.08zm3.84 0c0 .453-.147.827-.44 1.12-.293.293-.653.44-1.08.44-.453 0-.827-.147-1.12-.44-.293-.293-.44-.667-.44-1.12 0-.427.147-.787.44-1.08.293-.293.667-.44 1.12-.44.427 0 .787.147 1.08.44.293.293.44.653.44 1.08zm3.88 0c0 .453-.153.827-.46 1.12-.307.293-.673.44-1.1.44-.427 0-.793-.147-1.1-.44-.307-.293-.46-.667-.46-1.12 0-.427.153-.787.46-1.08.307-.293.673-.44 1.1-.44.427 0 .793.147 1.1.44.307.293.46.653.46 1.08zM264 72.2c0 .427-.153.787-.46 1.08-.307.293-.673.44-1.1.44-.427 0-.787-.147-1.08-.44a1.468 1.468 0 0 1-.44-1.08c0-.453.147-.827.44-1.12.293-.293.653-.44 1.08-.44.427 0 .793.147 1.1.44.307.293.46.667.46 1.12zm3.84 0c0 .427-.147.787-.44 1.08-.293.293-.667.44-1.12.44-.427 0-.787-.147-1.08-.44a1.468 1.468 0 0 1-.44-1.08c0-.453.147-.827.44-1.12.293-.293.653-.44 1.08-.44.453 0 .827.147 1.12.44.293.293.44.667.44 1.12zm11.56 0c0 .427-.147.787-.44 1.08-.293.293-.653.44-1.08.44-.453 0-.827-.147-1.12-.44a1.468 1.468 0 0 1-.44-1.08c0-.453.147-.827.44-1.12.293-.293.667-.44 1.12-.44.427 0 .787.147 1.08.44.293.293.44.667.44 1.12zm3.88 0c0 .427-.153.787-.46 1.08-.307.293-.673.44-1.1.44-.427 0-.793-.147-1.1-.44a1.436 1.436 0 0 1-.46-1.08c0-.453.153-.827.46-1.12.307-.293.673-.44 1.1-.44.427 0 .793.147 1.1.44.307.293.46.667.46 1.12zm-7.72 3.84c0 .427-.147.793-.44 1.1-.293.307-.667.46-1.12.46-.427 0-.787-.153-1.08-.46a1.536 1.536 0 0 1-.44-1.1c0-.427.147-.787.44-1.08.293-.293.653-.44 1.08-.44.453 0 .827.147 1.12.44.293.293.44.653.44 1.08zm3.84 0c0 .427-.147.793-.44 1.1-.293.307-.653.46-1.08.46-.453 0-.827-.153-1.12-.46a1.536 1.536 0 0 1-.44-1.1c0-.427.147-.787.44-1.08.293-.293.667-.44 1.12-.44.427 0 .787.147 1.08.44.293.293.44.653.44 1.08zm3.88 0a1.5 1.5 0 0 1-.46 1.1 1.5 1.5 0 0 1-1.1.46 1.5 1.5 0 0 1-1.1-.46 1.501 1.501 0 0 1-.46-1.1c0-.427.153-.787.46-1.08.307-.293.673-.44 1.1-.44.427 0 .793.147 1.1.44.307.293.46.653.46 1.08zm-11.6 3.84c0 .453-.147.827-.44 1.12-.293.293-.653.44-1.08.44-.427 0-.793-.147-1.1-.44-.307-.293-.46-.667-.46-1.12 0-.427.153-.787.46-1.08.307-.293.673-.44 1.1-.44.427 0 .787.147 1.08.44.293.293.44.653.44 1.08zm3.88 0c0 .453-.147.827-.44 1.12-.293.293-.667.44-1.12.44-.427 0-.787-.147-1.08-.44-.293-.293-.44-.667-.44-1.12 0-.427.147-.787.44-1.08.293-.293.653-.44 1.08-.44.453 0 .827.147 1.12.44.293.293.44.653.44 1.08zm3.84 0c0 .453-.147.827-.44 1.12-.293.293-.653.44-1.08.44-.453 0-.827-.147-1.12-.44-.293-.293-.44-.667-.44-1.12 0-.427.147-.787.44-1.08.293-.293.667-.44 1.12-.44.427 0 .787.147 1.08.44.293.293.44.653.44 1.08zm-11.56 3.88c0 .427-.147.787-.44 1.08-.293.293-.667.44-1.12.44-.427 0-.787-.147-1.08-.44a1.468 1.468 0 0 1-.44-1.08c0-.427.147-.793.44-1.1.293-.307.653-.46 1.08-.46.453 0 .827.153 1.12.46.293.307.44.673.44 1.1zm3.84 0c0 .427-.147.787-.44 1.08-.293.293-.653.44-1.08.44-.427 0-.793-.147-1.1-.44a1.436 1.436 0 0 1-.46-1.08 1.5 1.5 0 0 1 .46-1.1 1.5 1.5 0 0 1 1.1-.46c.427 0 .787.153 1.08.46.293.307.44.673.44 1.1zm3.88 0c0 .427-.147.787-.44 1.08-.293.293-.667.44-1.12.44-.427 0-.787-.147-1.08-.44a1.468 1.468 0 0 1-.44-1.08c0-.427.147-.793.44-1.1.293-.307.653-.46 1.08-.46.453 0 .827.153 1.12.46.293.307.44.673.44 1.1zM264 87.6c0 .453-.153.827-.46 1.12-.307.293-.673.44-1.1.44-.427 0-.787-.147-1.08-.44-.293-.293-.44-.667-.44-1.12 0-.427.147-.787.44-1.08.293-.293.653-.44 1.08-.44.427 0 .793.147 1.1.44.307.293.46.653.46 1.08zm3.84 0c0 .453-.147.827-.44 1.12-.293.293-.667.44-1.12.44-.427 0-.787-.147-1.08-.44-.293-.293-.44-.667-.44-1.12 0-.427.147-.787.44-1.08.293-.293.653-.44 1.08-.44.453 0 .827.147 1.12.44.293.293.44.653.44 1.08zm3.84 0c0 .453-.147.827-.44 1.12-.293.293-.653.44-1.08.44-.427 0-.793-.147-1.1-.44-.307-.293-.46-.667-.46-1.12 0-.427.153-.787.46-1.08.307-.293.673-.44 1.1-.44.427 0 .787.147 1.08.44.293.293.44.653.44 1.08zm3.88 0c0 .453-.147.827-.44 1.12-.293.293-.667.44-1.12.44-.427 0-.787-.147-1.08-.44-.293-.293-.44-.667-.44-1.12 0-.427.147-.787.44-1.08.293-.293.653-.44 1.08-.44.453 0 .827.147 1.12.44.293.293.44.653.44 1.08zm3.84 0c0 .453-.147.827-.44 1.12-.293.293-.653.44-1.08.44-.453 0-.827-.147-1.12-.44-.293-.293-.44-.667-.44-1.12 0-.427.147-.787.44-1.08.293-.293.667-.44 1.12-.44.427 0 .787.147 1.08.44.293.293.44.653.44 1.08zm3.88 0c0 .453-.153.827-.46 1.12-.307.293-.673.44-1.1.44-.427 0-.793-.147-1.1-.44-.307-.293-.46-.667-.46-1.12 0-.427.153-.787.46-1.08.307-.293.673-.44 1.1-.44.427 0 .793.147 1.1.44.307.293.46.653.46 1.08zM264 91.48c0 .427-.153.787-.46 1.08-.307.293-.673.44-1.1.44-.427 0-.787-.147-1.08-.44a1.468 1.468 0 0 1-.44-1.08c0-.453.147-.827.44-1.12.293-.293.653-.44 1.08-.44.427 0 .793.147 1.1.44.307.293.46.667.46 1.12zm3.84 0c0 .427-.147.787-.44 1.08-.293.293-.667.44-1.12.44-.427 0-.787-.147-1.08-.44a1.468 1.468 0 0 1-.44-1.08c0-.453.147-.827.44-1.12.293-.293.653-.44 1.08-.44.453 0 .827.147 1.12.44.293.293.44.667.44 1.12zm3.84 0c0 .427-.147.787-.44 1.08-.293.293-.653.44-1.08.44-.427 0-.793-.147-1.1-.44a1.436 1.436 0 0 1-.46-1.08c0-.453.153-.827.46-1.12.307-.293.673-.44 1.1-.44.427 0 .787.147 1.08.44.293.293.44.667.44 1.12zm3.88 0c0 .427-.147.787-.44 1.08-.293.293-.667.44-1.12.44-.427 0-.787-.147-1.08-.44a1.468 1.468 0 0 1-.44-1.08c0-.453.147-.827.44-1.12.293-.293.653-.44 1.08-.44.453 0 .827.147 1.12.44.293.293.44.667.44 1.12zm3.84 0c0 .427-.147.787-.44 1.08-.293.293-.653.44-1.08.44-.453 0-.827-.147-1.12-.44a1.468 1.468 0 0 1-.44-1.08c0-.453.147-.827.44-1.12.293-.293.667-.44 1.12-.44.427 0 .787.147 1.08.44.293.293.44.667.44 1.12zm3.88 0c0 .427-.153.787-.46 1.08-.307.293-.673.44-1.1.44-.427 0-.793-.147-1.1-.44a1.436 1.436 0 0 1-.46-1.08c0-.453.153-.827.46-1.12.307-.293.673-.44 1.1-.44.427 0 .793.147 1.1.44.307.293.46.667.46 1.12zm-96.3-15.32c0 .32-.11.595-.33.825-.22.23-.5.345-.84.345-.32 0-.59-.115-.81-.345-.22-.23-.33-.505-.33-.825 0-.32.11-.595.33-.825.22-.23.49-.345.81-.345.34 0 .62.115.84.345.22.23.33.505.33.825zm2.88 0c0 .32-.11.595-.33.825-.22.23-.49.345-.81.345-.32 0-.595-.115-.825-.345a1.126 1.126 0 0 1-.345-.825c0-.32.115-.595.345-.825.23-.23.505-.345.825-.345.32 0 .59.115.81.345.22.23.33.505.33.825zm0 2.88c0 .34-.11.62-.33.84-.22.22-.49.33-.81.33-.32 0-.595-.11-.825-.33-.23-.22-.345-.5-.345-.84 0-.32.115-.59.345-.81.23-.22.505-.33.825-.33.32 0 .59.11.81.33.22.22.33.49.33.81zm-2.88 0c0 .34-.11.62-.33.84-.22.22-.5.33-.84.33-.32 0-.59-.11-.81-.33-.22-.22-.33-.5-.33-.84 0-.32.11-.59.33-.81.22-.22.49-.33.81-.33.34 0 .62.11.84.33.22.22.33.49.33.81zm-8.67-2.88c0 .32-.11.595-.33.825-.22.23-.49.345-.81.345-.34 0-.62-.115-.84-.345-.22-.23-.33-.505-.33-.825 0-.32.11-.595.33-.825.22-.23.5-.345.84-.345.32 0 .59.115.81.345.22.23.33.505.33.825zm2.91 0c0 .32-.115.595-.345.825-.23.23-.505.345-.825.345-.32 0-.595-.115-.825-.345a1.126 1.126 0 0 1-.345-.825c0-.32.115-.595.345-.825.23-.23.505-.345.825-.345.32 0 .595.115.825.345.23.23.345.505.345.825zm-2.91 2.88c0 .34-.11.62-.33.84-.22.22-.49.33-.81.33-.34 0-.62-.11-.84-.33-.22-.22-.33-.5-.33-.84 0-.32.11-.59.33-.81.22-.22.5-.33.84-.33.32 0 .59.11.81.33.22.22.33.49.33.81zm2.91 0c0 .34-.115.62-.345.84-.23.22-.505.33-.825.33-.32 0-.595-.11-.825-.33-.23-.22-.345-.5-.345-.84 0-.32.115-.59.345-.81.23-.22.505-.33.825-.33.32 0 .595.11.825.33.23.22.345.49.345.81zm2.85-2.88c0 .32-.11.595-.33.825-.22.23-.5.345-.84.345-.32 0-.59-.115-.81-.345-.22-.23-.33-.505-.33-.825 0-.32.11-.595.33-.825.22-.23.49-.345.81-.345.34 0 .62.115.84.345.22.23.33.505.33.825zm0 2.88c0 .34-.11.62-.33.84-.22.22-.5.33-.84.33-.32 0-.59-.11-.81-.33-.22-.22-.33-.5-.33-.84 0-.32.11-.59.33-.81.22-.22.49-.33.81-.33.34 0 .62.11.84.33.22.22.33.49.33.81zm0-8.67c0 .32-.11.595-.33.825-.22.23-.5.345-.84.345-.32 0-.59-.115-.81-.345-.22-.23-.33-.505-.33-.825 0-.32.11-.595.33-.825.22-.23.49-.345.81-.345.34 0 .62.115.84.345.22.23.33.505.33.825zm0 2.88c0 .34-.11.62-.33.84-.22.22-.5.33-.84.33-.32 0-.59-.11-.81-.33-.22-.22-.33-.5-.33-.84 0-.32.11-.59.33-.81.22-.22.49-.33.81-.33.34 0 .62.11.84.33.22.22.33.49.33.81zm0 8.67c0 .32-.11.595-.33.825-.22.23-.5.345-.84.345-.32 0-.59-.115-.81-.345-.22-.23-.33-.505-.33-.825 0-.32.11-.595.33-.825.22-.23.49-.345.81-.345.34 0 .62.115.84.345.22.23.33.505.33.825zm0 2.88c0 .34-.11.62-.33.84-.22.22-.5.33-.84.33-.32 0-.59-.11-.81-.33-.22-.22-.33-.5-.33-.84 0-.32.11-.59.33-.81.22-.22.49-.33.81-.33.34 0 .62.11.84.33.22.22.33.49.33.81zm108.778-14.912a.921.921 0 0 1-.264.66.862.862 0 0 1-.648.276.9.9 0 0 1-.66-.276.9.9 0 0 1-.276-.66c0-.256.092-.472.276-.648a.921.921 0 0 1 .66-.264c.256 0 .472.088.648.264a.881.881 0 0 1 .264.648zm2.328 0a.921.921 0 0 1-.264.66.89.89 0 0 1-.672.276.862.862 0 0 1-.648-.276.921.921 0 0 1-.264-.66c0-.256.088-.472.264-.648a.881.881 0 0 1 .648-.264.91.91 0 0 1 .672.264.881.881 0 0 1 .264.648zm6.936 0a.921.921 0 0 1-.264.66.89.89 0 0 1-.672.276.862.862 0 0 1-.648-.276.921.921 0 0 1-.264-.66c0-.256.088-.472.264-.648a.881.881 0 0 1 .648-.264.91.91 0 0 1 .672.264.881.881 0 0 1 .264.648zm2.304 0a.921.921 0 0 1-.264.66.862.862 0 0 1-.648.276.89.89 0 0 1-.672-.276.921.921 0 0 1-.264-.66c0-.256.088-.472.264-.648a.91.91 0 0 1 .672-.264c.256 0 .472.088.648.264a.881.881 0 0 1 .264.648zm-11.568 2.328a.881.881 0 0 1-.264.648.881.881 0 0 1-.648.264.921.921 0 0 1-.66-.264.862.862 0 0 1-.276-.648.89.89 0 0 1 .276-.672.921.921 0 0 1 .66-.264c.256 0 .472.088.648.264a.91.91 0 0 1 .264.672zm2.328 0a.881.881 0 0 1-.264.648.91.91 0 0 1-.672.264.881.881 0 0 1-.648-.264.881.881 0 0 1-.264-.648.91.91 0 0 1 .264-.672.881.881 0 0 1 .648-.264.91.91 0 0 1 .672.264.91.91 0 0 1 .264.672zm6.936 0a.881.881 0 0 1-.264.648.91.91 0 0 1-.672.264.881.881 0 0 1-.648-.264.881.881 0 0 1-.264-.648.91.91 0 0 1 .264-.672.881.881 0 0 1 .648-.264.91.91 0 0 1 .672.264.91.91 0 0 1 .264.672zm2.304 0a.881.881 0 0 1-.264.648.881.881 0 0 1-.648.264.91.91 0 0 1-.672-.264.881.881 0 0 1-.264-.648.91.91 0 0 1 .264-.672.91.91 0 0 1 .672-.264c.256 0 .472.088.648.264a.91.91 0 0 1 .264.672zm-4.608 2.304a.862.862 0 0 1-.276.648.921.921 0 0 1-.66.264.921.921 0 0 1-.66-.264.862.862 0 0 1-.276-.648.9.9 0 0 1 .276-.66.9.9 0 0 1 .66-.276.9.9 0 0 1 .66.276.9.9 0 0 1 .276.66zm2.304 0a.881.881 0 0 1-.264.648.91.91 0 0 1-.672.264.881.881 0 0 1-.648-.264.881.881 0 0 1-.264-.648c0-.256.088-.476.264-.66a.862.862 0 0 1 .648-.276.89.89 0 0 1 .672.276.921.921 0 0 1 .264.66zm-4.632 2.304a.91.91 0 0 1-.264.672.881.881 0 0 1-.648.264.91.91 0 0 1-.672-.264.91.91 0 0 1-.264-.672c0-.256.088-.472.264-.648a.91.91 0 0 1 .672-.264c.256 0 .472.088.648.264a.881.881 0 0 1 .264.648zm2.328 0a.89.89 0 0 1-.276.672.921.921 0 0 1-.66.264.921.921 0 0 1-.66-.264.89.89 0 0 1-.276-.672c0-.256.092-.472.276-.648a.921.921 0 0 1 .66-.264c.256 0 .476.088.66.264a.862.862 0 0 1 .276.648zm-2.328 2.328a.881.881 0 0 1-.264.648.881.881 0 0 1-.648.264.91.91 0 0 1-.672-.264.881.881 0 0 1-.264-.648.91.91 0 0 1 .264-.672.91.91 0 0 1 .672-.264c.256 0 .472.088.648.264a.91.91 0 0 1 .264.672zm2.328 0a.862.862 0 0 1-.276.648.921.921 0 0 1-.66.264.921.921 0 0 1-.66-.264.862.862 0 0 1-.276-.648.89.89 0 0 1 .276-.672.921.921 0 0 1 .66-.264c.256 0 .476.088.66.264a.89.89 0 0 1 .276.672zm-4.632 2.304a.921.921 0 0 1-.264.66.89.89 0 0 1-.672.276.862.862 0 0 1-.648-.276.921.921 0 0 1-.264-.66c0-.256.088-.476.264-.66a.862.862 0 0 1 .648-.276.89.89 0 0 1 .672.276.921.921 0 0 1 .264.66zm2.304 0a.921.921 0 0 1-.264.66.862.862 0 0 1-.648.276.89.89 0 0 1-.672-.276.921.921 0 0 1-.264-.66c0-.256.088-.476.264-.66a.89.89 0 0 1 .672-.276c.256 0 .472.092.648.276a.921.921 0 0 1 .264.66zm-4.632 2.304a.91.91 0 0 1-.264.672.881.881 0 0 1-.648.264.921.921 0 0 1-.66-.264.89.89 0 0 1-.276-.672c0-.256.092-.472.276-.648a.921.921 0 0 1 .66-.264c.256 0 .472.088.648.264a.881.881 0 0 1 .264.648zm2.328 0a.91.91 0 0 1-.264.672.91.91 0 0 1-.672.264.881.881 0 0 1-.648-.264.91.91 0 0 1-.264-.672c0-.256.088-.472.264-.648a.881.881 0 0 1 .648-.264.91.91 0 0 1 .672.264.881.881 0 0 1 .264.648zm6.936 0a.91.91 0 0 1-.264.672.91.91 0 0 1-.672.264.881.881 0 0 1-.648-.264.91.91 0 0 1-.264-.672c0-.256.088-.472.264-.648a.881.881 0 0 1 .648-.264.91.91 0 0 1 .672.264.881.881 0 0 1 .264.648zm2.304 0a.91.91 0 0 1-.264.672.881.881 0 0 1-.648.264.91.91 0 0 1-.672-.264.91.91 0 0 1-.264-.672c0-.256.088-.472.264-.648a.91.91 0 0 1 .672-.264c.256 0 .472.088.648.264a.881.881 0 0 1 .264.648zm-11.568 2.328a.881.881 0 0 1-.264.648.881.881 0 0 1-.648.264.921.921 0 0 1-.66-.264.862.862 0 0 1-.276-.648.89.89 0 0 1 .276-.672.921.921 0 0 1 .66-.264c.256 0 .472.088.648.264a.91.91 0 0 1 .264.672zm2.328 0a.881.881 0 0 1-.264.648.91.91 0 0 1-.672.264.881.881 0 0 1-.648-.264.881.881 0 0 1-.264-.648.91.91 0 0 1 .264-.672.881.881 0 0 1 .648-.264.91.91 0 0 1 .672.264.91.91 0 0 1 .264.672zm6.936 0a.881.881 0 0 1-.264.648.91.91 0 0 1-.672.264.881.881 0 0 1-.648-.264.881.881 0 0 1-.264-.648.91.91 0 0 1 .264-.672.881.881 0 0 1 .648-.264.91.91 0 0 1 .672.264.91.91 0 0 1 .264.672zm2.304 0a.881.881 0 0 1-.264.648.881.881 0 0 1-.648.264.91.91 0 0 1-.672-.264.881.881 0 0 1-.264-.648.91.91 0 0 1 .264-.672.91.91 0 0 1 .672-.264c.256 0 .472.088.648.264a.91.91 0 0 1 .264.672z" fill="#0A498B"/><g opacity=".6" fill="#0B66D0"><path d="M49.11 5.09c0 .747-.257 1.377-.77 1.89-.513.513-1.143.77-1.89.77a2.687 2.687 0 0 1-1.925-.77 2.514 2.514 0 0 1-.805-1.89c0-.793.268-1.447.805-1.96a2.687 2.687 0 0 1 1.925-.77c.747 0 1.377.257 1.89.77.513.513.77 1.167.77 1.96zm6.79 0c0 .747-.257 1.377-.77 1.89-.513.513-1.167.77-1.96.77-.747 0-1.377-.257-1.89-.77-.513-.513-.77-1.143-.77-1.89 0-.793.257-1.447.77-1.96.513-.513 1.143-.77 1.89-.77.793 0 1.447.257 1.96.77.513.513.77 1.167.77 1.96zm6.72 0c0 .747-.257 1.377-.77 1.89-.513.513-1.143.77-1.89.77-.793 0-1.447-.257-1.96-.77-.513-.513-.77-1.143-.77-1.89 0-.793.257-1.447.77-1.96.513-.513 1.167-.77 1.96-.77.747 0 1.377.257 1.89.77.513.513.77 1.167.77 1.96zm6.79 0c0 .747-.268 1.377-.805 1.89a2.687 2.687 0 0 1-1.925.77 2.687 2.687 0 0 1-1.925-.77 2.514 2.514 0 0 1-.805-1.89c0-.793.268-1.447.805-1.96a2.687 2.687 0 0 1 1.925-.77c.747 0 1.388.257 1.925.77.537.513.805 1.167.805 1.96zm-27.02 6.72c0 .747-.257 1.377-.77 1.89-.513.513-1.143.77-1.89.77-.793 0-1.447-.257-1.96-.77-.513-.513-.77-1.143-.77-1.89 0-.747.257-1.388.77-1.925.513-.537 1.167-.805 1.96-.805.747 0 1.377.268 1.89.805.513.537.77 1.178.77 1.925zm6.72 0c0 .747-.257 1.377-.77 1.89-.513.513-1.143.77-1.89.77a2.687 2.687 0 0 1-1.925-.77 2.514 2.514 0 0 1-.805-1.89c0-.747.268-1.388.805-1.925a2.627 2.627 0 0 1 1.925-.805c.747 0 1.377.268 1.89.805.513.537.77 1.178.77 1.925zm6.79 0c0 .747-.257 1.377-.77 1.89-.513.513-1.167.77-1.96.77-.747 0-1.377-.257-1.89-.77-.513-.513-.77-1.143-.77-1.89 0-.747.257-1.388.77-1.925a2.514 2.514 0 0 1 1.89-.805c.793 0 1.447.268 1.96.805.513.537.77 1.178.77 1.925zm6.72 0c0 .747-.257 1.377-.77 1.89-.513.513-1.143.77-1.89.77-.793 0-1.447-.257-1.96-.77-.513-.513-.77-1.143-.77-1.89 0-.747.257-1.388.77-1.925.513-.537 1.167-.805 1.96-.805.747 0 1.377.268 1.89.805.513.537.77 1.178.77 1.925zm6.79 0c0 .747-.268 1.377-.805 1.89a2.687 2.687 0 0 1-1.925.77 2.687 2.687 0 0 1-1.925-.77 2.514 2.514 0 0 1-.805-1.89c0-.747.268-1.388.805-1.925a2.627 2.627 0 0 1 1.925-.805c.747 0 1.388.268 1.925.805.537.537.805 1.178.805 1.925zm6.72 0c0 .747-.257 1.377-.77 1.89-.513.513-1.167.77-1.96.77-.747 0-1.377-.257-1.89-.77-.513-.513-.77-1.143-.77-1.89 0-.747.257-1.388.77-1.925a2.514 2.514 0 0 1 1.89-.805c.793 0 1.447.268 1.96.805.513.537.77 1.178.77 1.925zm-33.74 6.72c0 .793-.257 1.447-.77 1.96-.513.513-1.143.77-1.89.77-.793 0-1.447-.257-1.96-.77-.513-.513-.77-1.167-.77-1.96 0-.747.257-1.377.77-1.89.513-.513 1.167-.77 1.96-.77.747 0 1.377.257 1.89.77.513.513.77 1.143.77 1.89zm6.72 0c0 .793-.257 1.447-.77 1.96-.513.513-1.143.77-1.89.77a2.687 2.687 0 0 1-1.925-.77c-.537-.513-.805-1.167-.805-1.96 0-.747.268-1.377.805-1.89a2.687 2.687 0 0 1 1.925-.77c.747 0 1.377.257 1.89.77.513.513.77 1.143.77 1.89zm20.3 0c0 .793-.268 1.447-.805 1.96a2.687 2.687 0 0 1-1.925.77 2.687 2.687 0 0 1-1.925-.77c-.537-.513-.805-1.167-.805-1.96 0-.747.268-1.377.805-1.89a2.687 2.687 0 0 1 1.925-.77c.747 0 1.388.257 1.925.77.537.513.805 1.143.805 1.89zm6.72 0c0 .793-.257 1.447-.77 1.96-.513.513-1.167.77-1.96.77-.747 0-1.377-.257-1.89-.77-.513-.513-.77-1.167-.77-1.96 0-.747.257-1.377.77-1.89.513-.513 1.143-.77 1.89-.77.793 0 1.447.257 1.96.77.513.513.77 1.143.77 1.89zm-33.74 6.79c0 .747-.257 1.377-.77 1.89-.513.513-1.143.77-1.89.77-.793 0-1.447-.257-1.96-.77-.513-.513-.77-1.143-.77-1.89 0-.793.257-1.447.77-1.96.513-.513 1.167-.77 1.96-.77.747 0 1.377.257 1.89.77.513.513.77 1.167.77 1.96zm6.72 0c0 .747-.257 1.377-.77 1.89-.513.513-1.143.77-1.89.77a2.687 2.687 0 0 1-1.925-.77 2.514 2.514 0 0 1-.805-1.89c0-.793.268-1.447.805-1.96a2.687 2.687 0 0 1 1.925-.77c.747 0 1.377.257 1.89.77.513.513.77 1.167.77 1.96zm20.3 0c0 .747-.268 1.377-.805 1.89a2.687 2.687 0 0 1-1.925.77 2.687 2.687 0 0 1-1.925-.77 2.514 2.514 0 0 1-.805-1.89c0-.793.268-1.447.805-1.96a2.687 2.687 0 0 1 1.925-.77c.747 0 1.388.257 1.925.77.537.513.805 1.167.805 1.96zm6.72 0c0 .747-.257 1.377-.77 1.89-.513.513-1.167.77-1.96.77-.747 0-1.377-.257-1.89-.77-.513-.513-.77-1.143-.77-1.89 0-.793.257-1.447.77-1.96.513-.513 1.143-.77 1.89-.77.793 0 1.447.257 1.96.77.513.513.77 1.167.77 1.96zm-33.74 6.72c0 .747-.257 1.388-.77 1.925a2.514 2.514 0 0 1-1.89.805c-.793 0-1.447-.268-1.96-.805A2.687 2.687 0 0 1 37 32.04c0-.747.257-1.377.77-1.89.513-.513 1.167-.77 1.96-.77.747 0 1.377.257 1.89.77.513.513.77 1.143.77 1.89zm6.72 0c0 .747-.257 1.388-.77 1.925a2.514 2.514 0 0 1-1.89.805 2.627 2.627 0 0 1-1.925-.805 2.627 2.627 0 0 1-.805-1.925c0-.747.268-1.377.805-1.89a2.687 2.687 0 0 1 1.925-.77c.747 0 1.377.257 1.89.77.513.513.77 1.143.77 1.89zm20.3 0c0 .747-.268 1.388-.805 1.925a2.627 2.627 0 0 1-1.925.805 2.627 2.627 0 0 1-1.925-.805 2.627 2.627 0 0 1-.805-1.925c0-.747.268-1.377.805-1.89a2.687 2.687 0 0 1 1.925-.77c.747 0 1.388.257 1.925.77.537.513.805 1.143.805 1.89zm6.72 0c0 .747-.257 1.388-.77 1.925-.513.537-1.167.805-1.96.805a2.514 2.514 0 0 1-1.89-.805 2.687 2.687 0 0 1-.77-1.925c0-.747.257-1.377.77-1.89.513-.513 1.143-.77 1.89-.77.793 0 1.447.257 1.96.77.513.513.77 1.143.77 1.89zm-33.74 6.72c0 .793-.257 1.447-.77 1.96-.513.513-1.143.77-1.89.77-.793 0-1.447-.257-1.96-.77-.513-.513-.77-1.167-.77-1.96 0-.747.257-1.377.77-1.89.513-.513 1.167-.77 1.96-.77.747 0 1.377.257 1.89.77.513.513.77 1.143.77 1.89zm6.72 0c0 .793-.257 1.447-.77 1.96-.513.513-1.143.77-1.89.77a2.687 2.687 0 0 1-1.925-.77c-.537-.513-.805-1.167-.805-1.96 0-.747.268-1.377.805-1.89a2.687 2.687 0 0 1 1.925-.77c.747 0 1.377.257 1.89.77.513.513.77 1.143.77 1.89zm20.3 0c0 .793-.268 1.447-.805 1.96a2.687 2.687 0 0 1-1.925.77 2.687 2.687 0 0 1-1.925-.77c-.537-.513-.805-1.167-.805-1.96 0-.747.268-1.377.805-1.89a2.687 2.687 0 0 1 1.925-.77c.747 0 1.388.257 1.925.77.537.513.805 1.143.805 1.89zm6.72 0c0 .793-.257 1.447-.77 1.96-.513.513-1.167.77-1.96.77-.747 0-1.377-.257-1.89-.77-.513-.513-.77-1.167-.77-1.96 0-.747.257-1.377.77-1.89.513-.513 1.143-.77 1.89-.77.793 0 1.447.257 1.96.77.513.513.77 1.143.77 1.89zm-33.74 6.79c0 .747-.257 1.377-.77 1.89-.513.513-1.143.77-1.89.77-.793 0-1.447-.257-1.96-.77-.513-.513-.77-1.143-.77-1.89 0-.747.257-1.388.77-1.925.513-.537 1.167-.805 1.96-.805.747 0 1.377.268 1.89.805.513.537.77 1.178.77 1.925zm6.72 0c0 .747-.257 1.377-.77 1.89-.513.513-1.143.77-1.89.77a2.687 2.687 0 0 1-1.925-.77 2.514 2.514 0 0 1-.805-1.89c0-.747.268-1.388.805-1.925a2.627 2.627 0 0 1 1.925-.805c.747 0 1.377.268 1.89.805.513.537.77 1.178.77 1.925zm6.79 0c0 .747-.257 1.377-.77 1.89-.513.513-1.167.77-1.96.77-.747 0-1.377-.257-1.89-.77-.513-.513-.77-1.143-.77-1.89 0-.747.257-1.388.77-1.925a2.514 2.514 0 0 1 1.89-.805c.793 0 1.447.268 1.96.805.513.537.77 1.178.77 1.925zm6.72 0c0 .747-.257 1.377-.77 1.89-.513.513-1.143.77-1.89.77-.793 0-1.447-.257-1.96-.77-.513-.513-.77-1.143-.77-1.89 0-.747.257-1.388.77-1.925.513-.537 1.167-.805 1.96-.805.747 0 1.377.268 1.89.805.513.537.77 1.178.77 1.925zm6.79 0c0 .747-.268 1.377-.805 1.89a2.687 2.687 0 0 1-1.925.77 2.687 2.687 0 0 1-1.925-.77 2.514 2.514 0 0 1-.805-1.89c0-.747.268-1.388.805-1.925a2.627 2.627 0 0 1 1.925-.805c.747 0 1.388.268 1.925.805.537.537.805 1.178.805 1.925zm6.72 0c0 .747-.257 1.377-.77 1.89-.513.513-1.167.77-1.96.77-.747 0-1.377-.257-1.89-.77-.513-.513-.77-1.143-.77-1.89 0-.747.257-1.388.77-1.925a2.514 2.514 0 0 1 1.89-.805c.793 0 1.447.268 1.96.805.513.537.77 1.178.77 1.925zm-27.02 6.72c0 .747-.257 1.388-.77 1.925a2.514 2.514 0 0 1-1.89.805 2.627 2.627 0 0 1-1.925-.805 2.627 2.627 0 0 1-.805-1.925c0-.747.268-1.377.805-1.89a2.687 2.687 0 0 1 1.925-.77c.747 0 1.377.257 1.89.77.513.513.77 1.143.77 1.89zm6.79 0c0 .747-.257 1.388-.77 1.925-.513.537-1.167.805-1.96.805a2.514 2.514 0 0 1-1.89-.805 2.687 2.687 0 0 1-.77-1.925c0-.747.257-1.377.77-1.89.513-.513 1.143-.77 1.89-.77.793 0 1.447.257 1.96.77.513.513.77 1.143.77 1.89zm6.72 0c0 .747-.257 1.388-.77 1.925a2.514 2.514 0 0 1-1.89.805c-.793 0-1.447-.268-1.96-.805a2.687 2.687 0 0 1-.77-1.925c0-.747.257-1.377.77-1.89.513-.513 1.167-.77 1.96-.77.747 0 1.377.257 1.89.77.513.513.77 1.143.77 1.89zm6.79 0c0 .747-.268 1.388-.805 1.925A2.627 2.627 0 0 1 66.68 55a2.627 2.627 0 0 1-1.925-.805 2.627 2.627 0 0 1-.805-1.925c0-.747.268-1.377.805-1.89a2.687 2.687 0 0 1 1.925-.77c.747 0 1.388.257 1.925.77.537.513.805 1.143.805 1.89zm21 .07c0 .747-.257 1.377-.77 1.89-.513.513-1.167.77-1.96.77-.747 0-1.377-.257-1.89-.77-.513-.513-.77-1.143-.77-1.89 0-.793.257-1.447.77-1.96.513-.513 1.143-.77 1.89-.77.793 0 1.447.257 1.96.77.513.513.77 1.167.77 1.96zm0-6.79c0 .793-.257 1.447-.77 1.96-.513.513-1.167.77-1.96.77-.747 0-1.377-.257-1.89-.77-.513-.513-.77-1.167-.77-1.96 0-.747.257-1.377.77-1.89.513-.513 1.143-.77 1.89-.77.793 0 1.447.257 1.96.77.513.513.77 1.143.77 1.89zm6.72 6.79c0 .747-.257 1.377-.77 1.89-.513.513-1.143.77-1.89.77a2.687 2.687 0 0 1-1.925-.77 2.514 2.514 0 0 1-.805-1.89c0-.793.268-1.447.805-1.96a2.687 2.687 0 0 1 1.925-.77c.747 0 1.377.257 1.89.77.513.513.77 1.167.77 1.96zm0-6.72c0 .747-.257 1.377-.77 1.89-.513.513-1.143.77-1.89.77a2.687 2.687 0 0 1-1.925-.77 2.514 2.514 0 0 1-.805-1.89c0-.793.268-1.447.805-1.96a2.687 2.687 0 0 1 1.925-.77c.747 0 1.377.257 1.89.77.513.513.77 1.167.77 1.96zm21-40.53c0 .747-.257 1.377-.77 1.89-.513.513-1.143.77-1.89.77a2.687 2.687 0 0 1-1.925-.77 2.514 2.514 0 0 1-.805-1.89c0-.793.268-1.447.805-1.96a2.687 2.687 0 0 1 1.925-.77c.747 0 1.377.257 1.89.77.513.513.77 1.167.77 1.96zm6.79 0c0 .747-.257 1.377-.77 1.89-.513.513-1.167.77-1.96.77-.747 0-1.377-.257-1.89-.77-.513-.513-.77-1.143-.77-1.89 0-.793.257-1.447.77-1.96.513-.513 1.143-.77 1.89-.77.793 0 1.447.257 1.96.77.513.513.77 1.167.77 1.96zm6.72 0c0 .747-.257 1.377-.77 1.89-.513.513-1.143.77-1.89.77-.793 0-1.447-.257-1.96-.77-.513-.513-.77-1.143-.77-1.89 0-.793.257-1.447.77-1.96.513-.513 1.167-.77 1.96-.77.747 0 1.377.257 1.89.77.513.513.77 1.167.77 1.96zm6.79 0c0 .747-.268 1.377-.805 1.89a2.687 2.687 0 0 1-1.925.77 2.687 2.687 0 0 1-1.925-.77 2.514 2.514 0 0 1-.805-1.89c0-.793.268-1.447.805-1.96a2.687 2.687 0 0 1 1.925-.77c.747 0 1.388.257 1.925.77.537.513.805 1.167.805 1.96zm-27.02 6.72c0 .747-.257 1.388-.77 1.925-.513.537-1.167.805-1.96.805a2.514 2.514 0 0 1-1.89-.805 2.687 2.687 0 0 1-.77-1.925c0-.747.257-1.388.77-1.925a2.514 2.514 0 0 1 1.89-.805c.793 0 1.447.268 1.96.805.513.537.77 1.178.77 1.925zm6.72 0c0 .747-.257 1.388-.77 1.925a2.514 2.514 0 0 1-1.89.805 2.627 2.627 0 0 1-1.925-.805 2.627 2.627 0 0 1-.805-1.925c0-.747.268-1.388.805-1.925a2.627 2.627 0 0 1 1.925-.805c.747 0 1.377.268 1.89.805.513.537.77 1.178.77 1.925zm6.79 0c0 .747-.257 1.388-.77 1.925-.513.537-1.167.805-1.96.805a2.514 2.514 0 0 1-1.89-.805 2.687 2.687 0 0 1-.77-1.925c0-.747.257-1.388.77-1.925a2.514 2.514 0 0 1 1.89-.805c.793 0 1.447.268 1.96.805.513.537.77 1.178.77 1.925zm6.72 0c0 .747-.257 1.388-.77 1.925a2.514 2.514 0 0 1-1.89.805c-.793 0-1.447-.268-1.96-.805a2.687 2.687 0 0 1-.77-1.925c0-.747.257-1.388.77-1.925.513-.537 1.167-.805 1.96-.805.747 0 1.377.268 1.89.805.513.537.77 1.178.77 1.925zm6.79 0c0 .747-.268 1.388-.805 1.925a2.627 2.627 0 0 1-1.925.805 2.627 2.627 0 0 1-1.925-.805 2.627 2.627 0 0 1-.805-1.925c0-.747.268-1.388.805-1.925a2.627 2.627 0 0 1 1.925-.805c.747 0 1.388.268 1.925.805.537.537.805 1.178.805 1.925zm6.72 0c0 .747-.257 1.388-.77 1.925-.513.537-1.167.805-1.96.805a2.514 2.514 0 0 1-1.89-.805 2.687 2.687 0 0 1-.77-1.925c0-.747.257-1.388.77-1.925a2.514 2.514 0 0 1 1.89-.805c.793 0 1.447.268 1.96.805.513.537.77 1.178.77 1.925zm-33.74 6.72c0 .793-.257 1.447-.77 1.96-.513.513-1.167.77-1.96.77-.747 0-1.377-.257-1.89-.77-.513-.513-.77-1.167-.77-1.96 0-.747.257-1.377.77-1.89.513-.513 1.143-.77 1.89-.77.793 0 1.447.257 1.96.77.513.513.77 1.143.77 1.89zm6.72 0c0 .793-.257 1.447-.77 1.96-.513.513-1.143.77-1.89.77a2.687 2.687 0 0 1-1.925-.77c-.537-.513-.805-1.167-.805-1.96 0-.747.268-1.377.805-1.89a2.687 2.687 0 0 1 1.925-.77c.747 0 1.377.257 1.89.77.513.513.77 1.143.77 1.89zm20.3 0c0 .793-.268 1.447-.805 1.96a2.687 2.687 0 0 1-1.925.77 2.687 2.687 0 0 1-1.925-.77c-.537-.513-.805-1.167-.805-1.96 0-.747.268-1.377.805-1.89a2.687 2.687 0 0 1 1.925-.77c.747 0 1.388.257 1.925.77.537.513.805 1.143.805 1.89zm6.72 0c0 .793-.257 1.447-.77 1.96-.513.513-1.167.77-1.96.77-.747 0-1.377-.257-1.89-.77-.513-.513-.77-1.167-.77-1.96 0-.747.257-1.377.77-1.89.513-.513 1.143-.77 1.89-.77.793 0 1.447.257 1.96.77.513.513.77 1.143.77 1.89zm-20.23 6.79c0 .747-.257 1.377-.77 1.89-.513.513-1.167.77-1.96.77-.747 0-1.377-.257-1.89-.77-.513-.513-.77-1.143-.77-1.89 0-.793.257-1.447.77-1.96.513-.513 1.143-.77 1.89-.77.793 0 1.447.257 1.96.77.513.513.77 1.167.77 1.96zm6.72 0c0 .747-.257 1.377-.77 1.89-.513.513-1.143.77-1.89.77-.793 0-1.447-.257-1.96-.77-.513-.513-.77-1.143-.77-1.89 0-.793.257-1.447.77-1.96.513-.513 1.167-.77 1.96-.77.747 0 1.377.257 1.89.77.513.513.77 1.167.77 1.96zm6.79 0c0 .747-.268 1.377-.805 1.89a2.687 2.687 0 0 1-1.925.77 2.687 2.687 0 0 1-1.925-.77 2.514 2.514 0 0 1-.805-1.89c0-.793.268-1.447.805-1.96a2.687 2.687 0 0 1 1.925-.77c.747 0 1.388.257 1.925.77.537.513.805 1.167.805 1.96zm6.72 0c0 .747-.257 1.377-.77 1.89-.513.513-1.167.77-1.96.77-.747 0-1.377-.257-1.89-.77-.513-.513-.77-1.143-.77-1.89 0-.793.257-1.447.77-1.96.513-.513 1.143-.77 1.89-.77.793 0 1.447.257 1.96.77.513.513.77 1.167.77 1.96zm-20.23 6.72c0 .747-.257 1.388-.77 1.925-.513.537-1.167.805-1.96.805a2.514 2.514 0 0 1-1.89-.805 2.687 2.687 0 0 1-.77-1.925c0-.747.257-1.377.77-1.89.513-.513 1.143-.77 1.89-.77.793 0 1.447.257 1.96.77.513.513.77 1.143.77 1.89zm6.72 0c0 .747-.257 1.388-.77 1.925a2.514 2.514 0 0 1-1.89.805c-.793 0-1.447-.268-1.96-.805a2.687 2.687 0 0 1-.77-1.925c0-.747.257-1.377.77-1.89.513-.513 1.167-.77 1.96-.77.747 0 1.377.257 1.89.77.513.513.77 1.143.77 1.89zm6.79 0c0 .747-.268 1.388-.805 1.925a2.627 2.627 0 0 1-1.925.805 2.627 2.627 0 0 1-1.925-.805 2.627 2.627 0 0 1-.805-1.925c0-.747.268-1.377.805-1.89a2.687 2.687 0 0 1 1.925-.77c.747 0 1.388.257 1.925.77.537.513.805 1.143.805 1.89zm6.72 0c0 .747-.257 1.388-.77 1.925-.513.537-1.167.805-1.96.805a2.514 2.514 0 0 1-1.89-.805 2.687 2.687 0 0 1-.77-1.925c0-.747.257-1.377.77-1.89.513-.513 1.143-.77 1.89-.77.793 0 1.447.257 1.96.77.513.513.77 1.143.77 1.89zm-33.74 6.79c0 .747-.257 1.377-.77 1.89-.513.513-1.167.77-1.96.77-.747 0-1.377-.257-1.89-.77-.513-.513-.77-1.143-.77-1.89 0-.793.257-1.447.77-1.96.513-.513 1.143-.77 1.89-.77.793 0 1.447.257 1.96.77.513.513.77 1.167.77 1.96zm6.72 0c0 .747-.257 1.377-.77 1.89-.513.513-1.143.77-1.89.77a2.687 2.687 0 0 1-1.925-.77 2.514 2.514 0 0 1-.805-1.89c0-.793.268-1.447.805-1.96a2.687 2.687 0 0 1 1.925-.77c.747 0 1.377.257 1.89.77.513.513.77 1.167.77 1.96zm20.3 0c0 .747-.268 1.377-.805 1.89a2.687 2.687 0 0 1-1.925.77 2.687 2.687 0 0 1-1.925-.77 2.514 2.514 0 0 1-.805-1.89c0-.793.268-1.447.805-1.96a2.687 2.687 0 0 1 1.925-.77c.747 0 1.388.257 1.925.77.537.513.805 1.167.805 1.96zm6.72 0c0 .747-.257 1.377-.77 1.89-.513.513-1.167.77-1.96.77-.747 0-1.377-.257-1.89-.77-.513-.513-.77-1.143-.77-1.89 0-.793.257-1.447.77-1.96.513-.513 1.143-.77 1.89-.77.793 0 1.447.257 1.96.77.513.513.77 1.167.77 1.96zm-33.74 6.72c0 .747-.257 1.377-.77 1.89-.513.513-1.167.77-1.96.77-.747 0-1.377-.257-1.89-.77-.513-.513-.77-1.143-.77-1.89 0-.747.257-1.388.77-1.925a2.514 2.514 0 0 1 1.89-.805c.793 0 1.447.268 1.96.805.513.537.77 1.178.77 1.925zm6.72 0c0 .747-.257 1.377-.77 1.89-.513.513-1.143.77-1.89.77a2.687 2.687 0 0 1-1.925-.77 2.514 2.514 0 0 1-.805-1.89c0-.747.268-1.388.805-1.925a2.627 2.627 0 0 1 1.925-.805c.747 0 1.377.268 1.89.805.513.537.77 1.178.77 1.925zm6.79 0c0 .747-.257 1.377-.77 1.89-.513.513-1.167.77-1.96.77-.747 0-1.377-.257-1.89-.77-.513-.513-.77-1.143-.77-1.89 0-.747.257-1.388.77-1.925a2.514 2.514 0 0 1 1.89-.805c.793 0 1.447.268 1.96.805.513.537.77 1.178.77 1.925zm6.72 0c0 .747-.257 1.377-.77 1.89-.513.513-1.143.77-1.89.77-.793 0-1.447-.257-1.96-.77-.513-.513-.77-1.143-.77-1.89 0-.747.257-1.388.77-1.925.513-.537 1.167-.805 1.96-.805.747 0 1.377.268 1.89.805.513.537.77 1.178.77 1.925zm6.79 0c0 .747-.268 1.377-.805 1.89a2.687 2.687 0 0 1-1.925.77 2.687 2.687 0 0 1-1.925-.77 2.514 2.514 0 0 1-.805-1.89c0-.747.268-1.388.805-1.925a2.627 2.627 0 0 1 1.925-.805c.747 0 1.388.268 1.925.805.537.537.805 1.178.805 1.925zm6.72 0c0 .747-.257 1.377-.77 1.89-.513.513-1.167.77-1.96.77-.747 0-1.377-.257-1.89-.77-.513-.513-.77-1.143-.77-1.89 0-.747.257-1.388.77-1.925a2.514 2.514 0 0 1 1.89-.805c.793 0 1.447.268 1.96.805.513.537.77 1.178.77 1.925zm-27.02 6.72c0 .793-.257 1.447-.77 1.96-.513.513-1.143.77-1.89.77a2.687 2.687 0 0 1-1.925-.77c-.537-.513-.805-1.167-.805-1.96 0-.747.268-1.377.805-1.89a2.687 2.687 0 0 1 1.925-.77c.747 0 1.377.257 1.89.77.513.513.77 1.143.77 1.89zm6.79 0c0 .793-.257 1.447-.77 1.96-.513.513-1.167.77-1.96.77-.747 0-1.377-.257-1.89-.77-.513-.513-.77-1.167-.77-1.96 0-.747.257-1.377.77-1.89.513-.513 1.143-.77 1.89-.77.793 0 1.447.257 1.96.77.513.513.77 1.143.77 1.89zm6.72 0c0 .793-.257 1.447-.77 1.96-.513.513-1.143.77-1.89.77-.793 0-1.447-.257-1.96-.77-.513-.513-.77-1.167-.77-1.96 0-.747.257-1.377.77-1.89.513-.513 1.167-.77 1.96-.77.747 0 1.377.257 1.89.77.513.513.77 1.143.77 1.89zm6.79 0c0 .793-.268 1.447-.805 1.96a2.687 2.687 0 0 1-1.925.77 2.687 2.687 0 0 1-1.925-.77c-.537-.513-.805-1.167-.805-1.96 0-.747.268-1.377.805-1.89a2.687 2.687 0 0 1 1.925-.77c.747 0 1.388.257 1.925.77.537.513.805 1.143.805 1.89zm27.79-47.18c0 .747-.257 1.388-.77 1.925a2.514 2.514 0 0 1-1.89.805c-.793 0-1.447-.268-1.96-.805a2.687 2.687 0 0 1-.77-1.925c0-.747.257-1.377.77-1.89.513-.513 1.167-.77 1.96-.77.747 0 1.377.257 1.89.77.513.513.77 1.143.77 1.89zm-6.72 6.79c0 .747-.268 1.377-.805 1.89a2.687 2.687 0 0 1-1.925.77c-.747 0-1.377-.257-1.89-.77-.513-.513-.77-1.143-.77-1.89 0-.793.257-1.447.77-1.96.513-.513 1.143-.77 1.89-.77.747 0 1.388.257 1.925.77.537.513.805 1.167.805 1.96zm6.72 0c0 .747-.257 1.377-.77 1.89-.513.513-1.143.77-1.89.77-.793 0-1.447-.257-1.96-.77-.513-.513-.77-1.143-.77-1.89 0-.793.257-1.447.77-1.96.513-.513 1.167-.77 1.96-.77.747 0 1.377.257 1.89.77.513.513.77 1.167.77 1.96zm-6.72 6.72c0 .747-.268 1.377-.805 1.89a2.687 2.687 0 0 1-1.925.77c-.747 0-1.377-.257-1.89-.77-.513-.513-.77-1.143-.77-1.89 0-.747.257-1.388.77-1.925a2.514 2.514 0 0 1 1.89-.805c.747 0 1.388.268 1.925.805.537.537.805 1.178.805 1.925zm6.72 0c0 .747-.257 1.377-.77 1.89-.513.513-1.143.77-1.89.77-.793 0-1.447-.257-1.96-.77-.513-.513-.77-1.143-.77-1.89 0-.747.257-1.388.77-1.925.513-.537 1.167-.805 1.96-.805.747 0 1.377.268 1.89.805.513.537.77 1.178.77 1.925zm6.72-13.51c0 .747-.257 1.388-.77 1.925a2.514 2.514 0 0 1-1.89.805 2.627 2.627 0 0 1-1.925-.805 2.627 2.627 0 0 1-.805-1.925c0-.747.268-1.377.805-1.89a2.687 2.687 0 0 1 1.925-.77c.747 0 1.377.257 1.89.77.513.513.77 1.143.77 1.89zm0 6.79c0 .747-.257 1.377-.77 1.89-.513.513-1.143.77-1.89.77a2.687 2.687 0 0 1-1.925-.77 2.514 2.514 0 0 1-.805-1.89c0-.793.268-1.447.805-1.96a2.687 2.687 0 0 1 1.925-.77c.747 0 1.377.257 1.89.77.513.513.77 1.167.77 1.96zm6.79-6.79c0 .747-.257 1.388-.77 1.925-.513.537-1.167.805-1.96.805a2.514 2.514 0 0 1-1.89-.805 2.687 2.687 0 0 1-.77-1.925c0-.747.257-1.377.77-1.89.513-.513 1.143-.77 1.89-.77.793 0 1.447.257 1.96.77.513.513.77 1.143.77 1.89zm0 6.79c0 .747-.257 1.377-.77 1.89-.513.513-1.167.77-1.96.77-.747 0-1.377-.257-1.89-.77-.513-.513-.77-1.143-.77-1.89 0-.793.257-1.447.77-1.96.513-.513 1.143-.77 1.89-.77.793 0 1.447.257 1.96.77.513.513.77 1.167.77 1.96zm6.72-6.79c0 .747-.257 1.388-.77 1.925a2.514 2.514 0 0 1-1.89.805c-.793 0-1.447-.268-1.96-.805a2.687 2.687 0 0 1-.77-1.925c0-.747.257-1.377.77-1.89.513-.513 1.167-.77 1.96-.77.747 0 1.377.257 1.89.77.513.513.77 1.143.77 1.89zm0 6.79c0 .747-.257 1.377-.77 1.89-.513.513-1.143.77-1.89.77-.793 0-1.447-.257-1.96-.77-.513-.513-.77-1.143-.77-1.89 0-.793.257-1.447.77-1.96.513-.513 1.167-.77 1.96-.77.747 0 1.377.257 1.89.77.513.513.77 1.167.77 1.96zM159.5 25.32c0 .793-.268 1.447-.805 1.96a2.687 2.687 0 0 1-1.925.77c-.747 0-1.377-.257-1.89-.77-.513-.513-.77-1.167-.77-1.96 0-.747.257-1.377.77-1.89.513-.513 1.143-.77 1.89-.77.747 0 1.388.257 1.925.77.537.513.805 1.143.805 1.89zm6.72 0c0 .793-.257 1.447-.77 1.96-.513.513-1.143.77-1.89.77-.793 0-1.447-.257-1.96-.77-.513-.513-.77-1.167-.77-1.96 0-.747.257-1.377.77-1.89.513-.513 1.167-.77 1.96-.77.747 0 1.377.257 1.89.77.513.513.77 1.143.77 1.89zm6.79 0c0 .793-.268 1.447-.805 1.96a2.687 2.687 0 0 1-1.925.77 2.687 2.687 0 0 1-1.925-.77c-.537-.513-.805-1.167-.805-1.96 0-.747.268-1.377.805-1.89a2.687 2.687 0 0 1 1.925-.77c.747 0 1.388.257 1.925.77.537.513.805 1.143.805 1.89zm6.72 0c0 .793-.257 1.447-.77 1.96-.513.513-1.167.77-1.96.77-.747 0-1.377-.257-1.89-.77-.513-.513-.77-1.167-.77-1.96 0-.747.257-1.377.77-1.89.513-.513 1.143-.77 1.89-.77.793 0 1.447.257 1.96.77.513.513.77 1.143.77 1.89zm6.72 0c0 .793-.257 1.447-.77 1.96-.513.513-1.143.77-1.89.77-.793 0-1.447-.257-1.96-.77-.513-.513-.77-1.167-.77-1.96 0-.747.257-1.377.77-1.89.513-.513 1.167-.77 1.96-.77.747 0 1.377.257 1.89.77.513.513.77 1.143.77 1.89zm-26.95 6.79c0 .747-.268 1.377-.805 1.89a2.687 2.687 0 0 1-1.925.77c-.747 0-1.377-.257-1.89-.77-.513-.513-.77-1.143-.77-1.89 0-.793.257-1.447.77-1.96.513-.513 1.143-.77 1.89-.77.747 0 1.388.257 1.925.77.537.513.805 1.167.805 1.96zm6.72 0c0 .747-.257 1.377-.77 1.89-.513.513-1.143.77-1.89.77-.793 0-1.447-.257-1.96-.77-.513-.513-.77-1.143-.77-1.89 0-.793.257-1.447.77-1.96.513-.513 1.167-.77 1.96-.77.747 0 1.377.257 1.89.77.513.513.77 1.167.77 1.96zm6.79 0c0 .747-.268 1.377-.805 1.89a2.687 2.687 0 0 1-1.925.77 2.687 2.687 0 0 1-1.925-.77 2.514 2.514 0 0 1-.805-1.89c0-.793.268-1.447.805-1.96a2.687 2.687 0 0 1 1.925-.77c.747 0 1.388.257 1.925.77.537.513.805 1.167.805 1.96zm6.72 0c0 .747-.257 1.377-.77 1.89-.513.513-1.167.77-1.96.77-.747 0-1.377-.257-1.89-.77-.513-.513-.77-1.143-.77-1.89 0-.793.257-1.447.77-1.96.513-.513 1.143-.77 1.89-.77.793 0 1.447.257 1.96.77.513.513.77 1.167.77 1.96zm6.72 0c0 .747-.257 1.377-.77 1.89-.513.513-1.143.77-1.89.77-.793 0-1.447-.257-1.96-.77-.513-.513-.77-1.143-.77-1.89 0-.793.257-1.447.77-1.96.513-.513 1.167-.77 1.96-.77.747 0 1.377.257 1.89.77.513.513.77 1.167.77 1.96zm6.79 0c0 .747-.268 1.377-.805 1.89a2.687 2.687 0 0 1-1.925.77c-.747 0-1.377-.257-1.89-.77-.513-.513-.77-1.143-.77-1.89 0-.793.257-1.447.77-1.96.513-.513 1.143-.77 1.89-.77.747 0 1.388.257 1.925.77.537.513.805 1.167.805 1.96zm-33.74 6.72c0 .747-.268 1.388-.805 1.925a2.627 2.627 0 0 1-1.925.805 2.514 2.514 0 0 1-1.89-.805 2.687 2.687 0 0 1-.77-1.925c0-.747.257-1.377.77-1.89.513-.513 1.143-.77 1.89-.77.747 0 1.388.257 1.925.77.537.513.805 1.143.805 1.89zm6.72 0c0 .747-.257 1.388-.77 1.925a2.514 2.514 0 0 1-1.89.805c-.793 0-1.447-.268-1.96-.805a2.687 2.687 0 0 1-.77-1.925c0-.747.257-1.377.77-1.89.513-.513 1.167-.77 1.96-.77.747 0 1.377.257 1.89.77.513.513.77 1.143.77 1.89zm20.23 0c0 .747-.257 1.388-.77 1.925a2.514 2.514 0 0 1-1.89.805c-.793 0-1.447-.268-1.96-.805a2.687 2.687 0 0 1-.77-1.925c0-.747.257-1.377.77-1.89.513-.513 1.167-.77 1.96-.77.747 0 1.377.257 1.89.77.513.513.77 1.143.77 1.89zm6.79 0c0 .747-.268 1.388-.805 1.925a2.627 2.627 0 0 1-1.925.805 2.514 2.514 0 0 1-1.89-.805 2.687 2.687 0 0 1-.77-1.925c0-.747.257-1.377.77-1.89.513-.513 1.143-.77 1.89-.77.747 0 1.388.257 1.925.77.537.513.805 1.143.805 1.89zm-33.74 6.72c0 .793-.268 1.447-.805 1.96a2.687 2.687 0 0 1-1.925.77c-.747 0-1.377-.257-1.89-.77-.513-.513-.77-1.167-.77-1.96 0-.747.257-1.377.77-1.89.513-.513 1.143-.77 1.89-.77.747 0 1.388.257 1.925.77.537.513.805 1.143.805 1.89zm6.72 0c0 .793-.257 1.447-.77 1.96-.513.513-1.143.77-1.89.77-.793 0-1.447-.257-1.96-.77-.513-.513-.77-1.167-.77-1.96 0-.747.257-1.377.77-1.89.513-.513 1.167-.77 1.96-.77.747 0 1.377.257 1.89.77.513.513.77 1.143.77 1.89zm6.79 0c0 .793-.268 1.447-.805 1.96a2.687 2.687 0 0 1-1.925.77 2.687 2.687 0 0 1-1.925-.77c-.537-.513-.805-1.167-.805-1.96 0-.747.268-1.377.805-1.89a2.687 2.687 0 0 1 1.925-.77c.747 0 1.388.257 1.925.77.537.513.805 1.143.805 1.89zm6.72 0c0 .793-.257 1.447-.77 1.96-.513.513-1.167.77-1.96.77-.747 0-1.377-.257-1.89-.77-.513-.513-.77-1.167-.77-1.96 0-.747.257-1.377.77-1.89.513-.513 1.143-.77 1.89-.77.793 0 1.447.257 1.96.77.513.513.77 1.143.77 1.89zm6.72 0c0 .793-.257 1.447-.77 1.96-.513.513-1.143.77-1.89.77-.793 0-1.447-.257-1.96-.77-.513-.513-.77-1.167-.77-1.96 0-.747.257-1.377.77-1.89.513-.513 1.167-.77 1.96-.77.747 0 1.377.257 1.89.77.513.513.77 1.143.77 1.89zm6.79 0c0 .793-.268 1.447-.805 1.96a2.687 2.687 0 0 1-1.925.77c-.747 0-1.377-.257-1.89-.77-.513-.513-.77-1.167-.77-1.96 0-.747.257-1.377.77-1.89.513-.513 1.143-.77 1.89-.77.747 0 1.388.257 1.925.77.537.513.805 1.143.805 1.89zm-27.02 6.79c0 .747-.257 1.377-.77 1.89-.513.513-1.143.77-1.89.77-.793 0-1.447-.257-1.96-.77-.513-.513-.77-1.143-.77-1.89 0-.747.257-1.388.77-1.925.513-.537 1.167-.805 1.96-.805.747 0 1.377.268 1.89.805.513.537.77 1.178.77 1.925zm6.79 0c0 .747-.268 1.377-.805 1.89a2.687 2.687 0 0 1-1.925.77 2.687 2.687 0 0 1-1.925-.77 2.514 2.514 0 0 1-.805-1.89c0-.747.268-1.388.805-1.925a2.627 2.627 0 0 1 1.925-.805c.747 0 1.388.268 1.925.805.537.537.805 1.178.805 1.925zm6.72 0c0 .747-.257 1.377-.77 1.89-.513.513-1.167.77-1.96.77-.747 0-1.377-.257-1.89-.77-.513-.513-.77-1.143-.77-1.89 0-.747.257-1.388.77-1.925a2.514 2.514 0 0 1 1.89-.805c.793 0 1.447.268 1.96.805.513.537.77 1.178.77 1.925zm6.72 0c0 .747-.257 1.377-.77 1.89-.513.513-1.143.77-1.89.77-.793 0-1.447-.257-1.96-.77-.513-.513-.77-1.143-.77-1.89 0-.747.257-1.388.77-1.925.513-.537 1.167-.805 1.96-.805.747 0 1.377.268 1.89.805.513.537.77 1.178.77 1.925z" filter="url(#d)" transform="translate(16 144)"/><path d="M21.96 25.32c0 .64-.22 1.19-.66 1.65-.44.46-1 .69-1.68.69-.64 0-1.18-.23-1.62-.69-.44-.46-.66-1.01-.66-1.65 0-.64.22-1.19.66-1.65.44-.46.98-.69 1.62-.69.68 0 1.24.23 1.68.69.44.46.66 1.01.66 1.65zm5.76 0c0 .64-.22 1.19-.66 1.65-.44.46-.98.69-1.62.69-.64 0-1.19-.23-1.65-.69-.46-.46-.69-1.01-.69-1.65 0-.64.23-1.19.69-1.65.46-.46 1.01-.69 1.65-.69.64 0 1.18.23 1.62.69.44.46.66 1.01.66 1.65zm0 5.76c0 .68-.22 1.24-.66 1.68-.44.44-.98.66-1.62.66-.64 0-1.19-.22-1.65-.66-.46-.44-.69-1-.69-1.68 0-.64.23-1.18.69-1.62.46-.44 1.01-.66 1.65-.66.64 0 1.18.22 1.62.66.44.44.66.98.66 1.62zm-5.76 0c0 .68-.22 1.24-.66 1.68-.44.44-1 .66-1.68.66-.64 0-1.18-.22-1.62-.66-.44-.44-.66-1-.66-1.68 0-.64.22-1.18.66-1.62.44-.44.98-.66 1.62-.66.68 0 1.24.22 1.68.66.44.44.66.98.66 1.62zM4.62 25.32c0 .64-.22 1.19-.66 1.65-.44.46-.98.69-1.62.69-.68 0-1.24-.23-1.68-.69-.44-.46-.66-1.01-.66-1.65 0-.64.22-1.19.66-1.65.44-.46 1-.69 1.68-.69.64 0 1.18.23 1.62.69.44.46.66 1.01.66 1.65zm5.82 0c0 .64-.23 1.19-.69 1.65-.46.46-1.01.69-1.65.69-.64 0-1.19-.23-1.65-.69-.46-.46-.69-1.01-.69-1.65 0-.64.23-1.19.69-1.65.46-.46 1.01-.69 1.65-.69.64 0 1.19.23 1.65.69.46.46.69 1.01.69 1.65zm-5.82 5.76c0 .68-.22 1.24-.66 1.68-.44.44-.98.66-1.62.66-.68 0-1.24-.22-1.68-.66-.44-.44-.66-1-.66-1.68 0-.64.22-1.18.66-1.62.44-.44 1-.66 1.68-.66.64 0 1.18.22 1.62.66.44.44.66.98.66 1.62zm5.82 0c0 .68-.23 1.24-.69 1.68-.46.44-1.01.66-1.65.66-.64 0-1.19-.22-1.65-.66-.46-.44-.69-1-.69-1.68 0-.64.23-1.18.69-1.62.46-.44 1.01-.66 1.65-.66.64 0 1.19.22 1.65.66.46.44.69.98.69 1.62zm5.7-5.76c0 .64-.22 1.19-.66 1.65-.44.46-1 .69-1.68.69-.64 0-1.18-.23-1.62-.69-.44-.46-.66-1.01-.66-1.65 0-.64.22-1.19.66-1.65.44-.46.98-.69 1.62-.69.68 0 1.24.23 1.68.69.44.46.66 1.01.66 1.65zm0 5.76c0 .68-.22 1.24-.66 1.68-.44.44-1 .66-1.68.66-.64 0-1.18-.22-1.62-.66-.44-.44-.66-1-.66-1.68 0-.64.22-1.18.66-1.62.44-.44.98-.66 1.62-.66.68 0 1.24.22 1.68.66.44.44.66.98.66 1.62zm0-17.34c0 .64-.22 1.19-.66 1.65-.44.46-1 .69-1.68.69-.64 0-1.18-.23-1.62-.69-.44-.46-.66-1.01-.66-1.65 0-.64.22-1.19.66-1.65.44-.46.98-.69 1.62-.69.68 0 1.24.23 1.68.69.44.46.66 1.01.66 1.65zm0 5.76c0 .68-.22 1.24-.66 1.68-.44.44-1 .66-1.68.66-.64 0-1.18-.22-1.62-.66-.44-.44-.66-1-.66-1.68 0-.64.22-1.18.66-1.62.44-.44.98-.66 1.62-.66.68 0 1.24.22 1.68.66.44.44.66.98.66 1.62zm0 17.34c0 .64-.22 1.19-.66 1.65-.44.46-1 .69-1.68.69-.64 0-1.18-.23-1.62-.69-.44-.46-.66-1.01-.66-1.65 0-.64.22-1.19.66-1.65.44-.46.98-.69 1.62-.69.68 0 1.24.23 1.68.69.44.46.66 1.01.66 1.65zm0 5.76c0 .68-.22 1.24-.66 1.68-.44.44-1 .66-1.68.66-.64 0-1.18-.22-1.62-.66-.44-.44-.66-1-.66-1.68 0-.64.22-1.18.66-1.62.44-.44.98-.66 1.62-.66.68 0 1.24.22 1.68.66.44.44.66.98.66 1.62z" filter="url(#e)" transform="translate(16 144)"/><path d="M207.542 13.202c0 .49-.169.912-.506 1.265a1.652 1.652 0 0 1-1.242.529c-.49 0-.912-.176-1.265-.529a1.726 1.726 0 0 1-.529-1.265c0-.49.176-.905.529-1.242a1.766 1.766 0 0 1 1.265-.506c.49 0 .905.169 1.242.506.337.337.506.751.506 1.242zm4.462 0c0 .49-.169.912-.506 1.265-.337.353-.767.529-1.288.529-.49 0-.905-.176-1.242-.529a1.766 1.766 0 0 1-.506-1.265c0-.49.169-.905.506-1.242a1.689 1.689 0 0 1 1.242-.506c.521 0 .95.169 1.288.506.337.337.506.751.506 1.242zm13.294 0c0 .49-.169.912-.506 1.265-.337.353-.767.529-1.288.529-.49 0-.905-.176-1.242-.529a1.766 1.766 0 0 1-.506-1.265c0-.49.169-.905.506-1.242a1.689 1.689 0 0 1 1.242-.506c.521 0 .95.169 1.288.506.337.337.506.751.506 1.242zm4.416 0c0 .49-.169.912-.506 1.265a1.652 1.652 0 0 1-1.242.529c-.521 0-.95-.176-1.288-.529a1.766 1.766 0 0 1-.506-1.265c0-.49.169-.905.506-1.242.337-.337.767-.506 1.288-.506.49 0 .905.169 1.242.506.337.337.506.751.506 1.242zm-22.172 4.462c0 .49-.169.905-.506 1.242a1.689 1.689 0 0 1-1.242.506 1.77 1.77 0 0 1-1.265-.506 1.652 1.652 0 0 1-.529-1.242c0-.521.176-.95.529-1.288a1.766 1.766 0 0 1 1.265-.506c.49 0 .905.169 1.242.506.337.337.506.767.506 1.288zm4.462 0c0 .49-.169.905-.506 1.242-.337.337-.767.506-1.288.506a1.69 1.69 0 0 1-1.242-.506 1.689 1.689 0 0 1-.506-1.242c0-.521.169-.95.506-1.288a1.689 1.689 0 0 1 1.242-.506c.521 0 .95.169 1.288.506.337.337.506.767.506 1.288zm13.294 0c0 .49-.169.905-.506 1.242-.337.337-.767.506-1.288.506a1.69 1.69 0 0 1-1.242-.506 1.689 1.689 0 0 1-.506-1.242c0-.521.169-.95.506-1.288a1.689 1.689 0 0 1 1.242-.506c.521 0 .95.169 1.288.506.337.337.506.767.506 1.288zm4.416 0c0 .49-.169.905-.506 1.242a1.689 1.689 0 0 1-1.242.506c-.521 0-.95-.169-1.288-.506a1.689 1.689 0 0 1-.506-1.242c0-.521.169-.95.506-1.288.337-.337.767-.506 1.288-.506.49 0 .905.169 1.242.506.337.337.506.767.506 1.288zm-8.832 4.416c0 .49-.176.905-.529 1.242a1.766 1.766 0 0 1-1.265.506 1.77 1.77 0 0 1-1.265-.506 1.652 1.652 0 0 1-.529-1.242c0-.49.176-.912.529-1.265a1.726 1.726 0 0 1 1.265-.529c.49 0 .912.176 1.265.529.353.353.529.774.529 1.265zm4.416 0c0 .49-.169.905-.506 1.242-.337.337-.767.506-1.288.506a1.69 1.69 0 0 1-1.242-.506 1.689 1.689 0 0 1-.506-1.242c0-.49.169-.912.506-1.265a1.652 1.652 0 0 1 1.242-.529c.521 0 .95.176 1.288.529.337.353.506.774.506 1.265zm-8.878 4.416c0 .521-.169.95-.506 1.288a1.689 1.689 0 0 1-1.242.506c-.521 0-.95-.169-1.288-.506-.337-.337-.506-.767-.506-1.288 0-.49.169-.905.506-1.242.337-.337.767-.506 1.288-.506.49 0 .905.169 1.242.506.337.337.506.751.506 1.242zm4.462 0c0 .521-.176.95-.529 1.288a1.766 1.766 0 0 1-1.265.506 1.77 1.77 0 0 1-1.265-.506c-.353-.337-.529-.767-.529-1.288 0-.49.176-.905.529-1.242a1.766 1.766 0 0 1 1.265-.506c.49 0 .912.169 1.265.506.353.337.529.751.529 1.242zm-4.462 4.462c0 .49-.169.905-.506 1.242a1.689 1.689 0 0 1-1.242.506c-.521 0-.95-.169-1.288-.506a1.689 1.689 0 0 1-.506-1.242c0-.521.169-.95.506-1.288.337-.337.767-.506 1.288-.506.49 0 .905.169 1.242.506.337.337.506.767.506 1.288zm4.462 0c0 .49-.176.905-.529 1.242a1.766 1.766 0 0 1-1.265.506 1.77 1.77 0 0 1-1.265-.506 1.652 1.652 0 0 1-.529-1.242c0-.521.176-.95.529-1.288a1.766 1.766 0 0 1 1.265-.506c.49 0 .912.169 1.265.506.353.337.529.767.529 1.288zm-8.878 4.416c0 .49-.169.912-.506 1.265-.337.353-.767.529-1.288.529-.49 0-.905-.176-1.242-.529a1.766 1.766 0 0 1-.506-1.265c0-.49.169-.912.506-1.265a1.652 1.652 0 0 1 1.242-.529c.521 0 .95.176 1.288.529.337.353.506.774.506 1.265zm4.416 0c0 .49-.169.912-.506 1.265a1.652 1.652 0 0 1-1.242.529c-.521 0-.95-.176-1.288-.529a1.766 1.766 0 0 1-.506-1.265c0-.49.169-.912.506-1.265.337-.353.767-.529 1.288-.529.49 0 .905.176 1.242.529.337.353.506.774.506 1.265zm-8.878 4.416c0 .521-.169.95-.506 1.288a1.689 1.689 0 0 1-1.242.506 1.77 1.77 0 0 1-1.265-.506c-.353-.337-.529-.767-.529-1.288 0-.49.176-.905.529-1.242a1.766 1.766 0 0 1 1.265-.506c.49 0 .905.169 1.242.506.337.337.506.751.506 1.242zm4.462 0c0 .521-.169.95-.506 1.288-.337.337-.767.506-1.288.506a1.69 1.69 0 0 1-1.242-.506c-.337-.337-.506-.767-.506-1.288 0-.49.169-.905.506-1.242a1.689 1.689 0 0 1 1.242-.506c.521 0 .95.169 1.288.506.337.337.506.751.506 1.242zm13.294 0c0 .521-.169.95-.506 1.288-.337.337-.767.506-1.288.506a1.69 1.69 0 0 1-1.242-.506c-.337-.337-.506-.767-.506-1.288 0-.49.169-.905.506-1.242a1.689 1.689 0 0 1 1.242-.506c.521 0 .95.169 1.288.506.337.337.506.751.506 1.242zm4.416 0c0 .521-.169.95-.506 1.288a1.689 1.689 0 0 1-1.242.506c-.521 0-.95-.169-1.288-.506-.337-.337-.506-.767-.506-1.288 0-.49.169-.905.506-1.242.337-.337.767-.506 1.288-.506.49 0 .905.169 1.242.506.337.337.506.751.506 1.242zm-22.172 4.462c0 .49-.169.905-.506 1.242a1.689 1.689 0 0 1-1.242.506 1.77 1.77 0 0 1-1.265-.506 1.652 1.652 0 0 1-.529-1.242c0-.521.176-.95.529-1.288a1.766 1.766 0 0 1 1.265-.506c.49 0 .905.169 1.242.506.337.337.506.767.506 1.288zm4.462 0c0 .49-.169.905-.506 1.242-.337.337-.767.506-1.288.506a1.69 1.69 0 0 1-1.242-.506 1.689 1.689 0 0 1-.506-1.242c0-.521.169-.95.506-1.288a1.689 1.689 0 0 1 1.242-.506c.521 0 .95.169 1.288.506.337.337.506.767.506 1.288zm13.294 0c0 .49-.169.905-.506 1.242-.337.337-.767.506-1.288.506a1.69 1.69 0 0 1-1.242-.506 1.689 1.689 0 0 1-.506-1.242c0-.521.169-.95.506-1.288a1.689 1.689 0 0 1 1.242-.506c.521 0 .95.169 1.288.506.337.337.506.767.506 1.288zm4.416 0c0 .49-.169.905-.506 1.242a1.689 1.689 0 0 1-1.242.506c-.521 0-.95-.169-1.288-.506a1.689 1.689 0 0 1-.506-1.242c0-.521.169-.95.506-1.288.337-.337.767-.506 1.288-.506.49 0 .905.169 1.242.506.337.337.506.767.506 1.288z" filter="url(#f)" transform="translate(16 144)"/></g></g></svg>