<svg width="155" height="56" xmlns="http://www.w3.org/2000/svg"><g fill="none" fill-rule="evenodd"><path d="M52.959 17.027a.782.782 0 0 0-.832-.391L29.251 21.03c-.005 0-.009.003-.013.004a.786.786 0 0 0-.313.143l-.019.015a.76.76 0 0 0-.091.085l-15.286 17.11a.793.793 0 0 0-.1.916.783.783 0 0 0 .832.386l22.548-4.416.005-.002a.77.77 0 0 0 .166-.054c.014-.006.027-.016.04-.023a.766.766 0 0 0 .109-.067c.018-.013.033-.029.05-.043.018-.018.04-.032.057-.051L52.85 17.944a.793.793 0 0 0 .108-.917" fill="#678EC5"/><path d="M47.58 28c0-7.926-6.382-14.351-14.254-14.351-7.873 0-14.254 6.425-14.254 14.351 0 7.926 6.381 14.351 14.254 14.351 7.872 0 14.254-6.425 14.254-14.351" fill="#678EC5"/><path d="M8.21 28c0-6.334 2.51-12.671 6.885-17.388C19.792 5.55 26.25 2.761 33.278 2.761a24.84 24.84 0 0 1 15.52 5.433l-.007.007c1.53 1.24 2.952 2.614 4.152 4.18l.007-.008A25.224 25.224 0 0 1 58.346 28c0 13.917-11.245 25.24-25.068 25.24C19.455 53.24 8.21 41.916 8.21 28zm46.689 17.589A27.984 27.984 0 0 0 61.089 28a27.983 27.983 0 0 0-6.19-17.589l.947-.954a2.97 2.97 0 0 0 0-4.18 2.921 2.921 0 0 0-4.151 0l-.948.954C45.97 2.337 39.89 0 33.278 0c-6.774 0-13.075 2.342-18.035 6.647l-1.36-1.37a2.921 2.921 0 0 0-4.152 0 2.97 2.97 0 0 0 0 4.18l1.495 1.506C7.541 15.87 5.468 21.933 5.468 28a27.983 27.983 0 0 0 6.19 17.589l-1.927 1.94a2.97 2.97 0 0 0 0 4.18 2.922 2.922 0 0 0 4.151 0l1.927-1.94C20.587 53.663 26.666 56 33.278 56c6.612 0 12.691-2.337 17.47-6.231l1.436 1.446a2.922 2.922 0 0 0 4.152 0 2.97 2.97 0 0 0 0-4.18l-1.437-1.446z" fill="#678EC5"/><path d="M36.025 33.958h-6.138a.993.993 0 0 1-.99-.996V28.79h7.128a2.579 2.579 0 0 1 2.567 2.584 2.579 2.579 0 0 1-2.567 2.585zm-7.127-10.92c0-.549.443-.996.989-.996h6.138a2.579 2.579 0 0 1 2.567 2.585 2.579 2.579 0 0 1-2.567 2.584h-7.127v-4.173zM38.437 28a4.164 4.164 0 0 0 1.722-3.373c0-2.295-1.855-4.162-4.134-4.162h-.112v-2.491a.786.786 0 0 0-.783-.789.786.786 0 0 0-.784.789v2.49h-2.372v-2.49a.786.786 0 0 0-.784-.789.786.786 0 0 0-.783.789v2.49h-.52a2.567 2.567 0 0 0-2.556 2.574v9.924a2.567 2.567 0 0 0 2.556 2.573h.52v2.491c0 .436.35.789.783.789a.786.786 0 0 0 .784-.789v-2.49h2.372v2.49c0 .436.35.789.784.789a.786.786 0 0 0 .783-.789v-2.49h.112c2.28 0 4.134-1.868 4.134-4.163A4.164 4.164 0 0 0 38.437 28z" fill="#062958"/><path d="M35.367 8.703a1.94 1.94 0 0 0-1.933-1.946 1.94 1.94 0 0 0-1.932 1.946 1.94 1.94 0 0 0 1.932 1.946 1.94 1.94 0 0 0 1.933-1.946M15.798 27.92a1.94 1.94 0 0 0-1.933-1.947 1.94 1.94 0 0 0-1.932 1.946 1.94 1.94 0 0 0 1.932 1.946 1.94 1.94 0 0 0 1.933-1.946m38.172.001a1.94 1.94 0 0 0-1.933-1.947 1.94 1.94 0 0 0-1.933 1.946 1.94 1.94 0 0 0 1.933 1.946 1.94 1.94 0 0 0 1.933-1.946M35.367 47.135a1.94 1.94 0 0 0-1.933-1.946 1.94 1.94 0 0 0-1.932 1.946 1.94 1.94 0 0 0 1.932 1.946 1.94 1.94 0 0 0 1.933-1.946m26.337-2.715a.968.968 0 0 1-.483-.13.99.99 0 0 1-.367-1.344 31.365 31.365 0 0 0 3.09-7.715.979.979 0 1 1 1.897.487 33.347 33.347 0 0 1-3.284 8.202c-.18.32-.512.5-.853.5M.98 25.541a.984.984 0 0 1-.976-1.082 33.206 33.206 0 0 1 4.22-13.305.975.975 0 0 1 1.337-.365.99.99 0 0 1 .363 1.346 31.237 31.237 0 0 0-3.97 12.516.982.982 0 0 1-.974.89" fill="#678EC5"/><text font-family="UniviaPro-Medium, Univia Pro" font-size="36" font-weight="400" letter-spacing=".379" fill="#678EC5"><tspan x="71" y="38">callia</tspan></text></g></svg>