<svg width="36" height="36" xmlns="http://www.w3.org/2000/svg"><g fill="none" fill-rule="evenodd"><circle fill="#1878DC" cx="18" cy="18" r="18"/><g fill="#FFF"><path d="M26.178 13.212a3.597 3.597 0 0 0-.585-.572 6.652 6.652 0 0 1-.15 1.732c-.358 1.67-1.21 3.09-2.468 4.104-1.254 1.014-2.822 1.55-4.533 1.55h-2.494l-.807 3.782a1.627 1.627 0 0 1-1.583 1.282h-1.124l-.203.928a.81.81 0 0 0 .791.982h2.749a.809.809 0 0 0 .79-.64l.945-4.423h3.15c1.523 0 2.914-.474 4.024-1.37 1.11-.897 1.866-2.157 2.183-3.644.32-1.504.09-2.752-.685-3.71"/><path d="M16.868 12.112h2.158c.509 0 .963.212 1.247.584.301.394.39.939.242 1.496l-.005.02c-.272 1.147-1.402 2.08-2.518 2.08h-2.068l.944-4.18zM14.35 23.639l.943-4.422h3.15c1.522 0 2.914-.474 4.025-1.37 1.11-.898 1.865-2.158 2.182-3.644.322-1.504.091-2.753-.684-3.711C23.222 9.572 21.95 9 20.646 9h-6.86a.81.81 0 0 0-.791.637l-2.977 13.661a.812.812 0 0 0 .791.982h2.749a.81.81 0 0 0 .792-.64z"/></g></g></svg>