<svg width="120" height="18" xmlns="http://www.w3.org/2000/svg"><path d="M114.359.21l-2.307 3.246 2.774 3.876L119.72.21zm-2.307 14.124l2.618 3.485H120l-5.205-7.182zM4.114 3.185v5.71H8.26c.467 0 .841-.03 1.153-.12.311-.09.53-.21.717-.392.187-.18.311-.39.374-.66.062-.27.093-1.953.093-2.313 0-.392-.03-.722-.093-.992a1.385 1.385 0 0 0-.374-.692c-.187-.18-.437-.3-.748-.391-.312-.09-.717-.12-1.247-.12h-4.02v-.03zM9.6.21c1.776 0 3.085.421 3.927 1.293.841.871 1.247 2.704 1.247 4.417 0 1.743-.437 3.816-1.309 4.688-.873.871-2.15 1.292-3.865 1.292H4.114v5.95H0V.21h9.6zm14.275 3.185c-.654 0-1.184.03-1.651.12-.436.092-.81.241-1.091.482-.28.24-.5.57-.623 1.021-.126.451-.188 1.503-.188 2.225v3.575c0 .722.063 1.773.188 2.193.123.422.342.783.622 1.022.281.24.655.42 1.091.512.437.089.998.12 1.652.12h.25c.654 0 1.184-.031 1.651-.12.436-.091.81-.24 1.091-.481.28-.241.5-.572.623-1.022.126-.45.188-1.502.188-2.224V7.212c0-.72-.063-1.773-.188-2.194a2 2 0 0 0-.622-1.021c-.281-.24-.655-.39-1.091-.481-.468-.09-.998-.12-1.652-.12h-.25zm-7.76 2.615c0-1.082.123-1.983.405-2.764.28-.752.686-1.383 1.247-1.864.56-.48 1.277-.841 2.15-1.051C20.79.12 21.85 0 23.064 0h1.965c1.215 0 2.274.12 3.148.33.872.21 1.59.572 2.15 1.052.561.481.966 1.112 1.215 1.864.25.75.375 1.682.375 2.764v5.499c0 1.082-.125 2.465-.405 3.245a4.167 4.167 0 0 1-1.247 1.864c-.56.481-1.279.841-2.15 1.051-.873.21-1.902.33-3.117.33h-1.934c-1.215 0-2.274-.12-3.116-.33-.872-.21-1.59-.57-2.15-1.051-.561-.482-.966-1.113-1.247-1.864-.28-.751-.405-2.163-.405-3.245V6.01h-.032zm21.631 8.444h7.044v3.396H33.632V.21h4.114zM53.423 3.395c-.654 0-1.185.03-1.652.12-.436.092-.81.241-1.09.482-.28.24-.5.57-.624 1.021-.125.451-.187 1.503-.187 2.225v3.575c0 .722.062 1.773.187 2.193.124.422.343.783.623 1.022.281.24.655.42 1.091.512.436.089.998.12 1.652.12h.25c.654 0 1.184-.031 1.651-.12.437-.091.811-.24 1.091-.481.281-.241.5-.572.624-1.022.124-.45.187-1.502.187-2.224V7.212c0-.72-.063-1.773-.187-2.194-.125-.45-.343-.78-.624-1.021-.28-.24-.654-.39-1.09-.481-.468-.09-.998-.12-1.652-.12h-.25zm-7.76 2.615c0-1.082.124-1.983.404-2.764.281-.752.686-1.383 1.247-1.864.561-.48 1.278-.841 2.151-1.051C50.337.12 51.366 0 52.582 0h1.963c1.216 0 2.275.12 3.148.33.873.21 1.59.572 2.151 1.052.561.481.966 1.112 1.215 1.864.25.75.374 1.682.374 2.764v5.499c0 1.082-.124 2.465-.405 3.245a4.168 4.168 0 0 1-1.247 1.864c-.56.481-1.277.841-2.15 1.051-.873.21-1.9.33-3.117.33H52.55c-1.215 0-2.275-.12-3.117-.33-.872-.21-1.589-.57-2.15-1.051-.56-.482-.966-1.113-1.247-1.864-.28-.751-.405-2.163-.405-3.245V6.01h.031zM63.398.21h4.737l6.858 12.02V.21h3.864v17.64H74.12L67.261 5.68v12.17h-3.864zm17.921 17.64h4.114V.21h-4.114zM87.927.21h12.655v3.396h-8.54v3.607h8.26v3.364h-8.26v3.877h8.54v3.396H87.927zm25.683 8.805l-6.577 8.805h-5.329l6.39-8.805-6.11-8.805h5.361z" fill="#062958" fill-rule="evenodd"/></svg>