<svg width="242" height="134" xmlns="http://www.w3.org/2000/svg"><defs><filter x="-13.4%" y="-39.9%" width="126.9%" height="179.8%" filterUnits="objectBoundingBox" id="a"><feGaussianBlur stdDeviation="4" in="SourceGraphic"/></filter><filter x="-64.9%" y="-53.7%" width="229.9%" height="207.3%" filterUnits="objectBoundingBox" id="b"><feGaussianBlur stdDeviation="3" in="SourceGraphic"/></filter><filter x="-67.1%" y="-49.9%" width="234.2%" height="199.9%" filterUnits="objectBoundingBox" id="c"><feGaussianBlur stdDeviation="3" in="SourceGraphic"/></filter></defs><g fill="none" fill-rule="evenodd"><path d="M37.62 91.22c0 .64-.22 1.18-.66 1.62-.44.44-.98.66-1.62.66-.68 0-1.24-.22-1.68-.66-.44-.44-.66-.98-.66-1.62 0-.68.22-1.24.66-1.68.44-.44 1-.66 1.68-.66.64 0 1.18.22 1.62.66.44.44.66 1 .66 1.68zm5.76 0c0 .64-.22 1.18-.66 1.62-.44.44-.98.66-1.62.66-.64 0-1.19-.22-1.65-.66-.46-.44-.69-.98-.69-1.62 0-.68.23-1.24.69-1.68.46-.44 1.01-.66 1.65-.66.64 0 1.18.22 1.62.66.44.44.66 1 .66 1.68zm5.82 0c0 .64-.22 1.18-.66 1.62-.44.44-1 .66-1.68.66-.64 0-1.18-.22-1.62-.66-.44-.44-.66-.98-.66-1.62 0-.68.22-1.24.66-1.68.44-.44.98-.66 1.62-.66.68 0 1.24.22 1.68.66.44.44.66 1 .66 1.68zm-11.58 5.76c0 .64-.22 1.19-.66 1.65-.44.46-.98.69-1.62.69-.68 0-1.24-.23-1.68-.69-.44-.46-.66-1.01-.66-1.65 0-.64.22-1.19.66-1.65.44-.46 1-.69 1.68-.69.64 0 1.18.23 1.62.69.44.46.66 1.01.66 1.65zm5.76 0c0 .64-.22 1.19-.66 1.65-.44.46-.98.69-1.62.69-.64 0-1.19-.23-1.65-.69-.46-.46-.69-1.01-.69-1.65 0-.64.23-1.19.69-1.65.46-.46 1.01-.69 1.65-.69.64 0 1.18.23 1.62.69.44.46.66 1.01.66 1.65zm5.82 0c0 .64-.22 1.19-.66 1.65-.44.46-1 .69-1.68.69-.64 0-1.18-.23-1.62-.69-.44-.46-.66-1.01-.66-1.65 0-.64.22-1.19.66-1.65.44-.46.98-.69 1.62-.69.68 0 1.24.23 1.68.69.44.46.66 1.01.66 1.65zm-5.82 5.76c0 .68-.22 1.24-.66 1.68-.44.44-.98.66-1.62.66-.64 0-1.19-.22-1.65-.66-.46-.44-.69-1-.69-1.68 0-.64.23-1.18.69-1.62.46-.44 1.01-.66 1.65-.66.64 0 1.18.22 1.62.66.44.44.66.98.66 1.62zm5.82 0c0 .68-.22 1.24-.66 1.68-.44.44-1 .66-1.68.66-.64 0-1.18-.22-1.62-.66-.44-.44-.66-1-.66-1.68 0-.64.22-1.18.66-1.62.44-.44.98-.66 1.62-.66.68 0 1.24.22 1.68.66.44.44.66.98.66 1.62zm-5.82 5.82c0 .64-.22 1.18-.66 1.62-.44.44-.98.66-1.62.66-.64 0-1.19-.22-1.65-.66-.46-.44-.69-.98-.69-1.62 0-.68.23-1.24.69-1.68.46-.44 1.01-.66 1.65-.66.64 0 1.18.22 1.62.66.44.44.66 1 .66 1.68zm5.82 0c0 .64-.22 1.18-.66 1.62-.44.44-1 .66-1.68.66-.64 0-1.18-.22-1.62-.66-.44-.44-.66-.98-.66-1.62 0-.68.22-1.24.66-1.68.44-.44.98-.66 1.62-.66.68 0 1.24.22 1.68.66.44.44.66 1 .66 1.68zm-5.82 5.76c0 .64-.22 1.19-.66 1.65-.44.46-.98.69-1.62.69-.64 0-1.19-.23-1.65-.69-.46-.46-.69-1.01-.69-1.65 0-.64.23-1.18.69-1.62.46-.44 1.01-.66 1.65-.66.64 0 1.18.22 1.62.66.44.44.66.98.66 1.62zm5.82 0c0 .64-.22 1.19-.66 1.65-.44.46-1 .69-1.68.69-.64 0-1.18-.23-1.62-.69-.44-.46-.66-1.01-.66-1.65 0-.64.22-1.18.66-1.62.44-.44.98-.66 1.62-.66.68 0 1.24.22 1.68.66.44.44.66.98.66 1.62zm-5.82 5.82c0 .64-.22 1.18-.66 1.62-.44.44-.98.66-1.62.66-.64 0-1.19-.22-1.65-.66-.46-.44-.69-.98-.69-1.62 0-.68.23-1.24.69-1.68.46-.44 1.01-.66 1.65-.66.64 0 1.18.22 1.62.66.44.44.66 1 .66 1.68zm5.82 0c0 .64-.22 1.18-.66 1.62-.44.44-1 .66-1.68.66-.64 0-1.18-.22-1.62-.66-.44-.44-.66-.98-.66-1.62 0-.68.22-1.24.66-1.68.44-.44.98-.66 1.62-.66.68 0 1.24.22 1.68.66.44.44.66 1 .66 1.68zm-11.58 5.76c0 .64-.22 1.18-.66 1.62-.44.44-.98.66-1.62.66-.68 0-1.24-.22-1.68-.66-.44-.44-.66-.98-.66-1.62 0-.64.22-1.19.66-1.65.44-.46 1-.69 1.68-.69.64 0 1.18.23 1.62.69.44.46.66 1.01.66 1.65zm5.76 0c0 .64-.22 1.18-.66 1.62-.44.44-.98.66-1.62.66-.64 0-1.19-.22-1.65-.66-.46-.44-.69-.98-.69-1.62 0-.64.23-1.19.69-1.65.46-.46 1.01-.69 1.65-.69.64 0 1.18.23 1.62.69.44.46.66 1.01.66 1.65zm5.82 0c0 .64-.22 1.18-.66 1.62-.44.44-1 .66-1.68.66-.64 0-1.18-.22-1.62-.66-.44-.44-.66-.98-.66-1.62 0-.64.22-1.19.66-1.65.44-.46.98-.69 1.62-.69.68 0 1.24.23 1.68.69.44.46.66 1.01.66 1.65zm5.76 0c0 .64-.22 1.18-.66 1.62-.44.44-.98.66-1.62.66-.68 0-1.24-.22-1.68-.66-.44-.44-.66-.98-.66-1.62 0-.64.22-1.19.66-1.65.44-.46 1-.69 1.68-.69.64 0 1.18.23 1.62.69.44.46.66 1.01.66 1.65zm-17.34 5.76c0 .68-.22 1.24-.66 1.68-.44.44-.98.66-1.62.66-.68 0-1.24-.22-1.68-.66-.44-.44-.66-1-.66-1.68 0-.64.22-1.18.66-1.62.44-.44 1-.66 1.68-.66.64 0 1.18.22 1.62.66.44.44.66.98.66 1.62zm5.76 0c0 .68-.22 1.24-.66 1.68-.44.44-.98.66-1.62.66-.64 0-1.19-.22-1.65-.66-.46-.44-.69-1-.69-1.68 0-.64.23-1.18.69-1.62.46-.44 1.01-.66 1.65-.66.64 0 1.18.22 1.62.66.44.44.66.98.66 1.62zm5.82 0c0 .68-.22 1.24-.66 1.68-.44.44-1 .66-1.68.66-.64 0-1.18-.22-1.62-.66-.44-.44-.66-1-.66-1.68 0-.64.22-1.18.66-1.62.44-.44.98-.66 1.62-.66.68 0 1.24.22 1.68.66.44.44.66.98.66 1.62zm5.76 0c0 .68-.22 1.24-.66 1.68-.44.44-.98.66-1.62.66-.68 0-1.24-.22-1.68-.66-.44-.44-.66-1-.66-1.68 0-.64.22-1.18.66-1.62.44-.44 1-.66 1.68-.66.64 0 1.18.22 1.62.66.44.44.66.98.66 1.62zm12.24.06c0 .64-.22 1.18-.66 1.62-.44.44-1 .66-1.68.66-.64 0-1.18-.22-1.62-.66-.44-.44-.66-.98-.66-1.62 0-.68.22-1.24.66-1.68.44-.44.98-.66 1.62-.66.68 0 1.24.22 1.68.66.44.44.66 1 .66 1.68zm0-5.82c0 .68-.22 1.24-.66 1.68-.44.44-1 .66-1.68.66-.64 0-1.18-.22-1.62-.66-.44-.44-.66-1-.66-1.68 0-.64.22-1.18.66-1.62.44-.44.98-.66 1.62-.66.68 0 1.24.22 1.68.66.44.44.66.98.66 1.62zm5.76 5.82c0 .64-.22 1.18-.66 1.62-.44.44-.98.66-1.62.66-.64 0-1.19-.22-1.65-.66-.46-.44-.69-.98-.69-1.62 0-.68.23-1.24.69-1.68.46-.44 1.01-.66 1.65-.66.64 0 1.18.22 1.62.66.44.44.66 1 .66 1.68zm0-5.76c0 .64-.22 1.18-.66 1.62-.44.44-.98.66-1.62.66-.64 0-1.19-.22-1.65-.66-.46-.44-.69-.98-.69-1.62 0-.68.23-1.24.69-1.68.46-.44 1.01-.66 1.65-.66.64 0 1.18.22 1.62.66.44.44.66 1 .66 1.68zm18-34.74c0 .64-.22 1.18-.66 1.62-.44.44-.98.66-1.62.66-.64 0-1.19-.22-1.65-.66-.46-.44-.69-.98-.69-1.62 0-.68.23-1.24.69-1.68.46-.44 1.01-.66 1.65-.66.64 0 1.18.22 1.62.66.44.44.66 1 .66 1.68zm5.82 0c0 .64-.22 1.18-.66 1.62-.44.44-1 .66-1.68.66-.64 0-1.18-.22-1.62-.66-.44-.44-.66-.98-.66-1.62 0-.68.22-1.24.66-1.68.44-.44.98-.66 1.62-.66.68 0 1.24.22 1.68.66.44.44.66 1 .66 1.68zm5.76 0c0 .64-.22 1.18-.66 1.62-.44.44-.98.66-1.62.66-.68 0-1.24-.22-1.68-.66-.44-.44-.66-.98-.66-1.62 0-.68.22-1.24.66-1.68.44-.44 1-.66 1.68-.66.64 0 1.18.22 1.62.66.44.44.66 1 .66 1.68zm5.82 0c0 .64-.23 1.18-.69 1.62-.46.44-1.01.66-1.65.66-.64 0-1.19-.22-1.65-.66-.46-.44-.69-.98-.69-1.62 0-.68.23-1.24.69-1.68.46-.44 1.01-.66 1.65-.66.64 0 1.19.22 1.65.66.46.44.69 1 .69 1.68zM85.2 96.98c0 .64-.22 1.19-.66 1.65-.44.46-1 .69-1.68.69-.64 0-1.18-.23-1.62-.69-.44-.46-.66-1.01-.66-1.65 0-.64.22-1.19.66-1.65.44-.46.98-.69 1.62-.69.68 0 1.24.23 1.68.69.44.46.66 1.01.66 1.65zm5.76 0c0 .64-.22 1.19-.66 1.65-.44.46-.98.69-1.62.69-.64 0-1.19-.23-1.65-.69-.46-.46-.69-1.01-.69-1.65 0-.64.23-1.19.69-1.65.46-.46 1.01-.69 1.65-.69.64 0 1.18.23 1.62.69.44.46.66 1.01.66 1.65zm5.82 0c0 .64-.22 1.19-.66 1.65-.44.46-1 .69-1.68.69-.64 0-1.18-.23-1.62-.69-.44-.46-.66-1.01-.66-1.65 0-.64.22-1.19.66-1.65.44-.46.98-.69 1.62-.69.68 0 1.24.23 1.68.69.44.46.66 1.01.66 1.65zm5.76 0c0 .64-.22 1.19-.66 1.65-.44.46-.98.69-1.62.69-.68 0-1.24-.23-1.68-.69-.44-.46-.66-1.01-.66-1.65 0-.64.22-1.19.66-1.65.44-.46 1-.69 1.68-.69.64 0 1.18.23 1.62.69.44.46.66 1.01.66 1.65zm5.82 0c0 .64-.23 1.19-.69 1.65-.46.46-1.01.69-1.65.69-.64 0-1.19-.23-1.65-.69-.46-.46-.69-1.01-.69-1.65 0-.64.23-1.19.69-1.65.46-.46 1.01-.69 1.65-.69.64 0 1.19.23 1.65.69.46.46.69 1.01.69 1.65zm5.76 0c0 .64-.22 1.19-.66 1.65-.44.46-1 .69-1.68.69-.64 0-1.18-.23-1.62-.69-.44-.46-.66-1.01-.66-1.65 0-.64.22-1.19.66-1.65.44-.46.98-.69 1.62-.69.68 0 1.24.23 1.68.69.44.46.66 1.01.66 1.65zm-28.92 5.76c0 .68-.22 1.24-.66 1.68-.44.44-1 .66-1.68.66-.64 0-1.18-.22-1.62-.66-.44-.44-.66-1-.66-1.68 0-.64.22-1.18.66-1.62.44-.44.98-.66 1.62-.66.68 0 1.24.22 1.68.66.44.44.66.98.66 1.62zm5.76 0c0 .68-.22 1.24-.66 1.68-.44.44-.98.66-1.62.66-.64 0-1.19-.22-1.65-.66-.46-.44-.69-1-.69-1.68 0-.64.23-1.18.69-1.62.46-.44 1.01-.66 1.65-.66.64 0 1.18.22 1.62.66.44.44.66.98.66 1.62zm17.4 0c0 .68-.23 1.24-.69 1.68-.46.44-1.01.66-1.65.66-.64 0-1.19-.22-1.65-.66-.46-.44-.69-1-.69-1.68 0-.64.23-1.18.69-1.62.46-.44 1.01-.66 1.65-.66.64 0 1.19.22 1.65.66.46.44.69.98.69 1.62zm5.76 0c0 .68-.22 1.24-.66 1.68-.44.44-1 .66-1.68.66-.64 0-1.18-.22-1.62-.66-.44-.44-.66-1-.66-1.68 0-.64.22-1.18.66-1.62.44-.44.98-.66 1.62-.66.68 0 1.24.22 1.68.66.44.44.66.98.66 1.62zm-17.34 5.82c0 .64-.22 1.18-.66 1.62-.44.44-1 .66-1.68.66-.64 0-1.18-.22-1.62-.66-.44-.44-.66-.98-.66-1.62 0-.68.22-1.24.66-1.68.44-.44.98-.66 1.62-.66.68 0 1.24.22 1.68.66.44.44.66 1 .66 1.68zm5.76 0c0 .64-.22 1.18-.66 1.62-.44.44-.98.66-1.62.66-.68 0-1.24-.22-1.68-.66-.44-.44-.66-.98-.66-1.62 0-.68.22-1.24.66-1.68.44-.44 1-.66 1.68-.66.64 0 1.18.22 1.62.66.44.44.66 1 .66 1.68zm5.82 0c0 .64-.23 1.18-.69 1.62-.46.44-1.01.66-1.65.66-.64 0-1.19-.22-1.65-.66-.46-.44-.69-.98-.69-1.62 0-.68.23-1.24.69-1.68.46-.44 1.01-.66 1.65-.66.64 0 1.19.22 1.65.66.46.44.69 1 .69 1.68zm5.76 0c0 .64-.22 1.18-.66 1.62-.44.44-1 .66-1.68.66-.64 0-1.18-.22-1.62-.66-.44-.44-.66-.98-.66-1.62 0-.68.22-1.24.66-1.68.44-.44.98-.66 1.62-.66.68 0 1.24.22 1.68.66.44.44.66 1 .66 1.68zm-17.34 5.76c0 .64-.22 1.19-.66 1.65-.44.46-1 .69-1.68.69-.64 0-1.18-.23-1.62-.69-.44-.46-.66-1.01-.66-1.65 0-.64.22-1.18.66-1.62.44-.44.98-.66 1.62-.66.68 0 1.24.22 1.68.66.44.44.66.98.66 1.62zm5.76 0c0 .64-.22 1.19-.66 1.65-.44.46-.98.69-1.62.69-.68 0-1.24-.23-1.68-.69-.44-.46-.66-1.01-.66-1.65 0-.64.22-1.18.66-1.62.44-.44 1-.66 1.68-.66.64 0 1.18.22 1.62.66.44.44.66.98.66 1.62zm5.82 0c0 .64-.23 1.19-.69 1.65-.46.46-1.01.69-1.65.69-.64 0-1.19-.23-1.65-.69-.46-.46-.69-1.01-.69-1.65 0-.64.23-1.18.69-1.62.46-.44 1.01-.66 1.65-.66.64 0 1.19.22 1.65.66.46.44.69.98.69 1.62zm5.76 0c0 .64-.22 1.19-.66 1.65-.44.46-1 .69-1.68.69-.64 0-1.18-.23-1.62-.69-.44-.46-.66-1.01-.66-1.65 0-.64.22-1.18.66-1.62.44-.44.98-.66 1.62-.66.68 0 1.24.22 1.68.66.44.44.66.98.66 1.62zm-28.92 5.82c0 .64-.22 1.18-.66 1.62-.44.44-1 .66-1.68.66-.64 0-1.18-.22-1.62-.66-.44-.44-.66-.98-.66-1.62 0-.68.22-1.24.66-1.68.44-.44.98-.66 1.62-.66.68 0 1.24.22 1.68.66.44.44.66 1 .66 1.68zm5.76 0c0 .64-.22 1.18-.66 1.62-.44.44-.98.66-1.62.66-.64 0-1.19-.22-1.65-.66-.46-.44-.69-.98-.69-1.62 0-.68.23-1.24.69-1.68.46-.44 1.01-.66 1.65-.66.64 0 1.18.22 1.62.66.44.44.66 1 .66 1.68zm17.4 0c0 .64-.23 1.18-.69 1.62-.46.44-1.01.66-1.65.66-.64 0-1.19-.22-1.65-.66-.46-.44-.69-.98-.69-1.62 0-.68.23-1.24.69-1.68.46-.44 1.01-.66 1.65-.66.64 0 1.19.22 1.65.66.46.44.69 1 .69 1.68zm5.76 0c0 .64-.22 1.18-.66 1.62-.44.44-1 .66-1.68.66-.64 0-1.18-.22-1.62-.66-.44-.44-.66-.98-.66-1.62 0-.68.22-1.24.66-1.68.44-.44.98-.66 1.62-.66.68 0 1.24.22 1.68.66.44.44.66 1 .66 1.68zM85.2 125.9c0 .64-.22 1.18-.66 1.62-.44.44-1 .66-1.68.66-.64 0-1.18-.22-1.62-.66-.44-.44-.66-.98-.66-1.62 0-.64.22-1.19.66-1.65.44-.46.98-.69 1.62-.69.68 0 1.24.23 1.68.69.44.46.66 1.01.66 1.65zm5.76 0c0 .64-.22 1.18-.66 1.62-.44.44-.98.66-1.62.66-.64 0-1.19-.22-1.65-.66-.46-.44-.69-.98-.69-1.62 0-.64.23-1.19.69-1.65.46-.46 1.01-.69 1.65-.69.64 0 1.18.23 1.62.69.44.46.66 1.01.66 1.65zm5.82 0c0 .64-.22 1.18-.66 1.62-.44.44-1 .66-1.68.66-.64 0-1.18-.22-1.62-.66-.44-.44-.66-.98-.66-1.62 0-.64.22-1.19.66-1.65.44-.46.98-.69 1.62-.69.68 0 1.24.23 1.68.69.44.46.66 1.01.66 1.65zm5.76 0c0 .64-.22 1.18-.66 1.62-.44.44-.98.66-1.62.66-.68 0-1.24-.22-1.68-.66-.44-.44-.66-.98-.66-1.62 0-.64.22-1.19.66-1.65.44-.46 1-.69 1.68-.69.64 0 1.18.23 1.62.69.44.46.66 1.01.66 1.65zm5.82 0c0 .64-.23 1.18-.69 1.62-.46.44-1.01.66-1.65.66-.64 0-1.19-.22-1.65-.66-.46-.44-.69-.98-.69-1.62 0-.64.23-1.19.69-1.65.46-.46 1.01-.69 1.65-.69.64 0 1.19.23 1.65.69.46.46.69 1.01.69 1.65zm5.76 0c0 .64-.22 1.18-.66 1.62-.44.44-1 .66-1.68.66-.64 0-1.18-.22-1.62-.66-.44-.44-.66-.98-.66-1.62 0-.64.22-1.19.66-1.65.44-.46.98-.69 1.62-.69.68 0 1.24.23 1.68.69.44.46.66 1.01.66 1.65zm-23.16 5.76c0 .68-.22 1.24-.66 1.68-.44.44-.98.66-1.62.66-.64 0-1.19-.22-1.65-.66-.46-.44-.69-1-.69-1.68 0-.64.23-1.18.69-1.62.46-.44 1.01-.66 1.65-.66.64 0 1.18.22 1.62.66.44.44.66.98.66 1.62zm5.82 0c0 .68-.22 1.24-.66 1.68-.44.44-1 .66-1.68.66-.64 0-1.18-.22-1.62-.66-.44-.44-.66-1-.66-1.68 0-.64.22-1.18.66-1.62.44-.44.98-.66 1.62-.66.68 0 1.24.22 1.68.66.44.44.66.98.66 1.62zm5.76 0c0 .68-.22 1.24-.66 1.68-.44.44-.98.66-1.62.66-.68 0-1.24-.22-1.68-.66-.44-.44-.66-1-.66-1.68 0-.64.22-1.18.66-1.62.44-.44 1-.66 1.68-.66.64 0 1.18.22 1.62.66.44.44.66.98.66 1.62zm5.82 0c0 .68-.23 1.24-.69 1.68-.46.44-1.01.66-1.65.66-.64 0-1.19-.22-1.65-.66-.46-.44-.69-1-.69-1.68 0-.64.23-1.18.69-1.62.46-.44 1.01-.66 1.65-.66.64 0 1.19.22 1.65.66.46.44.69.98.69 1.62zm23.82-40.44c0 .64-.22 1.18-.66 1.62-.44.44-.98.66-1.62.66-.64 0-1.19-.22-1.65-.66-.46-.44-.69-.98-.69-1.62 0-.68.23-1.24.69-1.68.46-.44 1.01-.66 1.65-.66.64 0 1.18.22 1.62.66.44.44.66 1 .66 1.68zm5.82 0c0 .64-.23 1.18-.69 1.62-.46.44-1.01.66-1.65.66-.64 0-1.18-.22-1.62-.66-.44-.44-.66-.98-.66-1.62 0-.68.22-1.24.66-1.68.44-.44.98-.66 1.62-.66.64 0 1.19.22 1.65.66.46.44.69 1 .69 1.68zm5.76 0c0 .64-.22 1.18-.66 1.62-.44.44-.98.66-1.62.66-.68 0-1.24-.22-1.68-.66-.44-.44-.66-.98-.66-1.62 0-.68.22-1.24.66-1.68.44-.44 1-.66 1.68-.66.64 0 1.18.22 1.62.66.44.44.66 1 .66 1.68zm5.82 0c0 .64-.23 1.18-.69 1.62-.46.44-1.01.66-1.65.66-.64 0-1.19-.22-1.65-.66-.46-.44-.69-.98-.69-1.62 0-.68.23-1.24.69-1.68.46-.44 1.01-.66 1.65-.66.64 0 1.19.22 1.65.66.46.44.69 1 .69 1.68zm-23.16 5.76c0 .64-.22 1.19-.66 1.65-.44.46-1 .69-1.68.69-.64 0-1.18-.23-1.62-.69-.44-.46-.66-1.01-.66-1.65 0-.64.22-1.18.66-1.62.44-.44.98-.66 1.62-.66.68 0 1.24.22 1.68.66.44.44.66.98.66 1.62zm5.76 0c0 .64-.22 1.19-.66 1.65-.44.46-.98.69-1.62.69-.64 0-1.19-.23-1.65-.69-.46-.46-.69-1.01-.69-1.65 0-.64.23-1.18.69-1.62.46-.44 1.01-.66 1.65-.66.64 0 1.18.22 1.62.66.44.44.66.98.66 1.62zm5.82 0c0 .64-.23 1.19-.69 1.65-.46.46-1.01.69-1.65.69-.64 0-1.18-.23-1.62-.69-.44-.46-.66-1.01-.66-1.65 0-.64.22-1.18.66-1.62.44-.44.98-.66 1.62-.66.64 0 1.19.22 1.65.66.46.44.69.98.69 1.62zm5.76 0c0 .64-.22 1.19-.66 1.65-.44.46-.98.69-1.62.69-.68 0-1.24-.23-1.68-.69-.44-.46-.66-1.01-.66-1.65 0-.64.22-1.18.66-1.62.44-.44 1-.66 1.68-.66.64 0 1.18.22 1.62.66.44.44.66.98.66 1.62zm5.82 0c0 .64-.23 1.19-.69 1.65-.46.46-1.01.69-1.65.69-.64 0-1.19-.23-1.65-.69-.46-.46-.69-1.01-.69-1.65 0-.64.23-1.18.69-1.62.46-.44 1.01-.66 1.65-.66.64 0 1.19.22 1.65.66.46.44.69.98.69 1.62zm5.76 0c0 .64-.22 1.19-.66 1.65-.44.46-1 .69-1.68.69-.64 0-1.18-.23-1.62-.69-.44-.46-.66-1.01-.66-1.65 0-.64.22-1.18.66-1.62.44-.44.98-.66 1.62-.66.68 0 1.24.22 1.68.66.44.44.66.98.66 1.62zm-28.92 5.76c0 .68-.22 1.24-.66 1.68-.44.44-1 .66-1.68.66-.64 0-1.18-.22-1.62-.66-.44-.44-.66-1-.66-1.68 0-.64.22-1.18.66-1.62.44-.44.98-.66 1.62-.66.68 0 1.24.22 1.68.66.44.44.66.98.66 1.62zm5.76 0c0 .68-.22 1.24-.66 1.68-.44.44-.98.66-1.62.66-.64 0-1.19-.22-1.65-.66-.46-.44-.69-1-.69-1.68 0-.64.23-1.18.69-1.62.46-.44 1.01-.66 1.65-.66.64 0 1.18.22 1.62.66.44.44.66.98.66 1.62zm17.4 0c0 .68-.23 1.24-.69 1.68-.46.44-1.01.66-1.65.66-.64 0-1.19-.22-1.65-.66-.46-.44-.69-1-.69-1.68 0-.64.23-1.18.69-1.62.46-.44 1.01-.66 1.65-.66.64 0 1.19.22 1.65.66.46.44.69.98.69 1.62zm5.76 0c0 .68-.22 1.24-.66 1.68-.44.44-1 .66-1.68.66-.64 0-1.18-.22-1.62-.66-.44-.44-.66-1-.66-1.68 0-.64.22-1.18.66-1.62.44-.44.98-.66 1.62-.66.68 0 1.24.22 1.68.66.44.44.66.98.66 1.62zm-28.92 5.82c0 .64-.22 1.18-.66 1.62-.44.44-1 .66-1.68.66-.64 0-1.18-.22-1.62-.66-.44-.44-.66-.98-.66-1.62 0-.64.22-1.19.66-1.65.44-.46.98-.69 1.62-.69.68 0 1.24.23 1.68.69.44.46.66 1.01.66 1.65zm5.76 0c0 .64-.22 1.18-.66 1.62-.44.44-.98.66-1.62.66-.64 0-1.19-.22-1.65-.66-.46-.44-.69-.98-.69-1.62 0-.64.23-1.19.69-1.65.46-.46 1.01-.69 1.65-.69.64 0 1.18.23 1.62.69.44.46.66 1.01.66 1.65zm5.82 0c0 .64-.23 1.18-.69 1.62-.46.44-1.01.66-1.65.66-.64 0-1.18-.22-1.62-.66-.44-.44-.66-.98-.66-1.62 0-.64.22-1.19.66-1.65.44-.46.98-.69 1.62-.69.64 0 1.19.23 1.65.69.46.46.69 1.01.69 1.65zm5.76 0c0 .64-.22 1.18-.66 1.62-.44.44-.98.66-1.62.66-.68 0-1.24-.22-1.68-.66-.44-.44-.66-.98-.66-1.62 0-.64.22-1.19.66-1.65.44-.46 1-.69 1.68-.69.64 0 1.18.23 1.62.69.44.46.66 1.01.66 1.65zm5.82 0c0 .64-.23 1.18-.69 1.62-.46.44-1.01.66-1.65.66-.64 0-1.19-.22-1.65-.66-.46-.44-.69-.98-.69-1.62 0-.64.23-1.19.69-1.65.46-.46 1.01-.69 1.65-.69.64 0 1.19.23 1.65.69.46.46.69 1.01.69 1.65zm5.76 0c0 .64-.22 1.18-.66 1.62-.44.44-1 .66-1.68.66-.64 0-1.18-.22-1.62-.66-.44-.44-.66-.98-.66-1.62 0-.64.22-1.19.66-1.65.44-.46.98-.69 1.62-.69.68 0 1.24.23 1.68.69.44.46.66 1.01.66 1.65zm-28.92 5.76c0 .68-.22 1.24-.66 1.68-.44.44-1 .66-1.68.66-.64 0-1.18-.22-1.62-.66-.44-.44-.66-1-.66-1.68 0-.64.22-1.18.66-1.62.44-.44.98-.66 1.62-.66.68 0 1.24.22 1.68.66.44.44.66.98.66 1.62zm5.76 0c0 .68-.22 1.24-.66 1.68-.44.44-.98.66-1.62.66-.64 0-1.19-.22-1.65-.66-.46-.44-.69-1-.69-1.68 0-.64.23-1.18.69-1.62.46-.44 1.01-.66 1.65-.66.64 0 1.18.22 1.62.66.44.44.66.98.66 1.62zm5.82 0c0 .68-.23 1.24-.69 1.68-.46.44-1.01.66-1.65.66-.64 0-1.18-.22-1.62-.66-.44-.44-.66-1-.66-1.68 0-.64.22-1.18.66-1.62.44-.44.98-.66 1.62-.66.64 0 1.19.22 1.65.66.46.44.69.98.69 1.62zm5.76 0c0 .68-.22 1.24-.66 1.68-.44.44-.98.66-1.62.66-.68 0-1.24-.22-1.68-.66-.44-.44-.66-1-.66-1.68 0-.64.22-1.18.66-1.62.44-.44 1-.66 1.68-.66.64 0 1.18.22 1.62.66.44.44.66.98.66 1.62zm5.82 0c0 .68-.23 1.24-.69 1.68-.46.44-1.01.66-1.65.66-.64 0-1.19-.22-1.65-.66-.46-.44-.69-1-.69-1.68 0-.64.23-1.18.69-1.62.46-.44 1.01-.66 1.65-.66.64 0 1.19.22 1.65.66.46.44.69.98.69 1.62zm5.76 0c0 .68-.22 1.24-.66 1.68-.44.44-1 .66-1.68.66-.64 0-1.18-.22-1.62-.66-.44-.44-.66-1-.66-1.68 0-.64.22-1.18.66-1.62.44-.44.98-.66 1.62-.66.68 0 1.24.22 1.68.66.44.44.66.98.66 1.62zm-28.92 5.82c0 .64-.22 1.18-.66 1.62-.44.44-1 .66-1.68.66-.64 0-1.18-.22-1.62-.66-.44-.44-.66-.98-.66-1.62 0-.68.22-1.24.66-1.68.44-.44.98-.66 1.62-.66.68 0 1.24.22 1.68.66.44.44.66 1 .66 1.68zm5.76 0c0 .64-.22 1.18-.66 1.62-.44.44-.98.66-1.62.66-.64 0-1.19-.22-1.65-.66-.46-.44-.69-.98-.69-1.62 0-.68.23-1.24.69-1.68.46-.44 1.01-.66 1.65-.66.64 0 1.18.22 1.62.66.44.44.66 1 .66 1.68zm17.4 0c0 .64-.23 1.18-.69 1.62-.46.44-1.01.66-1.65.66-.64 0-1.19-.22-1.65-.66-.46-.44-.69-.98-.69-1.62 0-.68.23-1.24.69-1.68.46-.44 1.01-.66 1.65-.66.64 0 1.19.22 1.65.66.46.44.69 1 .69 1.68zm5.76 0c0 .64-.22 1.18-.66 1.62-.44.44-1 .66-1.68.66-.64 0-1.18-.22-1.62-.66-.44-.44-.66-.98-.66-1.62 0-.68.22-1.24.66-1.68.44-.44.98-.66 1.62-.66.68 0 1.24.22 1.68.66.44.44.66 1 .66 1.68zm-28.92 5.76c0 .64-.22 1.19-.66 1.65-.44.46-1 .69-1.68.69-.64 0-1.18-.23-1.62-.69-.44-.46-.66-1.01-.66-1.65 0-.64.22-1.19.66-1.65.44-.46.98-.69 1.62-.69.68 0 1.24.23 1.68.69.44.46.66 1.01.66 1.65zm5.76 0c0 .64-.22 1.19-.66 1.65-.44.46-.98.69-1.62.69-.64 0-1.19-.23-1.65-.69-.46-.46-.69-1.01-.69-1.65 0-.64.23-1.19.69-1.65.46-.46 1.01-.69 1.65-.69.64 0 1.18.23 1.62.69.44.46.66 1.01.66 1.65zm5.82 0c0 .64-.23 1.19-.69 1.65-.46.46-1.01.69-1.65.69-.64 0-1.18-.23-1.62-.69-.44-.46-.66-1.01-.66-1.65 0-.64.22-1.19.66-1.65.44-.46.98-.69 1.62-.69.64 0 1.19.23 1.65.69.46.46.69 1.01.69 1.65zm5.76 0c0 .64-.22 1.19-.66 1.65-.44.46-.98.69-1.62.69-.68 0-1.24-.23-1.68-.69-.44-.46-.66-1.01-.66-1.65 0-.64.22-1.19.66-1.65.44-.46 1-.69 1.68-.69.64 0 1.18.23 1.62.69.44.46.66 1.01.66 1.65zm5.82 0c0 .64-.23 1.19-.69 1.65-.46.46-1.01.69-1.65.69-.64 0-1.19-.23-1.65-.69-.46-.46-.69-1.01-.69-1.65 0-.64.23-1.19.69-1.65.46-.46 1.01-.69 1.65-.69.64 0 1.19.23 1.65.69.46.46.69 1.01.69 1.65zm5.76 0c0 .64-.22 1.19-.66 1.65-.44.46-1 .69-1.68.69-.64 0-1.18-.23-1.62-.69-.44-.46-.66-1.01-.66-1.65 0-.64.22-1.19.66-1.65.44-.46.98-.69 1.62-.69.68 0 1.24.23 1.68.69.44.46.66 1.01.66 1.65zm-23.16 5.76c0 .68-.22 1.24-.66 1.68-.44.44-.98.66-1.62.66-.64 0-1.19-.22-1.65-.66-.46-.44-.69-1-.69-1.68 0-.64.23-1.18.69-1.62.46-.44 1.01-.66 1.65-.66.64 0 1.18.22 1.62.66.44.44.66.98.66 1.62zm5.82 0c0 .68-.23 1.24-.69 1.68-.46.44-1.01.66-1.65.66-.64 0-1.18-.22-1.62-.66-.44-.44-.66-1-.66-1.68 0-.64.22-1.18.66-1.62.44-.44.98-.66 1.62-.66.64 0 1.19.22 1.65.66.46.44.69.98.69 1.62zm5.76 0c0 .68-.22 1.24-.66 1.68-.44.44-.98.66-1.62.66-.68 0-1.24-.22-1.68-.66-.44-.44-.66-1-.66-1.68 0-.64.22-1.18.66-1.62.44-.44 1-.66 1.68-.66.64 0 1.18.22 1.62.66.44.44.66.98.66 1.62zm5.82 0c0 .68-.23 1.24-.69 1.68-.46.44-1.01.66-1.65.66-.64 0-1.19-.22-1.65-.66-.46-.44-.69-1-.69-1.68 0-.64.23-1.18.69-1.62.46-.44 1.01-.66 1.65-.66.64 0 1.19.22 1.65.66.46.44.69.98.69 1.62zM16.836 108.912c0 .49-.169.912-.506 1.265-.337.353-.767.529-1.288.529-.49 0-.905-.176-1.242-.529a1.766 1.766 0 0 1-.506-1.265c0-.49.169-.912.506-1.265a1.652 1.652 0 0 1 1.242-.529c.521 0 .95.176 1.288.529.337.353.506.774.506 1.265zm4.416 0c0 .49-.169.912-.506 1.265a1.652 1.652 0 0 1-1.242.529c-.49 0-.912-.176-1.265-.529a1.726 1.726 0 0 1-.529-1.265c0-.49.176-.912.529-1.265a1.726 1.726 0 0 1 1.265-.529c.49 0 .905.176 1.242.529.337.353.506.774.506 1.265zm0 4.416c0 .521-.169.95-.506 1.288a1.689 1.689 0 0 1-1.242.506 1.77 1.77 0 0 1-1.265-.506c-.353-.337-.529-.767-.529-1.288 0-.49.176-.905.529-1.242a1.766 1.766 0 0 1 1.265-.506c.49 0 .905.169 1.242.506.337.337.506.751.506 1.242zm-4.416 0c0 .521-.169.95-.506 1.288-.337.337-.767.506-1.288.506a1.69 1.69 0 0 1-1.242-.506c-.337-.337-.506-.767-.506-1.288 0-.49.169-.905.506-1.242a1.689 1.689 0 0 1 1.242-.506c.521 0 .95.169 1.288.506.337.337.506.751.506 1.242zm-13.294-4.416c0 .49-.169.912-.506 1.265a1.652 1.652 0 0 1-1.242.529c-.521 0-.95-.176-1.288-.529A1.766 1.766 0 0 1 0 108.912c0-.49.169-.912.506-1.265.337-.353.767-.529 1.288-.529.49 0 .905.176 1.242.529.337.353.506.774.506 1.265zm4.462 0c0 .49-.176.912-.529 1.265a1.726 1.726 0 0 1-1.265.529c-.49 0-.912-.176-1.265-.529a1.726 1.726 0 0 1-.529-1.265c0-.49.176-.912.529-1.265a1.726 1.726 0 0 1 1.265-.529c.49 0 .912.176 1.265.529.353.353.529.774.529 1.265zm-4.462 4.416c0 .521-.169.95-.506 1.288a1.689 1.689 0 0 1-1.242.506c-.521 0-.95-.169-1.288-.506-.337-.337-.506-.767-.506-1.288 0-.49.169-.905.506-1.242.337-.337.767-.506 1.288-.506.49 0 .905.169 1.242.506.337.337.506.751.506 1.242zm4.462 0c0 .521-.176.95-.529 1.288a1.766 1.766 0 0 1-1.265.506 1.77 1.77 0 0 1-1.265-.506c-.353-.337-.529-.767-.529-1.288 0-.49.176-.905.529-1.242a1.766 1.766 0 0 1 1.265-.506c.49 0 .912.169 1.265.506.353.337.529.751.529 1.242zm4.37-4.416c0 .49-.169.912-.506 1.265-.337.353-.767.529-1.288.529-.49 0-.905-.176-1.242-.529a1.766 1.766 0 0 1-.506-1.265c0-.49.169-.912.506-1.265a1.652 1.652 0 0 1 1.242-.529c.521 0 .95.176 1.288.529.337.353.506.774.506 1.265zm0 4.416c0 .521-.169.95-.506 1.288-.337.337-.767.506-1.288.506a1.69 1.69 0 0 1-1.242-.506c-.337-.337-.506-.767-.506-1.288 0-.49.169-.905.506-1.242a1.689 1.689 0 0 1 1.242-.506c.521 0 .95.169 1.288.506.337.337.506.751.506 1.242zm0-13.294c0 .49-.169.912-.506 1.265-.337.353-.767.529-1.288.529-.49 0-.905-.176-1.242-.529a1.766 1.766 0 0 1-.506-1.265c0-.49.169-.912.506-1.265a1.652 1.652 0 0 1 1.242-.529c.521 0 .95.176 1.288.529.337.353.506.774.506 1.265zm0 4.416c0 .521-.169.95-.506 1.288-.337.337-.767.506-1.288.506a1.69 1.69 0 0 1-1.242-.506c-.337-.337-.506-.767-.506-1.288 0-.49.169-.905.506-1.242a1.689 1.689 0 0 1 1.242-.506c.521 0 .95.169 1.288.506.337.337.506.751.506 1.242zm0 13.294c0 .49-.169.912-.506 1.265-.337.353-.767.529-1.288.529-.49 0-.905-.176-1.242-.529a1.766 1.766 0 0 1-.506-1.265c0-.49.169-.912.506-1.265a1.652 1.652 0 0 1 1.242-.529c.521 0 .95.176 1.288.529.337.353.506.774.506 1.265zm0 4.416c0 .521-.169.95-.506 1.288-.337.337-.767.506-1.288.506a1.69 1.69 0 0 1-1.242-.506c-.337-.337-.506-.767-.506-1.288 0-.49.169-.905.506-1.242a1.689 1.689 0 0 1 1.242-.506c.521 0 .95.169 1.288.506.337.337.506.751.506 1.242zm158.552-23.254c0 .405-.14.754-.418 1.045-.279.291-.62.437-1.026.437-.405 0-.754-.146-1.045-.437a1.426 1.426 0 0 1-.437-1.045c0-.405.146-.747.437-1.026.291-.279.64-.418 1.045-.418.405 0 .747.14 1.026.418.279.279.418.62.418 1.026zm3.686 0c0 .405-.14.754-.418 1.045-.279.291-.633.437-1.064.437-.405 0-.747-.146-1.026-.437a1.459 1.459 0 0 1-.418-1.045c0-.405.14-.747.418-1.026.279-.279.62-.418 1.026-.418.43 0 .785.14 1.064.418.279.279.418.62.418 1.026zm10.982 0c0 .405-.14.754-.418 1.045-.279.291-.633.437-1.064.437-.405 0-.747-.146-1.026-.437a1.459 1.459 0 0 1-.418-1.045c0-.405.14-.747.418-1.026.279-.279.62-.418 1.026-.418.43 0 .785.14 1.064.418.279.279.418.62.418 1.026zm3.648 0c0 .405-.14.754-.418 1.045-.279.291-.62.437-1.026.437-.43 0-.785-.146-1.064-.437a1.459 1.459 0 0 1-.418-1.045c0-.405.14-.747.418-1.026.279-.279.633-.418 1.064-.418.405 0 .747.14 1.026.418.279.279.418.62.418 1.026zm-18.316 3.686c0 .405-.14.747-.418 1.026-.279.279-.62.418-1.026.418-.405 0-.754-.14-1.045-.418a1.365 1.365 0 0 1-.437-1.026c0-.43.146-.785.437-1.064.291-.279.64-.418 1.045-.418.405 0 .747.14 1.026.418.279.279.418.633.418 1.064zm3.686 0c0 .405-.14.747-.418 1.026-.279.279-.633.418-1.064.418-.405 0-.747-.14-1.026-.418a1.395 1.395 0 0 1-.418-1.026c0-.43.14-.785.418-1.064.279-.279.62-.418 1.026-.418.43 0 .785.14 1.064.418.279.279.418.633.418 1.064zm10.982 0c0 .405-.14.747-.418 1.026-.279.279-.633.418-1.064.418-.405 0-.747-.14-1.026-.418a1.395 1.395 0 0 1-.418-1.026c0-.43.14-.785.418-1.064.279-.279.62-.418 1.026-.418.43 0 .785.14 1.064.418.279.279.418.633.418 1.064zm3.648 0c0 .405-.14.747-.418 1.026-.279.279-.62.418-1.026.418-.43 0-.785-.14-1.064-.418a1.395 1.395 0 0 1-.418-1.026c0-.43.14-.785.418-1.064.279-.279.633-.418 1.064-.418.405 0 .747.14 1.026.418.279.279.418.633.418 1.064zm-7.296 3.648c0 .405-.146.747-.437 1.026-.291.279-.64.418-1.045.418-.405 0-.754-.14-1.045-.418a1.365 1.365 0 0 1-.437-1.026c0-.405.146-.754.437-1.045.291-.291.64-.437 1.045-.437.405 0 .754.146 1.045.437.291.291.437.64.437 1.045zm3.648 0c0 .405-.14.747-.418 1.026-.279.279-.633.418-1.064.418-.405 0-.747-.14-1.026-.418a1.395 1.395 0 0 1-.418-1.026c0-.405.14-.754.418-1.045.279-.291.62-.437 1.026-.437.43 0 .785.146 1.064.437.279.291.418.64.418 1.045zm-7.334 3.648c0 .43-.14.785-.418 1.064-.279.279-.62.418-1.026.418-.43 0-.785-.14-1.064-.418-.279-.279-.418-.633-.418-1.064 0-.405.14-.747.418-1.026.279-.279.633-.418 1.064-.418.405 0 .747.14 1.026.418.279.279.418.62.418 1.026zm3.686 0c0 .43-.146.785-.437 1.064-.291.279-.64.418-1.045.418-.405 0-.754-.14-1.045-.418-.291-.279-.437-.633-.437-1.064 0-.405.146-.747.437-1.026.291-.279.64-.418 1.045-.418.405 0 .754.14 1.045.418.291.279.437.62.437 1.026zm-3.686 3.686c0 .405-.14.747-.418 1.026-.279.279-.62.418-1.026.418-.43 0-.785-.14-1.064-.418a1.395 1.395 0 0 1-.418-1.026c0-.43.14-.785.418-1.064.279-.279.633-.418 1.064-.418.405 0 .747.14 1.026.418.279.279.418.633.418 1.064zm3.686 0c0 .405-.146.747-.437 1.026-.291.279-.64.418-1.045.418-.405 0-.754-.14-1.045-.418a1.365 1.365 0 0 1-.437-1.026c0-.43.146-.785.437-1.064.291-.279.64-.418 1.045-.418.405 0 .754.14 1.045.418.291.279.437.633.437 1.064zm-7.334 3.648c0 .405-.14.754-.418 1.045-.279.291-.633.437-1.064.437-.405 0-.747-.146-1.026-.437a1.459 1.459 0 0 1-.418-1.045c0-.405.14-.754.418-1.045.279-.291.62-.437 1.026-.437.43 0 .785.146 1.064.437.279.291.418.64.418 1.045zm3.648 0c0 .405-.14.754-.418 1.045-.279.291-.62.437-1.026.437-.43 0-.785-.146-1.064-.437a1.459 1.459 0 0 1-.418-1.045c0-.405.14-.754.418-1.045.279-.291.633-.437 1.064-.437.405 0 .747.146 1.026.437.279.291.418.64.418 1.045zm-7.334 3.648c0 .43-.14.785-.418 1.064-.279.279-.62.418-1.026.418-.405 0-.754-.14-1.045-.418-.291-.279-.437-.633-.437-1.064 0-.405.146-.747.437-1.026.291-.279.64-.418 1.045-.418.405 0 .747.14 1.026.418.279.279.418.62.418 1.026zm3.686 0c0 .43-.14.785-.418 1.064-.279.279-.633.418-1.064.418-.405 0-.747-.14-1.026-.418-.279-.279-.418-.633-.418-1.064 0-.405.14-.747.418-1.026.279-.279.62-.418 1.026-.418.43 0 .785.14 1.064.418.279.279.418.62.418 1.026zm10.982 0c0 .43-.14.785-.418 1.064-.279.279-.633.418-1.064.418-.405 0-.747-.14-1.026-.418-.279-.279-.418-.633-.418-1.064 0-.405.14-.747.418-1.026.279-.279.62-.418 1.026-.418.43 0 .785.14 1.064.418.279.279.418.62.418 1.026zm3.648 0c0 .43-.14.785-.418 1.064-.279.279-.62.418-1.026.418-.43 0-.785-.14-1.064-.418-.279-.279-.418-.633-.418-1.064 0-.405.14-.747.418-1.026.279-.279.633-.418 1.064-.418.405 0 .747.14 1.026.418.279.279.418.62.418 1.026zm-18.316 3.686c0 .405-.14.747-.418 1.026-.279.279-.62.418-1.026.418-.405 0-.754-.14-1.045-.418a1.365 1.365 0 0 1-.437-1.026c0-.43.146-.785.437-1.064.291-.279.64-.418 1.045-.418.405 0 .747.14 1.026.418.279.279.418.633.418 1.064zm3.686 0c0 .405-.14.747-.418 1.026-.279.279-.633.418-1.064.418-.405 0-.747-.14-1.026-.418a1.395 1.395 0 0 1-.418-1.026c0-.43.14-.785.418-1.064.279-.279.62-.418 1.026-.418.43 0 .785.14 1.064.418.279.279.418.633.418 1.064zm10.982 0c0 .405-.14.747-.418 1.026-.279.279-.633.418-1.064.418-.405 0-.747-.14-1.026-.418a1.395 1.395 0 0 1-.418-1.026c0-.43.14-.785.418-1.064.279-.279.62-.418 1.026-.418.43 0 .785.14 1.064.418.279.279.418.633.418 1.064zm3.648 0c0 .405-.14.747-.418 1.026-.279.279-.62.418-1.026.418-.43 0-.785-.14-1.064-.418a1.395 1.395 0 0 1-.418-1.026c0-.43.14-.785.418-1.064.279-.279.633-.418 1.064-.418.405 0 .747.14 1.026.418.279.279.418.633.418 1.064z" fill="#0A498B"/><g opacity=".6" fill="#105FBB"><path d="M28.92 1.48c0 .427-.147.787-.44 1.08-.293.293-.653.44-1.08.44-.427 0-.793-.147-1.1-.44a1.436 1.436 0 0 1-.46-1.08c0-.453.153-.827.46-1.12.307-.293.673-.44 1.1-.44.427 0 .787.147 1.08.44.293.293.44.667.44 1.12zm3.88 0c0 .427-.147.787-.44 1.08-.293.293-.667.44-1.12.44-.427 0-.787-.147-1.08-.44a1.468 1.468 0 0 1-.44-1.08c0-.453.147-.827.44-1.12.293-.293.653-.44 1.08-.44.453 0 .827.147 1.12.44.293.293.44.667.44 1.12zm3.84 0c0 .427-.147.787-.44 1.08-.293.293-.653.44-1.08.44-.453 0-.827-.147-1.12-.44a1.468 1.468 0 0 1-.44-1.08c0-.453.147-.827.44-1.12.293-.293.667-.44 1.12-.44.427 0 .787.147 1.08.44.293.293.44.667.44 1.12zm3.88 0c0 .427-.153.787-.46 1.08-.307.293-.673.44-1.1.44-.427 0-.793-.147-1.1-.44a1.436 1.436 0 0 1-.46-1.08c0-.453.153-.827.46-1.12.307-.293.673-.44 1.1-.44.427 0 .793.147 1.1.44.307.293.46.667.46 1.12zM25.08 5.32c0 .427-.147.787-.44 1.08-.293.293-.653.44-1.08.44-.453 0-.827-.147-1.12-.44A1.468 1.468 0 0 1 22 5.32c0-.427.147-.793.44-1.1.293-.307.667-.46 1.12-.46.427 0 .787.153 1.08.46.293.307.44.673.44 1.1zm3.84 0c0 .427-.147.787-.44 1.08-.293.293-.653.44-1.08.44-.427 0-.793-.147-1.1-.44a1.436 1.436 0 0 1-.46-1.08 1.5 1.5 0 0 1 .46-1.1 1.5 1.5 0 0 1 1.1-.46c.427 0 .787.153 1.08.46.293.307.44.673.44 1.1zm3.88 0c0 .427-.147.787-.44 1.08-.293.293-.667.44-1.12.44-.427 0-.787-.147-1.08-.44a1.468 1.468 0 0 1-.44-1.08c0-.427.147-.793.44-1.1.293-.307.653-.46 1.08-.46.453 0 .827.153 1.12.46.293.307.44.673.44 1.1zm3.84 0c0 .427-.147.787-.44 1.08-.293.293-.653.44-1.08.44-.453 0-.827-.147-1.12-.44a1.468 1.468 0 0 1-.44-1.08c0-.427.147-.793.44-1.1.293-.307.667-.46 1.12-.46.427 0 .787.153 1.08.46.293.307.44.673.44 1.1zm3.88 0c0 .427-.153.787-.46 1.08-.307.293-.673.44-1.1.44-.427 0-.793-.147-1.1-.44a1.436 1.436 0 0 1-.46-1.08 1.5 1.5 0 0 1 .46-1.1 1.5 1.5 0 0 1 1.1-.46 1.5 1.5 0 0 1 1.1.46 1.5 1.5 0 0 1 .46 1.1zm3.84 0c0 .427-.147.787-.44 1.08-.293.293-.667.44-1.12.44-.427 0-.787-.147-1.08-.44a1.468 1.468 0 0 1-.44-1.08c0-.427.147-.793.44-1.1.293-.307.653-.46 1.08-.46.453 0 .827.153 1.12.46.293.307.44.673.44 1.1zM25.08 9.16c0 .453-.147.827-.44 1.12-.293.293-.653.44-1.08.44-.453 0-.827-.147-1.12-.44-.293-.293-.44-.667-.44-1.12 0-.427.147-.787.44-1.08.293-.293.667-.44 1.12-.44.427 0 .787.147 1.08.44.293.293.44.653.44 1.08zm3.84 0c0 .453-.147.827-.44 1.12-.293.293-.653.44-1.08.44-.427 0-.793-.147-1.1-.44-.307-.293-.46-.667-.46-1.12 0-.427.153-.787.46-1.08.307-.293.673-.44 1.1-.44.427 0 .787.147 1.08.44.293.293.44.653.44 1.08zm11.6 0c0 .453-.153.827-.46 1.12-.307.293-.673.44-1.1.44-.427 0-.793-.147-1.1-.44-.307-.293-.46-.667-.46-1.12 0-.427.153-.787.46-1.08.307-.293.673-.44 1.1-.44.427 0 .793.147 1.1.44.307.293.46.653.46 1.08zm3.84 0c0 .453-.147.827-.44 1.12-.293.293-.667.44-1.12.44-.427 0-.787-.147-1.08-.44-.293-.293-.44-.667-.44-1.12 0-.427.147-.787.44-1.08.293-.293.653-.44 1.08-.44.453 0 .827.147 1.12.44.293.293.44.653.44 1.08zm-19.28 3.88c0 .427-.147.787-.44 1.08-.293.293-.653.44-1.08.44-.453 0-.827-.147-1.12-.44a1.468 1.468 0 0 1-.44-1.08c0-.453.147-.827.44-1.12.293-.293.667-.44 1.12-.44.427 0 .787.147 1.08.44.293.293.44.667.44 1.12zm3.84 0c0 .427-.147.787-.44 1.08-.293.293-.653.44-1.08.44-.427 0-.793-.147-1.1-.44a1.436 1.436 0 0 1-.46-1.08c0-.453.153-.827.46-1.12.307-.293.673-.44 1.1-.44.427 0 .787.147 1.08.44.293.293.44.667.44 1.12zm11.6 0c0 .427-.153.787-.46 1.08-.307.293-.673.44-1.1.44-.427 0-.793-.147-1.1-.44a1.436 1.436 0 0 1-.46-1.08c0-.453.153-.827.46-1.12.307-.293.673-.44 1.1-.44.427 0 .793.147 1.1.44.307.293.46.667.46 1.12zm3.84 0c0 .427-.147.787-.44 1.08-.293.293-.667.44-1.12.44-.427 0-.787-.147-1.08-.44a1.468 1.468 0 0 1-.44-1.08c0-.453.147-.827.44-1.12.293-.293.653-.44 1.08-.44.453 0 .827.147 1.12.44.293.293.44.667.44 1.12zm-19.28 3.84c0 .427-.147.793-.44 1.1-.293.307-.653.46-1.08.46-.453 0-.827-.153-1.12-.46a1.536 1.536 0 0 1-.44-1.1c0-.427.147-.787.44-1.08.293-.293.667-.44 1.12-.44.427 0 .787.147 1.08.44.293.293.44.653.44 1.08zm3.84 0c0 .427-.147.793-.44 1.1-.293.307-.653.46-1.08.46a1.5 1.5 0 0 1-1.1-.46 1.501 1.501 0 0 1-.46-1.1c0-.427.153-.787.46-1.08.307-.293.673-.44 1.1-.44.427 0 .787.147 1.08.44.293.293.44.653.44 1.08zm11.6 0a1.5 1.5 0 0 1-.46 1.1 1.5 1.5 0 0 1-1.1.46 1.5 1.5 0 0 1-1.1-.46 1.501 1.501 0 0 1-.46-1.1c0-.427.153-.787.46-1.08.307-.293.673-.44 1.1-.44.427 0 .793.147 1.1.44.307.293.46.653.46 1.08zm3.84 0c0 .427-.147.793-.44 1.1-.293.307-.667.46-1.12.46-.427 0-.787-.153-1.08-.46a1.536 1.536 0 0 1-.44-1.1c0-.427.147-.787.44-1.08.293-.293.653-.44 1.08-.44.453 0 .827.147 1.12.44.293.293.44.653.44 1.08zm-19.28 3.84c0 .453-.147.827-.44 1.12-.293.293-.653.44-1.08.44-.453 0-.827-.147-1.12-.44-.293-.293-.44-.667-.44-1.12 0-.427.147-.787.44-1.08.293-.293.667-.44 1.12-.44.427 0 .787.147 1.08.44.293.293.44.653.44 1.08zm3.84 0c0 .453-.147.827-.44 1.12-.293.293-.653.44-1.08.44-.427 0-.793-.147-1.1-.44-.307-.293-.46-.667-.46-1.12 0-.427.153-.787.46-1.08.307-.293.673-.44 1.1-.44.427 0 .787.147 1.08.44.293.293.44.653.44 1.08zm11.6 0c0 .453-.153.827-.46 1.12-.307.293-.673.44-1.1.44-.427 0-.793-.147-1.1-.44-.307-.293-.46-.667-.46-1.12 0-.427.153-.787.46-1.08.307-.293.673-.44 1.1-.44.427 0 .793.147 1.1.44.307.293.46.653.46 1.08zm3.84 0c0 .453-.147.827-.44 1.12-.293.293-.667.44-1.12.44-.427 0-.787-.147-1.08-.44-.293-.293-.44-.667-.44-1.12 0-.427.147-.787.44-1.08.293-.293.653-.44 1.08-.44.453 0 .827.147 1.12.44.293.293.44.653.44 1.08zM25.08 24.6c0 .427-.147.787-.44 1.08-.293.293-.653.44-1.08.44-.453 0-.827-.147-1.12-.44A1.468 1.468 0 0 1 22 24.6c0-.427.147-.793.44-1.1.293-.307.667-.46 1.12-.46.427 0 .787.153 1.08.46.293.307.44.673.44 1.1zm3.84 0c0 .427-.147.787-.44 1.08-.293.293-.653.44-1.08.44-.427 0-.793-.147-1.1-.44a1.436 1.436 0 0 1-.46-1.08 1.5 1.5 0 0 1 .46-1.1 1.5 1.5 0 0 1 1.1-.46c.427 0 .787.153 1.08.46.293.307.44.673.44 1.1zm3.88 0c0 .427-.147.787-.44 1.08-.293.293-.667.44-1.12.44-.427 0-.787-.147-1.08-.44a1.468 1.468 0 0 1-.44-1.08c0-.427.147-.793.44-1.1.293-.307.653-.46 1.08-.46.453 0 .827.153 1.12.46.293.307.44.673.44 1.1zm3.84 0c0 .427-.147.787-.44 1.08-.293.293-.653.44-1.08.44-.453 0-.827-.147-1.12-.44a1.468 1.468 0 0 1-.44-1.08c0-.427.147-.793.44-1.1.293-.307.667-.46 1.12-.46.427 0 .787.153 1.08.46.293.307.44.673.44 1.1zm3.88 0c0 .427-.153.787-.46 1.08-.307.293-.673.44-1.1.44-.427 0-.793-.147-1.1-.44a1.436 1.436 0 0 1-.46-1.08 1.5 1.5 0 0 1 .46-1.1 1.5 1.5 0 0 1 1.1-.46 1.5 1.5 0 0 1 1.1.46 1.5 1.5 0 0 1 .46 1.1zm3.84 0c0 .427-.147.787-.44 1.08-.293.293-.667.44-1.12.44-.427 0-.787-.147-1.08-.44a1.468 1.468 0 0 1-.44-1.08c0-.427.147-.793.44-1.1.293-.307.653-.46 1.08-.46.453 0 .827.153 1.12.46.293.307.44.673.44 1.1zm-15.44 3.84c0 .427-.147.793-.44 1.1-.293.307-.653.46-1.08.46a1.5 1.5 0 0 1-1.1-.46 1.501 1.501 0 0 1-.46-1.1c0-.427.153-.787.46-1.08.307-.293.673-.44 1.1-.44.427 0 .787.147 1.08.44.293.293.44.653.44 1.08zm3.88 0c0 .427-.147.793-.44 1.1-.293.307-.667.46-1.12.46-.427 0-.787-.153-1.08-.46a1.536 1.536 0 0 1-.44-1.1c0-.427.147-.787.44-1.08.293-.293.653-.44 1.08-.44.453 0 .827.147 1.12.44.293.293.44.653.44 1.08zm3.84 0c0 .427-.147.793-.44 1.1-.293.307-.653.46-1.08.46-.453 0-.827-.153-1.12-.46a1.536 1.536 0 0 1-.44-1.1c0-.427.147-.787.44-1.08.293-.293.667-.44 1.12-.44.427 0 .787.147 1.08.44.293.293.44.653.44 1.08zm3.88 0a1.5 1.5 0 0 1-.46 1.1 1.5 1.5 0 0 1-1.1.46 1.5 1.5 0 0 1-1.1-.46 1.501 1.501 0 0 1-.46-1.1c0-.427.153-.787.46-1.08.307-.293.673-.44 1.1-.44.427 0 .793.147 1.1.44.307.293.46.653.46 1.08zm12 .04c0 .427-.147.787-.44 1.08-.293.293-.667.44-1.12.44-.427 0-.787-.147-1.08-.44a1.468 1.468 0 0 1-.44-1.08c0-.453.147-.827.44-1.12.293-.293.653-.44 1.08-.44.453 0 .827.147 1.12.44.293.293.44.667.44 1.12zm0-3.88c0 .453-.147.827-.44 1.12-.293.293-.667.44-1.12.44-.427 0-.787-.147-1.08-.44-.293-.293-.44-.667-.44-1.12 0-.427.147-.787.44-1.08.293-.293.653-.44 1.08-.44.453 0 .827.147 1.12.44.293.293.44.653.44 1.08zm3.84 3.88c0 .427-.147.787-.44 1.08-.293.293-.653.44-1.08.44-.427 0-.793-.147-1.1-.44a1.436 1.436 0 0 1-.46-1.08c0-.453.153-.827.46-1.12.307-.293.673-.44 1.1-.44.427 0 .787.147 1.08.44.293.293.44.667.44 1.12zm0-3.84c0 .427-.147.787-.44 1.08-.293.293-.653.44-1.08.44-.427 0-.793-.147-1.1-.44a1.436 1.436 0 0 1-.46-1.08c0-.453.153-.827.46-1.12.307-.293.673-.44 1.1-.44.427 0 .787.147 1.08.44.293.293.44.667.44 1.12zM68.4 1.44c0 .453-.153.827-.46 1.12-.307.293-.673.44-1.1.44-.427 0-.793-.147-1.1-.44-.307-.293-.46-.667-.46-1.12 0-.427.153-.787.46-1.08.307-.293.673-.44 1.1-.44.427 0 .793.147 1.1.44.307.293.46.653.46 1.08zm3.84 0c0 .453-.147.827-.44 1.12-.293.293-.667.44-1.12.44-.427 0-.787-.147-1.08-.44-.293-.293-.44-.667-.44-1.12 0-.427.147-.787.44-1.08.293-.293.653-.44 1.08-.44.453 0 .827.147 1.12.44.293.293.44.653.44 1.08zm3.84 0c0 .453-.147.827-.44 1.12-.293.293-.653.44-1.08.44-.427 0-.793-.147-1.1-.44-.307-.293-.46-.667-.46-1.12 0-.427.153-.787.46-1.08.307-.293.673-.44 1.1-.44.427 0 .787.147 1.08.44.293.293.44.653.44 1.08zm3.88 0c0 .453-.153.827-.46 1.12-.307.293-.673.44-1.1.44-.427 0-.787-.147-1.08-.44-.293-.293-.44-.667-.44-1.12 0-.427.147-.787.44-1.08.293-.293.653-.44 1.08-.44.427 0 .793.147 1.1.44.307.293.46.653.46 1.08zM64.52 5.32c0 .427-.147.787-.44 1.08-.293.293-.653.44-1.08.44-.453 0-.827-.147-1.12-.44a1.468 1.468 0 0 1-.44-1.08c0-.453.147-.827.44-1.12.293-.293.667-.44 1.12-.44.427 0 .787.147 1.08.44.293.293.44.667.44 1.12zm3.88 0c0 .427-.153.787-.46 1.08-.307.293-.673.44-1.1.44-.427 0-.793-.147-1.1-.44a1.436 1.436 0 0 1-.46-1.08c0-.453.153-.827.46-1.12.307-.293.673-.44 1.1-.44.427 0 .793.147 1.1.44.307.293.46.667.46 1.12zm3.84 0c0 .427-.147.787-.44 1.08-.293.293-.667.44-1.12.44-.427 0-.787-.147-1.08-.44a1.468 1.468 0 0 1-.44-1.08c0-.453.147-.827.44-1.12.293-.293.653-.44 1.08-.44.453 0 .827.147 1.12.44.293.293.44.667.44 1.12zm3.84 0c0 .427-.147.787-.44 1.08-.293.293-.653.44-1.08.44-.427 0-.793-.147-1.1-.44A1.436 1.436 0 0 1 73 5.32c0-.453.153-.827.46-1.12.307-.293.673-.44 1.1-.44.427 0 .787.147 1.08.44.293.293.44.667.44 1.12zm3.88 0c0 .427-.153.787-.46 1.08-.307.293-.673.44-1.1.44-.427 0-.787-.147-1.08-.44a1.468 1.468 0 0 1-.44-1.08c0-.453.147-.827.44-1.12.293-.293.653-.44 1.08-.44.427 0 .793.147 1.1.44.307.293.46.667.46 1.12zm3.84 0c0 .427-.147.787-.44 1.08-.293.293-.653.44-1.08.44-.453 0-.827-.147-1.12-.44a1.468 1.468 0 0 1-.44-1.08c0-.453.147-.827.44-1.12.293-.293.667-.44 1.12-.44.427 0 .787.147 1.08.44.293.293.44.667.44 1.12zM64.52 9.16c0 .427-.147.793-.44 1.1-.293.307-.653.46-1.08.46-.453 0-.827-.153-1.12-.46a1.536 1.536 0 0 1-.44-1.1c0-.427.147-.787.44-1.08.293-.293.667-.44 1.12-.44.427 0 .787.147 1.08.44.293.293.44.653.44 1.08zm3.88 0a1.5 1.5 0 0 1-.46 1.1 1.5 1.5 0 0 1-1.1.46 1.5 1.5 0 0 1-1.1-.46 1.501 1.501 0 0 1-.46-1.1c0-.427.153-.787.46-1.08.307-.293.673-.44 1.1-.44.427 0 .793.147 1.1.44.307.293.46.653.46 1.08zm11.56 0a1.5 1.5 0 0 1-.46 1.1 1.5 1.5 0 0 1-1.1.46c-.427 0-.787-.153-1.08-.46a1.536 1.536 0 0 1-.44-1.1c0-.427.147-.787.44-1.08.293-.293.653-.44 1.08-.44.427 0 .793.147 1.1.44.307.293.46.653.46 1.08zm3.84 0c0 .427-.147.793-.44 1.1-.293.307-.653.46-1.08.46-.453 0-.827-.153-1.12-.46a1.536 1.536 0 0 1-.44-1.1c0-.427.147-.787.44-1.08.293-.293.667-.44 1.12-.44.427 0 .787.147 1.08.44.293.293.44.653.44 1.08zm-15.4 3.88c0 .427-.153.787-.46 1.08-.307.293-.673.44-1.1.44-.427 0-.793-.147-1.1-.44a1.436 1.436 0 0 1-.46-1.08c0-.453.153-.827.46-1.12.307-.293.673-.44 1.1-.44.427 0 .793.147 1.1.44.307.293.46.667.46 1.12zm-3.88 0c0 .427-.147.787-.44 1.08-.293.293-.653.44-1.08.44-.453 0-.827-.147-1.12-.44a1.468 1.468 0 0 1-.44-1.08c0-.453.147-.827.44-1.12.293-.293.667-.44 1.12-.44.427 0 .787.147 1.08.44.293.293.44.667.44 1.12zm7.72 0c0 .427-.147.787-.44 1.08-.293.293-.667.44-1.12.44-.427 0-.787-.147-1.08-.44a1.468 1.468 0 0 1-.44-1.08c0-.453.147-.827.44-1.12.293-.293.653-.44 1.08-.44.453 0 .827.147 1.12.44.293.293.44.667.44 1.12zm3.84 0c0 .427-.147.787-.44 1.08-.293.293-.653.44-1.08.44-.427 0-.793-.147-1.1-.44a1.436 1.436 0 0 1-.46-1.08c0-.453.153-.827.46-1.12.307-.293.673-.44 1.1-.44.427 0 .787.147 1.08.44.293.293.44.667.44 1.12zm3.88 0c0 .427-.153.787-.46 1.08-.307.293-.673.44-1.1.44-.427 0-.787-.147-1.08-.44a1.468 1.468 0 0 1-.44-1.08c0-.453.147-.827.44-1.12.293-.293.653-.44 1.08-.44.427 0 .793.147 1.1.44.307.293.46.667.46 1.12zm3.84 0c0 .427-.147.787-.44 1.08-.293.293-.653.44-1.08.44-.453 0-.827-.147-1.12-.44a1.468 1.468 0 0 1-.44-1.08c0-.453.147-.827.44-1.12.293-.293.667-.44 1.12-.44.427 0 .787.147 1.08.44.293.293.44.667.44 1.12zm-15.4 3.84c0 .427-.153.787-.46 1.08-.307.293-.673.44-1.1.44-.427 0-.793-.147-1.1-.44a1.436 1.436 0 0 1-.46-1.08 1.5 1.5 0 0 1 .46-1.1 1.5 1.5 0 0 1 1.1-.46 1.5 1.5 0 0 1 1.1.46 1.5 1.5 0 0 1 .46 1.1zm3.84 0c0 .427-.147.787-.44 1.08-.293.293-.667.44-1.12.44-.427 0-.787-.147-1.08-.44a1.468 1.468 0 0 1-.44-1.08c0-.427.147-.793.44-1.1.293-.307.653-.46 1.08-.46.453 0 .827.153 1.12.46.293.307.44.673.44 1.1zm3.84 0c0 .427-.147.787-.44 1.08-.293.293-.653.44-1.08.44-.427 0-.793-.147-1.1-.44a1.436 1.436 0 0 1-.46-1.08 1.5 1.5 0 0 1 .46-1.1 1.5 1.5 0 0 1 1.1-.46c.427 0 .787.153 1.08.46.293.307.44.673.44 1.1zm3.88 0c0 .427-.153.787-.46 1.08-.307.293-.673.44-1.1.44-.427 0-.787-.147-1.08-.44a1.468 1.468 0 0 1-.44-1.08c0-.427.147-.793.44-1.1.293-.307.653-.46 1.08-.46a1.5 1.5 0 0 1 1.1.46 1.5 1.5 0 0 1 .46 1.1zm3.84 0c0 .427-.147.787-.44 1.08-.293.293-.653.44-1.08.44-.453 0-.827-.147-1.12-.44a1.468 1.468 0 0 1-.44-1.08c0-.427.147-.793.44-1.1.293-.307.667-.46 1.12-.46.427 0 .787.153 1.08.46.293.307.44.673.44 1.1zm-3.84 3.84c0 .453-.153.827-.46 1.12-.307.293-.673.44-1.1.44-.427 0-.787-.147-1.08-.44-.293-.293-.44-.667-.44-1.12 0-.427.147-.787.44-1.08.293-.293.653-.44 1.08-.44.427 0 .793.147 1.1.44.307.293.46.653.46 1.08zm3.84 0c0 .453-.147.827-.44 1.12-.293.293-.653.44-1.08.44-.453 0-.827-.147-1.12-.44-.293-.293-.44-.667-.44-1.12 0-.427.147-.787.44-1.08.293-.293.667-.44 1.12-.44.427 0 .787.147 1.08.44.293.293.44.653.44 1.08zM64.52 24.6c0 .427-.147.787-.44 1.08-.293.293-.653.44-1.08.44-.453 0-.827-.147-1.12-.44a1.468 1.468 0 0 1-.44-1.08c0-.453.147-.827.44-1.12.293-.293.667-.44 1.12-.44.427 0 .787.147 1.08.44.293.293.44.667.44 1.12zm3.88 0c0 .427-.153.787-.46 1.08-.307.293-.673.44-1.1.44-.427 0-.793-.147-1.1-.44a1.436 1.436 0 0 1-.46-1.08c0-.453.153-.827.46-1.12.307-.293.673-.44 1.1-.44.427 0 .793.147 1.1.44.307.293.46.667.46 1.12zm3.84 0c0 .427-.147.787-.44 1.08-.293.293-.667.44-1.12.44-.427 0-.787-.147-1.08-.44a1.468 1.468 0 0 1-.44-1.08c0-.453.147-.827.44-1.12.293-.293.653-.44 1.08-.44.453 0 .827.147 1.12.44.293.293.44.667.44 1.12zm3.84 0c0 .427-.147.787-.44 1.08-.293.293-.653.44-1.08.44-.427 0-.793-.147-1.1-.44A1.436 1.436 0 0 1 73 24.6c0-.453.153-.827.46-1.12.307-.293.673-.44 1.1-.44.427 0 .787.147 1.08.44.293.293.44.667.44 1.12zm3.88 0c0 .427-.153.787-.46 1.08-.307.293-.673.44-1.1.44-.427 0-.787-.147-1.08-.44a1.468 1.468 0 0 1-.44-1.08c0-.453.147-.827.44-1.12.293-.293.653-.44 1.08-.44.427 0 .793.147 1.1.44.307.293.46.667.46 1.12zm3.84 0c0 .427-.147.787-.44 1.08-.293.293-.653.44-1.08.44-.453 0-.827-.147-1.12-.44a1.468 1.468 0 0 1-.44-1.08c0-.453.147-.827.44-1.12.293-.293.667-.44 1.12-.44.427 0 .787.147 1.08.44.293.293.44.667.44 1.12zm-15.4 3.84a1.5 1.5 0 0 1-.46 1.1 1.5 1.5 0 0 1-1.1.46 1.5 1.5 0 0 1-1.1-.46 1.501 1.501 0 0 1-.46-1.1 1.5 1.5 0 0 1 .46-1.1 1.5 1.5 0 0 1 1.1-.46 1.5 1.5 0 0 1 1.1.46 1.5 1.5 0 0 1 .46 1.1zm3.84 0c0 .427-.147.793-.44 1.1-.293.307-.667.46-1.12.46-.427 0-.787-.153-1.08-.46a1.536 1.536 0 0 1-.44-1.1c0-.427.147-.793.44-1.1.293-.307.653-.46 1.08-.46.453 0 .827.153 1.12.46.293.307.44.673.44 1.1zm3.84 0c0 .427-.147.793-.44 1.1-.293.307-.653.46-1.08.46a1.5 1.5 0 0 1-1.1-.46 1.501 1.501 0 0 1-.46-1.1 1.5 1.5 0 0 1 .46-1.1 1.5 1.5 0 0 1 1.1-.46c.427 0 .787.153 1.08.46.293.307.44.673.44 1.1zm3.88 0a1.5 1.5 0 0 1-.46 1.1 1.5 1.5 0 0 1-1.1.46c-.427 0-.787-.153-1.08-.46a1.536 1.536 0 0 1-.44-1.1c0-.427.147-.793.44-1.1.293-.307.653-.46 1.08-.46a1.5 1.5 0 0 1 1.1.46 1.5 1.5 0 0 1 .46 1.1zM95.8 1.48c0 .427-.147.793-.44 1.1-.293.307-.667.46-1.12.46-.427 0-.787-.153-1.08-.46a1.536 1.536 0 0 1-.44-1.1c0-.427.147-.793.44-1.1.293-.307.653-.46 1.08-.46.453 0 .827.153 1.12.46.293.307.44.673.44 1.1zm3.84 0c0 .427-.147.793-.44 1.1-.293.307-.653.46-1.08.46a1.5 1.5 0 0 1-1.1-.46 1.501 1.501 0 0 1-.46-1.1 1.5 1.5 0 0 1 .46-1.1 1.5 1.5 0 0 1 1.1-.46c.427 0 .787.153 1.08.46.293.307.44.673.44 1.1zm3.88 0c0 .427-.147.793-.44 1.1-.293.307-.667.46-1.12.46-.427 0-.787-.153-1.08-.46a1.536 1.536 0 0 1-.44-1.1c0-.427.147-.793.44-1.1.293-.307.653-.46 1.08-.46.453 0 .827.153 1.12.46.293.307.44.673.44 1.1zm3.84 0c0 .427-.147.793-.44 1.1-.293.307-.653.46-1.08.46-.453 0-.827-.153-1.12-.46a1.536 1.536 0 0 1-.44-1.1c0-.427.147-.793.44-1.1.293-.307.667-.46 1.12-.46.427 0 .787.153 1.08.46.293.307.44.673.44 1.1zm-15.4 3.84c0 .453-.153.827-.46 1.12-.307.293-.673.44-1.1.44-.427 0-.787-.147-1.08-.44-.293-.293-.44-.667-.44-1.12 0-.427.147-.787.44-1.08.293-.293.653-.44 1.08-.44.427 0 .793.147 1.1.44.307.293.46.653.46 1.08zm3.84 0c0 .453-.147.827-.44 1.12-.293.293-.667.44-1.12.44-.427 0-.787-.147-1.08-.44-.293-.293-.44-.667-.44-1.12 0-.427.147-.787.44-1.08.293-.293.653-.44 1.08-.44.453 0 .827.147 1.12.44.293.293.44.653.44 1.08zm3.84 0c0 .453-.147.827-.44 1.12-.293.293-.653.44-1.08.44-.427 0-.793-.147-1.1-.44-.307-.293-.46-.667-.46-1.12 0-.427.153-.787.46-1.08.307-.293.673-.44 1.1-.44.427 0 .787.147 1.08.44.293.293.44.653.44 1.08zm3.88 0c0 .453-.147.827-.44 1.12-.293.293-.667.44-1.12.44-.427 0-.787-.147-1.08-.44-.293-.293-.44-.667-.44-1.12 0-.427.147-.787.44-1.08.293-.293.653-.44 1.08-.44.453 0 .827.147 1.12.44.293.293.44.653.44 1.08zm3.84 0c0 .453-.147.827-.44 1.12-.293.293-.653.44-1.08.44-.453 0-.827-.147-1.12-.44-.293-.293-.44-.667-.44-1.12 0-.427.147-.787.44-1.08.293-.293.667-.44 1.12-.44.427 0 .787.147 1.08.44.293.293.44.653.44 1.08zm3.88 0c0 .453-.153.827-.46 1.12-.307.293-.673.44-1.1.44-.427 0-.793-.147-1.1-.44-.307-.293-.46-.667-.46-1.12 0-.427.153-.787.46-1.08.307-.293.673-.44 1.1-.44.427 0 .793.147 1.1.44.307.293.46.653.46 1.08zM91.96 9.2c0 .427-.153.787-.46 1.08-.307.293-.673.44-1.1.44-.427 0-.787-.147-1.08-.44a1.468 1.468 0 0 1-.44-1.08c0-.453.147-.827.44-1.12.293-.293.653-.44 1.08-.44.427 0 .793.147 1.1.44.307.293.46.667.46 1.12zm3.84 0c0 .427-.147.787-.44 1.08-.293.293-.667.44-1.12.44-.427 0-.787-.147-1.08-.44a1.468 1.468 0 0 1-.44-1.08c0-.453.147-.827.44-1.12.293-.293.653-.44 1.08-.44.453 0 .827.147 1.12.44.293.293.44.667.44 1.12zm11.56 0c0 .427-.147.787-.44 1.08-.293.293-.653.44-1.08.44-.453 0-.827-.147-1.12-.44a1.468 1.468 0 0 1-.44-1.08c0-.453.147-.827.44-1.12.293-.293.667-.44 1.12-.44.427 0 .787.147 1.08.44.293.293.44.667.44 1.12zm3.88 0c0 .427-.153.787-.46 1.08-.307.293-.673.44-1.1.44-.427 0-.793-.147-1.1-.44a1.436 1.436 0 0 1-.46-1.08c0-.453.153-.827.46-1.12.307-.293.673-.44 1.1-.44.427 0 .793.147 1.1.44.307.293.46.667.46 1.12zm-7.72 3.84c0 .427-.147.793-.44 1.1-.293.307-.667.46-1.12.46-.427 0-.787-.153-1.08-.46a1.536 1.536 0 0 1-.44-1.1c0-.427.147-.787.44-1.08.293-.293.653-.44 1.08-.44.453 0 .827.147 1.12.44.293.293.44.653.44 1.08zm3.84 0c0 .427-.147.793-.44 1.1-.293.307-.653.46-1.08.46-.453 0-.827-.153-1.12-.46a1.536 1.536 0 0 1-.44-1.1c0-.427.147-.787.44-1.08.293-.293.667-.44 1.12-.44.427 0 .787.147 1.08.44.293.293.44.653.44 1.08zm3.88 0a1.5 1.5 0 0 1-.46 1.1 1.5 1.5 0 0 1-1.1.46 1.5 1.5 0 0 1-1.1-.46 1.501 1.501 0 0 1-.46-1.1c0-.427.153-.787.46-1.08.307-.293.673-.44 1.1-.44.427 0 .793.147 1.1.44.307.293.46.653.46 1.08zm-11.6 3.84c0 .453-.147.827-.44 1.12-.293.293-.653.44-1.08.44-.427 0-.793-.147-1.1-.44-.307-.293-.46-.667-.46-1.12 0-.427.153-.787.46-1.08.307-.293.673-.44 1.1-.44.427 0 .787.147 1.08.44.293.293.44.653.44 1.08zm3.88 0c0 .453-.147.827-.44 1.12-.293.293-.667.44-1.12.44-.427 0-.787-.147-1.08-.44-.293-.293-.44-.667-.44-1.12 0-.427.147-.787.44-1.08.293-.293.653-.44 1.08-.44.453 0 .827.147 1.12.44.293.293.44.653.44 1.08zm3.84 0c0 .453-.147.827-.44 1.12-.293.293-.653.44-1.08.44-.453 0-.827-.147-1.12-.44-.293-.293-.44-.667-.44-1.12 0-.427.147-.787.44-1.08.293-.293.667-.44 1.12-.44.427 0 .787.147 1.08.44.293.293.44.653.44 1.08zM95.8 20.76c0 .427-.147.787-.44 1.08-.293.293-.667.44-1.12.44-.427 0-.787-.147-1.08-.44a1.468 1.468 0 0 1-.44-1.08c0-.427.147-.793.44-1.1.293-.307.653-.46 1.08-.46.453 0 .827.153 1.12.46.293.307.44.673.44 1.1zm3.84 0c0 .427-.147.787-.44 1.08-.293.293-.653.44-1.08.44-.427 0-.793-.147-1.1-.44a1.436 1.436 0 0 1-.46-1.08 1.5 1.5 0 0 1 .46-1.1 1.5 1.5 0 0 1 1.1-.46c.427 0 .787.153 1.08.46.293.307.44.673.44 1.1zm3.88 0c0 .427-.147.787-.44 1.08-.293.293-.667.44-1.12.44-.427 0-.787-.147-1.08-.44a1.468 1.468 0 0 1-.44-1.08c0-.427.147-.793.44-1.1.293-.307.653-.46 1.08-.46.453 0 .827.153 1.12.46.293.307.44.673.44 1.1zM91.96 24.6c0 .453-.153.827-.46 1.12-.307.293-.673.44-1.1.44-.427 0-.787-.147-1.08-.44-.293-.293-.44-.667-.44-1.12 0-.427.147-.787.44-1.08.293-.293.653-.44 1.08-.44.427 0 .793.147 1.1.44.307.293.46.653.46 1.08zm3.84 0c0 .453-.147.827-.44 1.12-.293.293-.667.44-1.12.44-.427 0-.787-.147-1.08-.44-.293-.293-.44-.667-.44-1.12 0-.427.147-.787.44-1.08.293-.293.653-.44 1.08-.44.453 0 .827.147 1.12.44.293.293.44.653.44 1.08zm3.84 0c0 .453-.147.827-.44 1.12-.293.293-.653.44-1.08.44-.427 0-.793-.147-1.1-.44-.307-.293-.46-.667-.46-1.12 0-.427.153-.787.46-1.08.307-.293.673-.44 1.1-.44.427 0 .787.147 1.08.44.293.293.44.653.44 1.08zm3.88 0c0 .453-.147.827-.44 1.12-.293.293-.667.44-1.12.44-.427 0-.787-.147-1.08-.44-.293-.293-.44-.667-.44-1.12 0-.427.147-.787.44-1.08.293-.293.653-.44 1.08-.44.453 0 .827.147 1.12.44.293.293.44.653.44 1.08zm3.84 0c0 .453-.147.827-.44 1.12-.293.293-.653.44-1.08.44-.453 0-.827-.147-1.12-.44-.293-.293-.44-.667-.44-1.12 0-.427.147-.787.44-1.08.293-.293.667-.44 1.12-.44.427 0 .787.147 1.08.44.293.293.44.653.44 1.08zm3.88 0c0 .453-.153.827-.46 1.12-.307.293-.673.44-1.1.44-.427 0-.793-.147-1.1-.44-.307-.293-.46-.667-.46-1.12 0-.427.153-.787.46-1.08.307-.293.673-.44 1.1-.44.427 0 .793.147 1.1.44.307.293.46.653.46 1.08zm-19.28 3.88c0 .427-.153.787-.46 1.08-.307.293-.673.44-1.1.44-.427 0-.787-.147-1.08-.44a1.468 1.468 0 0 1-.44-1.08c0-.453.147-.827.44-1.12.293-.293.653-.44 1.08-.44.427 0 .793.147 1.1.44.307.293.46.667.46 1.12zm3.84 0c0 .427-.147.787-.44 1.08-.293.293-.667.44-1.12.44-.427 0-.787-.147-1.08-.44a1.468 1.468 0 0 1-.44-1.08c0-.453.147-.827.44-1.12.293-.293.653-.44 1.08-.44.453 0 .827.147 1.12.44.293.293.44.667.44 1.12zm3.84 0c0 .427-.147.787-.44 1.08-.293.293-.653.44-1.08.44-.427 0-.793-.147-1.1-.44a1.436 1.436 0 0 1-.46-1.08c0-.453.153-.827.46-1.12.307-.293.673-.44 1.1-.44.427 0 .787.147 1.08.44.293.293.44.667.44 1.12zm3.88 0c0 .427-.147.787-.44 1.08-.293.293-.667.44-1.12.44-.427 0-.787-.147-1.08-.44a1.468 1.468 0 0 1-.44-1.08c0-.453.147-.827.44-1.12.293-.293.653-.44 1.08-.44.453 0 .827.147 1.12.44.293.293.44.667.44 1.12zm3.84 0c0 .427-.147.787-.44 1.08-.293.293-.653.44-1.08.44-.453 0-.827-.147-1.12-.44a1.468 1.468 0 0 1-.44-1.08c0-.453.147-.827.44-1.12.293-.293.667-.44 1.12-.44.427 0 .787.147 1.08.44.293.293.44.667.44 1.12zm3.88 0c0 .427-.153.787-.46 1.08-.307.293-.673.44-1.1.44-.427 0-.793-.147-1.1-.44a1.436 1.436 0 0 1-.46-1.08c0-.453.153-.827.46-1.12.307-.293.673-.44 1.1-.44.427 0 .793.147 1.1.44.307.293.46.667.46 1.12z" filter="url(#a)" transform="translate(100 9)"/><path d="M10.98 13.16c0 .32-.11.595-.33.825-.22.23-.5.345-.84.345-.32 0-.59-.115-.81-.345-.22-.23-.33-.505-.33-.825 0-.32.11-.595.33-.825.22-.23.49-.345.81-.345.34 0 .62.115.84.345.22.23.33.505.33.825zm2.88 0c0 .32-.11.595-.33.825-.22.23-.49.345-.81.345-.32 0-.595-.115-.825-.345a1.126 1.126 0 0 1-.345-.825c0-.32.115-.595.345-.825.23-.23.505-.345.825-.345.32 0 .59.115.81.345.22.23.33.505.33.825zm0 2.88c0 .34-.11.62-.33.84-.22.22-.49.33-.81.33-.32 0-.595-.11-.825-.33-.23-.22-.345-.5-.345-.84 0-.32.115-.59.345-.81.23-.22.505-.33.825-.33.32 0 .59.11.81.33.22.22.33.49.33.81zm-2.88 0c0 .34-.11.62-.33.84-.22.22-.5.33-.84.33-.32 0-.59-.11-.81-.33-.22-.22-.33-.5-.33-.84 0-.32.11-.59.33-.81.22-.22.49-.33.81-.33.34 0 .62.11.84.33.22.22.33.49.33.81zm-8.67-2.88c0 .32-.11.595-.33.825-.22.23-.49.345-.81.345-.34 0-.62-.115-.84-.345-.22-.23-.33-.505-.33-.825 0-.32.11-.595.33-.825.22-.23.5-.345.84-.345.32 0 .59.115.81.345.22.23.33.505.33.825zm2.91 0c0 .32-.115.595-.345.825-.23.23-.505.345-.825.345-.32 0-.595-.115-.825-.345a1.126 1.126 0 0 1-.345-.825c0-.32.115-.595.345-.825.23-.23.505-.345.825-.345.32 0 .595.115.825.345.23.23.345.505.345.825zm-2.91 2.88c0 .34-.11.62-.33.84-.22.22-.49.33-.81.33-.34 0-.62-.11-.84-.33-.22-.22-.33-.5-.33-.84 0-.32.11-.59.33-.81.22-.22.5-.33.84-.33.32 0 .59.11.81.33.22.22.33.49.33.81zm2.91 0c0 .34-.115.62-.345.84-.23.22-.505.33-.825.33-.32 0-.595-.11-.825-.33-.23-.22-.345-.5-.345-.84 0-.32.115-.59.345-.81.23-.22.505-.33.825-.33.32 0 .595.11.825.33.23.22.345.49.345.81zm2.85-2.88c0 .32-.11.595-.33.825-.22.23-.5.345-.84.345-.32 0-.59-.115-.81-.345-.22-.23-.33-.505-.33-.825 0-.32.11-.595.33-.825.22-.23.49-.345.81-.345.34 0 .62.115.84.345.22.23.33.505.33.825zm0 2.88c0 .34-.11.62-.33.84-.22.22-.5.33-.84.33-.32 0-.59-.11-.81-.33-.22-.22-.33-.5-.33-.84 0-.32.11-.59.33-.81.22-.22.49-.33.81-.33.34 0 .62.11.84.33.22.22.33.49.33.81zm0-8.67c0 .32-.11.595-.33.825-.22.23-.5.345-.84.345-.32 0-.59-.115-.81-.345-.22-.23-.33-.505-.33-.825 0-.32.11-.595.33-.825.22-.23.49-.345.81-.345.34 0 .62.115.84.345.22.23.33.505.33.825zm0 2.88c0 .34-.11.62-.33.84-.22.22-.5.33-.84.33-.32 0-.59-.11-.81-.33-.22-.22-.33-.5-.33-.84 0-.32.11-.59.33-.81.22-.22.49-.33.81-.33.34 0 .62.11.84.33.22.22.33.49.33.81zm0 8.67c0 .32-.11.595-.33.825-.22.23-.5.345-.84.345-.32 0-.59-.115-.81-.345-.22-.23-.33-.505-.33-.825 0-.32.11-.595.33-.825.22-.23.49-.345.81-.345.34 0 .62.115.84.345.22.23.33.505.33.825zm0 2.88c0 .34-.11.62-.33.84-.22.22-.5.33-.84.33-.32 0-.59-.11-.81-.33-.22-.22-.33-.5-.33-.84 0-.32.11-.59.33-.81.22-.22.49-.33.81-.33.34 0 .62.11.84.33.22.22.33.49.33.81z" filter="url(#b)" transform="translate(100 9)"/><path d="M123.848 7.888a.921.921 0 0 1-.264.66.862.862 0 0 1-.648.276.9.9 0 0 1-.66-.276.9.9 0 0 1-.276-.66c0-.256.092-.472.276-.648a.921.921 0 0 1 .66-.264c.256 0 .472.088.648.264a.881.881 0 0 1 .264.648zm2.328 0a.921.921 0 0 1-.264.66.89.89 0 0 1-.672.276.862.862 0 0 1-.648-.276.921.921 0 0 1-.264-.66c0-.256.088-.472.264-.648a.881.881 0 0 1 .648-.264.91.91 0 0 1 .672.264.881.881 0 0 1 .264.648zm6.936 0a.921.921 0 0 1-.264.66.89.89 0 0 1-.672.276.862.862 0 0 1-.648-.276.921.921 0 0 1-.264-.66c0-.256.088-.472.264-.648a.881.881 0 0 1 .648-.264.91.91 0 0 1 .672.264.881.881 0 0 1 .264.648zm2.304 0a.921.921 0 0 1-.264.66.862.862 0 0 1-.648.276.89.89 0 0 1-.672-.276.921.921 0 0 1-.264-.66c0-.256.088-.472.264-.648a.91.91 0 0 1 .672-.264c.256 0 .472.088.648.264a.881.881 0 0 1 .264.648zm-11.568 2.328a.881.881 0 0 1-.264.648.881.881 0 0 1-.648.264.921.921 0 0 1-.66-.264.862.862 0 0 1-.276-.648.89.89 0 0 1 .276-.672.921.921 0 0 1 .66-.264c.256 0 .472.088.648.264a.91.91 0 0 1 .264.672zm2.328 0a.881.881 0 0 1-.264.648.91.91 0 0 1-.672.264.881.881 0 0 1-.648-.264.881.881 0 0 1-.264-.648.91.91 0 0 1 .264-.672.881.881 0 0 1 .648-.264.91.91 0 0 1 .672.264.91.91 0 0 1 .264.672zm6.936 0a.881.881 0 0 1-.264.648.91.91 0 0 1-.672.264.881.881 0 0 1-.648-.264.881.881 0 0 1-.264-.648.91.91 0 0 1 .264-.672.881.881 0 0 1 .648-.264.91.91 0 0 1 .672.264.91.91 0 0 1 .264.672zm2.304 0a.881.881 0 0 1-.264.648.881.881 0 0 1-.648.264.91.91 0 0 1-.672-.264.881.881 0 0 1-.264-.648.91.91 0 0 1 .264-.672.91.91 0 0 1 .672-.264c.256 0 .472.088.648.264a.91.91 0 0 1 .264.672zm-4.608 2.304a.862.862 0 0 1-.276.648.921.921 0 0 1-.66.264.921.921 0 0 1-.66-.264.862.862 0 0 1-.276-.648.9.9 0 0 1 .276-.66.9.9 0 0 1 .66-.276.9.9 0 0 1 .66.276.9.9 0 0 1 .276.66zm2.304 0a.881.881 0 0 1-.264.648.91.91 0 0 1-.672.264.881.881 0 0 1-.648-.264.881.881 0 0 1-.264-.648c0-.256.088-.476.264-.66a.862.862 0 0 1 .648-.276.89.89 0 0 1 .672.276.921.921 0 0 1 .264.66zm-4.632 2.304a.91.91 0 0 1-.264.672.881.881 0 0 1-.648.264.91.91 0 0 1-.672-.264.91.91 0 0 1-.264-.672c0-.256.088-.472.264-.648a.91.91 0 0 1 .672-.264c.256 0 .472.088.648.264a.881.881 0 0 1 .264.648zm2.328 0a.89.89 0 0 1-.276.672.921.921 0 0 1-.66.264.921.921 0 0 1-.66-.264.89.89 0 0 1-.276-.672c0-.256.092-.472.276-.648a.921.921 0 0 1 .66-.264c.256 0 .476.088.66.264a.862.862 0 0 1 .276.648zm-2.328 2.328a.881.881 0 0 1-.264.648.881.881 0 0 1-.648.264.91.91 0 0 1-.672-.264.881.881 0 0 1-.264-.648.91.91 0 0 1 .264-.672.91.91 0 0 1 .672-.264c.256 0 .472.088.648.264a.91.91 0 0 1 .264.672zm2.328 0a.862.862 0 0 1-.276.648.921.921 0 0 1-.66.264.921.921 0 0 1-.66-.264.862.862 0 0 1-.276-.648.89.89 0 0 1 .276-.672.921.921 0 0 1 .66-.264c.256 0 .476.088.66.264a.89.89 0 0 1 .276.672zm-4.632 2.304a.921.921 0 0 1-.264.66.89.89 0 0 1-.672.276.862.862 0 0 1-.648-.276.921.921 0 0 1-.264-.66c0-.256.088-.476.264-.66a.862.862 0 0 1 .648-.276.89.89 0 0 1 .672.276.921.921 0 0 1 .264.66zm2.304 0a.921.921 0 0 1-.264.66.862.862 0 0 1-.648.276.89.89 0 0 1-.672-.276.921.921 0 0 1-.264-.66c0-.256.088-.476.264-.66a.89.89 0 0 1 .672-.276c.256 0 .472.092.648.276a.921.921 0 0 1 .264.66zm-4.632 2.304a.91.91 0 0 1-.264.672.881.881 0 0 1-.648.264.921.921 0 0 1-.66-.264.89.89 0 0 1-.276-.672c0-.256.092-.472.276-.648a.921.921 0 0 1 .66-.264c.256 0 .472.088.648.264a.881.881 0 0 1 .264.648zm2.328 0a.91.91 0 0 1-.264.672.91.91 0 0 1-.672.264.881.881 0 0 1-.648-.264.91.91 0 0 1-.264-.672c0-.256.088-.472.264-.648a.881.881 0 0 1 .648-.264.91.91 0 0 1 .672.264.881.881 0 0 1 .264.648zm6.936 0a.91.91 0 0 1-.264.672.91.91 0 0 1-.672.264.881.881 0 0 1-.648-.264.91.91 0 0 1-.264-.672c0-.256.088-.472.264-.648a.881.881 0 0 1 .648-.264.91.91 0 0 1 .672.264.881.881 0 0 1 .264.648zm2.304 0a.91.91 0 0 1-.264.672.881.881 0 0 1-.648.264.91.91 0 0 1-.672-.264.91.91 0 0 1-.264-.672c0-.256.088-.472.264-.648a.91.91 0 0 1 .672-.264c.256 0 .472.088.648.264a.881.881 0 0 1 .264.648zm-11.568 2.328a.881.881 0 0 1-.264.648.881.881 0 0 1-.648.264.921.921 0 0 1-.66-.264.862.862 0 0 1-.276-.648.89.89 0 0 1 .276-.672.921.921 0 0 1 .66-.264c.256 0 .472.088.648.264a.91.91 0 0 1 .264.672zm2.328 0a.881.881 0 0 1-.264.648.91.91 0 0 1-.672.264.881.881 0 0 1-.648-.264.881.881 0 0 1-.264-.648.91.91 0 0 1 .264-.672.881.881 0 0 1 .648-.264.91.91 0 0 1 .672.264.91.91 0 0 1 .264.672zm6.936 0a.881.881 0 0 1-.264.648.91.91 0 0 1-.672.264.881.881 0 0 1-.648-.264.881.881 0 0 1-.264-.648.91.91 0 0 1 .264-.672.881.881 0 0 1 .648-.264.91.91 0 0 1 .672.264.91.91 0 0 1 .264.672zm2.304 0a.881.881 0 0 1-.264.648.881.881 0 0 1-.648.264.91.91 0 0 1-.672-.264.881.881 0 0 1-.264-.648.91.91 0 0 1 .264-.672.91.91 0 0 1 .672-.264c.256 0 .472.088.648.264a.91.91 0 0 1 .264.672z" filter="url(#c)" transform="translate(100 9)"/></g></g></svg>