<svg width="30" height="30" xmlns="http://www.w3.org/2000/svg"><path d="M18.399 18.399c1.58-1.581 2.371-3.482 2.371-5.706 0-2.223-.792-4.127-2.371-5.706-1.581-1.581-3.483-2.37-5.706-2.37-2.225 0-4.125.789-5.708 2.37-1.58 1.58-2.37 3.483-2.37 5.706 0 2.224.79 4.125 2.37 5.706 1.583 1.58 3.483 2.371 5.708 2.371 2.223 0 4.125-.79 5.706-2.371zm10.935 7.67c.444.445.666.986.666 1.622 0 .626-.228 1.167-.686 1.623-.456.458-.997.686-1.623.686-.65 0-1.19-.228-1.621-.686l-6.183-6.165c-2.151 1.491-4.551 2.237-7.194 2.237-1.72 0-3.363-.333-4.932-1-1.568-.668-2.92-1.571-4.056-2.705C2.569 20.544 1.666 19.192 1 17.623a12.48 12.48 0 0 1-1-4.93c0-1.72.334-3.363 1-4.93.666-1.57 1.57-2.923 2.705-4.057C4.84 2.57 6.193 1.668 7.76 1c1.569-.666 3.211-1 4.932-1 1.719 0 3.363.334 4.93 1 1.57.668 2.92 1.57 4.058 2.706 1.134 1.134 2.035 2.487 2.703 4.056.667 1.568 1 3.212 1 4.93 0 2.645-.745 5.042-2.235 7.195l6.185 6.183z" fill="#FFB800" fill-rule="evenodd"/></svg>