<svg width="240" height="198" xmlns="http://www.w3.org/2000/svg"><g fill="none" fill-rule="evenodd"><path d="M31.343 150.47l4.434 24.319h-14v-34.451H210.93v34.45h-14l4.434-24.317H31.343zm22.977-35.384l28.996-10.833 33.037 24.686 33.037-24.686 28.997 10.833v19.172h-22.373v-8.106h-6.102v8.106H82.794v-8.106h-6.101v8.106H54.32v-19.172zm42.74-23.164l.718.66c.1.091.204.176.307.26.106.086.212.173.316.265.309.27.626.543.951.8.377.299.776.587 1.12.834l.108.077c.295.211.588.421.89.615.391.255.796.49 1.211.729l.129.074c.303.175.604.35.911.51.41.215.833.405 1.28.605l.29.133c.259.119.518.239.785.346.353.142.714.265 1.073.388l.673.232c.234.082.468.165.707.235.431.126.873.228 1.34.336l.518.124c.225.057.45.114.681.157.561.11 1.146.18 1.71.25.14.017.269.037.398.057.167.027.334.053.503.069 1.937.18 3.555.18 5.58-.035.174-.018.343-.044.512-.07.134-.02.267-.04.401-.057a26.64 26.64 0 0 0 1.945-.33c.338-.071.672-.153 1.002-.238a24.82 24.82 0 0 0 1.798-.52l.151-.049c.277-.089.55-.177.825-.277a26.268 26.268 0 0 0 1.845-.768c.122-.056.247-.11.373-.164.137-.058.273-.116.405-.18.85-.417 1.671-.874 2.435-1.355a4.51 4.51 0 0 0 .252-.175c.087-.063.175-.127.266-.188a26.927 26.927 0 0 0 1.779-1.27c.213-.168.42-.347.63-.526l.196-.17c.126-.107.258-.215.39-.321.16-.13.32-.26.473-.399l.717-.653 8.595 8.563-27.896 20.843-27.895-20.846 8.602-8.571zm40.649-55.95v36.477c0 4.836-1.591 9.39-4.601 13.167-4.055 5.153-10.163 8.112-16.755 8.112-5.729 0-11.088-2.217-15.09-6.242-.437-.436-1.009-1.026-1.52-1.698l-.025-.03a3.281 3.281 0 0 1-.12-.15l-.064-.086c-2.963-3.742-4.536-8.268-4.536-13.073V35.972a9.116 9.116 0 0 1 7.537-8.978l.466-.083.364.301c7.526 6.241 18.45 6.241 25.973 0l.363-.301.466.083a9.118 9.118 0 0 1 7.542 8.978zm-48.813 0v5.347l-.762.197a15.4 15.4 0 0 0-2.055.695c-.026.012-.054.028-.083.043a3.133 3.133 0 0 1-.21.103c-.564.249-1.03.467-1.474.72l-1.522.868.019-4.934c.262-8.96 4.004-17.232 10.602-23.388 6.846-6.394 15.795-9.576 25.189-8.961 17.558 1.133 31.312 16.337 31.312 34.615v2.679l-1.525-.877a15.276 15.276 0 0 0-1.467-.716 3.693 3.693 0 0 1-.195-.097c-.03-.016-.06-.033-.092-.046a15.231 15.231 0 0 0-2.064-.7l-.762-.197v-5.351c0-8.381-6.843-15.2-15.254-15.2h-1.264l-.894.891a14.135 14.135 0 0 1-10.046 4.14c-3.8 0-7.368-1.47-10.046-4.14l-.891-.89h-1.262c-8.411 0-15.254 6.818-15.254 15.199zm.008 29.035l-1.525-.876a9.136 9.136 0 0 1-4.585-7.894c0-.68.093-1.376.294-2.19.041-.174.097-.342.156-.512l.037-.111c.167-.51.378-1.004.626-1.457l.044-.087a5.9 5.9 0 0 1 .252-.451 9.062 9.062 0 0 1 1.296-1.65l.11-.097a9.13 9.13 0 0 1 1.566-1.19c.043-.028.104-.06.168-.093l1.541-.925.02 1.784v15.75zm56.433-.877l-1.526.88V47.514l1.52.863a2.5 2.5 0 0 1 .23.128 9.073 9.073 0 0 1 1.535 1.168c.042.033.082.067.123.108.456.45.88.992 1.295 1.651a5.3 5.3 0 0 1 .214.384l.079.147c.25.472.458.958.626 1.461l.053.159c.049.147.097.296.138.45.127.546.288 1.338.288 2.204a9.143 9.143 0 0 1-4.575 7.893zm71.694 116.738v-46.61h-32.542v-23.385l-33.903-12.67-11.135-11.094.408-.678c2.585-4.305 3.952-9.14 3.952-13.982v-1.36l.761-.196c6.737-1.744 11.442-7.77 11.442-14.656v-14.96c0-21.471-16.261-39.343-37.021-40.687-11.117-.705-21.685 3.059-29.756 10.595-7.972 7.445-12.544 17.957-12.544 28.84v16.212c0 6.886 4.704 12.912 11.441 14.656l.762.197v1.36c0 4.858 1.365 9.696 3.947 13.988l.408.679-11.13 11.09-33.903 12.666v23.385H15.676v46.61H36.89l3.062 16.773 6-1.088-7.301-40.003h155.403l-7.298 40.003 6 1.088 3.058-16.773h21.216z" fill="#F0F4F7"/><path fill="#00D972" d="M19.322 26.432l-5.26-5.24-4.314 4.298 9.574 9.539L49.235 5.224 44.92.927z"/><path fill="#F0F4F7" d="M0 57.075h22.373v-6.08H0zm0 11.146h6.102v-6.08H0zm16.271 0H46.78v-6.08H16.27zm6.102-54.716v-6.08H0V45.93h38.644V31.744h-6.102v8.106H6.102V13.505z"/><path d="M213.908 28.9c-.992 3.882-7.126 1.912-9.115 1.427l1.755-6.868c1.99.483 8.395 1.388 7.36 5.44zm-1.09 11.076c-1.091 4.274-8.454 1.963-10.841 1.383l1.931-7.565c2.388.581 10.048 1.731 8.91 6.182zm8.05-11.013c.64-4.174-2.613-6.416-7.063-7.915l1.441-5.645-3.52-.857-1.406 5.5c-.93-.225-1.878-.436-2.824-.648l1.413-5.537-3.522-.855-1.442 5.645c-.766-.17-1.521-.336-2.249-.513l.006-.02-4.864-1.182-.936 3.67s2.616.584 2.561.624c1.429.346 1.687 1.272 1.642 2.002l-1.644 6.435c.098.024.224.06.367.113-.119-.027-.248-.059-.374-.09l-2.302 9.019c-.176.42-.621 1.06-1.614.816.031.048-2.563-.623-2.563-.623l-1.752 3.933 4.59 1.117c.848.207 1.687.423 2.508.633l-1.46 5.713 3.523.858 1.443-5.654c.961.252 1.896.491 2.81.712L202.2 51.84l3.521.857 1.458-5.703c6.008 1.11 10.528.661 12.43-4.643 1.528-4.272-.076-6.732-3.24-8.34 2.304-.521 4.036-1.996 4.5-5.048h-.001z" fill="#FFB800"/><path d="M207.704 59.402c-14.86 0-26.95-12.045-26.95-26.851s12.09-26.852 26.95-26.852 26.95 12.046 26.95 26.852c0 14.806-12.09 26.851-26.95 26.851m0-58.769c-17.663 0-32.034 14.319-32.034 31.918 0 17.6 14.37 31.918 32.034 31.918 17.663 0 32.034-14.319 32.034-31.918 0-17.6-14.37-31.918-32.034-31.918" fill="#FFB800"/></g></svg>