<svg width="145" height="36" xmlns="http://www.w3.org/2000/svg"><path d="M22.448 12.368c.044.044.132.22.132.352 0 .132-.088.396-.176.572-.176.132-.44.264-.748.088-.176 0-.264-.132-.22-.308-.22-.572-.66-.88-1.232-1.188-1.056-.572-1.716-.836-2.816-.88-.176.044-.264.044-.308 0-.66-.396-1.496-.176-2.332-.352-.528-.176-1.144-.176-1.76-.176-.308 0-.572-.044-.792-.044h-.704c-.22.66-.396 1.584-.616 2.464-.352 1.232-.572 2.42-.968 3.828-.352 1.232-.704 2.376-1.056 3.52L7.796 23.94c-.352 1.012-.572 1.936-.88 2.904l-.088.704-.66 3.74c-.308.748-.22 1.628-.264 2.288-.044.264-.22.572-.22.792-.044.308-.264.352-.44.308-.264-.088-.572-.132-.66-.44-.044-.308-.132-.66-.132-1.056-.22-1.76.044-3.564.352-5.368.748-3.432 1.936-6.688 2.904-9.988.308-1.276.616-2.64 1.056-3.872.088-.572.22-1.188.396-1.76.132-.352.308-1.188.396-1.672l-1.1.088c-.396.044-.792.044-1.32.176-.968.088-1.98.22-2.816.396-1.056.308-1.936.528-2.86.88-.132.044-.396.044-.572.044-.528.044-.792-.176-.88-.748.044-.132.044-.308.088-.44C.008 10.3.36 9.772.888 9.552c.528-.22 1.144-.308 1.584-.396 2.244-.484 4.488-.748 6.688-.88 2.728-.132 5.676 0 8.316.66a9.993 9.993 0 0 1 3.3 1.496c.836.572 1.232 1.1 1.672 1.936zm-4.664-2.244c.132 0 .264 0 .572-.044-.44-.308-.836-.352-1.276-.484-2.992-.88-6.248-.968-9.548-.528-.66.132-1.364.132-2.244.396.264.132.396.264.616.264.396 0 .792 0 1.188-.044.88-.044 1.628-.264 2.464-.352 1.98-.22 3.256-.132 4.884.132 1.144.176 2.244.396 3.344.66zm-2.112-.088v-.088h-.22v.088h.22zm-7.656 8.36c.22-.616.704-2.288.836-2.816l-.044-.088-.88 2.948.088-.044zM7.004 21.96c.22-.66.66-1.98.572-2.376-.088.396-.44 1.672-.66 2.376h.088zm-.748 1.98c.044-.264.352-.792.352-.968-.176.176-.484.704-.352.968zm-1.188 4.488c0-.132.484-2.2.616-2.464l-.044-.088c-.352.88-.66 2.464-.66 2.552h.088zm18.764-.748c0 .044.044.088.044.088.572-.176 1.056-.66 1.628-.968-.044.088-.044.176-.088.22a5.573 5.573 0 0 1-.572.484l-.836.66a6.51 6.51 0 0 0-.924.572c-.396.22-.748.528-1.188.704-.264.132-.572.132-.88.176a.614.614 0 0 0-.396.132c-.176.088-.44.132-.66.176-.352.088-.66.176-1.012.132a6.38 6.38 0 0 1-1.32-.264c-.396-.132-.572-.176-1.012-.528-.044-.088-.176-.132-.22-.176-.308-.22-.484-.484-.748-.88-.088-.088-.088-.088-.176-.528-.22-.528-.176-.836-.176-1.144A6.01 6.01 0 0 1 16 23.984c.176-.264.352-.528.572-.792.396-.484.792-.924 1.188-1.364.396-.396.88-.66 1.452-.704.132 0 .264-.044.44-.088.44-.176.836.132 1.144.308.396.176.748.44 1.056.704.352.22.572.968.44 1.32-.088.22-.22.44-.352.572-.396.44-.792.836-1.188 1.232-.132.132-.396.176-.44.308-.044.308-.352.352-.528.44l-.308.176c.088 0 .132.044.132.044-.132.088-.264.132-.44.22-.044.044-.044.176-.088.22-.308.176-.66.308-.924.484-.132.044-.22.176-.308.264-.352.176-.484.22-.792.396.176.528.264.616.616.748.572-.044 1.144 0 1.716-.088.396-.044.792-.22 1.188-.352.308-.132.66-.308 1.012-.44.22-.088.44-.088.66-.22.484-.308 1.012-.572 1.452-.836l.132-.088.044.044c-.044.088-.132.176-.176.22.044.044.088.088.044.132a.829.829 0 0 0 .352-.088c.044.044.044.044 0 .088a5.573 5.573 0 0 0-.572.484c.132.088.352.132.572.22-.132.044-.176.088-.264.132zm-6.512-2.64c-.132.264-.22.572-.308.924.352-.22.572-.352.748-.484.088 0 .176.044.22 0 .132-.088.352-.22.528-.396-.132 0-.176.044-.308.044.264-.22.396-.484.704-.484-.088.132-.22.22-.308.352 0 0 0 .044.044.044.396-.264.748-.572 1.144-.836l-.088-.088c-.088.088-.176.176-.352.264-.132.088-.264.176-.44.264.044-.044.044-.088.044-.132.44-.352.792-.66 1.188-1.056.264-.22.44-.484.616-.792.132-.22-.088-.616-.264-.528-.396.176-.792.176-1.144.44-.396.308-.792.528-1.1.924-.352.484-.66 1.012-.924 1.54zm3.916-2.508c-.308.352-.484.704-.352 1.188.132-.264.352-.572.484-.836l-.132-.352zm6.072 2.156c-.264.176-.528.308-.748.484v.044c0-.044.044-.044.044-.044 0 .044.044.088.044.088-.088.088-.264.22-.484.352l.044.176c-.176.088-.264.176-.132.308-.176.132-.44.132-.484.44 0 0 0 .044-.044.044-.308 0-.484.308-.704.484-.132.088-.308.22-.528.308-.088.044-.176-.044-.264-.088-.044-.088-.044-.176-.044-.22 0-.044.044-.088.044-.088.396.088.66-.22.968-.396l.308-.176c.176-.044.264-.176.088-.44-.308.264-.704.484-1.056.792-.044-.044-.176-.088-.308-.132.308-.176 1.012-.572 1.276-1.056.088-.088.572-.308.704-.44l.308.132c.088-.132.176-.22.264-.308-.044-.044-.088-.044-.176-.088l.044-.044c.132 0 .264 0 .484-.044-.044-.088-.088-.132-.088-.176l.22-.176-.044-.044-.176.132h-.088l.748-.484.088.308s.044 0 .044.044c-.132.088-.22.22-.352.308zm-3.344 1.716c-.044 0-.044-.044-.044-.044.396-.264.792-.44 1.232-.704-.044.22-.308.308-1.188.748zm-1.144.924a5.78 5.78 0 0 0 .748-.396c-.044-.132-.44 0-.748.396zm4.64 1.496c-.088 0-.22 0-.352-.044-.088-.088-.44-.308-.704-.44-.396-.528-.528-1.1-.352-1.76.132-.308.22-.528.308-.792.044-.044.044-.044.044-.088.044-.264.176-.484.264-.792l.308-.528c.176-.22.264-.44.352-.528.484-.748 1.056-1.276 1.584-1.936.528-.572 1.276-1.1 2.112-1.188.924.176 1.98.352 2.156 1.364.132.616-.22 1.012-.44 1.452.352-.044.66-.396 1.188-.352.264.088.44.308.528.616 0 0 .044.484-.088.836-.044.044-.044.132-.088.22-.132.616-.132 1.276.132 1.892.044.176.176.352.396.484.088.044.176.044.308 0s.308-.044.484-.132c.704-.308 1.408-.836 2.024-1.276.572-.352 1.232-.748 1.848-1.188 1.056-.66.968-.572 1.98-1.232.308-.264.66-.484 1.1-.748l.132.088-.396.528c.088.22.088.22.352.044 0-.088 0-.264.22-.176-.44.66-1.144 1.012-1.716 1.408-.22.176-.528.308-.66.396-.132.132-.308.352-.528.44-.044.044-.176.044-.308.088 0 0 0-.044-.044-.088.044 0 .176-.088.264-.176.176-.088.264-.22.22-.396 0-.044-.088-.088-.132-.088-.352.176-.572.396-.88.616-.528.22-.924.484-1.364.836-.132.044-.264.176-.44.22v.088c.132-.044.264-.044.352-.132.176-.132.308-.132.44-.044 0-.044-.044-.088-.044-.132.308-.132.528-.088.792-.308.264-.176.572-.264.748-.44 0 .088-.044.22-.176.308-.352.176-.704.44-1.056.616a.747.747 0 0 0-.264.264.71.71 0 0 1-.308.176c.132.044.22.044.308.044l-.044.044a.636.636 0 0 1-.308.088v.176c.22-.132.528-.264.748-.396v.088c-.22.176-.528.352-.704.572-.352.396-.748.484-1.188.792-.264.132-.396.088-.616.22-.088.044-.308.132-.44.132-.044 0-.264.088-.396.088-.176 0-.572.088-.748.044-.088-.044-.352-.044-.44-.132-.132-.044-.22-.22-.352-.264-.264-.352-.572-.528-.748-.924-.264-.264-.22-.352-.352-.572-.088-.044-.088-.132-.132-.22-.308.176-.308.616-.616.616-.088.088-.132.22-.22.264-.528.396-1.232.968-1.936 1.276a2.54 2.54 0 0 1-2.112.088zm-.088-1.276c.484 0 1.276-.044 1.716-.22.572-.22.968-.528 1.408-1.012.66-.704.968-1.232 1.628-1.936.044 0 .22-.22.22-.22H32.3c-.968-.088-.616-2.024-.572-2.068-1.32.22-2.86 2.288-3.344 3.124-.396.704-.792 1.452-1.012 2.332zm13.068-2.684c.044 0 .088-.132.088-.176 0-.176.088-.22.176-.264.044-.088.22-.132.352-.176.088-.044.264-.044.352-.088v-.264c.088-.044.132-.132.176-.176 0-.044 0-.088-.044-.088-.088.088-.308.22-.528.352-.308.176-.88.572-.924.66.088.044.264.132.352.22zM54.408 33.4c-.176.088-1.188.088-1.584-.264-.396-.22-.704-.704-.924-1.232-.088-.396-.352-.968-.396-1.584 0-.572-.132-1.188-.088-1.628l-.044-.968c-.132-.044-.264 0-.528.22 0 .088-.088.088-.132.132-.572.572-1.188 1.012-1.672 1.584-.308.396-.748.528-1.1.792l-.308.264c-.132 0-.264-.044-.484-.088l-.352-.572c0 .132-.088.22-.132.352-.176.044-.264-.044-.308-.22 0-.088-.132-.088-.176-.22-.044-.088-.22-.176-.22-.264-.088-.44-.792-.572-.264-.968.088-.616.308-1.892.396-2.552.044-.044 0-.132-.088-.264-.528.66-1.012 1.232-1.232 1.54-.088.088-.22.132-.352.176.132.264-.132.44-.308.66l-.264.572c-.44.616-.792 1.232-1.188 1.848-.132.22-.396.308-.572.484a.45.45 0 0 0-.22.264l-.352.264c-.264-.176-.264-.528-.352-.704l-.22.352c-.264-.352-.352-.792-.308-1.276.132-1.496.44-2.948.836-4.4.22-.836.352-1.716.572-2.552 0-.22.088-.44 0-.616-.044-.088.132-.264.132-.352.352.044.484.044.748.132.308.088.528.176.616.572.088.44.044.924-.088 1.364-.088.572-.176 1.144-.352 1.76-.044.352-.572 1.716-.66 2.2a.716.716 0 0 0 .264-.132c.132-.264.352-.572.924-1.54.396-.484.704-1.144 1.188-1.628.308-.308.572-.66.924-.924.176-.132.308-.088.484.044.264.308.66.484 1.1.352.176-.088.308 0 .484 0 .132.308.044.66.132 1.012.044.088.088.264.044.396-.044.396.044.792-.132 1.144-.132.352-.22 1.32-.308 1.804.572-.484 1.276-1.188 1.76-1.584.264-.22.572-.44.88-.616.176-.132.352-.22.704-.528.132-.044.352-.088.44 0 .44.132.616.352 1.056.528.088.088.176.176 0 .176.044.088.132.22.264.22.396 0 .396.44.352.748.044.132.044.352.044.572v.22c-.176.264 0 .572-.044.836.044.396.044.792.132 1.144.088.264.088.44.308 1.276.264.528.616.748 1.232.528.088-.088.264.22.176.396 0 .088-.088.132-.176.22 0 .132 0 .22-.264.528zm36.252-4.576c.176 0 .088.572-.264.924-.528.528-1.32 1.232-2.068 1.892.088.264-1.1.968-1.452 1.188-.22.132-.616.264-.484.352.264.044.792-.176.792 0-1.98.836-2.948 1.364-4.312 1.672-4.356.968-10.824-.572-13.024-5.72-1.188-2.904-.924-5.984.264-8.932a20.137 20.137 0 0 1 2.42-4.488 24.747 24.747 0 0 1 3.168-3.564c.924-.792 1.936-1.54 3.124-1.892.22-.088.352-.176.528-.352-.352-.22-.66.132-.924.264-.308.132-.66.264-.968.44-.308.132-.66.308-.924.44-.22-.22-.044-.308.088-.352 1.012-.748 2.156-1.276 3.388-1.672 3.476-1.1 6.292-.616 8.448 1.32.968.88 1.628 2.464 1.672 3.608.044 1.232-.132 3.432-2.068 5.06-.924.748-1.628 1.012-2.288-.044-.132-.352.44-.572 1.012-1.144.836-.836 1.188-1.452 1.452-2.728.396-1.892-.836-3.916-2.508-4.576-.924-.352-2.288-.396-3.212-.22-1.804.352-3.168 1.1-4.576 2.288-.396.308-.792.704-1.056.968-.572.528-1.188 1.1-1.628 1.672-1.188 1.364-2.068 2.904-2.728 4.576-.748 1.54-.968 3.212-1.056 4.928-.132 2.376.396 4.532 2.112 6.16 2.728 2.552 5.72 2.772 7.172 2.684 2.288-.132 4.092-.792 6.424-2.288.748-.484 2.904-2.244 3.476-2.464zM74.776 14.216c.044.044.088.044.132 0-.088.132-.352.396-.396.616.044.044.044.088.132.044.308-.528.44-.616.704-.704l.572-.66.176-.22c.748-.66 1.276-1.232 2.244-1.848.572-.352 1.056-.396 1.276-.704l.44-.176c.264-.088.44-.176.836-.396.088-.088.352 0 .396-.176-.132-.088-.176-.088-.44 0-1.012.396-1.232.484-1.892.792-.572.264-1.892 1.144-2.992 2.244-.176.176-.176.132-.484.308l.132.264-.132.088c-.308.132-.44.396-.704.528zM87.8 31.552c.176-.088.264-.22.132-.44l-.528.352c-.352.264-.396.396-.484.66l.528-.352.352-.22zm-5.456 2.596c.836.088 2.992-.748 3.74-1.672-1.672.88-2.904 1.496-3.74 1.672zm9.084-5.324c-.088 0-.22 0-.352-.044-.088-.088-.44-.308-.704-.44-.396-.528-.528-1.1-.352-1.76.132-.308.22-.528.308-.792.044-.044.044-.044.044-.088.044-.264.176-.484.264-.792l.308-.528c.176-.22.264-.44.352-.528.484-.748 1.056-1.276 1.584-1.936.528-.572 1.276-1.1 2.112-1.188.924.176 1.98.352 2.156 1.364.132.616-.22 1.012-.44 1.452.352-.044.66-.396 1.188-.352.264.088.44.308.528.616 0 0 .044.484-.088.836-.044.044-.044.132-.088.22-.132.616-.132 1.276.132 1.892.044.176.176.352.396.484.088.044.176.044.308 0s.308-.044.484-.132c.704-.308 1.408-.836 2.024-1.276.572-.352 1.232-.748 1.848-1.188 1.056-.66.968-.572 1.98-1.232.308-.264.66-.484 1.1-.748l.132.088-.396.528c.088.22.088.22.352.044 0-.088 0-.264.22-.176-.44.66-1.144 1.012-1.716 1.408-.22.176-.528.308-.66.396-.132.132-.308.352-.528.44-.044.044-.176.044-.308.088 0 0 0-.044-.044-.088.044 0 .176-.088.264-.176.176-.088.264-.22.22-.396 0-.044-.088-.088-.132-.088-.352.176-.572.396-.88.616-.528.22-.924.484-1.364.836-.132.044-.264.176-.44.22v.088c.132-.044.264-.044.352-.132.176-.132.308-.132.44-.044 0-.044-.044-.088-.044-.132.308-.132.528-.088.792-.308.264-.176.572-.264.748-.44 0 .088-.044.22-.176.308-.352.176-.704.44-1.056.616a.747.747 0 0 0-.264.264.71.71 0 0 1-.308.176c.132.044.22.044.308.044l-.044.044a.636.636 0 0 1-.308.088v.176c.22-.132.528-.264.748-.396v.088c-.22.176-.528.352-.704.572-.352.396-.748.484-1.188.792-.264.132-.396.088-.616.22-.088.044-.308.132-.44.132-.044 0-.264.088-.396.088-.176 0-.572.088-.748.044-.088-.044-.352-.044-.44-.132-.132-.044-.22-.22-.352-.264-.264-.352-.572-.528-.748-.924-.264-.264-.22-.352-.352-.572-.088-.044-.088-.132-.132-.22-.308.176-.308.616-.616.616-.088.088-.132.22-.22.264-.528.396-1.232.968-1.936 1.276a2.54 2.54 0 0 1-2.112.088zm-.088-1.276c.484 0 1.276-.044 1.716-.22.572-.22.968-.528 1.408-1.012.66-.704.968-1.232 1.628-1.936.044 0 .22-.22.22-.22h-.044c-.968-.088-.616-2.024-.572-2.068-1.32.22-2.86 2.288-3.344 3.124-.396.704-.792 1.452-1.012 2.332zm13.068-2.684c.044 0 .088-.132.088-.176 0-.176.088-.22.176-.264.044-.088.22-.132.352-.176.088-.044.264-.044.352-.088v-.264c.088-.044.132-.132.176-.176 0-.044 0-.088-.044-.088-.088.088-.308.22-.528.352-.308.176-.88.572-.924.66.088.044.264.132.352.22zm7.324-9.416c.132 0 .22 0 .308.044a8.81 8.81 0 0 0-.704 1.056c-.088-.088-.132-.088-.176-.132l-.044.044c0 .088.044.176.044.22-.088 0-.132 0-.22.044h-.088c-.176.352-.704.396-.572.924-.22.044-.352 0-.616 0-.176.22.22.22.264.528-.088-.044-.132 0-.132 0-.22.176-.22.396-.352.528l-.88.836c-.484.528-.968 1.1-1.54 1.584-.044.044-.484 1.76-.572 2.332-.088.704-.176 1.364-.176 2.112 0 .88.088 1.716.44 2.552.176.44.396 1.144 1.144 1.276.968.176 2.464-1.012 3.476-2.332.748-.792 1.232-1.584 1.804-2.332v-.044l.264-1.364c0-.132 0-.22.088-.528.088-.44.132-.66.264-1.188.088-.484.176-.968.352-1.452.176-.66.396-1.32.572-1.804.176-.308.264-.704.44-.968.088-.264.088-.528.22-.748.044-.088.132-.088.132-.176l.264.484c.044-.22.132-.308.22-.44.088-.352.352-.748.484-1.1.044-.22.22-.528.176-.66-.088-.264 0-.264.132-.308.088-.044.088-.132.088-.132l.484-.924c-.22-.088-.352-.088-.44.176l-.22.396c-.088.088-.132.132-.132.176-.088-.044-.176-.044-.176-.088.088-.044.176-.088.22-.132.132-.176.22-.44.264-.616l.264-.924c.132-.176.264-.44.308-.66.044-.088.132-.088.176-.132.22.044.308.132.308.352-.044.264-.264.352-.44.528-.044.044-.088.132-.132.22.088 0 .088 0 .176.044-.088.308-.088.308-.088.396.396-.836.748-1.496 1.144-2.2-.176.22-.176.22-.572.264-.088 0-.088.088-.132.088 0-.088 0-.22.044-.308.396-.748.792-1.584 1.32-2.288.264-.528.66-1.056 1.012-1.452.396-.264.792-.66 1.144-.968.44-.484.968-.352 1.584-.22.22.088.44.176.572.176.22.088.44.264.616.44.088.044.176.088.264.176.044.044.044.132 0 .132.088.264.088.484.176.704-.44.132-.22.308-.352.484l.308.132c0 .132-.044.22-.088.352-.088-.044-.088-.132-.132-.176-.044.044-.088.088-.132.088.088.088.176.264.22.352-.44.044-.396.396-.44.528-.088.22-.044.396-.132.572.132.088.352.132.352.176-.132.22-.44.396-.484.704.22.22-.176.44-.132.704 0 0 .044-.044.044-.088l.088.132c.088.044.088.132-.088.176-.176.044-.264.176-.352.352h.352c-.22.176-.44.44-.396.66l-.22.396c-.088.132 0 .22.044.308.044.22-.044.44-.132.704-.044-.044-.088-.044-.088-.044-.044-.088-.044-.132-.088-.132s-.088.132-.132.176l.132.088v.044c-.176-.044-.308-.044-.308.22 0 .088-.132.22-.176.308-.088.044-.088.044-.044.132.044-.088.22-.176.308-.308.044.22-.088.572-.352.616-.044.044-.176 0-.22.044-.352.748-.792 1.364-1.144 1.98-.088.088-.088.22-.132.22-.22.572-.572.968-.88 1.364-.044.088-.088.264-.308.132-.042-.042-.126.038-.21.083.122.005.21.005.298.049a4.71 4.71 0 0 0-.66.968c-.088-.044-.132-.044-.176-.044h-.044c0 .044.044.132.044.176-.088 0 0 0-.044.044h-.088c-.176.352-.704.44-.572.792-.22.088-.22.044-.484.044-.264.22-.044.088.22.396 0 .132-.132.132-.132.132-.22.176-.22.264-.352.396l-1.76 1.76c-.484.484-.924 2.024-.968 2.552-.088.66-.176 1.276-.132 1.892.088.396.088 1.056.528 1.848.22.396.44.66.748.836.836.484 1.144.176 1.804-.308.704-.308.264 1.584-.616 1.716-.572.088-1.012.264-1.804-.22a3.229 3.229 0 0 1-.572-.44c-.22-.22-.396-.44-.704-.704-.22-.308-.264-.616-.528-.924-.176-.352-.176-.352-.264-.792-.176-1.012-.132-1.144-.176-2.2a51.795 51.795 0 0 1-1.584 1.936c-.44.484-1.408 1.232-2.068 1.54-.704.352-1.584.396-2.376-.088-.22-.132-.44-.352-.572-.308-.22-.264-.396-.528-.66-.836-.22-.308-.264-.66-.528-1.056-.132-.396-.308-.88-.396-1.364-.132-1.1 0-1.672 0-2.992 0-.308.088-.836.132-1.144l.264-1.452.308-1.452c0-.176 0-.264.088-.616.132-.484.176-.704.308-1.32.132-.484.22-1.1.44-1.672.176-.66.44-1.364.616-1.98.176-.308.308-.704.484-1.056.088-.264.088-.528.264-.792.044-.088.132-.132.132-.22l.22.616c.088-.22.176-.352.264-.528.088-.396.352-.836.528-1.232.044-.22.22-.572.176-.704-.088-.308 0-.308.176-.352.088 0 .088-.088.088-.088.176-.352.308-.748.484-1.056-.22-.088-.352-.088-.44.176a2.055 2.055 0 0 0-.22.44c-.088.088-.132.176-.132.22-.088-.044-.176-.044-.176-.132.088-.044.176-.088.22-.176.132-.22.22-.44.264-.616.132-.308.22-.66.308-1.012.132-.22.308-.484.352-.748.044-.088.132-.088.176-.176.22.044.308.176.308.44-.088.264-.308.396-.484.572-.044.044-.088.132-.132.22.088 0 .088 0 .176.044-.088.352-.088.352-.088.44.396-.88.792-1.584 1.188-2.376-.176.22-.176.22-.572.22-.088 0-.088.088-.132.088 0-.088 0-.22.044-.352.44-.748.88-1.672 1.408-2.464.308-.572.704-1.144 1.1-1.54a27.53 27.53 0 0 0 1.144-1.1c.484-.484 1.012-.352 1.628-.176.176.088.396.176.528.264.22.088.44.264.616.44l.264.22a.134.134 0 0 1 0 .176c.044.352.044.572.132.792-.44.088-.22.352-.352.572l.308.132c0 .132-.088.22-.132.352-.088-.044-.088-.132-.132-.176-.044.044-.088.044-.132.044.088.132.176.308.22.44-.44 0-.308.396-.352.572-.132.22-.088.484-.176.66.132.088.352.176.352.22-.132.176-.176.396-.264.748.22.264-.22.44-.22.748 0 0 .044-.044.044-.088l.088.132c.088.132.088.22-.088.264-.176.044-.264.176-.396.352h.352c-.22.22-.44.528-.528.748-.088.132-.176.308-.264.396-.088.132 0 .264.044.352.044.264-.044.528-.132.792-.044-.044-.088-.044-.088-.044-.044-.088-.044-.132-.088-.176-.044.044-.088.176-.132.22l.132.088v.044c-.176-.044-.308-.044-.352.264 0 .088-.132.22-.176.308-.088.044-.088.088-.044.176.044-.088.22-.22.308-.352.044.264-.088.616-.352.66-.044.044-.176 0-.22.044-.396.792-.704 1.54-1.056 2.2.044.088.044.22 0 .264-.264.572-.66 1.012-.968 1.452-.044.088-.132.308-.308.132-.042-.042-.126.038-.25.122l-.014.01zm-2.948-1.012c-.22.66-.396 1.32-.704 1.936-.044.132-.176.264-.264.528-.044.264 0 .572-.044.836l1.056-1.188a39.488 39.488 0 0 0 1.628-2.156c.352-.352.66-.792.924-1.188.352-.528.616-1.056.968-1.628.396-.88.792-1.628 1.232-2.552.264-.616.616-1.364.836-2.156.308-.748.484-1.496.616-2.332.264-.704.308-1.496.484-2.244-.044 0-.088 0-.176-.044l-.308.264a.92.92 0 0 1-.176.264c-.396.396-.836.792-1.1 1.276-.396.484-.792.968-1.012 1.54-.176.572-.616 1.056-.924 1.54-.22.44-.528.88-.704 1.32-.22.44-.44 1.012-.616 1.496-.088.176-.176.396-.264.528-.22.396-.308.748-.44 1.056-.132.308-.264.572-.264.792-.088.264-.044.44-.132.66-.176.396-.352 1.012-.616 1.452zm2.549-8.939a.406.406 0 0 0 .003.007l-.003-.007zm.003.007c-.088-.044-.176-.044-.264-.044v.396h.088c.088-.132.088-.264.176-.352.044-.088.22-.22.308-.352.352-.616.748-1.1 1.144-1.716.044-.22.22-.44.308-.572 0-.044-.044-.132-.044-.132a4.66 4.66 0 0 0-.44.528c-.176.396-.528.66-.66 1.1-.044.088-.176.132-.264.22-.088.044-.088.088-.132.176-.088.132-.22.22-.352.352l-.308.176c.132 0 .264-.088.308-.044.043 0 .086.167.129.257l.003.007zm4.356-1.408c-.044.308-.044.616-.132.968-.088.264-.088.572-.352.792-.088.044 0 .176 0 .264 0 .088.044.132.088.22h-.088c-.088.088-.308.264-.308.352.044.176 0 .352-.088.528-.088.088-.088.22-.132.396a.53.53 0 0 1-.22.22c-.176.484-.352.88-.44 1.232-.22.396-.528.792-.44 1.364-.132-.264-.132-.176-.22 0 0 .044-.044.132-.088.22-.22.44-.484.88-.704 1.276-.352.616-.748 1.232-1.056 1.804a.714.714 0 0 0-.22.396c-.132.132-.176.308-.308.396-.044.044-.088.088-.132.088-.132.308-.396.572-.616.836-.044.132-.308.44-.308.528-.176.308-.396.484-.572.66-.22.22-.352.528-.484.748-.44.396-.792.792-1.144 1.232-.132.176-.264.396-.44.572.308-.088.484-.264.66-.44.308-.22.616-.616.88-.968.572-.44 1.012-1.056 1.496-1.496l.396-.484c.176-.22.352-.572.572-.836.308-.528.66-1.056 1.012-1.584.176-.176.44-.22.396-.572.264-.088.352-.352.44-.572.176-.528.484-.924.704-1.452.132-.176.176-.396.308-.572.044-.132.088-.264.22-.484a.747.747 0 0 1-.264-.264c.176-.044.264-.044.352-.088a.92.92 0 0 1-.176-.264c.132-.044.22 0 .396-.044a1.167 1.167 0 0 1-.264-.22c.176-.088.396-.176.572-.308 0-.044 0-.044-.044-.088-.132 0-.22 0-.308-.044.528-.44.792-1.144.572-1.408.132-.264.308-.528.308-.792 0-.308.044-.484.396-.572l-.352-.132c.044-.044.044-.088.132-.132h.22c-.22-.176-.22-.308-.044-.616.088-.264 0-.616.044-.968 0-.132.044-.352 0-.484.176-.308.132-.352-.176-.396 0 .352.132.616.176.88-.088.132-.176.22-.22.308zm-.044 16.632c-.044.264-.484 1.144-.528 1.408.352-.308 1.144-1.188 1.496-1.628l1.716-2.024c.308-.308.616-.924.88-1.276.308-.572.572-.968.924-1.496.352-.792.704-1.54 1.144-2.332.22-.572.572-1.276.748-1.936.264-.704.44-1.408.528-2.156.264-.572.264-1.32.396-2.068-.044.044-.088.044-.176 0-.044.088-.176.176-.264.264a.92.92 0 0 1-.176.264c-.396.308-.836.748-1.056 1.188-.396.396-.748.836-.968 1.408-.176.528-.572.968-.88 1.364-.176.44-.484.836-.66 1.232l-.572 1.32c-.044.176-.132.352-.22.528-.22.352-.308.704-.396.968-.132.264-.264.528-.264.704-.088.176 0 .352-.088.572-.176.352-.352.924-.572 1.364-.22.572-.352 1.144-.66 1.76-.044.044-.308.308-.352.572zm3.253-10.435a.406.406 0 0 0 .003.007l-.003-.007zm.003.007c-.088-.044-.176-.044-.264-.044v.352h.088c.088-.088.088-.22.176-.308.044-.088.22-.22.308-.308.308-.616.704-1.012 1.056-1.584.044-.22.22-.44.308-.528 0-.044-.044-.132-.044-.132l-.44.484a2.422 2.422 0 0 1-.616 1.012c-.044.044-.176.088-.264.176-.088.088-.088.132-.132.22-.044.088-.176.176-.308.308l-.308.132c.132 0 .264-.088.308-.044.043 0 .086.167.129.257l.003.007zm4.488-.836c.088-.22 0-.528.044-.836 0-.132 0-.352-.044-.484.176-.22.132-.264-.176-.308 0 .264.132.528.22.792-.088.132-.176.22-.22.264-.044.264-.044.528-.088.836-.088.22-.088.528-.352.792-.088.044 0 .132 0 .22 0 .044.044.088.132.176h-.088c-.088.088-.308.264-.308.352a.512.512 0 0 1-.088.44c-.088.044-.088.176-.088.352a.53.53 0 0 1-.22.22c-.176.396-.352.836-.396 1.144.044 0-.572 1.144-.616 1.188 0 .044-.044.132-.088.22-.22.396-.44.836-.66 1.188-.352.528-.88 1.1-1.188 1.628-.132.132-.132.22-.132.396-.132.132-.088.264-.088.352-.044.044-.088.044-.132.044-.132.264-.484.528-.66.748-.044.132-.308.44-.308.528-.176.308-.484.44-.572.572-.176.22-.44.66-.572.836-.44.352-.836.792-1.188 1.144-.132.22-.264.44-.308.484.176.044.352-.176.528-.352.308-.22.704-.572.924-.924.572-.396 1.144-1.1 1.584-1.496l.396-.484c.176-.22.176-.484.308-.748.264-.484.528-.968 1.056-1.452.176-.132.572-.176.528-.528.22-.132.308-.352.396-.484.176-.484.44-.836.66-1.364.132-.132.176-.352.308-.528 0-.132-.088-.264.044-.44-.088 0-.044-.088-.132-.22.176-.044.264-.044.352-.088a.772.772 0 0 1-.176-.22c.132-.044.22 0 .396-.044-.088-.044-.176-.132-.308-.176.176-.088.396-.176.572-.308 0-.044 0-.044-.044-.088-.132 0-.22 0-.308-.044.528-.396.616-1.1.528-1.232 0-.22.176-.528.132-.792 0-.22.176-.396.528-.484l-.352-.132c.044-.044.044-.088.132-.132h.22c-.22-.176-.22-.264-.088-.528zm-8.492.088v-.044a60.156 60.156 0 0 0-1.716 3.344h.044c.132-.22.308-.484.352-.616.132-.22.22-.484.352-.704.132-.264.308-.396.396-.704.132-.176.22-.396.352-.66.044-.132.22-.352.22-.616zm-6.644 1.672c-.352 0-.616.484-.44 1.012.132-.352.352-.66.44-1.012zm-2.552 8.052c.264-.88.616-1.804.88-2.816.044-.264.176-.484.308-.792.132-.616.22-1.188.66-1.628-.044 0-.088.044-.22.044.132-.176 0-.528.308-.44.044.044.088-.044.088-.044.044-.176.132-.308.22-.44l-.308-.132c-.968 2.288-1.496 4.312-2.112 6.644.044 0 0 .44.044.44.088-.264.044-.572.132-.836zm7.392-5.676v-.044l-.396-.132c-.22.352-.484.792-.748 1.144.44-.088.352-.836 1.1-.66l-.396-.176c0-.044 0-.044.044-.044.132-.044.22-.044.396-.088zm9.504.22v-.044c-.704.968-1.1 2.024-1.584 2.992h.044c.088-.176.264-.44.308-.484.132-.22.22-.484.352-.66.088-.22.132-.396.22-.704.132-.132.22-.352.352-.572 0-.132.176-.308.308-.528zm-6.996 2.596c.132-.308.352-.616.396-.88-.352 0-.572.44-.396.88zm-.132.748c-.88 2.068-1.364 3.872-1.892 5.984.044 0 0 .396.044.396.088-.264.044-.528.132-.748.22-.792.528-1.672.748-2.596.044-.176.176-.396.308-.704.088-.528.176-1.056.616-1.408-.044 0-.088.044-.22.044.088-.176-.044-.528.264-.44.044.044.088-.044.088-.044.044-.176.132-.264.22-.396-.088-.044-.22-.044-.308-.088zm5.016.308v-.044c-.132-.044-.132-.088-.264-.088-.088.132-.176.308-.264.484.088-.088.22-.132.484-.088-.22-.088-.176-.088-.264-.132 0-.044 0-.044.044-.044.132-.044.088-.044.264-.088zm-.715.803c.022-.055.033-.121.055-.187a.994.994 0 0 1-.072.17l.017.017zm-14.949 6.501c.132-.616.132-1.144.176-1.672-.176.484-.176 1.056-.176 1.672zm8.228 2.024a3.562 3.562 0 0 0 0 .968c.044-.396.088-.748.088-1.1-.044.044-.088.088-.088.132zm9.7-7.436c-.132-.088-.352-.176-.484-.308-.264-.308-.352-.66-.264-1.1.22-.66.704-.968 1.276-1.276.044-.044.22-.044.22-.044.484-.044.748.088.836.396.132.44.308.924.132 1.408-.176.484-.572.748-.968 1.012a.78.78 0 0 1-.748-.088zm6.028 3.96c.088.088.132.352-.088.748-.044.044-.132.044-.176.044-.088 0-.132 0-.22.044a.962.962 0 0 1 .22.132c-.044.088-.132.088-.22.22 0 .044-.132 0-.22 0 .044.176-.044.308-.22.44-.132.132-.22.264-.396.176-.044-.088 0-.22-.044-.308h-.044c0 .044-.044.044-.044.088 0 .176-.044.22-.22.22-.044 0-.132.088-.176.132-.044.088-.044.264 0 .264.176.132.044.176-.044.22l-.44.44s-.044-.044-.088-.044l.22-.264s0-.044.044-.088c-.44.22-.748.572-.616.792.044-.044.088-.132.132-.132.132 0 .22-.044.352-.044 0 .044.044.132 0 .22-.132 0-.22 0-.352.088.044.044.044.088.088.176.132-.088.264-.176.396-.22 0-.264.176-.396.308-.572.44-.352.792-.792 1.144-1.188.044 0 .088-.044.132-.044l.044.044c-.264.352-.528.704-.88 1.1-.176.22-.44.44-.704.66a2.418 2.418 0 0 1-.308.396.472.472 0 0 0-.088.264c.132-.132.308-.264.44-.352-.088.264-.352.396-.616.616-.044.044-.088.132-.132.22.044 0 .044 0 .088.044.132-.088.264-.22.44-.352 0 .088.044.132 0 .176-.176.176-.352.352-.484.528-.088.088-.132.22-.22.308l-.22.22c-.352.22-.66.572-.924.924-.176.22-.396.396-.66.572-.176.176-.44.22-.704.308-.264.132-.572.264-.88.44-.352.088-.572-.044-.88-.132-.44-.088-.616-.484-.924-.704-.088-.044-.088-.176-.132-.264a.958.958 0 0 0-.22-.352c-.044-.176-.176-.264-.22-.44-.088-.748.088-1.584.308-2.376.088-.572.264-1.144.44-1.716.176-.792.396-1.54.616-2.376v-.352c-.044-.176 0-.308.176-.308.132-.044.264-.132.396.088s.44.352.572.572c.176.132.396.308.484.484.088.176.088.44.044.66 0 .264-.088.484-.176.704-.132.528-.308 1.056-.484 1.628a2.692 2.692 0 0 0-.22.528c-.044.088-.088.132-.088.22.132.396-.132.792-.176 1.232 0 .396-.132.792-.176 1.232.484-.132.88-.308 1.232-.616.704-.616 1.496-1.232 2.156-1.892.704-.616 1.32-1.32 1.98-1.936.528-.484 1.1-.968 1.672-1.54zm-2.068 3.608l.264-.308c.044 0 .044 0 .088.044-.044.132-.088.264-.176.44-.044-.044-.132-.088-.176-.176zm-1.32.176c.176-.132.308-.264.44-.396-.44 0-.528.528-.924.704v.044c.264-.088.484-.176.748-.264 0-.044-.044-.044-.044-.088-.044 0-.088.044-.176.044l-.044-.044zm3.672 1.716c-.088 0-.22 0-.352-.044-.088-.088-.44-.308-.704-.44-.396-.528-.528-1.1-.352-1.76.132-.308.22-.528.308-.792.044-.044.044-.044.044-.088.044-.264.176-.484.264-.792l.308-.528c.176-.22.264-.44.352-.528.484-.748 1.056-1.276 1.584-1.936.528-.572 1.276-1.1 2.112-1.188.924.176 1.98.352 2.156 1.364.132.616-.22 1.012-.44 1.452.352-.044.66-.396 1.188-.352.264.088.44.308.528.616 0 0 .044.484-.088.836-.044.044-.044.132-.088.22-.132.616-.132 1.276.132 1.892.044.176.176.352.396.484.088.044.176.044.308 0s.308-.044.484-.132c.704-.308 1.408-.836 2.024-1.276.572-.352 1.232-.748 1.848-1.188 1.056-.66.968-.572 1.98-1.232.308-.264.66-.484 1.1-.748l.132.088-.396.528c.088.22.088.22.352.044 0-.088 0-.264.22-.176-.44.66-1.144 1.012-1.716 1.408-.22.176-.528.308-.66.396-.132.132-.308.352-.528.44-.044.044-.176.044-.308.088 0 0 0-.044-.044-.088.044 0 .176-.088.264-.176.176-.088.264-.22.22-.396 0-.044-.088-.088-.132-.088-.352.176-.572.396-.88.616-.528.22-.924.484-1.364.836-.132.044-.264.176-.44.22v.088c.132-.044.264-.044.352-.132.176-.132.308-.132.44-.044 0-.044-.044-.088-.044-.132.308-.132.528-.088.792-.308.264-.176.572-.264.748-.44 0 .088-.044.22-.176.308-.352.176-.704.44-1.056.616a.747.747 0 0 0-.264.264.71.71 0 0 1-.308.176c.132.044.22.044.308.044l-.044.044a.636.636 0 0 1-.308.088v.176c.22-.132.528-.264.748-.396v.088c-.22.176-.528.352-.704.572-.352.396-.748.484-1.188.792-.264.132-.396.088-.616.22-.088.044-.308.132-.44.132-.044 0-.264.088-.396.088-.176 0-.572.088-.748.044-.088-.044-.352-.044-.44-.132-.132-.044-.22-.22-.352-.264-.264-.352-.572-.528-.748-.924-.264-.264-.22-.352-.352-.572-.088-.044-.088-.132-.132-.22-.308.176-.308.616-.616.616-.088.088-.132.22-.22.264-.528.396-1.232.968-1.936 1.276a2.54 2.54 0 0 1-2.112.088zm-.088-1.276c.484 0 1.276-.044 1.716-.22.572-.22.968-.528 1.408-1.012.66-.704.968-1.232 1.628-1.936.044 0 .22-.22.22-.22h-.044c-.968-.088-.616-2.024-.572-2.068-1.32.22-2.86 2.288-3.344 3.124-.396.704-.792 1.452-1.012 2.332zm13.068-2.684c.044 0 .088-.132.088-.176 0-.176.088-.22.176-.264.044-.088.22-.132.352-.176.088-.044.264-.044.352-.088v-.264c.088-.044.132-.132.176-.176 0-.044 0-.088-.044-.088-.088.088-.308.22-.528.352-.308.176-.88.572-.924.66.088.044.264.132.352.22z" fill="#263F71" fill-rule="evenodd"/></svg>