<svg width="36" height="36" xmlns="http://www.w3.org/2000/svg"><g fill="none" fill-rule="evenodd"><circle fill="#1878DC" cx="18" cy="18" r="18"/><path d="M13.343 17.485a.434.434 0 0 1 .376.192c.157.214.255.372.256.636 0 .057-.004.088-.01.144-.025.217-.095.334-.21.518-.073.117-.075.208-.133.336a1.753 1.753 0 0 0-.182.633c-.011.382-.016.597-.007.979.004.19.048.296.048.485.002.397-.23.8-.627.8-.393.001-.768-.519-.748-1.067.01-.197.04-.306.077-.499.058-.303.106-.647.161-.778.076-.173.07-.235.085-.288l.045-.314c0-.128.05-.155.072-.28.043-.27.074-.42.16-.682.053-.16.127-.234.182-.392.082-.228.214-.423.455-.423zm2.429-1.524c.34 0 .491.28.658.578.165.288.348.444.348.772 0 .33-.216.496-.47.706-.145.12-.27.095-.46.152-.087.027-.104.144-.116.25-.02.19-.034.298-.038.489-.008.318.003.498.004.815-.033.177-.004.295-.086.452a.655.655 0 0 1-.625.373c-.33 0-.611-.26-.605-.59 0-.099.042-.395.037-.65-.01-.384-.04-.603-.04-.988-.001-.193.085-.295.085-.49v-.162c-.005-.141.133-.269.277-.384.207-.165.293-.35.39-.596.16-.407.249-.727.64-.727zm-2.431-.897c.194 0 .333.096.435.264.1.166.184.268.184.462 0 .034-.01.053-.01.086a.6.6 0 0 1-.609.594c-.33-.002-.573-.341-.572-.631 0-.116.072-.19.084-.316.031-.3.222-.46.488-.459zm8.819-1.14c.323 0 .644.12.635.533-.004.245-.132.364-.219.59-.073.188-.035.314-.085.509-.077.289-.199.259-.182.748a15.5 15.5 0 0 1-.007.94c-.014.353-.304.602-.657.607-.308.006-.622-.358-.62-.666 0-.219.062-.337.075-.557.01-.19-.004-.299.009-.489.019-.324.108-.497.208-.807.05-.153.047-.252.106-.402.084-.22.108-.344.238-.556.056-.24.236-.452.499-.45zm3.793-2.096c.408.001.614.402.603.846 0 .042-.015.064-.015.106 0 .113.017.175.017.288 0 .105-.037.384-.037.384 0 .216-.065.335-.065.552 0 .061.018.096.018.158 0 .124-.018.193-.029.317-.025.304.182.324.25.464.146.068.219.195.386.195.076 0 .311-.099.374-.12.306-.135.483-.208.777-.364.455-.24.643-.434 1.087-.712.293-.187.566-.372.914-.371.29 0 .56.215.642.414.038.097.093.221.093.349 0 .046.02.07.02.116 0 .066-.001.105-.009.172-.02.188-.017.304-.085.48-.071.18-.193.246-.356.354a.883.883 0 0 1-.548.181h-.115c-.155 0-.223-.048-.378-.048-.244 0-.393.099-.61.207-.258.128-.552.296-.642.339a16.7 16.7 0 0 0-1.247.678c-.975.582-1.648.893-2.593 1.52-.365.243-.464.361-.853.565-.238.128-.403.154-.632.298a4.05 4.05 0 0 0-.913.748c-.278.237-.678.65-1.018.822-.314.16-.675.457-.9.728-.045.056-.265.196-.294.528l.071.91c.001.172-.08.287-.068.49l.01.642c0 .24.081.266.081.466l.008.256c0 .303.12.46.124.76-.029.325.004.468.012.778.01.302.054.485.127.777.054.218.036.337.131.538.138.299.2.465.348.76.098.198.159.36.159.58 0 .431-.344.7-.806.749-.041.004-.395.006-.539-.09-.18-.124-.23-.358-.242-.574-.013-.301-.006-.414-.056-.721.003-.16-.038-.247-.08-.398-.091-.343-.155-.54-.164-.894-.009-.456.028-.712.028-1.169-.02-.3-.043-.47-.079-.77-.038-.296-.096-.469-.13-.763-.061-.499-.061-.778-.09-1.28-.009-.123-.009-.188-.022-.31-.002-.151-.066-.223-.166-.224-.206 0-.294.15-.473.253-.25.138-.377.273-.588.465-.425.312-.602.491-.946.865-.226.246-.333.412-.584.632-.202.177-.334.264-.527.45-.16.153-.214.275-.336.462-.11.165-.214.231-.364.362-.545.48-.65.462-1.322 1.313-.198.25-.344.285-.393.367-.01.017-.233.2-.313.28-.111.11-.281.273-.378.35-.214.172-.292.326-.499.509-.234.205-.381.331-.68.43-.14.045-.194.095-.342.095-.306 0-.515-.29-.515-.596 0-.194.096-.267.211-.422a3.8 3.8 0 0 1 .652-.7c.46-.403.621-.743 1.13-1.083.178-.117.623-.363.744-.456.205-.157.39-.339.552-.54.071-.092.152-.116.22-.21.073-.102.097-.176.183-.27.193-.208.34-.294.575-.458.305-.214.478-.309.767-.545.206-.168.295-.313.46-.52.326-.406.632-.515 1.055-.823.196-.143.26-.28.412-.47.084-.103.363-.463.643-.708.186-.164.3-.25.488-.412.324-.28.438-.18.43-.609 0-.074.02-.177-.09-.169-.103.01-.13.096-.206.163-.16.141-.258.21-.47.208-.434-.008-.71-.396-.723-.422-.123-.243-.321-.981-.329-1.209 0 0-.014-.306 0-.48.016-.219.073-.618.209-.855.074-.131.142-.651.233-1.13.033-.175.13-.352.187-.521.08-.244.12-.392.266-.603.26-.372.404-.792.858-.79.102 0 .149.025.24.07.059.03.124.042.16.096.03.05.002.094.049.13.085.066.124.202.124.337 0 .078 0 .123-.008.199-.035.306-.22.43-.412.67a1.953 1.953 0 0 0-.35.588c-.096.224-.119.457-.166.697a8.592 8.592 0 0 0-.123.73c-.007.062-.014.115-.014.18 0 .07.053.203.124.203.113 0 .214-.135.252-.242.091-.248.16-.37.223-.627a4.01 4.01 0 0 1 .294-.84c.178-.384.197-.629.3-.944.125-.38.233-.73.634-.728.128 0 .211 0 .322.065.251.14.313.379.313.666a2.65 2.65 0 0 1-.014.228c-.092.859-.306 1.322-.377 2.187-.01.122 0 .194-.01.317-.019.216-.068.334-.067.552 0 .098.021.152.05.244.013.05.03.107.081.107.1 0 .142-.072.226-.125.162-.102.271-.136.43-.24.247-.163.406-.228.644-.402.243-.177.492-.451.743-.614.247-.16.278-.119.542-.285.32-.203.514-.307.816-.535.181-.14.188-.237.45-.384.252-.143.398-.22.643-.373.13-.083.196-.146.335-.21.116-.055.231-.108.231-.236-.001-.128-.08-.202-.146-.31a.688.688 0 0 1-.112-.426c0-.09-.003-.159.011-.248.057-.355.195-.542.194-.902l.011-.117c-.017-.013-.026-.03-.048-.03-.05 0-.08.065-.11.104-.093.106-.146.173-.235.282-.12.142-.198.218-.278.384-.048.09-.04.154-.077.25-.083.206-.142.328-.21.54-.189.568-.175 1.32-.776 1.32a.712.712 0 0 1-.715-.709c0-.227.065-.573.093-.599.096-.081.019-.299.075-.35.047-.039.066-.238.066-.433 0-.091.025-.145.025-.234l.01-.146c0-.164.051-.25.075-.411.049-.327.134-.407.161-.5.016-.055.012-.08.03-.134.106-.296.082-.473.372-.718.104-.103.17-.214.317-.214.339 0 .433.194.52.186.16-.016.212-.138.325-.248.342-.329.562-.729 1.041-.728zm-2.896-1c.293.001.59.197.578.489-.01.233-.083.28-.134.364-.079.131-.049.35-.494.393-.235-.001-.525-.27-.525-.573 0-.342.232-.673.575-.673zM15.227 6c.46.002.703.363.79.481.04.12.073.24.115.488a.94.94 0 0 1 .01.13c0 .201-.05.316-.125.503-.064.162-.092.264-.211.393-.173.187-.296.244-.347.312-.023.033-.2.198-.252.273a6.12 6.12 0 0 0-.333.56c-.066.14-.06.373-.294.697-.095.133-.177.199-.228.354-.052.158-.05.261-.135.403-.153.26-.294.371-.421.643-.122.263-.127.433-.209.709-.086.29-.285.404-.315.702-.016.14.016.222 0 .365-.046.428-.343.582-.556.958-.078.14-.078.243-.104.402a3.047 3.047 0 0 1-.143.558c-.12.36-.11.586-.18.96-.047.244-.075.384-.115.628-.02.128-.096.19-.096.322l.001.125c0 .085-.052.126-.057.211-.015.193-.05.298-.076.489-.13.96-.309 1.478-.542 2.42-.084.34-.082.542-.16.881-.06.253-.114.394-.134.654-.016.206-.013.321-.028.527-.017.237.01.372.01.61.001.137-.01.214-.027.35-.098.775-.267 1.342-.284 1.987v.423l-.066.614v.105c.002.326-.299.643-.589.643-.394 0-.52-.414-.583-.827-.04-.26-.082-.409-.119-.67-.02-.147-.09-.213-.124-.357-.01-.05-.007-.08-.014-.125A40.496 40.496 0 0 0 9.01 23.7c-.097-.385-.202-1.102-.218-1.12-.02-.02-.071-.298-.093-.571-.013-.161-.073-.332-.085-.403-.01-.079.02-.124.006-.202-.036-.218-.048-.343-.096-.557a6.15 6.15 0 0 1-.108-.528v-.087c-.027-.376-.147-.819-.214-1.344-.03-.237-.018-.376-.039-.614-.018-.189-.032-.445-.12-.48-.123-.048-.162.128-.207.22-.1.199-.158.31-.242.518-.118.298-.16.475-.294.768-.15.323-.205.515-.341.845-.107.26-.277.493-.525.5-.21.004-.423-.229-.433-.422-.01-.154.07-.5.175-.781a8.61 8.61 0 0 0 .259-.769c.067-.257.11-.33.18-.602.09-.355.228-.59.326-.943.114-.416.227-.606.363-1.016a7.68 7.68 0 0 0 .161-.528c.025-.092.122-.372.182-.614.046-.19.082-.391.133-.48.1-.152.271-.19.455-.189.385 0 .646.202.65.584.003.255-.034.557.013.816.003.177.03.107.056.279.106.676.153.762.207 1.295.068.307.115.861.115.861 0 .217.08.59.13.8.046.207-.002.29.074.614a5.7 5.7 0 0 1 .101.653c.008.11.035.32.055.428.012.08.029.25.08.517.062.182.041.334.126.529.021.051.052.107.109.107.048.001.094-.074.127-.14.112-.211.102-.345.184-.572.103-.284.147-.472.191-.75.075-.316.151-.918.294-1.496.146-.583.202-.918.314-1.506.077-.403.16-.647.23-1.028.04-.182.094-.282.093-.47.015-.108.047-.175.067-.288.077-.4.147-.686.18-1.027v-.095c.019-.072.045-.238.135-.414.094-.285.184-.436.344-.69.238-.378.203-.669.344-1.094.02-.032.125-.265.149-.447a.803.803 0 0 0 .106-.302c.055-.063.288-1.043.45-1.438.008-.097.091-.22.136-.357.039-.13.27-.721.378-1.083.091-.292.063-.48.183-.758a4.13 4.13 0 0 0 .238-.797c.074-.183.145-.278.26-.44.162-.235.267-.388.533-.492.124-.048.209-.1.34-.1z" fill="#FFF"/></g></svg>